<REAPER_PROJECT 0.1 "6.27-beta/macOS-arm64" 1655509338
  RIPPLE 0
  GROUPOVERRIDE 0 0 0
  AUTOXFADE 1
  ENVATTACH 1
  POOLEDENVATTACH 0
  MIXERUIFLAGS 11 48
  PEAKGAIN 1
  FEEDBACK 0
  PANLAW 1
  PROJOFFS 0 0 0
  MAXPROJLEN 0 600
  GRID 3199 8 1 8 1 0 0 0
  TIMEMODE 1 5 -1 30 0 0 -1
  VIDEO_CONFIG 0 0 256
  PANMODE 3
  CURSOR 35.55555555555556
  ZOOM 9.1357907894004 0 0
  VZOOMEX 6 0
  USE_REC_CFG 0
  RECMODE 1
  SMPTESYNC 0 30 100 40 1000 300 0 0 1 0 0
  LOOP 0
  LOOPGRAN 0 4
  RECORD_PATH "" ""
  <RECORD_CFG
  >
  <APPLYFX_CFG
  >
  RENDER_FILE ""
  RENDER_PATTERN ""
  RENDER_FMT 0 2 0
  RENDER_1X 0
  RENDER_RANGE 1 0 0 18 1000
  RENDER_RESAMPLE 3 0 1
  RENDER_ADDTOPROJ 0
  RENDER_STEMS 0
  RENDER_DITHER 0
  TIMELOCKMODE 1
  TEMPOENVLOCKMODE 1
  ITEMMIX 0
  DEFPITCHMODE 589824 0
  TAKELANE 1
  SAMPLERATE 44100 0 0
  <RENDER_CFG
  >
  LOCK 1
  <METRONOME 6 2
    VOL 0.25 0.125
    FREQ 800 1600 1
    BEATLEN 4
    SAMPLES "" ""
    PATTERN 2863311530 2863311529
  >
  GLOBAL_AUTO -1
  TEMPO 135 4 4
  PLAYRATE 1 0 0.25 4
  SELECTION 0 0
  SELECTION2 0 0
  MASTERAUTOMODE 0
  MASTERTRACKHEIGHT 0 0
  MASTERPEAKCOL 16576
  MASTERMUTESOLO 0
  MASTERTRACKVIEW 0 0.6667 0.5 0.5 -1 -1 -1 0 0 0 -1 -1 0
  MASTERHWOUT 0 0 1 0 0 0 0 -1
  MASTER_NCH 2 2
  MASTER_VOLUME 1 0 -1 -1 1
  MASTER_FX 1
  MASTER_SEL 0
  <MASTERPLAYSPEEDENV
    EGUID {83E3A6FF-C10C-D94D-9707-5EDEB3365A3E}
    ACT 0 -1
    VIS 0 1 1
    LANEHEIGHT 0 0
    ARM 0
    DEFSHAPE 0 -1 -1
  >
  <TEMPOENVEX
    EGUID {EC31DCE5-EC5C-9F4A-AF9C-AE9BA93653BC}
    ACT 0 -1
    VIS 1 0 1
    LANEHEIGHT 0 0
    ARM 0
    DEFSHAPE 1 -1 -1
  >
  <PROJBAY
  >
  <TRACK {A9B2CEAA-2219-0C44-A41E-3CC95A47FC52}
    NAME drum
    PEAKCOL 16576
    BEAT -1
    AUTOMODE 0
    VOLPAN 1.25091063039874 0 -1 -1 1
    MUTESOLO 0 0 0
    IPHASE 0
    PLAYOFFS 0 1
    ISBUS 0 0
    BUSCOMP 0 0 0 0 0
    SHOWINMIX 1 0.6667 0.5 1 0.5 -1 -1 -1
    FREEMODE 0
    SEL 0
    REC 0 0 1 0 0 0 0
    VU 2
    TRACKHEIGHT 0 0 0 0 0 0
    INQ 0 0 0 0.5 100 0 0 100
    NCHAN 2
    FX 1
    TRACKID {A9B2CEAA-2219-0C44-A41E-3CC95A47FC52}
    PERF 0
    MIDIOUT -1
    MAINSEND 1 0
    <FXCHAIN
      WNDRECT 32 442 1013 581
      SHOW 0
      LASTSEL 0
      DOCKED 0
      BYPASS 0 0 0
      <AU "AUi: sforzando (Plogue Art et Technologie)" "Plogue Art et Technologie: sforzando" "" 1635085685 1347176273 1347178311
        6QMAAAAAAAAAAAAAAgAAAAEAAAAAAAAAAgAAAAAAAACDGgAAPD94bWwgdmVyc2lvbj0iMS4wIiBlbmNvZGluZz0iVVRGLTgiPz4KPCFET0NUWVBFIHBsaXN0IFBVQkxJ
        QyAiLS8vQXBwbGUvL0RURCBQTElTVCAxLjAvL0VOIiAiaHR0cDovL3d3dy5hcHBsZS5jb20vRFREcy9Qcm9wZXJ0eUxpc3QtMS4wLmR0ZCI+CjxwbGlzdCB2ZXJzaW9u
        PSIxLjAiPgo8ZGljdD4KCTxrZXk+QXJpYURhdGE8L2tleT4KCTxkYXRhPgoJUTBWSFVOd0VBQUI0bklWVXdZNmJNQkM5NXlzczM3TmdsckNKQkZuUnpiYmlrSFpWMGpN
        YWpKT2lHanNGZzdaLzN3RkMKCVFGVlh6bW44NW5rODg4aWI4UG05a3FRVGRWTnFGVkgyNEZMeXZGK0ZjVjFDQ3AxWXBIYkJqcEpycll1V20rU0FnTXQ4Cgl1bDhSL0lX
        cE1LWlVsNGI4YmtHVzVnOW1LV2xNTGFCQ09LS1BIaVVWdktjREVrdXArZkZUUkRjTTRXTnlTTDYxNXFnTAoJTWR5QzF1Z0tETDZaU20waTZpNGhLVG9oSTFvcXJOMVdR
        aGxLWk5tSjhUSXlHeDVSTDlqMkFVaEFpSkUxRVgxVER3MlgKCU4vZ0Y3NGs2b2dGZXVFaWRnenkxYW1nVEFXZWFDQjhuWlRGZ0Npb3MzNXc5SjMxWmJ6WlpxbHRWZk5i
        S1pCM0x2RHpyCglNOHpiT3E3clp1a3AvbnFJdng4b3lVSDlTckNBanpDZGRjU1kvd1NsK2puV09POVZTNVFyOENreGN4ZlhQS3RCWGNTTgoJWXZEUURJbHFFV3B1OEFz
        dDVuNUNzRFVETWs0eFRIS0VVazJUZENEYlVXYm5md3gyWjdnZk1Ed3I0OUhLOEsyTWpaVVIKCVdCbFBWc2JXeXRoWkdjeTFVK3lxTXJ1c3pLNHJzd3ZMUGxUMkRXcW8v
        aEZ1L3B1RVR1K0hXL3g2UGd0dWxnYTUyMjUwCglTbHpscFZCY3pCNFlkc1Z5bC9qakx1RjM1MDRQZmZtUlRGV0JHL1IyTXErQjRmeDZQemRDWWgraU9FRSsrZ1JyaE02
        MAoJdWZhcnYzTzdUYU09Cgk8L2RhdGE+Cgk8a2V5PmRhdGE8L2tleT4KCTxkYXRhPgoJQUFBQUFBQUFBQUFBQUFJQUFBQUFBQUFBQUFBQUFBQUJBQUFBQUFBQUFBSUFB
        QUFBQUFBQUF3QUFBQUFBQUFBRUFBQUEKCUFBQUFBQVVBQUFBQUFBQUFCZ0FBQUFBQUFBQUhBQUFBQUFBQUFBZ0FBQUFBQUFBQUNRQUFBQUFBQUFBS0FBQUFBQUFBCglB
        QXNBQUFBQUFBQUFEQUFBQUFBQUFBQU5BQUFBQUFBQUFBNEFBQUFBQUFBQUR3QUFBQUFBQUFBUUFBQUFBQUFBQUJFQQoJQUFBQUFBQUFFZ0FBQUFBQUFBQVRBQUFBQUFB
        QUFCUUFBQUFBQUFBQUZRQUFBQUFBQUFBV0FBQUFBQUFBQUJjQUFBQUEKCUFBQUFHQUFBQUFBQUFBQVpBQUFBQUFBQUFCb0FBQUFBQUFBQUd3QUFBQUFBQUFBY0FBQUFB
        QUFBQUIwQUFBQUFBQUFBCglIZ0FBQUFBQUFBQWZBQUFBQUFBQUFDQUFBQUFBQUFBQUlRQUFBQUFBQUFBaUFBQUFBQUFBQUNNQUFBQUFBQUFBSkFBQQoJQUFBQUFBQWxB
        QUFBQUFBQUFDWUFBQUFBQUFBQUp3QUFBQUFBQUFBb0FBQUFBQUFBQUNrQUFBQUFBQUFBS2dBQUFBQUEKCUFBQXJBQUFBQUFBQUFDd0FBQUFBQUFBQUxRQUFBQUFBQUFB
        dUFBQUFBQUFBQUM4QUFBQUFBQUFBTUFBQUFBQUFBQUF4CglBQUFBQUFBQUFESUFBQUFBQUFBQU13QUFBQUFBQUFBMEFBQUFBQUFBQURVQUFBQUFBQUFBTmdBQUFBQUFB
        QUEzQUFBQQoJQUFBQUFEZ0FBQUFBQUFBQU9RQUFBQUFBQUFBNkFBQUFBQUFBQURzQUFBQUFBQUFBUEFBQUFBQUFBQUE5QUFBQUFBQUEKCUFENEFBQUFBQUFBQVB3QUFB
        QUFBQUFCQUFBQUFBQUFBQUVFQUFBQUFBQUFBUWdBQUFBQUFBQUJEQUFBQUFBQUFBRVFBCglBQUFBQUFBQVJRQUFBQUFBQUFCR0FBQUFBQUFBQUVjQUFBQUFBQUFBU0FB
        QUFBQUFBQUJKQUFBQUFBQUFBRW9BQUFBQQoJQUFBQVN3QUFBQUFBQUFCTUFBQUFBQUFBQUUwQUFBQUFBQUFBVGdBQUFBQUFBQUJQQUFBQUFBQUFBRkFBQUFBQUFBQUEK
        CVVRQUFBQUFBQUFCU0FBQUFBQUFBQUZNQUFBQUFBQUFBVkFBQUFBQUFBQUJWQUFBQUFBQUFBRllBQUFBQUFBQUFWd0FBCglBQUFBQUFCWUFBQUFBQUFBQUZrQUFBQUFB
        QUFBV2dBQUFBQUFBQUJiQUFBQUFBQUFBRndBQUFBQUFBQUFYUUFBQUFBQQoJQUFCZUFBQUFBQUFBQUY4QUFBQUFBQUFBWUFBQUFBQUFBQUJoQUFBQUFBQUFBR0lBQUFB
        QUFBQUFZd0FBQUFBQUFBQmsKCUFBQUFBQUFBQUdVQUFBQUFBQUFBWmdBQUFBQUFBQUJuQUFBQUFBQUFBR2dBQUFBQUFBQUFhUUFBQUFBQUFBQnFBQUFBCglBQUFBQUdz
        QUFBQUFBQUFBYkFBQUFBQUFBQUJ0QUFBQUFBQUFBRzRBQUFBQUFBQUFid0FBQUFBQUFBQndBQUFBQUFBQQoJQUhFQUFBQUFBQUFBY2dBQUFBQUFBQUJ6QUFBQUFBQUFB
        SFFBQUFBQUFBQUFkUUFBQUFBQUFBQjJBQUFBQUFBQUFIY0EKCUFBQUFBQUFBZUFBQUFBQUFBQUI1QUFBQUFBQUFBSG9BQUFBQUFBQUFld0FBQUFBQUFBQjhBQUFBQUFB
        QUFIMEFBQUFBCglBQUFBZmdBQUFBQUFBQUIvQUFBQUFBQUFBSUFBQUFBQUFBQUFnUUFBQUFBQUFBQ0NBQUFBQUFBQUFJTUFBQUFBQUFBQQoJaEFBQUFBQUFBQUNGQUFB
        QUFBQUFBSVlBQUFBQUFBQUFod0FBQUFBQUFBQ0lBQUFBQUFBQUFJa0FBQUFBQUFBQWlnQUEKCUFBQUFBQUNMQUFBQUFBQUFBSXdBQUFBQUFBQUFqUUFBQUFBQUFBQ09B
        QUFBQUFBQUFJOEFBQUFBQUFBQWtBQUFBQUFBCglBQUNSQUFBQUFBQUFBSklBQUFBQUFBQUFrd0FBQUFBQUFBQ1VBQUFBQUFBQUFKVUFBQUFBQUFBQWxnQUFBQUFBQUFD
        WAoJQUFBQUFBQUFBSmdBQUFBQUFBQUFtUUFBQUFBQUFBQ2FBQUFBQUFBQUFKc0FBQUFBQUFBQW5BQUFBQUFBQUFDZEFBQUEKCUFBQUFBSjRBQUFBQUFBQUFud0FBQUFB
        QUFBQ2dBQUFBQUFBQUFLRUFBQUFBQUFBQW9nQUFBQUFBQUFDakFBQUFBQUFBCglBS1FBQUFBQUFBQUFwUUFBQUFBQUFBQ21BQUFBQUFBQUFLY0FBQUFBQUFBQXFBQUFB
        QUFBQUFDcEFBQUFBQUFBQUtvQQoJQUFBQUFBQUFxd0FBQUFBQUFBQ3NBQUFBQUFBQUFLMEFBQUFBQUFBQXJnQUFBQUFBQUFDdkFBQUFBQUFBQUxBQUFBQUEKCUFBQUFz
        UUFBQUFBQUFBQ3lBQUFBQUFBQUFMTUFBQUFBQUFBQXRBQUFBQUFBQUFDMUFBQUFBQUFBQUxZQUFBQUFBQUFBCgl0d0FBQUFBQUFBQzRBQUFBQUFBQUFMa0FBQUFBQUFB
        QXVnQUFBQUFBQUFDN0FBQUFBQUFBQUx3QUFBQUFBQUFBdlFBQQoJQUFBQUFBQytBQUFBQUFBQUFMOEFBQUFBQUFBQXdBQUFBQUFBQUFEQkFBQUFBQUFBQU1JQUFBQUFB
        QUFBd3dBQUFBQUEKCUFBREVBQUFBQUFBQUFNVUFBQUFBQUFBQXhnQUFBQUFBQUFESEFBQUFBQUFBQU1nQUFBQUFBQUFBeVFBQUFBQUFBQURLCglBQUFBQUFBQUFNc0FB
        QUFBQUFBQXpBQUFBQUFBQUFETkFBQUFBQUFBQU00QUFBQUFBQUFBendBQUFBQUFBQURRQUFBQQoJQUFBQUFORUFBQUFBQUFBQTBnQUFBQUFBQUFEVEFBQUFBQUFBQU5R
        QUFBQUFBQUFBMVFBQUFBQUFBQURXQUFBQUFBQUEKCUFOY0FBQUFBQUFBQTJBQUFBQUFBQUFEWkFBQUFBQUFBQU5vQUFBQUFBQUFBMndBQUFBQUFBQURjQUFBQUFBQUFB
        TjBBCglBQUFBQUFBQTNnQUFBQUFBQUFEZkFBQUFBQUFBQU9BQUFBQUFBQUFBNFFBQUFBQUFBQURpQUFBQUFBQUFBT01BQUFBQQoJQUFBQTVBQUFBQUFBQUFEbEFBQUFB
        QUFBQU9ZQUFBQUFBQUFBNXdBQUFBQUFBQURvQUFBQUFBQUFBT2tBQUFBQUFBQUEKCTZnQUFBQUFBQUFEckFBQUFBQUFBQU93QUFBQUFBQUFBN1FBQUFBQUFBQUR1QUFB
        QUFBQUFBTzhBQUFBQUFBQUE4QUFBCglBQUFBQUFEeEFBQUFBQUFBQVBJQUFBQUFBQUFBOHdBQUFBQUFBQUQwQUFBQUFBQUFBUFVBQUFBQUFBQUE5Z0FBQUFBQQoJQUFE
        M0FBQUFBQUFBQVBnQUFBQUFBQUFBK1FBQUFBQUFBQUQ2QUFBQUFBQUFBUHNBQUFBQUFBQUEvQUFBQUFBQUFBRDkKCUFBQUFBQUFBQVA0QUFBQUFBQUFBL3dBQUFBQUFB
        QUVBQUFBQUFBQUFBUUVBQUFBQUFBQUJBZ0FBQUFBQUFBRURBQUFBCglBQUFBQVFRQUFBQUFBQUFCQlFBQUFBQUFBQUVHQUFBQUFBQUFBUWNBQUFBQUFBQUJDQUFBQUFB
        QUFBRUpBQUFBQUFBQQoJQVFvQUFBQUFBQUFCQ3dBQUFBQUFBQUVNQUFBQUFBQUFBUTBBQUFBQUFBQUJEZ0FBQUFBQUFBRVBBQUFBQUFBQUFSQUEKCUFBQUFBQUFCRVFB
        QUFBQUFBQUVTQUFBQUFBQUFBUk1BQUFBQUFBQUJGQUFBQUFBQUFBRVZBQUFBQUFBQUFSWUFBQUFBCglBQUFCRndBQUFBQUFBQUVZQUFBQUFBQUFBUmtBQUFBQUFBQUJH
        Z0FBQUFBQUFBRWJBQUFBQUFBQUFSd0FBQUFBQUFBQgoJSFFBQUFBQUFBQUVlQUFBQUFBQUFBUjhBQUFBQUFBQUJJQUFBQUFBQUFBRWhBQUFBQUFBQUFTSUFBQUFBQUFB
        Qkl3QUEKCUFBQUFBQUVrQUFBQUFBQUFBU1VBQUFBQUFBQUJKZ0FBQUFBQUFBRW5BQUFBQUFBQUFTZ0FBQUFBQUFBQktRQUFBQUFBCglBQUVxQUFBQUFBQUFBU3NBQUFB
        QUFBQUJMQUFBQUFBQUFBRXRBQUFBQUFBQUFTNEFBQUFBQUFBQkx3QUFBQUFBQUFFdwoJQUFBQUFBQUFBVEVBQUFBQUFBQUJNZ0FBQUFBQUFBRXpBQUFBQUFBQUFUUUFB
        QUFBQUFBQk5RQUFBQUFBQUFFMkFBQUEKCUFBQUFBVGNBQUFBQUFBQUJPQUFBQUFBQUFBRTVBQUFBQUFBQUFUb0FBQUFBQUFBQk93QUFBQUFBQUFFOEFBQUFBQUFBCglB
        VDBBQUFBQUFBQUJQZ0FBQUFBQUFBRS9BQUFBQUFBQUFVQUFBQUFBQUFBQlFRQUFBQUFBQUFGQ0FBQUFBQUFBQVVNQQoJQUFBQUFBQUJSQUFBQUFBQUFBRkZBQUFBQUFB
        QUFVWUFBQUFBQUFBQlJ3QUFBQUFBQUFGSUFBQUFBQUFBQVVrQUFBQUEKCUFBQUJTZ0FBQUFBQUFBRkxBQUFBQUFBQUFVd0FBQUFBQUFBQlRRQUFBQUFBQUFGT0FBQUFB
        QUFBQVU4QUFBQUFBQUFCCglVQUFBQUFBQUFBRlJBQUFBQUFBQUFWSUFBQUFBQUFBQlV3QUFBQUFBQUFGVUFBQUFBQUFBQVZVQUFBQUFBQUFCVmdBQQoJQUFBQUFBRlhB
        QUFBQUFBQUFWZ0FBQUFBQUFBQldRQUFBQUFBQUFGYUFBQUFBQUFBQVZzQUFBQUFBQUFCWEFBQUFBQUEKCUFBRmRBQUFBQUFBQUFWNEFBQUFBQUFBQlh3QUFBQUFBQUFG
        Z0FBQUFBQUFBQVdFQUFBQUFBQUFCWWdBQUFBQUFBQUZqCglBQUFBQUFBQUFXUUFBQUFBQUFBQlpRQUFBQUFBQUFGbUFBQUFBQUFBQVdjQUFBQUFBQUFCYUFBQUFBQUFB
        QUZwQUFBQQoJQUFBQUFXb0FBQUFBQUFBQmF3QUFBQUFBQUFGc0FBQUFBQUFBQVcwQUFBQUFBQUFCYmdBQUFBQUFBQUZ2QUFBQUFBQUEKCUFYQUFBQUFBQUFBQmNRQUFB
        QUFBQUFGeUFBQUFBQUFBQVhNQUFBQUFBQUFCZEFBQUFBQUFBQUYxQUFBQUFBQUFBWFlBCglBQUFBQUFBQmR3QUFBQUFBQUFGNEFBQUFBQUFBQVhrQUFBQUFBQUFCZWdB
        QUFBQUFBQUY3QUFBQUFBQUFBWHdBQUFBQQoJQUFBQmZRQUFBQUFBQUFGK0FBQUFBQUFBQVg4QUFBQUFBQUFCZ0FBQUFBQUFBQUdCQUFBQUFBQUFBWUlBQUFBQUFBQUIK
        CWd3QUFBQUFBQUFHRUFBQUFBQUFBQVlVQUFBQUFBQUFCaGdBQUFBQUFBQUdIQUFBQUFBQUFBWWdBQUFBQUFBQUJpUUFBCglBQUFBQUFHS0FBQUFBQUFBQVlzQUFBQUFB
        QUFCakFBQUFBQUFBQUdOQUFBQUFBQUFBWTRBQUFBQUFBQUJqd0FBQUFBQQoJQUFHUUFBQUFBQUFBQVpFQUFBQUFBQUFCa2dBQUFBQUFBQUdUQUFBQUFBQUFBWlFBQUFB
        QUFBQUJsUUFBQUFBQUFBR1cKCUFBQUFBQUFBQVpjQUFBQUFBQUFCbUFBQUFBQUFBQUdaQUFBQUFBQUFBWm9BQUFBQUFBQUJtd0FBQUFBQUFBR2NBQUFBCglBQUFBQVow
        QUFBQUFBQUFCbmdBQUFBQUFBQUdmQUFBQUFBQUFBYUFBQUFBQUFBQUJvUUFBQUFBQUFBR2lBQUFBQUFBQQoJQWFNQUFBQUFBQUFCcEFBQUFBQUFBQUdsQUFBQUFBQUFB
        YVlBQUFBQUFBQUJwd0FBQUFBQUFBR29BQUFBQUFBQUFha0EKCUFBQUFBQUFCcWdBQUFBQUFBQUdyQUFBQUFBQUFBYXdBQUFBQUFBQUJyUUFBQUFBQUFBR3VBQUFBQUFB
        QUFhOEFBQUFBCglBQUFCc0FBQUFBQUFBQUd4QUFBQUFBQUFBYklBQUFBQUFBQUJzd0FBQUFBQUFBRzBBQUFBQUFBQUFiVUFBQUFBQUFBQgoJdGdBQUFBQUFBQUczQUFB
        QUFBQUFBYmdBQUFBQUFBQUJ1UUFBQUFBQUFBRzZBQUFBQUFBQUFic0FBQUFBQUFBQnZBQUEKCUFBQUFBQUc5QUFBQUFBQUFBYjRBQUFBQUFBQUJ2d0FBQUFBQUFBSEFB
        QUFBQUFBQUFjRUFBQUFBQUFBQndnQUFBQUFBCglBQUhEQUFBQUFBQUFBY1FBQUFBQUFBQUJ4UUFBQUFBQUFBSEdBQUFBQUFBQUFjY0FBQUFBQUFBQnlBQUFBQUFBQUFI
        SgoJQUFBQUFBQUFBY29BQUFBQUFBQUJ5d0FBQUFBQUFBSE1BQUFBQUFBQUFjMEFBQUFBQUFBQnpnQUFBQUFBQUFIUEFBQUEKCUFBQUFBZEFBQUFBQUFBQUIwUUFBQUFB
        QUFBSFNBQUFBQUFBQUFkTUFBQUFBQUFBQjFBQUFBQUFBQUFIVkFBQUFBQUFBCglBZFlBQUFBQUFBQUIxd0FBQUFBQUFBSFlBQUFBQUFBQUFka0FBQUFBQUFBQjJnQUFB
        QUFBQUFIYkFBQUFBQUFBQWR3QQoJQUFBQUFBQUIzUUFBQUFBQUFBSGVBQUFBQUFBQUFkOEFBQUFBQUFBQjRBQUFBQUFBQUFIaEFBQUFBQUFBQWVJQUFBQUEKCUFBQUI0
        d0FBQUFBQUFBSGtBQUFBQUFBQUFlVUFBQUFBQUFBQjVnQUFBQUFBQUFIbkFBQUFBQUFBQWVnQUFBQUFBQUFCCgk2UUFBQUFBQUFBSHFBQUFBQUFBQUFlc0FBQUFBQUFB
        QjdBQUFBQUFBQUFIdEFBQUFBQUFBQWU0QUFBQUFBQUFCN3dBQQoJQUFBQUFBSHdBQUFBQUFBQUFmRUFBQUFBQUFBQjhnQUFBQUFBQUFIekFBQUFBQUFBQWZRQUFBQUFB
        QUFCOVFBQUFBQUEKCUFBSDJBQUFBQUFBQUFmY0FBQUFBQUFBQitBQUFBQUFBQUFINUFBQUFBQUFBQWZvQUFBQUFBQUFCK3dBQUFBQUFBQUg4CglBQUFBQUFBQUFmMEFB
        QUFBQUFBQi9nQUFBQUFBQUFIL0FBQUFBQT09Cgk8L2RhdGE+Cgk8a2V5Pm1hbnVmYWN0dXJlcjwva2V5PgoJPGludGVnZXI+MTM0NzE3ODMxMTwvaW50ZWdlcj4KCTxr
        ZXk+bmFtZTwva2V5PgoJPHN0cmluZz5VbnRpdGxlZDwvc3RyaW5nPgoJPGtleT5zdWJ0eXBlPC9rZXk+Cgk8aW50ZWdlcj4xMzQ3MTc2MjczPC9pbnRlZ2VyPgoJPGtl
        eT50eXBlPC9rZXk+Cgk8aW50ZWdlcj4xNjM1MDg1Njg1PC9pbnRlZ2VyPgoJPGtleT52ZXJzaW9uPC9rZXk+Cgk8aW50ZWdlcj4wPC9pbnRlZ2VyPgo8L2RpY3Q+Cjwv
        cGxpc3Q+CgEAAAAAAAAAAAA=
      >
      FLOATPOS 0 0 0 0
      FXID {FEBD1194-B7FC-764D-96C2-36FB43FC2DD6}
      WAK 0 0
    >
    <ITEM
      POSITION 0
      SNAPOFFS 0
      LENGTH 97.77777777777777
      LOOP 1
      ALLTAKES 0
      FADEIN 1 0 0 1 0 0 0
      FADEOUT 1 0 0 1 0 0 0
      MUTE 0 0
      SEL 0
      IGUID {440BF3ED-2C62-B94C-8A3F-D90D6820FFF1}
      IID 25
      NAME "y ¨ÄñÎöº zfrom ûg½ for 88Pro Comp.ZUN             - th06_05.mid [chan 10]"
      VOLPAN 1 0 1 -1
      SOFFS 2.22222222222222 5
      PLAYRATE 1 1 0 -1 0 0.0025
      CHANMODE 0
      GUID {73C3CDA9-E70E-BD4D-93A2-3D49705B4FB9}
      <SOURCE MIDI
        HASDATA 1 960 QN
        CCINTERP 32
        POOLEDEVTS {EF13DCB9-7D94-2648-98C3-C55C1F93BC8D}
        E 3720 b9 63 18
        E 0 b9 62 28
        E 0 b9 06 20
        E 20 b9 63 1a
        E 0 b9 62 28
        E 0 b9 06 40
        E 20 b9 63 1c
        E 0 b9 62 28
        E 0 b9 06 40
        E 20 b9 63 1d
        E 0 b9 62 28
        E 0 b9 06 5a
        E 20 b9 63 1e
        E 0 b9 62 28
        E 0 b9 06 40
        E 20 b9 63 1f
        E 0 b9 62 28
        E 0 b9 06 5a
        E 20 b9 78 00
        E 20 b9 79 00
        E 20 b9 7b 00
        E 20 b9 65 00
        E 0 b9 64 00
        E 0 b9 06 0c
        E 20 b9 65 00
        E 0 b9 64 01
        E 0 b9 06 40
        E 20 b9 65 00
        E 0 b9 64 02
        E 0 b9 06 40
        E 20 b9 63 01
        E 0 b9 62 08
        E 0 b9 06 40
        E 20 b9 63 01
        E 0 b9 62 09
        E 0 b9 06 40
        E 20 b9 63 01
        E 0 b9 62 0a
        E 0 b9 06 40
        E 20 b9 63 01
        E 0 b9 62 20
        E 0 b9 06 4b
        E 20 b9 63 01
        E 0 b9 62 21
        E 0 b9 06 44
        E 20 b9 63 01
        E 0 b9 62 63
        E 0 b9 06 40
        E 20 b9 63 01
        E 0 b9 62 64
        E 0 b9 06 40
        E 20 b9 63 01
        E 0 b9 62 66
        E 0 b9 06 40
        E 20 b9 07 69
        E 20 b9 0a 40
        E 20 b9 5b 46
        E 20 b9 5d 0a
        E 20 b9 00 00
        E 0 b9 20 03
        E 0 c9 10 00
        E 20 b9 0b 78
        E 20 b9 63 1a
        E 0 b9 62 26
        E 0 b9 06 78
        E 20 b9 63 1a
        E 0 b9 62 28
        E 0 b9 06 73
        E 20 b9 63 1d
        E 0 b9 62 26
        E 0 b9 06 1e
        E 20 b9 63 18
        E 0 b9 62 24
        E 0 b9 06 3b
        E 20 b9 63 18
        E 0 b9 62 26
        E 0 b9 06 44
        E 20 b9 63 18
        E 0 b9 62 28
        E 0 b9 06 45
        e 460 99 2a 7f
        e 0 99 24 7f
        e 2 99 2a 00
        e 0 99 24 00
        e 238 99 2a 7f
        e 2 99 2a 00
        e 238 99 2a 7f
        e 0 99 24 7f
        e 2 99 2a 00
        e 0 99 24 00
        e 238 99 24 7f
        e 2 99 24 00
        e 238 99 2a 7f
        e 0 99 28 7f
        e 2 99 2a 00
        e 0 99 28 00
        e 238 99 24 7f
        e 0 99 2a 7f
        e 2 99 24 00
        e 0 99 2a 00
        e 238 99 24 7f
        e 0 99 2a 7f
        e 2 99 24 00
        e 0 99 2a 00
        e 478 99 2a 7f
        e 0 99 24 7f
        e 2 99 2a 00
        e 0 99 24 00
        e 238 99 2a 7f
        e 0 99 24 7f
        e 2 99 2a 00
        e 0 99 24 00
        e 238 99 24 7f
        e 0 99 2e 7f
        e 2 99 24 00
        e 0 99 2e 00
        e 238 99 24 7f
        e 2 99 24 00
        e 238 99 28 7f
        e 0 99 2a 7f
        e 2 99 28 00
        e 0 99 2a 00
        e 238 99 2a 7f
        e 2 99 2a 00
        e 238 99 24 7f
        e 0 99 2e 7f
        e 2 99 24 00
        e 0 99 2e 00
        e 238 99 24 7f
        e 0 99 2a 7f
        e 2 99 24 00
        e 0 99 2a 00
        e 478 99 2a 7f
        e 0 99 24 7f
        e 2 99 2a 00
        e 0 99 24 00
        e 238 99 2e 7f
        e 0 99 24 7f
        e 2 99 2e 00
        e 0 99 24 00
        e 238 99 2a 7f
        e 0 99 24 7f
        e 2 99 2a 00
        e 0 99 24 00
        e 238 99 2e 7f
        e 0 99 28 7f
        e 2 99 2e 00
        e 0 99 28 00
        e 238 99 24 7f
        e 0 99 2a 7f
        e 2 99 24 00
        e 0 99 2a 00
        e 238 99 24 7f
        e 0 99 2a 7f
        e 2 99 24 00
        e 0 99 2a 00
        e 238 99 24 7f
        e 2 99 24 00
        e 238 99 24 7f
        e 2 99 24 00
        e 238 99 30 7f
        e 0 99 2a 7f
        e 2 99 30 00
        e 0 99 2a 00
        e 238 99 30 7f
        e 0 99 2e 7f
        e 0 99 24 7f
        e 2 99 30 00
        e 0 99 2e 00
        e 0 99 24 00
        e 238 99 2d 7f
        e 0 99 24 7f
        e 2 99 2d 00
        e 0 99 24 00
        e 238 99 2d 7f
        e 0 99 2a 7f
        e 0 99 28 7f
        e 2 99 2d 00
        e 0 99 2a 00
        e 0 99 28 00
        e 238 99 29 7f
        e 0 99 2a 7f
        e 2 99 29 00
        e 0 99 2a 00
        e 238 99 29 7f
        e 0 99 24 7f
        e 0 99 2e 7f
        e 0 99 26 7f
        e 2 99 29 00
        e 0 99 24 00
        e 0 99 2e 00
        e 0 99 26 00
        e 238 99 29 7f
        e 0 99 26 7f
        e 0 99 2a 7f
        e 2 99 29 00
        e 0 99 26 00
        e 0 99 2a 00
        e 238 99 2a 7f
        e 0 99 24 7f
        e 2 99 2a 00
        e 0 99 24 00
        e 238 99 2a 7f
        e 2 99 2a 00
        e 238 99 2a 7f
        e 0 99 24 7f
        e 2 99 2a 00
        e 0 99 24 00
        e 238 99 24 7f
        e 2 99 24 00
        e 238 99 2a 7f
        e 0 99 28 7f
        e 2 99 2a 00
        e 0 99 28 00
        e 238 99 24 7f
        e 0 99 2a 7f
        e 2 99 24 00
        e 0 99 2a 00
        e 238 99 24 7f
        e 0 99 2a 7f
        e 2 99 24 00
        e 0 99 2a 00
        e 478 99 2a 7f
        e 0 99 24 7f
        e 2 99 2a 00
        e 0 99 24 00
        e 238 99 2a 7f
        e 0 99 24 7f
        e 2 99 2a 00
        e 0 99 24 00
        e 238 99 24 7f
        e 0 99 2e 7f
        e 2 99 24 00
        e 0 99 2e 00
        e 238 99 24 7f
        e 2 99 24 00
        e 238 99 28 7f
        e 0 99 2a 7f
        e 2 99 28 00
        e 0 99 2a 00
        e 238 99 2a 7f
        e 2 99 2a 00
        e 238 99 24 7f
        e 0 99 2e 7f
        e 2 99 24 00
        e 0 99 2e 00
        e 238 99 24 7f
        e 0 99 2a 7f
        e 2 99 24 00
        e 0 99 2a 00
        e 478 99 2a 7f
        e 0 99 24 7f
        e 2 99 2a 00
        e 0 99 24 00
        e 238 99 2e 7f
        e 0 99 24 7f
        e 2 99 2e 00
        e 0 99 24 00
        e 238 99 2a 7f
        e 0 99 24 7f
        e 2 99 2a 00
        e 0 99 24 00
        e 238 99 2e 7f
        e 0 99 28 7f
        e 2 99 2e 00
        e 0 99 28 00
        e 238 99 24 7f
        e 0 99 2a 7f
        e 2 99 24 00
        e 0 99 2a 00
        e 238 99 24 7f
        e 0 99 2a 7f
        e 2 99 24 00
        e 0 99 2a 00
        e 238 99 24 7f
        e 2 99 24 00
        e 238 99 24 7f
        e 2 99 24 00
        e 238 99 2a 7f
        e 2 99 2a 00
        e 238 99 2e 7f
        e 0 99 24 7f
        e 2 99 2e 00
        e 0 99 24 00
        e 238 99 24 7f
        e 2 99 24 00
        e 238 99 2a 7f
        e 0 99 28 7f
        e 2 99 2a 00
        e 0 99 28 00
        e 238 99 2a 7f
        e 2 99 2a 00
        e 238 99 24 7f
        e 0 99 2e 7f
        e 0 99 26 7f
        e 2 99 24 00
        e 0 99 2e 00
        e 0 99 26 00
        e 238 99 26 7f
        e 0 99 2a 7f
        e 2 99 26 00
        e 0 99 2a 00
        e 238 99 2a 7f
        e 0 99 24 7f
        e 2 99 2a 00
        e 0 99 24 00
        e 238 99 2a 7f
        e 2 99 2a 00
        e 238 99 2a 7f
        e 0 99 24 7f
        e 2 99 2a 00
        e 0 99 24 00
        e 238 99 24 7f
        e 2 99 24 00
        e 238 99 2a 7f
        e 0 99 28 7f
        e 2 99 2a 00
        e 0 99 28 00
        e 238 99 24 7f
        e 0 99 2a 7f
        e 2 99 24 00
        e 0 99 2a 00
        e 238 99 24 7f
        e 0 99 2a 7f
        e 2 99 24 00
        e 0 99 2a 00
        e 478 99 2a 7f
        e 0 99 24 7f
        e 2 99 2a 00
        e 0 99 24 00
        e 238 99 2a 7f
        e 0 99 24 7f
        e 2 99 2a 00
        e 0 99 24 00
        e 238 99 24 7f
        e 0 99 2e 7f
        e 2 99 24 00
        e 0 99 2e 00
        e 238 99 24 7f
        e 2 99 24 00
        e 238 99 28 7f
        e 0 99 2a 7f
        e 2 99 28 00
        e 0 99 2a 00
        e 238 99 2a 7f
        e 2 99 2a 00
        e 238 99 24 7f
        e 0 99 2e 7f
        e 2 99 24 00
        e 0 99 2e 00
        e 238 99 24 7f
        e 0 99 2a 7f
        e 2 99 24 00
        e 0 99 2a 00
        e 478 99 2a 7f
        e 0 99 24 7f
        e 2 99 2a 00
        e 0 99 24 00
        e 238 99 2e 7f
        e 0 99 24 7f
        e 2 99 2e 00
        e 0 99 24 00
        e 238 99 2a 7f
        e 0 99 24 7f
        e 2 99 2a 00
        e 0 99 24 00
        e 238 99 2e 7f
        e 0 99 28 7f
        e 2 99 2e 00
        e 0 99 28 00
        e 238 99 24 7f
        e 0 99 2a 7f
        e 2 99 24 00
        e 0 99 2a 00
        e 238 99 24 7f
        e 0 99 2a 7f
        e 2 99 24 00
        e 0 99 2a 00
        e 238 99 24 7f
        e 2 99 24 00
        e 238 99 24 7f
        e 2 99 24 00
        e 238 99 2a 7f
        e 2 99 2a 00
        e 238 99 26 7f
        e 0 99 2e 7f
        e 0 99 24 7f
        e 2 99 26 00
        e 0 99 2e 00
        e 0 99 24 00
        e 238 99 26 7f
        e 0 99 24 7f
        e 2 99 26 00
        e 0 99 24 00
        e 238 99 2a 7f
        e 0 99 28 7f
        e 2 99 2a 00
        e 0 99 28 00
        e 238 99 2a 7f
        e 0 99 28 7f
        e 2 99 2a 00
        e 0 99 28 00
        e 238 99 24 7f
        e 0 99 2e 7f
        e 0 99 26 7f
        e 0 99 28 7f
        e 2 99 24 00
        e 0 99 2e 00
        e 0 99 26 00
        e 0 99 28 00
        e 238 99 26 7f
        e 0 99 2a 7f
        e 2 99 26 00
        e 0 99 2a 00
        e 238 99 2a 7f
        e 0 99 24 7f
        e 2 99 2a 00
        e 0 99 24 00
        e 238 99 2a 7f
        e 2 99 2a 00
        e 238 99 2a 7f
        e 0 99 24 7f
        e 2 99 2a 00
        e 0 99 24 00
        e 238 99 24 7f
        e 2 99 24 00
        e 238 99 2a 7f
        e 0 99 28 7f
        e 2 99 2a 00
        e 0 99 28 00
        e 238 99 24 7f
        e 0 99 2a 7f
        e 2 99 24 00
        e 0 99 2a 00
        e 238 99 24 7f
        e 0 99 2a 7f
        e 2 99 24 00
        e 0 99 2a 00
        e 478 99 2a 7f
        e 0 99 24 7f
        e 2 99 2a 00
        e 0 99 24 00
        e 238 99 2a 7f
        e 0 99 24 7f
        e 2 99 2a 00
        e 0 99 24 00
        e 238 99 24 7f
        e 0 99 2e 7f
        e 2 99 24 00
        e 0 99 2e 00
        e 238 99 24 7f
        e 2 99 24 00
        e 238 99 28 7f
        e 0 99 2a 7f
        e 2 99 28 00
        e 0 99 2a 00
        e 238 99 2a 7f
        e 2 99 2a 00
        e 238 99 24 7f
        e 0 99 2e 7f
        e 2 99 24 00
        e 0 99 2e 00
        e 238 99 24 7f
        e 0 99 2a 7f
        e 2 99 24 00
        e 0 99 2a 00
        e 478 99 2a 7f
        e 0 99 24 7f
        e 2 99 2a 00
        e 0 99 24 00
        e 238 99 2e 7f
        e 0 99 24 7f
        e 2 99 2e 00
        e 0 99 24 00
        e 238 99 2a 7f
        e 0 99 24 7f
        e 2 99 2a 00
        e 0 99 24 00
        e 238 99 2e 7f
        e 0 99 28 7f
        e 2 99 2e 00
        e 0 99 28 00
        e 238 99 24 7f
        e 0 99 2a 7f
        e 2 99 24 00
        e 0 99 2a 00
        e 238 99 24 7f
        e 0 99 2a 7f
        e 2 99 24 00
        e 0 99 2a 00
        e 238 99 24 7f
        e 2 99 24 00
        e 238 99 24 7f
        e 2 99 24 00
        e 238 99 2a 7f
        e 2 99 2a 00
        e 238 99 2e 7f
        e 0 99 24 7f
        e 2 99 2e 00
        e 0 99 24 00
        e 238 99 24 7f
        e 2 99 24 00
        e 238 99 2a 7f
        e 0 99 28 7f
        e 2 99 2a 00
        e 0 99 28 00
        e 238 99 2a 7f
        e 2 99 2a 00
        e 238 99 24 7f
        e 0 99 2e 7f
        e 0 99 26 7f
        e 2 99 24 00
        e 0 99 2e 00
        e 0 99 26 00
        e 238 99 26 7f
        e 0 99 2a 7f
        e 2 99 26 00
        e 0 99 2a 00
        e 238 99 2a 7f
        e 0 99 24 7f
        e 2 99 2a 00
        e 0 99 24 00
        e 238 99 2a 7f
        e 2 99 2a 00
        e 238 99 2a 7f
        e 0 99 24 7f
        e 2 99 2a 00
        e 0 99 24 00
        e 238 99 24 7f
        e 2 99 24 00
        e 238 99 2a 7f
        e 0 99 28 7f
        e 2 99 2a 00
        e 0 99 28 00
        e 238 99 24 7f
        e 0 99 2a 7f
        e 2 99 24 00
        e 0 99 2a 00
        e 238 99 24 7f
        e 0 99 2a 7f
        e 2 99 24 00
        e 0 99 2a 00
        e 478 99 2a 7f
        e 0 99 24 7f
        e 2 99 2a 00
        e 0 99 24 00
        e 238 99 2a 7f
        e 0 99 24 7f
        e 2 99 2a 00
        e 0 99 24 00
        e 238 99 24 7f
        e 0 99 2e 7f
        e 2 99 24 00
        e 0 99 2e 00
        e 238 99 24 7f
        e 2 99 24 00
        e 238 99 28 7f
        e 0 99 2a 7f
        e 2 99 28 00
        e 0 99 2a 00
        e 238 99 2a 7f
        e 2 99 2a 00
        e 238 99 24 7f
        e 0 99 2e 7f
        e 2 99 24 00
        e 0 99 2e 00
        e 238 99 24 7f
        e 0 99 2a 7f
        e 2 99 24 00
        e 0 99 2a 00
        e 478 99 2a 7f
        e 0 99 24 7f
        e 2 99 2a 00
        e 0 99 24 00
        e 238 99 2e 7f
        e 0 99 24 7f
        e 2 99 2e 00
        e 0 99 24 00
        e 238 99 2a 7f
        e 0 99 24 7f
        e 2 99 2a 00
        e 0 99 24 00
        e 238 99 2e 7f
        e 0 99 28 7f
        e 2 99 2e 00
        e 0 99 28 00
        e 238 99 24 7f
        e 0 99 2a 7f
        e 2 99 24 00
        e 0 99 2a 00
        e 238 99 26 7f
        e 0 99 24 7f
        e 0 99 2a 7f
        e 2 99 26 00
        e 0 99 24 00
        e 0 99 2a 00
        e 238 99 26 7f
        e 0 99 24 7f
        e 2 99 26 00
        e 0 99 24 00
        e 238 99 24 7f
        e 2 99 24 00
        e 238 99 28 7f
        e 0 99 2a 7f
        e 2 99 28 00
        e 0 99 2a 00
        e 238 99 30 7f
        e 0 99 28 7f
        e 0 99 26 7f
        e 0 99 2e 7f
        e 0 99 24 7f
        e 2 99 30 00
        e 0 99 28 00
        e 0 99 26 00
        e 0 99 2e 00
        e 0 99 24 00
        e 238 99 2d 7f
        e 0 99 26 7f
        e 0 99 24 7f
        e 2 99 2d 00
        e 0 99 26 00
        e 0 99 24 00
        e 238 99 2d 7f
        e 0 99 2a 7f
        e 0 99 28 7f
        e 2 99 2d 00
        e 0 99 2a 00
        e 0 99 28 00
        e 238 99 2a 7f
        e 0 99 28 7f
        e 2 99 2a 00
        e 0 99 28 00
        e 238 99 29 7f
        e 0 99 24 7f
        e 0 99 2e 7f
        e 0 99 26 7f
        e 0 99 28 7f
        e 2 99 29 00
        e 0 99 24 00
        e 0 99 2e 00
        e 0 99 26 00
        e 0 99 28 00
        e 238 99 26 7f
        e 0 99 2a 7f
        e 2 99 26 00
        e 0 99 2a 00
        e 238 99 2a 7f
        e 0 99 24 7f
        e 2 99 2a 00
        e 0 99 24 00
        e 238 99 2a 7f
        e 2 99 2a 00
        e 238 99 2a 7f
        e 0 99 24 7f
        e 2 99 2a 00
        e 0 99 24 00
        e 238 99 24 7f
        e 2 99 24 00
        e 238 99 2a 7f
        e 0 99 28 7f
        e 2 99 2a 00
        e 0 99 28 00
        e 238 99 24 7f
        e 0 99 2a 7f
        e 2 99 24 00
        e 0 99 2a 00
        e 238 99 24 7f
        e 0 99 2a 7f
        e 2 99 24 00
        e 0 99 2a 00
        e 478 99 2a 7f
        e 0 99 24 7f
        e 2 99 2a 00
        e 0 99 24 00
        e 238 99 2a 7f
        e 0 99 24 7f
        e 2 99 2a 00
        e 0 99 24 00
        e 238 99 24 7f
        e 0 99 2e 7f
        e 2 99 24 00
        e 0 99 2e 00
        e 238 99 24 7f
        e 2 99 24 00
        e 238 99 28 7f
        e 0 99 2a 7f
        e 2 99 28 00
        e 0 99 2a 00
        e 238 99 2a 7f
        e 2 99 2a 00
        e 238 99 24 7f
        e 0 99 2e 7f
        e 2 99 24 00
        e 0 99 2e 00
        e 238 99 24 7f
        e 0 99 2a 7f
        e 2 99 24 00
        e 0 99 2a 00
        e 478 99 2a 7f
        e 0 99 24 7f
        e 2 99 2a 00
        e 0 99 24 00
        e 238 99 2e 7f
        e 0 99 24 7f
        e 2 99 2e 00
        e 0 99 24 00
        e 238 99 2a 7f
        e 0 99 24 7f
        e 2 99 2a 00
        e 0 99 24 00
        e 238 99 2e 7f
        e 0 99 28 7f
        e 2 99 2e 00
        e 0 99 28 00
        e 238 99 24 7f
        e 0 99 2a 7f
        e 2 99 24 00
        e 0 99 2a 00
        e 238 99 24 7f
        e 0 99 2a 7f
        e 2 99 24 00
        e 0 99 2a 00
        e 238 99 24 7f
        e 2 99 24 00
        e 238 99 24 7f
        e 2 99 24 00
        e 238 99 2a 7f
        e 2 99 2a 00
        e 238 99 2e 7f
        e 0 99 24 7f
        e 2 99 2e 00
        e 0 99 24 00
        e 238 99 24 7f
        e 2 99 24 00
        e 238 99 2a 7f
        e 0 99 28 7f
        e 2 99 2a 00
        e 0 99 28 00
        e 238 99 2a 7f
        e 2 99 2a 00
        e 238 99 24 7f
        e 0 99 2e 7f
        e 0 99 26 7f
        e 2 99 24 00
        e 0 99 2e 00
        e 0 99 26 00
        e 238 99 26 7f
        e 0 99 2a 7f
        e 2 99 26 00
        e 0 99 2a 00
        e 238 99 2a 7f
        e 0 99 24 7f
        e 2 99 2a 00
        e 0 99 24 00
        e 238 99 2a 7f
        e 2 99 2a 00
        e 238 99 2a 7f
        e 0 99 24 7f
        e 2 99 2a 00
        e 0 99 24 00
        e 238 99 24 7f
        e 2 99 24 00
        e 238 99 2a 7f
        e 0 99 28 7f
        e 2 99 2a 00
        e 0 99 28 00
        e 238 99 24 7f
        e 0 99 2a 7f
        e 2 99 24 00
        e 0 99 2a 00
        e 238 99 24 7f
        e 0 99 2a 7f
        e 2 99 24 00
        e 0 99 2a 00
        e 478 99 2a 7f
        e 0 99 24 7f
        e 2 99 2a 00
        e 0 99 24 00
        e 238 99 2a 7f
        e 0 99 24 7f
        e 2 99 2a 00
        e 0 99 24 00
        e 238 99 24 7f
        e 0 99 2e 7f
        e 2 99 24 00
        e 0 99 2e 00
        e 238 99 24 7f
        e 2 99 24 00
        e 238 99 28 7f
        e 0 99 2a 7f
        e 2 99 28 00
        e 0 99 2a 00
        e 238 99 2a 7f
        e 2 99 2a 00
        e 238 99 24 7f
        e 0 99 2e 7f
        e 2 99 24 00
        e 0 99 2e 00
        e 238 99 24 7f
        e 0 99 2a 7f
        e 2 99 24 00
        e 0 99 2a 00
        e 478 99 2a 7f
        e 0 99 24 7f
        e 2 99 2a 00
        e 0 99 24 00
        e 238 99 2e 7f
        e 0 99 24 7f
        e 2 99 2e 00
        e 0 99 24 00
        e 238 99 2a 7f
        e 0 99 24 7f
        e 2 99 2a 00
        e 0 99 24 00
        e 238 99 2e 7f
        e 0 99 28 7f
        e 2 99 2e 00
        e 0 99 28 00
        e 238 99 24 7f
        e 0 99 2a 7f
        e 2 99 24 00
        e 0 99 2a 00
        e 238 99 24 7f
        e 0 99 2a 7f
        e 2 99 24 00
        e 0 99 2a 00
        e 238 99 24 7f
        e 2 99 24 00
        e 238 99 24 7f
        e 2 99 24 00
        e 238 99 2a 7f
        e 2 99 2a 00
        e 238 99 26 7f
        e 0 99 2e 7f
        e 0 99 24 7f
        e 2 99 26 00
        e 0 99 2e 00
        e 0 99 24 00
        e 238 99 26 7f
        e 0 99 24 7f
        e 2 99 26 00
        e 0 99 24 00
        e 238 99 2a 7f
        e 0 99 28 7f
        e 2 99 2a 00
        e 0 99 28 00
        e 238 99 2a 7f
        e 0 99 28 7f
        e 2 99 2a 00
        e 0 99 28 00
        e 238 99 24 7f
        e 0 99 2e 7f
        e 0 99 26 7f
        e 0 99 28 7f
        e 2 99 24 00
        e 0 99 2e 00
        e 0 99 26 00
        e 0 99 28 00
        e 238 99 26 7f
        e 0 99 2a 7f
        e 2 99 26 00
        e 0 99 2a 00
        e 238 99 2a 7f
        e 0 99 24 7f
        e 2 99 2a 00
        e 0 99 24 00
        e 238 99 2a 7f
        e 2 99 2a 00
        e 238 99 2a 7f
        e 0 99 24 7f
        e 2 99 2a 00
        e 0 99 24 00
        e 238 99 24 7f
        e 2 99 24 00
        e 238 99 2a 7f
        e 0 99 28 7f
        e 2 99 2a 00
        e 0 99 28 00
        e 238 99 24 7f
        e 0 99 2a 7f
        e 2 99 24 00
        e 0 99 2a 00
        e 238 99 24 7f
        e 0 99 2a 7f
        e 2 99 24 00
        e 0 99 2a 00
        e 478 99 2a 7f
        e 0 99 24 7f
        e 2 99 2a 00
        e 0 99 24 00
        e 238 99 2a 7f
        e 0 99 24 7f
        e 2 99 2a 00
        e 0 99 24 00
        e 238 99 24 7f
        e 0 99 2e 7f
        e 2 99 24 00
        e 0 99 2e 00
        e 238 99 24 7f
        e 2 99 24 00
        e 238 99 28 7f
        e 0 99 2a 7f
        e 2 99 28 00
        e 0 99 2a 00
        e 238 99 2a 7f
        e 2 99 2a 00
        e 238 99 24 7f
        e 0 99 2e 7f
        e 2 99 24 00
        e 0 99 2e 00
        e 238 99 24 7f
        e 0 99 2a 7f
        e 2 99 24 00
        e 0 99 2a 00
        e 478 99 2a 7f
        e 0 99 24 7f
        e 2 99 2a 00
        e 0 99 24 00
        e 238 99 2e 7f
        e 0 99 24 7f
        e 2 99 2e 00
        e 0 99 24 00
        e 238 99 2a 7f
        e 0 99 24 7f
        e 2 99 2a 00
        e 0 99 24 00
        e 238 99 2e 7f
        e 0 99 28 7f
        e 2 99 2e 00
        e 0 99 28 00
        e 238 99 24 7f
        e 0 99 2a 7f
        e 2 99 24 00
        e 0 99 2a 00
        e 238 99 24 7f
        e 0 99 2a 7f
        e 2 99 24 00
        e 0 99 2a 00
        e 238 99 24 7f
        e 2 99 24 00
        e 238 99 24 7f
        e 2 99 24 00
        e 238 99 2a 7f
        e 2 99 2a 00
        e 238 99 2e 7f
        e 0 99 24 7f
        e 2 99 2e 00
        e 0 99 24 00
        e 238 99 24 7f
        e 2 99 24 00
        e 238 99 2a 7f
        e 0 99 28 7f
        e 2 99 2a 00
        e 0 99 28 00
        e 238 99 2a 7f
        e 2 99 2a 00
        e 238 99 24 7f
        e 0 99 2e 7f
        e 0 99 26 7f
        e 2 99 24 00
        e 0 99 2e 00
        e 0 99 26 00
        e 238 99 26 7f
        e 0 99 2a 7f
        e 2 99 26 00
        e 0 99 2a 00
        e 238 99 2a 7f
        e 0 99 24 7f
        e 2 99 2a 00
        e 0 99 24 00
        e 238 99 2a 7f
        e 2 99 2a 00
        e 238 99 2a 7f
        e 0 99 24 7f
        e 2 99 2a 00
        e 0 99 24 00
        e 238 99 24 7f
        e 2 99 24 00
        e 238 99 2a 7f
        e 0 99 28 7f
        e 2 99 2a 00
        e 0 99 28 00
        e 238 99 24 7f
        e 0 99 2a 7f
        e 2 99 24 00
        e 0 99 2a 00
        e 238 99 24 7f
        e 0 99 2a 7f
        e 2 99 24 00
        e 0 99 2a 00
        e 478 99 2a 7f
        e 0 99 24 7f
        e 2 99 2a 00
        e 0 99 24 00
        e 238 99 2a 7f
        e 0 99 24 7f
        e 2 99 2a 00
        e 0 99 24 00
        e 238 99 24 7f
        e 0 99 2e 7f
        e 2 99 24 00
        e 0 99 2e 00
        e 238 99 24 7f
        e 2 99 24 00
        e 238 99 28 7f
        e 0 99 2a 7f
        e 2 99 28 00
        e 0 99 2a 00
        e 238 99 2a 7f
        e 2 99 2a 00
        e 238 99 24 7f
        e 0 99 2e 7f
        e 2 99 24 00
        e 0 99 2e 00
        e 238 99 24 7f
        e 0 99 2a 7f
        e 2 99 24 00
        e 0 99 2a 00
        e 478 99 2a 7f
        e 0 99 24 7f
        e 2 99 2a 00
        e 0 99 24 00
        e 238 99 2e 7f
        e 0 99 24 7f
        e 2 99 2e 00
        e 0 99 24 00
        e 238 99 2a 7f
        e 0 99 24 7f
        e 2 99 2a 00
        e 0 99 24 00
        e 238 99 2e 7f
        e 0 99 28 7f
        e 2 99 2e 00
        e 0 99 28 00
        e 238 99 24 7f
        e 0 99 2a 7f
        e 0 99 28 7f
        e 2 99 24 00
        e 0 99 2a 00
        e 0 99 28 00
        e 238 99 24 7f
        e 0 99 2a 7f
        e 0 99 28 7f
        e 2 99 24 00
        e 0 99 2a 00
        e 0 99 28 00
        e 238 99 24 7f
        e 0 99 28 7f
        e 2 99 24 00
        e 0 99 28 00
        e 238 99 28 7f
        e 0 99 24 7f
        e 2 99 28 00
        e 0 99 24 00
        e 238 99 28 7f
        e 0 99 2a 7f
        e 2 99 28 00
        e 0 99 2a 00
        e 238 99 28 7f
        e 0 99 26 7f
        e 0 99 2e 7f
        e 0 99 24 7f
        e 2 99 28 00
        e 0 99 26 00
        e 0 99 2e 00
        e 0 99 24 00
        e 238 99 28 7f
        e 0 99 26 7f
        e 0 99 24 7f
        e 2 99 28 00
        e 0 99 26 00
        e 0 99 24 00
        e 238 99 31 7f
        e 0 99 2a 7f
        e 0 99 28 7f
        e 2 99 31 00
        e 0 99 2a 00
        e 0 99 28 00
        e 238 99 2a 7f
        e 0 99 28 7f
        e 2 99 2a 00
        e 0 99 28 00
        e 238 99 24 7f
        e 0 99 2e 7f
        e 0 99 26 7f
        e 0 99 28 7f
        e 2 99 24 00
        e 0 99 2e 00
        e 0 99 26 00
        e 0 99 28 00
        e 238 99 26 7f
        e 0 99 2a 7f
        e 2 99 26 00
        e 0 99 2a 00
        e 238 99 31 7f
        e 0 99 24 7f
        e 2 99 31 00
        e 0 99 24 00
        e 1438 99 31 7f
        e 0 99 24 7f
        e 2 99 31 00
        e 0 99 24 00
        e 1438 99 33 7f
        e 0 99 24 7f
        e 2 99 33 00
        e 0 99 24 00
        e 478 99 24 7f
        e 2 99 24 00
        e 718 99 2a 7f
        e 0 99 24 7f
        e 2 99 2a 00
        e 0 99 24 00
        e 238 99 2e 7f
        e 0 99 24 7f
        e 2 99 2e 00
        e 0 99 24 00
        e 238 99 2a 7f
        e 0 99 24 7f
        e 2 99 2a 00
        e 0 99 24 00
        e 238 99 2e 7f
        e 0 99 28 7f
        e 2 99 2e 00
        e 0 99 28 00
        e 238 99 24 7f
        e 0 99 2a 7f
        e 0 99 28 7f
        e 2 99 24 00
        e 0 99 2a 00
        e 0 99 28 00
        e 238 99 24 7f
        e 0 99 2a 7f
        e 0 99 28 7f
        e 2 99 24 00
        e 0 99 2a 00
        e 0 99 28 00
        e 238 99 24 7f
        e 0 99 28 7f
        e 2 99 24 00
        e 0 99 28 00
        e 238 99 28 7f
        e 0 99 24 7f
        e 2 99 28 00
        e 0 99 24 00
        e 238 99 28 7f
        e 0 99 2a 7f
        e 2 99 28 00
        e 0 99 2a 00
        e 238 99 28 7f
        e 0 99 26 7f
        e 0 99 2e 7f
        e 0 99 24 7f
        e 2 99 28 00
        e 0 99 26 00
        e 0 99 2e 00
        e 0 99 24 00
        e 238 99 28 7f
        e 0 99 26 7f
        e 0 99 24 7f
        e 2 99 28 00
        e 0 99 26 00
        e 0 99 24 00
        e 238 99 2a 7f
        e 0 99 28 7f
        e 2 99 2a 00
        e 0 99 28 00
        e 238 99 2a 7f
        e 0 99 28 7f
        e 2 99 2a 00
        e 0 99 28 00
        e 238 99 24 7f
        e 0 99 2e 7f
        e 0 99 26 7f
        e 0 99 28 7f
        e 2 99 24 00
        e 0 99 2e 00
        e 0 99 26 00
        e 0 99 28 00
        e 238 99 26 7f
        e 0 99 2a 7f
        e 2 99 26 00
        e 0 99 2a 00
        e 238 99 40 7f
        e 0 99 2a 7f
        e 0 99 31 7f
        e 0 99 24 7f
        e 2 99 40 00
        e 0 99 2a 00
        e 0 99 31 00
        e 0 99 24 00
        e 238 99 2a 7f
        e 2 99 2a 00
        e 238 99 3e 7f
        e 0 99 2a 7f
        e 0 99 28 7f
        e 2 99 3e 00
        e 0 99 2a 00
        e 0 99 28 00
        e 238 99 3f 7f
        e 0 99 2a 7f
        e 0 99 24 7f
        e 2 99 3f 00
        e 0 99 2a 00
        e 0 99 24 00
        e 238 99 3f 7f
        e 0 99 2e 7f
        e 0 99 24 7f
        e 2 99 3f 00
        e 0 99 2e 00
        e 0 99 24 00
        e 238 99 2a 7f
        e 0 99 24 7f
        e 2 99 2a 00
        e 0 99 24 00
        e 238 99 3e 7f
        e 0 99 2a 7f
        e 0 99 28 7f
        e 2 99 3e 00
        e 0 99 2a 00
        e 0 99 28 00
        e 238 99 2a 7f
        e 0 99 24 7f
        e 2 99 2a 00
        e 0 99 24 00
        e 238 99 3f 7f
        e 0 99 2a 7f
        e 2 99 3f 00
        e 0 99 2a 00
        e 238 99 3f 7f
        e 0 99 24 7f
        e 2 99 3f 00
        e 0 99 24 00
        e 238 99 3e 7f
        e 0 99 2a 7f
        e 0 99 28 7f
        e 2 99 3e 00
        e 0 99 2a 00
        e 0 99 28 00
        e 238 99 2a 7f
        e 0 99 24 7f
        e 2 99 2a 00
        e 0 99 24 00
        e 238 99 3f 7f
        e 0 99 2e 7f
        e 0 99 24 7f
        e 2 99 3f 00
        e 0 99 2e 00
        e 0 99 24 00
        e 238 99 3e 7f
        e 0 99 24 7f
        e 2 99 3e 00
        e 0 99 24 00
        e 238 99 3f 7f
        e 0 99 2a 7f
        e 0 99 28 7f
        e 2 99 3f 00
        e 0 99 2a 00
        e 0 99 28 00
        e 238 99 2a 7f
        e 2 99 2a 00
        e 238 99 40 7f
        e 0 99 2a 7f
        e 0 99 24 7f
        e 2 99 40 00
        e 0 99 2a 00
        e 0 99 24 00
        e 238 99 2a 7f
        e 2 99 2a 00
        e 238 99 3e 7f
        e 0 99 2a 7f
        e 0 99 28 7f
        e 2 99 3e 00
        e 0 99 2a 00
        e 0 99 28 00
        e 238 99 3f 7f
        e 0 99 2a 7f
        e 0 99 24 7f
        e 2 99 3f 00
        e 0 99 2a 00
        e 0 99 24 00
        e 238 99 3f 7f
        e 0 99 2e 7f
        e 0 99 24 7f
        e 2 99 3f 00
        e 0 99 2e 00
        e 0 99 24 00
        e 238 99 2a 7f
        e 0 99 24 7f
        e 2 99 2a 00
        e 0 99 24 00
        e 238 99 3e 7f
        e 0 99 2a 7f
        e 0 99 28 7f
        e 2 99 3e 00
        e 0 99 2a 00
        e 0 99 28 00
        e 238 99 2a 7f
        e 0 99 24 7f
        e 2 99 2a 00
        e 0 99 24 00
        e 238 99 3f 7f
        e 0 99 2a 7f
        e 2 99 3f 00
        e 0 99 2a 00
        e 238 99 3f 7f
        e 0 99 24 7f
        e 2 99 3f 00
        e 0 99 24 00
        e 238 99 3e 7f
        e 0 99 2a 7f
        e 0 99 28 7f
        e 2 99 3e 00
        e 0 99 2a 00
        e 0 99 28 00
        e 238 99 2a 7f
        e 0 99 24 7f
        e 2 99 2a 00
        e 0 99 24 00
        e 238 99 3f 7f
        e 0 99 2e 7f
        e 0 99 24 7f
        e 2 99 3f 00
        e 0 99 2e 00
        e 0 99 24 00
        e 238 99 3e 7f
        e 0 99 24 7f
        e 2 99 3e 00
        e 0 99 24 00
        e 238 99 3f 7f
        e 0 99 2a 7f
        e 0 99 28 7f
        e 2 99 3f 00
        e 0 99 2a 00
        e 0 99 28 00
        e 238 99 2a 7f
        e 2 99 2a 00
        e 238 99 40 7f
        e 0 99 2a 7f
        e 0 99 24 7f
        e 2 99 40 00
        e 0 99 2a 00
        e 0 99 24 00
        e 238 99 2a 7f
        e 2 99 2a 00
        e 238 99 3e 7f
        e 0 99 2a 7f
        e 0 99 28 7f
        e 2 99 3e 00
        e 0 99 2a 00
        e 0 99 28 00
        e 238 99 3f 7f
        e 0 99 2a 7f
        e 0 99 24 7f
        e 2 99 3f 00
        e 0 99 2a 00
        e 0 99 24 00
        e 238 99 3f 7f
        e 0 99 2e 7f
        e 0 99 24 7f
        e 2 99 3f 00
        e 0 99 2e 00
        e 0 99 24 00
        e 238 99 2a 7f
        e 0 99 24 7f
        e 2 99 2a 00
        e 0 99 24 00
        e 238 99 3e 7f
        e 0 99 2a 7f
        e 0 99 28 7f
        e 2 99 3e 00
        e 0 99 2a 00
        e 0 99 28 00
        e 238 99 2a 7f
        e 0 99 24 7f
        e 2 99 2a 00
        e 0 99 24 00
        e 238 99 3f 7f
        e 0 99 2a 7f
        e 2 99 3f 00
        e 0 99 2a 00
        e 238 99 3f 7f
        e 0 99 24 7f
        e 2 99 3f 00
        e 0 99 24 00
        e 238 99 3e 7f
        e 0 99 2a 7f
        e 0 99 28 7f
        e 2 99 3e 00
        e 0 99 2a 00
        e 0 99 28 00
        e 238 99 2a 7f
        e 0 99 24 7f
        e 2 99 2a 00
        e 0 99 24 00
        e 238 99 3f 7f
        e 0 99 2e 7f
        e 0 99 24 7f
        e 2 99 3f 00
        e 0 99 2e 00
        e 0 99 24 00
        e 238 99 3e 7f
        e 0 99 24 7f
        e 2 99 3e 00
        e 0 99 24 00
        e 238 99 3f 7f
        e 0 99 2a 7f
        e 0 99 28 7f
        e 2 99 3f 00
        e 0 99 2a 00
        e 0 99 28 00
        e 238 99 2a 7f
        e 2 99 2a 00
        e 238 99 40 7f
        e 0 99 2a 7f
        e 0 99 24 7f
        e 2 99 40 00
        e 0 99 2a 00
        e 0 99 24 00
        e 238 99 2a 7f
        e 2 99 2a 00
        e 238 99 3e 7f
        e 0 99 2a 7f
        e 0 99 28 7f
        e 2 99 3e 00
        e 0 99 2a 00
        e 0 99 28 00
        e 238 99 3f 7f
        e 0 99 2a 7f
        e 0 99 24 7f
        e 2 99 3f 00
        e 0 99 2a 00
        e 0 99 24 00
        e 238 99 3f 7f
        e 0 99 2e 7f
        e 0 99 24 7f
        e 2 99 3f 00
        e 0 99 2e 00
        e 0 99 24 00
        e 238 99 2a 7f
        e 0 99 24 7f
        e 2 99 2a 00
        e 0 99 24 00
        e 238 99 3e 7f
        e 0 99 2a 7f
        e 0 99 28 7f
        e 2 99 3e 00
        e 0 99 2a 00
        e 0 99 28 00
        e 238 99 2a 7f
        e 0 99 24 7f
        e 2 99 2a 00
        e 0 99 24 00
        e 238 99 3f 7f
        e 0 99 2a 7f
        e 2 99 3f 00
        e 0 99 2a 00
        e 238 99 3f 7f
        e 0 99 24 7f
        e 2 99 3f 00
        e 0 99 24 00
        e 238 99 3e 7f
        e 0 99 2a 7f
        e 0 99 28 7f
        e 2 99 3e 00
        e 0 99 2a 00
        e 0 99 28 00
        e 238 99 2a 7f
        e 0 99 24 7f
        e 2 99 2a 00
        e 0 99 24 00
        e 238 99 3f 7f
        e 0 99 2e 7f
        e 0 99 24 7f
        e 2 99 3f 00
        e 0 99 2e 00
        e 0 99 24 00
        e 238 99 3e 7f
        e 0 99 24 7f
        e 2 99 3e 00
        e 0 99 24 00
        e 238 99 3f 7f
        e 0 99 2a 7f
        e 0 99 28 7f
        e 2 99 3f 00
        e 0 99 2a 00
        e 0 99 28 00
        e 238 99 2a 7f
        e 2 99 2a 00
        e 238 99 40 7f
        e 0 99 2a 7f
        e 0 99 31 7f
        e 0 99 24 7f
        e 2 99 40 00
        e 0 99 2a 00
        e 0 99 31 00
        e 0 99 24 00
        e 238 99 2a 7f
        e 2 99 2a 00
        e 238 99 3e 7f
        e 0 99 2a 7f
        e 0 99 28 7f
        e 2 99 3e 00
        e 0 99 2a 00
        e 0 99 28 00
        e 238 99 3f 7f
        e 0 99 2a 7f
        e 0 99 24 7f
        e 2 99 3f 00
        e 0 99 2a 00
        e 0 99 24 00
        e 238 99 3f 7f
        e 0 99 2e 7f
        e 0 99 24 7f
        e 2 99 3f 00
        e 0 99 2e 00
        e 0 99 24 00
        e 238 99 2a 7f
        e 0 99 24 7f
        e 2 99 2a 00
        e 0 99 24 00
        e 238 99 3e 7f
        e 0 99 2a 7f
        e 0 99 28 7f
        e 2 99 3e 00
        e 0 99 2a 00
        e 0 99 28 00
        e 238 99 2a 7f
        e 0 99 24 7f
        e 2 99 2a 00
        e 0 99 24 00
        e 238 99 3f 7f
        e 0 99 2a 7f
        e 2 99 3f 00
        e 0 99 2a 00
        e 238 99 3f 7f
        e 0 99 24 7f
        e 2 99 3f 00
        e 0 99 24 00
        e 238 99 3e 7f
        e 0 99 2a 7f
        e 0 99 28 7f
        e 2 99 3e 00
        e 0 99 2a 00
        e 0 99 28 00
        e 238 99 2a 7f
        e 0 99 24 7f
        e 2 99 2a 00
        e 0 99 24 00
        e 238 99 3f 7f
        e 0 99 2e 7f
        e 0 99 24 7f
        e 2 99 3f 00
        e 0 99 2e 00
        e 0 99 24 00
        e 238 99 3e 7f
        e 0 99 24 7f
        e 2 99 3e 00
        e 0 99 24 00
        e 238 99 3f 7f
        e 0 99 2a 7f
        e 0 99 28 7f
        e 2 99 3f 00
        e 0 99 2a 00
        e 0 99 28 00
        e 238 99 2a 7f
        e 2 99 2a 00
        e 238 99 40 7f
        e 0 99 2a 7f
        e 0 99 24 7f
        e 2 99 40 00
        e 0 99 2a 00
        e 0 99 24 00
        e 238 99 2a 7f
        e 2 99 2a 00
        e 238 99 3e 7f
        e 0 99 2a 7f
        e 0 99 28 7f
        e 2 99 3e 00
        e 0 99 2a 00
        e 0 99 28 00
        e 238 99 3f 7f
        e 0 99 2a 7f
        e 0 99 24 7f
        e 2 99 3f 00
        e 0 99 2a 00
        e 0 99 24 00
        e 238 99 3f 7f
        e 0 99 2e 7f
        e 0 99 24 7f
        e 2 99 3f 00
        e 0 99 2e 00
        e 0 99 24 00
        e 238 99 2a 7f
        e 0 99 24 7f
        e 2 99 2a 00
        e 0 99 24 00
        e 238 99 3e 7f
        e 0 99 2a 7f
        e 0 99 28 7f
        e 2 99 3e 00
        e 0 99 2a 00
        e 0 99 28 00
        e 238 99 2a 7f
        e 0 99 24 7f
        e 2 99 2a 00
        e 0 99 24 00
        e 238 99 3f 7f
        e 0 99 2a 7f
        e 2 99 3f 00
        e 0 99 2a 00
        e 238 99 3f 7f
        e 0 99 24 7f
        e 2 99 3f 00
        e 0 99 24 00
        e 238 99 3e 7f
        e 0 99 2a 7f
        e 0 99 28 7f
        e 2 99 3e 00
        e 0 99 2a 00
        e 0 99 28 00
        e 238 99 2a 7f
        e 0 99 24 7f
        e 2 99 2a 00
        e 0 99 24 00
        e 238 99 3f 7f
        e 0 99 2e 7f
        e 0 99 24 7f
        e 2 99 3f 00
        e 0 99 2e 00
        e 0 99 24 00
        e 238 99 3e 7f
        e 0 99 24 7f
        e 2 99 3e 00
        e 0 99 24 00
        e 238 99 3f 7f
        e 0 99 2a 7f
        e 0 99 28 7f
        e 2 99 3f 00
        e 0 99 2a 00
        e 0 99 28 00
        e 238 99 2a 7f
        e 2 99 2a 00
        e 238 99 40 7f
        e 0 99 2a 7f
        e 0 99 24 7f
        e 2 99 40 00
        e 0 99 2a 00
        e 0 99 24 00
        e 238 99 2a 7f
        e 2 99 2a 00
        e 238 99 3e 7f
        e 0 99 2a 7f
        e 0 99 28 7f
        e 2 99 3e 00
        e 0 99 2a 00
        e 0 99 28 00
        e 238 99 3f 7f
        e 0 99 2a 7f
        e 0 99 24 7f
        e 2 99 3f 00
        e 0 99 2a 00
        e 0 99 24 00
        e 238 99 3f 7f
        e 0 99 2e 7f
        e 0 99 24 7f
        e 2 99 3f 00
        e 0 99 2e 00
        e 0 99 24 00
        e 238 99 2a 7f
        e 0 99 24 7f
        e 2 99 2a 00
        e 0 99 24 00
        e 238 99 3e 7f
        e 0 99 2a 7f
        e 0 99 28 7f
        e 2 99 3e 00
        e 0 99 2a 00
        e 0 99 28 00
        e 238 99 2a 7f
        e 0 99 24 7f
        e 2 99 2a 00
        e 0 99 24 00
        e 238 99 3f 7f
        e 0 99 2a 7f
        e 2 99 3f 00
        e 0 99 2a 00
        e 238 99 3f 7f
        e 0 99 24 7f
        e 2 99 3f 00
        e 0 99 24 00
        e 238 99 3e 7f
        e 0 99 2a 7f
        e 0 99 28 7f
        e 2 99 3e 00
        e 0 99 2a 00
        e 0 99 28 00
        e 238 99 2a 7f
        e 0 99 24 7f
        e 2 99 2a 00
        e 0 99 24 00
        e 238 99 3f 7f
        e 0 99 2e 7f
        e 0 99 24 7f
        e 2 99 3f 00
        e 0 99 2e 00
        e 0 99 24 00
        e 238 99 3e 7f
        e 0 99 24 7f
        e 2 99 3e 00
        e 0 99 24 00
        e 238 99 3f 7f
        e 0 99 2a 7f
        e 0 99 28 7f
        e 2 99 3f 00
        e 0 99 2a 00
        e 0 99 28 00
        e 238 99 2a 7f
        e 2 99 2a 00
        e 238 99 40 7f
        e 0 99 2a 7f
        e 0 99 24 7f
        e 2 99 40 00
        e 0 99 2a 00
        e 0 99 24 00
        e 238 99 2a 7f
        e 2 99 2a 00
        e 238 99 3e 7f
        e 0 99 2a 7f
        e 0 99 28 7f
        e 2 99 3e 00
        e 0 99 2a 00
        e 0 99 28 00
        e 238 99 3f 7f
        e 0 99 2a 7f
        e 0 99 24 7f
        e 2 99 3f 00
        e 0 99 2a 00
        e 0 99 24 00
        e 238 99 3f 7f
        e 0 99 2e 7f
        e 0 99 24 7f
        e 2 99 3f 00
        e 0 99 2e 00
        e 0 99 24 00
        e 238 99 2a 7f
        e 0 99 24 7f
        e 2 99 2a 00
        e 0 99 24 00
        e 238 99 3e 7f
        e 0 99 2a 7f
        e 0 99 28 7f
        e 2 99 3e 00
        e 0 99 2a 00
        e 0 99 28 00
        e 238 99 2a 7f
        e 0 99 24 7f
        e 2 99 2a 00
        e 0 99 24 00
        e 238 99 3f 7f
        e 0 99 2a 7f
        e 2 99 3f 00
        e 0 99 2a 00
        e 238 99 3f 7f
        e 0 99 24 7f
        e 2 99 3f 00
        e 0 99 24 00
        e 238 99 3e 7f
        e 0 99 2a 7f
        e 0 99 28 7f
        e 2 99 3e 00
        e 0 99 2a 00
        e 0 99 28 00
        e 238 99 2a 7f
        e 0 99 24 7f
        e 2 99 2a 00
        e 0 99 24 00
        e 238 99 3f 7f
        e 0 99 2e 7f
        e 0 99 24 7f
        e 2 99 3f 00
        e 0 99 2e 00
        e 0 99 24 00
        e 238 99 3e 7f
        e 0 99 24 7f
        e 2 99 3e 00
        e 0 99 24 00
        e 238 99 3f 7f
        e 0 99 2a 7f
        e 0 99 28 7f
        e 2 99 3f 00
        e 0 99 2a 00
        e 0 99 28 00
        e 238 99 2a 7f
        e 2 99 2a 00
        e 238 99 40 7f
        e 0 99 2a 7f
        e 0 99 31 7f
        e 0 99 24 7f
        e 2 99 40 00
        e 0 99 2a 00
        e 0 99 31 00
        e 0 99 24 00
        e 238 99 2a 7f
        e 2 99 2a 00
        e 238 99 3e 7f
        e 0 99 2a 7f
        e 0 99 28 7f
        e 2 99 3e 00
        e 0 99 2a 00
        e 0 99 28 00
        e 238 99 3f 7f
        e 0 99 2a 7f
        e 0 99 24 7f
        e 2 99 3f 00
        e 0 99 2a 00
        e 0 99 24 00
        e 238 99 3f 7f
        e 0 99 2e 7f
        e 0 99 24 7f
        e 2 99 3f 00
        e 0 99 2e 00
        e 0 99 24 00
        e 238 99 2a 7f
        e 0 99 24 7f
        e 2 99 2a 00
        e 0 99 24 00
        e 238 99 3e 7f
        e 0 99 2a 7f
        e 0 99 28 7f
        e 2 99 3e 00
        e 0 99 2a 00
        e 0 99 28 00
        e 238 99 2a 7f
        e 0 99 24 7f
        e 2 99 2a 00
        e 0 99 24 00
        e 238 99 3f 7f
        e 0 99 2a 7f
        e 2 99 3f 00
        e 0 99 2a 00
        e 238 99 3f 7f
        e 0 99 24 7f
        e 2 99 3f 00
        e 0 99 24 00
        e 238 99 3e 7f
        e 0 99 2a 7f
        e 0 99 28 7f
        e 2 99 3e 00
        e 0 99 2a 00
        e 0 99 28 00
        e 238 99 2a 7f
        e 0 99 24 7f
        e 2 99 2a 00
        e 0 99 24 00
        e 238 99 3f 7f
        e 0 99 2e 7f
        e 0 99 24 7f
        e 2 99 3f 00
        e 0 99 2e 00
        e 0 99 24 00
        e 238 99 3e 7f
        e 0 99 24 7f
        e 2 99 3e 00
        e 0 99 24 00
        e 238 99 3f 7f
        e 0 99 2a 7f
        e 0 99 28 7f
        e 2 99 3f 00
        e 0 99 2a 00
        e 0 99 28 00
        e 238 99 2a 7f
        e 2 99 2a 00
        e 238 99 40 7f
        e 0 99 2a 7f
        e 0 99 24 7f
        e 2 99 40 00
        e 0 99 2a 00
        e 0 99 24 00
        e 238 99 2a 7f
        e 2 99 2a 00
        e 238 99 3e 7f
        e 0 99 2a 7f
        e 0 99 28 7f
        e 2 99 3e 00
        e 0 99 2a 00
        e 0 99 28 00
        e 238 99 3f 7f
        e 0 99 2a 7f
        e 0 99 24 7f
        e 2 99 3f 00
        e 0 99 2a 00
        e 0 99 24 00
        e 238 99 3f 7f
        e 0 99 2e 7f
        e 0 99 24 7f
        e 2 99 3f 00
        e 0 99 2e 00
        e 0 99 24 00
        e 238 99 2a 7f
        e 0 99 24 7f
        e 2 99 2a 00
        e 0 99 24 00
        e 238 99 3e 7f
        e 0 99 2a 7f
        e 0 99 28 7f
        e 2 99 3e 00
        e 0 99 2a 00
        e 0 99 28 00
        e 238 99 2a 7f
        e 0 99 24 7f
        e 2 99 2a 00
        e 0 99 24 00
        e 238 99 3f 7f
        e 0 99 2a 7f
        e 2 99 3f 00
        e 0 99 2a 00
        e 238 99 3f 7f
        e 0 99 24 7f
        e 2 99 3f 00
        e 0 99 24 00
        e 238 99 3e 7f
        e 0 99 2a 7f
        e 0 99 28 7f
        e 2 99 3e 00
        e 0 99 2a 00
        e 0 99 28 00
        e 238 99 2a 7f
        e 0 99 24 7f
        e 2 99 2a 00
        e 0 99 24 00
        e 238 99 3f 7f
        e 0 99 2e 7f
        e 0 99 24 7f
        e 2 99 3f 00
        e 0 99 2e 00
        e 0 99 24 00
        e 238 99 3e 7f
        e 0 99 24 7f
        e 2 99 3e 00
        e 0 99 24 00
        e 238 99 3f 7f
        e 0 99 2a 7f
        e 0 99 28 7f
        e 2 99 3f 00
        e 0 99 2a 00
        e 0 99 28 00
        e 238 99 2a 7f
        e 2 99 2a 00
        e 238 99 40 7f
        e 0 99 2a 7f
        e 0 99 24 7f
        e 2 99 40 00
        e 0 99 2a 00
        e 0 99 24 00
        e 238 99 2a 7f
        e 2 99 2a 00
        e 238 99 3e 7f
        e 0 99 2a 7f
        e 0 99 28 7f
        e 2 99 3e 00
        e 0 99 2a 00
        e 0 99 28 00
        e 238 99 3f 7f
        e 0 99 2a 7f
        e 0 99 24 7f
        e 2 99 3f 00
        e 0 99 2a 00
        e 0 99 24 00
        e 238 99 3f 7f
        e 0 99 2e 7f
        e 0 99 24 7f
        e 2 99 3f 00
        e 0 99 2e 00
        e 0 99 24 00
        e 238 99 2a 7f
        e 0 99 24 7f
        e 2 99 2a 00
        e 0 99 24 00
        e 238 99 3e 7f
        e 0 99 2a 7f
        e 0 99 28 7f
        e 2 99 3e 00
        e 0 99 2a 00
        e 0 99 28 00
        e 238 99 2a 7f
        e 0 99 24 7f
        e 2 99 2a 00
        e 0 99 24 00
        e 238 99 3f 7f
        e 0 99 2a 7f
        e 2 99 3f 00
        e 0 99 2a 00
        e 238 99 3f 7f
        e 0 99 24 7f
        e 2 99 3f 00
        e 0 99 24 00
        e 238 99 3e 7f
        e 0 99 2a 7f
        e 0 99 28 7f
        e 2 99 3e 00
        e 0 99 2a 00
        e 0 99 28 00
        e 238 99 2a 7f
        e 0 99 24 7f
        e 2 99 2a 00
        e 0 99 24 00
        e 238 99 3f 7f
        e 0 99 2e 7f
        e 0 99 24 7f
        e 2 99 3f 00
        e 0 99 2e 00
        e 0 99 24 00
        e 238 99 3e 7f
        e 0 99 24 7f
        e 2 99 3e 00
        e 0 99 24 00
        e 238 99 3f 7f
        e 0 99 2a 7f
        e 0 99 28 7f
        e 2 99 3f 00
        e 0 99 2a 00
        e 0 99 28 00
        e 238 99 2a 7f
        e 2 99 2a 00
        e 238 99 40 7f
        e 0 99 2a 7f
        e 0 99 24 7f
        e 2 99 40 00
        e 0 99 2a 00
        e 0 99 24 00
        e 238 99 2a 7f
        e 2 99 2a 00
        e 238 99 3e 7f
        e 0 99 2a 7f
        e 0 99 28 7f
        e 2 99 3e 00
        e 0 99 2a 00
        e 0 99 28 00
        e 238 99 3f 7f
        e 0 99 2a 7f
        e 0 99 24 7f
        e 2 99 3f 00
        e 0 99 2a 00
        e 0 99 24 00
        e 238 99 3f 7f
        e 0 99 2e 7f
        e 0 99 24 7f
        e 2 99 3f 00
        e 0 99 2e 00
        e 0 99 24 00
        e 238 99 2a 7f
        e 0 99 24 7f
        e 2 99 2a 00
        e 0 99 24 00
        e 238 99 3e 7f
        e 0 99 2a 7f
        e 0 99 28 7f
        e 2 99 3e 00
        e 0 99 2a 00
        e 0 99 28 00
        e 238 99 2a 7f
        e 0 99 24 7f
        e 2 99 2a 00
        e 0 99 24 00
        e 238 99 3f 7f
        e 0 99 2a 7f
        e 2 99 3f 00
        e 0 99 2a 00
        e 238 99 3f 7f
        e 0 99 24 7f
        e 2 99 3f 00
        e 0 99 24 00
        e 238 99 3e 7f
        e 0 99 2a 7f
        e 0 99 28 7f
        e 2 99 3e 00
        e 0 99 2a 00
        e 0 99 28 00
        e 238 99 2a 7f
        e 0 99 24 7f
        e 2 99 2a 00
        e 0 99 24 00
        e 238 99 3f 7f
        e 0 99 2e 7f
        e 0 99 24 7f
        e 2 99 3f 00
        e 0 99 2e 00
        e 0 99 24 00
        e 238 99 3e 7f
        e 0 99 24 7f
        e 2 99 3e 00
        e 0 99 24 00
        e 238 99 3f 7f
        e 0 99 2a 7f
        e 0 99 28 7f
        e 2 99 3f 00
        e 0 99 2a 00
        e 0 99 28 00
        e 238 99 2a 7f
        e 2 99 2a 00
        e 238 99 40 7f
        e 0 99 2a 7f
        e 0 99 31 7f
        e 0 99 24 7f
        e 2 99 40 00
        e 0 99 2a 00
        e 0 99 31 00
        e 0 99 24 00
        e 238 99 2a 7f
        e 2 99 2a 00
        e 238 99 3e 7f
        e 0 99 2a 7f
        e 0 99 28 7f
        e 2 99 3e 00
        e 0 99 2a 00
        e 0 99 28 00
        e 238 99 3f 7f
        e 0 99 2a 7f
        e 0 99 24 7f
        e 2 99 3f 00
        e 0 99 2a 00
        e 0 99 24 00
        e 238 99 3f 7f
        e 0 99 2e 7f
        e 0 99 24 7f
        e 2 99 3f 00
        e 0 99 2e 00
        e 0 99 24 00
        e 238 99 2a 7f
        e 0 99 24 7f
        e 2 99 2a 00
        e 0 99 24 00
        e 238 99 3e 7f
        e 0 99 2a 7f
        e 0 99 28 7f
        e 2 99 3e 00
        e 0 99 2a 00
        e 0 99 28 00
        e 238 99 2a 7f
        e 0 99 24 7f
        e 2 99 2a 00
        e 0 99 24 00
        e 238 99 3f 7f
        e 0 99 2a 7f
        e 2 99 3f 00
        e 0 99 2a 00
        e 238 99 3f 7f
        e 0 99 24 7f
        e 2 99 3f 00
        e 0 99 24 00
        e 238 99 3e 7f
        e 0 99 2a 7f
        e 0 99 28 7f
        e 2 99 3e 00
        e 0 99 2a 00
        e 0 99 28 00
        e 238 99 2a 7f
        e 0 99 24 7f
        e 2 99 2a 00
        e 0 99 24 00
        e 238 99 3f 7f
        e 0 99 2e 7f
        e 0 99 24 7f
        e 2 99 3f 00
        e 0 99 2e 00
        e 0 99 24 00
        e 238 99 3e 7f
        e 0 99 24 7f
        e 2 99 3e 00
        e 0 99 24 00
        e 238 99 3f 7f
        e 0 99 2a 7f
        e 0 99 28 7f
        e 2 99 3f 00
        e 0 99 2a 00
        e 0 99 28 00
        e 238 99 2a 7f
        e 2 99 2a 00
        e 238 99 40 7f
        e 0 99 2a 7f
        e 0 99 24 7f
        e 2 99 40 00
        e 0 99 2a 00
        e 0 99 24 00
        e 238 99 2a 7f
        e 2 99 2a 00
        e 238 99 3e 7f
        e 0 99 2a 7f
        e 0 99 28 7f
        e 2 99 3e 00
        e 0 99 2a 00
        e 0 99 28 00
        e 238 99 3f 7f
        e 0 99 2a 7f
        e 0 99 24 7f
        e 2 99 3f 00
        e 0 99 2a 00
        e 0 99 24 00
        e 238 99 3f 7f
        e 0 99 2e 7f
        e 0 99 24 7f
        e 2 99 3f 00
        e 0 99 2e 00
        e 0 99 24 00
        e 238 99 2a 7f
        e 0 99 24 7f
        e 2 99 2a 00
        e 0 99 24 00
        e 238 99 3e 7f
        e 0 99 2a 7f
        e 0 99 28 7f
        e 2 99 3e 00
        e 0 99 2a 00
        e 0 99 28 00
        e 238 99 2a 7f
        e 0 99 24 7f
        e 2 99 2a 00
        e 0 99 24 00
        e 238 99 3f 7f
        e 0 99 2a 7f
        e 2 99 3f 00
        e 0 99 2a 00
        e 238 99 3f 7f
        e 0 99 24 7f
        e 2 99 3f 00
        e 0 99 24 00
        e 238 99 3e 7f
        e 0 99 2a 7f
        e 0 99 28 7f
        e 2 99 3e 00
        e 0 99 2a 00
        e 0 99 28 00
        e 238 99 2a 7f
        e 0 99 24 7f
        e 2 99 2a 00
        e 0 99 24 00
        e 238 99 3f 7f
        e 0 99 2e 7f
        e 0 99 24 7f
        e 2 99 3f 00
        e 0 99 2e 00
        e 0 99 24 00
        e 238 99 3e 7f
        e 0 99 24 7f
        e 2 99 3e 00
        e 0 99 24 00
        e 238 99 3f 7f
        e 0 99 2a 7f
        e 0 99 28 7f
        e 2 99 3f 00
        e 0 99 2a 00
        e 0 99 28 00
        e 238 99 2a 7f
        e 2 99 2a 00
        e 238 99 40 7f
        e 0 99 2a 7f
        e 0 99 24 7f
        e 2 99 40 00
        e 0 99 2a 00
        e 0 99 24 00
        e 238 99 2a 7f
        e 2 99 2a 00
        e 238 99 3e 7f
        e 0 99 2a 7f
        e 0 99 28 7f
        e 2 99 3e 00
        e 0 99 2a 00
        e 0 99 28 00
        e 238 99 3f 7f
        e 0 99 2a 7f
        e 0 99 24 7f
        e 2 99 3f 00
        e 0 99 2a 00
        e 0 99 24 00
        e 238 99 3f 7f
        e 0 99 2e 7f
        e 0 99 24 7f
        e 2 99 3f 00
        e 0 99 2e 00
        e 0 99 24 00
        e 238 99 2a 7f
        e 0 99 24 7f
        e 2 99 2a 00
        e 0 99 24 00
        e 238 99 3e 7f
        e 0 99 2a 7f
        e 0 99 28 7f
        e 2 99 3e 00
        e 0 99 2a 00
        e 0 99 28 00
        e 238 99 2a 7f
        e 0 99 24 7f
        e 2 99 2a 00
        e 0 99 24 00
        e 238 99 3f 7f
        e 0 99 2a 7f
        e 2 99 3f 00
        e 0 99 2a 00
        e 238 99 3f 7f
        e 0 99 24 7f
        e 2 99 3f 00
        e 0 99 24 00
        e 238 99 3e 7f
        e 0 99 2a 7f
        e 0 99 28 7f
        e 2 99 3e 00
        e 0 99 2a 00
        e 0 99 28 00
        e 238 99 2a 7f
        e 0 99 24 7f
        e 2 99 2a 00
        e 0 99 24 00
        e 238 99 3f 7f
        e 0 99 2e 7f
        e 0 99 24 7f
        e 2 99 3f 00
        e 0 99 2e 00
        e 0 99 24 00
        e 238 99 3e 7f
        e 0 99 24 7f
        e 2 99 3e 00
        e 0 99 24 00
        e 238 99 3f 7f
        e 0 99 2a 7f
        e 0 99 28 7f
        e 2 99 3f 00
        e 0 99 2a 00
        e 0 99 28 00
        e 238 99 2a 7f
        e 2 99 2a 00
        e 238 99 40 7f
        e 0 99 2a 7f
        e 0 99 24 7f
        e 2 99 40 00
        e 0 99 2a 00
        e 0 99 24 00
        e 238 99 2a 7f
        e 2 99 2a 00
        e 238 99 3e 7f
        e 0 99 2a 7f
        e 0 99 28 7f
        e 2 99 3e 00
        e 0 99 2a 00
        e 0 99 28 00
        e 238 99 3f 7f
        e 0 99 2a 7f
        e 0 99 24 7f
        e 2 99 3f 00
        e 0 99 2a 00
        e 0 99 24 00
        e 238 99 3f 7f
        e 0 99 2e 7f
        e 0 99 24 7f
        e 2 99 3f 00
        e 0 99 2e 00
        e 0 99 24 00
        e 238 99 2a 7f
        e 0 99 24 7f
        e 2 99 2a 00
        e 0 99 24 00
        e 238 99 3e 7f
        e 0 99 2a 7f
        e 0 99 28 7f
        e 2 99 3e 00
        e 0 99 2a 00
        e 0 99 28 00
        e 238 99 2a 7f
        e 0 99 24 7f
        e 2 99 2a 00
        e 0 99 24 00
        e 238 99 3f 7f
        e 0 99 2a 7f
        e 2 99 3f 00
        e 0 99 2a 00
        e 238 99 3f 7f
        e 0 99 24 7f
        e 2 99 3f 00
        e 0 99 24 00
        e 238 99 3e 7f
        e 0 99 2a 7f
        e 0 99 28 7f
        e 2 99 3e 00
        e 0 99 2a 00
        e 0 99 28 00
        e 238 99 2a 7f
        e 0 99 24 7f
        e 2 99 2a 00
        e 0 99 24 00
        e 238 99 3f 7f
        e 0 99 2e 7f
        e 0 99 24 7f
        e 2 99 3f 00
        e 0 99 2e 00
        e 0 99 24 00
        e 238 99 3e 7f
        e 0 99 24 7f
        e 2 99 3e 00
        e 0 99 24 00
        e 238 99 3f 7f
        e 0 99 2a 7f
        e 0 99 28 7f
        e 2 99 3f 00
        e 0 99 2a 00
        e 0 99 28 00
        e 238 99 2a 7f
        e 2 99 2a 00
        e 238 99 40 7f
        e 0 99 2a 7f
        e 0 99 31 7f
        e 0 99 24 7f
        e 2 99 40 00
        e 0 99 2a 00
        e 0 99 31 00
        e 0 99 24 00
        e 238 99 2a 7f
        e 2 99 2a 00
        e 238 99 3e 7f
        e 0 99 2a 7f
        e 0 99 28 7f
        e 2 99 3e 00
        e 0 99 2a 00
        e 0 99 28 00
        e 238 99 3f 7f
        e 0 99 2a 7f
        e 0 99 24 7f
        e 2 99 3f 00
        e 0 99 2a 00
        e 0 99 24 00
        e 238 99 3f 7f
        e 0 99 2e 7f
        e 0 99 24 7f
        e 2 99 3f 00
        e 0 99 2e 00
        e 0 99 24 00
        e 238 99 2a 7f
        e 0 99 24 7f
        e 2 99 2a 00
        e 0 99 24 00
        e 238 99 3e 7f
        e 0 99 2a 7f
        e 0 99 28 7f
        e 2 99 3e 00
        e 0 99 2a 00
        e 0 99 28 00
        e 238 99 2a 7f
        e 0 99 24 7f
        e 2 99 2a 00
        e 0 99 24 00
        e 238 99 3f 7f
        e 0 99 2a 7f
        e 2 99 3f 00
        e 0 99 2a 00
        e 238 99 3f 7f
        e 0 99 24 7f
        e 2 99 3f 00
        e 0 99 24 00
        e 238 99 3e 7f
        e 0 99 2a 7f
        e 0 99 28 7f
        e 2 99 3e 00
        e 0 99 2a 00
        e 0 99 28 00
        e 238 99 2a 7f
        e 0 99 24 7f
        e 2 99 2a 00
        e 0 99 24 00
        e 238 99 3f 7f
        e 0 99 2e 7f
        e 0 99 24 7f
        e 2 99 3f 00
        e 0 99 2e 00
        e 0 99 24 00
        e 238 99 3e 7f
        e 0 99 24 7f
        e 2 99 3e 00
        e 0 99 24 00
        e 238 99 3f 7f
        e 0 99 2a 7f
        e 0 99 28 7f
        e 2 99 3f 00
        e 0 99 2a 00
        e 0 99 28 00
        e 238 99 2a 7f
        e 2 99 2a 00
        e 238 99 40 7f
        e 0 99 2a 7f
        e 0 99 24 7f
        e 2 99 40 00
        e 0 99 2a 00
        e 0 99 24 00
        e 238 99 2a 7f
        e 2 99 2a 00
        e 238 99 3e 7f
        e 0 99 2a 7f
        e 0 99 28 7f
        e 2 99 3e 00
        e 0 99 2a 00
        e 0 99 28 00
        e 238 99 3f 7f
        e 0 99 2a 7f
        e 0 99 24 7f
        e 2 99 3f 00
        e 0 99 2a 00
        e 0 99 24 00
        e 238 99 3f 7f
        e 0 99 2e 7f
        e 0 99 24 7f
        e 2 99 3f 00
        e 0 99 2e 00
        e 0 99 24 00
        e 238 99 2a 7f
        e 0 99 24 7f
        e 2 99 2a 00
        e 0 99 24 00
        e 238 99 3e 7f
        e 0 99 2a 7f
        e 0 99 28 7f
        e 2 99 3e 00
        e 0 99 2a 00
        e 0 99 28 00
        e 238 99 2a 7f
        e 0 99 24 7f
        e 2 99 2a 00
        e 0 99 24 00
        e 238 99 3f 7f
        e 0 99 2a 7f
        e 2 99 3f 00
        e 0 99 2a 00
        e 238 99 3f 7f
        e 0 99 24 7f
        e 2 99 3f 00
        e 0 99 24 00
        e 238 99 3e 7f
        e 0 99 2a 7f
        e 0 99 28 7f
        e 2 99 3e 00
        e 0 99 2a 00
        e 0 99 28 00
        e 238 99 2a 7f
        e 0 99 24 7f
        e 2 99 2a 00
        e 0 99 24 00
        e 238 99 3f 7f
        e 0 99 2e 7f
        e 0 99 24 7f
        e 2 99 3f 00
        e 0 99 2e 00
        e 0 99 24 00
        e 238 99 3e 7f
        e 0 99 24 7f
        e 2 99 3e 00
        e 0 99 24 00
        e 238 99 3f 7f
        e 0 99 2a 7f
        e 0 99 28 7f
        e 2 99 3f 00
        e 0 99 2a 00
        e 0 99 28 00
        e 238 99 2a 7f
        e 2 99 2a 00
        e 238 99 40 7f
        e 0 99 2a 7f
        e 0 99 24 7f
        e 2 99 40 00
        e 0 99 2a 00
        e 0 99 24 00
        e 238 99 2a 7f
        e 2 99 2a 00
        e 238 99 3e 7f
        e 0 99 2a 7f
        e 0 99 28 7f
        e 2 99 3e 00
        e 0 99 2a 00
        e 0 99 28 00
        e 238 99 3f 7f
        e 0 99 2a 7f
        e 0 99 24 7f
        e 2 99 3f 00
        e 0 99 2a 00
        e 0 99 24 00
        e 238 99 3f 7f
        e 0 99 2e 7f
        e 0 99 24 7f
        e 2 99 3f 00
        e 0 99 2e 00
        e 0 99 24 00
        e 238 99 2a 7f
        e 0 99 24 7f
        e 2 99 2a 00
        e 0 99 24 00
        e 238 99 3e 7f
        e 0 99 2a 7f
        e 0 99 28 7f
        e 2 99 3e 00
        e 0 99 2a 00
        e 0 99 28 00
        e 238 99 2a 7f
        e 0 99 24 7f
        e 2 99 2a 00
        e 0 99 24 00
        e 238 99 3f 7f
        e 0 99 2a 7f
        e 2 99 3f 00
        e 0 99 2a 00
        e 238 99 3f 7f
        e 0 99 24 7f
        e 2 99 3f 00
        e 0 99 24 00
        e 238 99 3e 7f
        e 0 99 2a 7f
        e 0 99 28 7f
        e 2 99 3e 00
        e 0 99 2a 00
        e 0 99 28 00
        e 238 99 2a 7f
        e 0 99 24 7f
        e 2 99 2a 00
        e 0 99 24 00
        e 238 99 3f 7f
        e 0 99 2e 7f
        e 0 99 24 7f
        e 2 99 3f 00
        e 0 99 2e 00
        e 0 99 24 00
        e 238 99 3e 7f
        e 0 99 24 7f
        e 2 99 3e 00
        e 0 99 24 00
        e 238 99 3f 7f
        e 0 99 2a 7f
        e 0 99 28 7f
        e 2 99 3f 00
        e 0 99 2a 00
        e 0 99 28 00
        e 238 99 2a 7f
        e 2 99 2a 00
        e 238 99 40 7f
        e 0 99 2a 7f
        e 0 99 24 7f
        e 2 99 40 00
        e 0 99 2a 00
        e 0 99 24 00
        e 238 99 2a 7f
        e 2 99 2a 00
        e 238 99 3e 7f
        e 0 99 2a 7f
        e 0 99 28 7f
        e 2 99 3e 00
        e 0 99 2a 00
        e 0 99 28 00
        e 238 99 3f 7f
        e 0 99 2a 7f
        e 0 99 24 7f
        e 2 99 3f 00
        e 0 99 2a 00
        e 0 99 24 00
        e 238 99 3f 7f
        e 0 99 2e 7f
        e 0 99 24 7f
        e 2 99 3f 00
        e 0 99 2e 00
        e 0 99 24 00
        e 238 99 2a 7f
        e 0 99 24 7f
        e 2 99 2a 00
        e 0 99 24 00
        e 238 99 3e 7f
        e 0 99 2a 7f
        e 0 99 28 7f
        e 2 99 3e 00
        e 0 99 2a 00
        e 0 99 28 00
        e 238 99 2a 7f
        e 0 99 24 7f
        e 2 99 2a 00
        e 0 99 24 00
        e 238 99 3f 7f
        e 0 99 2a 7f
        e 2 99 3f 00
        e 0 99 2a 00
        e 238 99 3f 7f
        e 0 99 24 7f
        e 2 99 3f 00
        e 0 99 24 00
        e 238 99 3e 7f
        e 0 99 2a 7f
        e 0 99 28 7f
        e 2 99 3e 00
        e 0 99 2a 00
        e 0 99 28 00
        e 238 99 2a 7f
        e 0 99 24 7f
        e 2 99 2a 00
        e 0 99 24 00
        e 238 99 3f 7f
        e 0 99 2e 7f
        e 0 99 24 7f
        e 2 99 3f 00
        e 0 99 2e 00
        e 0 99 24 00
        e 238 99 3e 7f
        e 0 99 24 7f
        e 2 99 3e 00
        e 0 99 24 00
        e 238 99 3f 7f
        e 0 99 2a 7f
        e 0 99 28 7f
        e 2 99 3f 00
        e 0 99 2a 00
        e 0 99 28 00
        e 238 99 2a 7f
        e 2 99 2a 00
        e 238 99 40 7f
        e 0 99 2a 7f
        e 0 99 31 7f
        e 0 99 24 7f
        e 2 99 40 00
        e 0 99 2a 00
        e 0 99 31 00
        e 0 99 24 00
        e 238 99 2a 7f
        e 2 99 2a 00
        e 238 99 3e 7f
        e 0 99 2a 7f
        e 0 99 28 7f
        e 2 99 3e 00
        e 0 99 2a 00
        e 0 99 28 00
        e 238 99 3f 7f
        e 0 99 2a 7f
        e 0 99 24 7f
        e 2 99 3f 00
        e 0 99 2a 00
        e 0 99 24 00
        e 238 99 3f 7f
        e 0 99 2e 7f
        e 0 99 24 7f
        e 2 99 3f 00
        e 0 99 2e 00
        e 0 99 24 00
        e 238 99 2a 7f
        e 0 99 24 7f
        e 2 99 2a 00
        e 0 99 24 00
        e 238 99 3e 7f
        e 0 99 2a 7f
        e 0 99 28 7f
        e 2 99 3e 00
        e 0 99 2a 00
        e 0 99 28 00
        e 238 99 2a 7f
        e 0 99 24 7f
        e 2 99 2a 00
        e 0 99 24 00
        e 238 99 3f 7f
        e 0 99 2a 7f
        e 2 99 3f 00
        e 0 99 2a 00
        e 238 99 3f 7f
        e 0 99 24 7f
        e 2 99 3f 00
        e 0 99 24 00
        e 238 99 3e 7f
        e 0 99 2a 7f
        e 0 99 28 7f
        e 2 99 3e 00
        e 0 99 2a 00
        e 0 99 28 00
        e 238 99 2a 7f
        e 0 99 24 7f
        e 2 99 2a 00
        e 0 99 24 00
        e 238 99 3f 7f
        e 0 99 2e 7f
        e 0 99 24 7f
        e 2 99 3f 00
        e 0 99 2e 00
        e 0 99 24 00
        e 238 99 3e 7f
        e 0 99 24 7f
        e 2 99 3e 00
        e 0 99 24 00
        e 238 99 3f 7f
        e 0 99 2a 7f
        e 0 99 28 7f
        e 2 99 3f 00
        e 0 99 2a 00
        e 0 99 28 00
        e 238 99 2a 7f
        e 2 99 2a 00
        e 238 99 40 7f
        e 0 99 2a 7f
        e 0 99 24 7f
        e 2 99 40 00
        e 0 99 2a 00
        e 0 99 24 00
        e 238 99 2a 7f
        e 2 99 2a 00
        e 238 99 3e 7f
        e 0 99 2a 7f
        e 0 99 28 7f
        e 2 99 3e 00
        e 0 99 2a 00
        e 0 99 28 00
        e 238 99 3f 7f
        e 0 99 2a 7f
        e 0 99 24 7f
        e 2 99 3f 00
        e 0 99 2a 00
        e 0 99 24 00
        e 238 99 3f 7f
        e 0 99 2e 7f
        e 0 99 24 7f
        e 2 99 3f 00
        e 0 99 2e 00
        e 0 99 24 00
        e 238 99 2a 7f
        e 0 99 24 7f
        e 2 99 2a 00
        e 0 99 24 00
        e 238 99 3e 7f
        e 0 99 2a 7f
        e 0 99 28 7f
        e 2 99 3e 00
        e 0 99 2a 00
        e 0 99 28 00
        e 238 99 2a 7f
        e 0 99 24 7f
        e 2 99 2a 00
        e 0 99 24 00
        e 238 99 3f 7f
        e 0 99 2a 7f
        e 2 99 3f 00
        e 0 99 2a 00
        e 238 99 3f 7f
        e 0 99 24 7f
        e 2 99 3f 00
        e 0 99 24 00
        e 238 99 3e 7f
        e 0 99 2a 7f
        e 0 99 28 7f
        e 2 99 3e 00
        e 0 99 2a 00
        e 0 99 28 00
        e 238 99 2a 7f
        e 0 99 24 7f
        e 2 99 2a 00
        e 0 99 24 00
        e 238 99 3f 7f
        e 0 99 2e 7f
        e 0 99 24 7f
        e 2 99 3f 00
        e 0 99 2e 00
        e 0 99 24 00
        e 238 99 3e 7f
        e 0 99 24 7f
        e 2 99 3e 00
        e 0 99 24 00
        e 238 99 3f 7f
        e 0 99 2a 7f
        e 0 99 28 7f
        e 2 99 3f 00
        e 0 99 2a 00
        e 0 99 28 00
        e 238 99 2a 7f
        e 2 99 2a 00
        e 238 99 40 7f
        e 0 99 2a 7f
        e 0 99 24 7f
        e 2 99 40 00
        e 0 99 2a 00
        e 0 99 24 00
        e 238 99 2a 7f
        e 2 99 2a 00
        e 238 99 3e 7f
        e 0 99 2a 7f
        e 0 99 28 7f
        e 2 99 3e 00
        e 0 99 2a 00
        e 0 99 28 00
        e 238 99 3f 7f
        e 0 99 2a 7f
        e 0 99 24 7f
        e 2 99 3f 00
        e 0 99 2a 00
        e 0 99 24 00
        e 238 99 3f 7f
        e 0 99 2e 7f
        e 0 99 24 7f
        e 2 99 3f 00
        e 0 99 2e 00
        e 0 99 24 00
        e 238 99 2a 7f
        e 0 99 24 7f
        e 2 99 2a 00
        e 0 99 24 00
        e 238 99 3e 7f
        e 0 99 2a 7f
        e 0 99 28 7f
        e 2 99 3e 00
        e 0 99 2a 00
        e 0 99 28 00
        e 238 99 2a 7f
        e 0 99 24 7f
        e 2 99 2a 00
        e 0 99 24 00
        e 238 99 3f 7f
        e 0 99 2a 7f
        e 2 99 3f 00
        e 0 99 2a 00
        e 238 99 3f 7f
        e 0 99 24 7f
        e 2 99 3f 00
        e 0 99 24 00
        e 238 99 3e 7f
        e 0 99 2a 7f
        e 0 99 28 7f
        e 2 99 3e 00
        e 0 99 2a 00
        e 0 99 28 00
        e 238 99 2a 7f
        e 0 99 24 7f
        e 2 99 2a 00
        e 0 99 24 00
        e 238 99 3f 7f
        e 0 99 2e 7f
        e 0 99 24 7f
        e 2 99 3f 00
        e 0 99 2e 00
        e 0 99 24 00
        e 238 99 3e 7f
        e 0 99 24 7f
        e 2 99 3e 00
        e 0 99 24 00
        e 238 99 3f 7f
        e 0 99 2a 7f
        e 0 99 28 7f
        e 2 99 3f 00
        e 0 99 2a 00
        e 0 99 28 00
        e 238 99 2a 7f
        e 2 99 2a 00
        e 238 99 40 7f
        e 0 99 2a 7f
        e 0 99 24 7f
        e 2 99 40 00
        e 0 99 2a 00
        e 0 99 24 00
        e 238 99 2a 7f
        e 2 99 2a 00
        e 238 99 3e 7f
        e 0 99 2a 7f
        e 0 99 28 7f
        e 2 99 3e 00
        e 0 99 2a 00
        e 0 99 28 00
        e 238 99 3f 7f
        e 0 99 2a 7f
        e 0 99 24 7f
        e 2 99 3f 00
        e 0 99 2a 00
        e 0 99 24 00
        e 238 99 3f 7f
        e 0 99 2e 7f
        e 0 99 24 7f
        e 2 99 3f 00
        e 0 99 2e 00
        e 0 99 24 00
        e 238 99 2a 7f
        e 0 99 24 7f
        e 2 99 2a 00
        e 0 99 24 00
        e 238 99 3e 7f
        e 0 99 2a 7f
        e 0 99 28 7f
        e 2 99 3e 00
        e 0 99 2a 00
        e 0 99 28 00
        e 238 99 2a 7f
        e 0 99 24 7f
        e 2 99 2a 00
        e 0 99 24 00
        e 238 99 3f 7f
        e 0 99 2a 7f
        e 2 99 3f 00
        e 0 99 2a 00
        e 238 99 3f 7f
        e 0 99 24 7f
        e 2 99 3f 00
        e 0 99 24 00
        e 238 99 3e 7f
        e 0 99 2a 7f
        e 0 99 28 7f
        e 2 99 3e 00
        e 0 99 2a 00
        e 0 99 28 00
        e 238 99 2a 7f
        e 0 99 24 7f
        e 2 99 2a 00
        e 0 99 24 00
        e 238 99 3f 7f
        e 0 99 2e 7f
        e 0 99 24 7f
        e 2 99 3f 00
        e 0 99 2e 00
        e 0 99 24 00
        e 238 99 3e 7f
        e 0 99 24 7f
        e 2 99 3e 00
        e 0 99 24 00
        e 238 99 3f 7f
        e 0 99 2a 7f
        e 0 99 28 7f
        e 2 99 3f 00
        e 0 99 2a 00
        e 0 99 28 00
        e 238 99 2a 7f
        e 2 99 2a 00
        e 238 99 40 7f
        e 0 99 2a 7f
        e 0 99 31 7f
        e 0 99 24 7f
        e 2 99 40 00
        e 0 99 2a 00
        e 0 99 31 00
        e 0 99 24 00
        e 238 99 2a 7f
        e 2 99 2a 00
        e 238 99 3e 7f
        e 0 99 2a 7f
        e 0 99 28 7f
        e 2 99 3e 00
        e 0 99 2a 00
        e 0 99 28 00
        e 238 99 3f 7f
        e 0 99 2a 7f
        e 0 99 24 7f
        e 2 99 3f 00
        e 0 99 2a 00
        e 0 99 24 00
        e 238 99 3f 7f
        e 0 99 2e 7f
        e 0 99 24 7f
        e 2 99 3f 00
        e 0 99 2e 00
        e 0 99 24 00
        e 238 99 2a 7f
        e 0 99 24 7f
        e 2 99 2a 00
        e 0 99 24 00
        e 238 99 3e 7f
        e 0 99 2a 7f
        e 0 99 28 7f
        e 2 99 3e 00
        e 0 99 2a 00
        e 0 99 28 00
        e 238 99 2a 7f
        e 0 99 24 7f
        e 2 99 2a 00
        e 0 99 24 00
        e 238 99 3f 7f
        e 0 99 2a 7f
        e 2 99 3f 00
        e 0 99 2a 00
        e 238 99 3f 7f
        e 0 99 24 7f
        e 2 99 3f 00
        e 0 99 24 00
        e 238 99 3e 7f
        e 0 99 2a 7f
        e 0 99 28 7f
        e 2 99 3e 00
        e 0 99 2a 00
        e 0 99 28 00
        e 238 99 2a 7f
        e 0 99 24 7f
        e 2 99 2a 00
        e 0 99 24 00
        e 238 99 3f 7f
        e 0 99 2e 7f
        e 0 99 24 7f
        e 2 99 3f 00
        e 0 99 2e 00
        e 0 99 24 00
        e 238 99 3e 7f
        e 0 99 24 7f
        e 2 99 3e 00
        e 0 99 24 00
        e 238 99 3f 7f
        e 0 99 2a 7f
        e 0 99 28 7f
        e 2 99 3f 00
        e 0 99 2a 00
        e 0 99 28 00
        e 238 99 2a 7f
        e 2 99 2a 00
        e 238 99 40 7f
        e 0 99 2a 7f
        e 0 99 24 7f
        e 2 99 40 00
        e 0 99 2a 00
        e 0 99 24 00
        e 238 99 2a 7f
        e 2 99 2a 00
        e 238 99 3e 7f
        e 0 99 2a 7f
        e 0 99 28 7f
        e 2 99 3e 00
        e 0 99 2a 00
        e 0 99 28 00
        e 238 99 3f 7f
        e 0 99 2a 7f
        e 0 99 24 7f
        e 2 99 3f 00
        e 0 99 2a 00
        e 0 99 24 00
        e 238 99 3f 7f
        e 0 99 2e 7f
        e 0 99 24 7f
        e 2 99 3f 00
        e 0 99 2e 00
        e 0 99 24 00
        e 238 99 2a 7f
        e 0 99 24 7f
        e 2 99 2a 00
        e 0 99 24 00
        e 238 99 3e 7f
        e 0 99 2a 7f
        e 0 99 28 7f
        e 2 99 3e 00
        e 0 99 2a 00
        e 0 99 28 00
        e 238 99 2a 7f
        e 0 99 24 7f
        e 2 99 2a 00
        e 0 99 24 00
        e 238 99 3f 7f
        e 0 99 2a 7f
        e 2 99 3f 00
        e 0 99 2a 00
        e 238 99 3f 7f
        e 0 99 24 7f
        e 2 99 3f 00
        e 0 99 24 00
        e 238 99 3e 7f
        e 0 99 2a 7f
        e 0 99 28 7f
        e 2 99 3e 00
        e 0 99 2a 00
        e 0 99 28 00
        e 238 99 2a 7f
        e 0 99 24 7f
        e 2 99 2a 00
        e 0 99 24 00
        e 238 99 3f 7f
        e 0 99 2e 7f
        e 0 99 24 7f
        e 2 99 3f 00
        e 0 99 2e 00
        e 0 99 24 00
        e 238 99 3e 7f
        e 0 99 24 7f
        e 2 99 3e 00
        e 0 99 24 00
        e 238 99 3f 7f
        e 0 99 2a 7f
        e 0 99 28 7f
        e 2 99 3f 00
        e 0 99 2a 00
        e 0 99 28 00
        e 238 99 2a 7f
        e 2 99 2a 00
        e 238 99 40 7f
        e 0 99 2a 7f
        e 0 99 24 7f
        e 2 99 40 00
        e 0 99 2a 00
        e 0 99 24 00
        e 238 99 2a 7f
        e 2 99 2a 00
        e 238 99 3e 7f
        e 0 99 2a 7f
        e 0 99 28 7f
        e 2 99 3e 00
        e 0 99 2a 00
        e 0 99 28 00
        e 238 99 3f 7f
        e 0 99 2a 7f
        e 0 99 24 7f
        e 2 99 3f 00
        e 0 99 2a 00
        e 0 99 24 00
        e 238 99 3f 7f
        e 0 99 2e 7f
        e 0 99 24 7f
        e 2 99 3f 00
        e 0 99 2e 00
        e 0 99 24 00
        e 238 99 2a 7f
        e 0 99 24 7f
        e 2 99 2a 00
        e 0 99 24 00
        e 238 99 3e 7f
        e 0 99 2a 7f
        e 0 99 28 7f
        e 2 99 3e 00
        e 0 99 2a 00
        e 0 99 28 00
        e 238 99 2a 7f
        e 0 99 24 7f
        e 2 99 2a 00
        e 0 99 24 00
        e 238 99 3f 7f
        e 0 99 2a 7f
        e 2 99 3f 00
        e 0 99 2a 00
        e 238 99 3f 7f
        e 0 99 24 7f
        e 2 99 3f 00
        e 0 99 24 00
        e 238 99 3e 7f
        e 0 99 2a 7f
        e 0 99 28 7f
        e 2 99 3e 00
        e 0 99 2a 00
        e 0 99 28 00
        e 238 99 2a 7f
        e 0 99 24 7f
        e 2 99 2a 00
        e 0 99 24 00
        e 238 99 3f 7f
        e 0 99 2e 7f
        e 0 99 24 7f
        e 2 99 3f 00
        e 0 99 2e 00
        e 0 99 24 00
        e 238 99 3e 7f
        e 0 99 24 7f
        e 2 99 3e 00
        e 0 99 24 00
        e 238 99 3f 7f
        e 0 99 2a 7f
        e 0 99 28 7f
        e 2 99 3f 00
        e 0 99 2a 00
        e 0 99 28 00
        e 238 99 2a 7f
        e 2 99 2a 00
        e 238 99 40 7f
        e 0 99 2a 7f
        e 0 99 24 7f
        e 2 99 40 00
        e 0 99 2a 00
        e 0 99 24 00
        e 238 99 2a 7f
        e 2 99 2a 00
        e 238 99 3e 7f
        e 0 99 2a 7f
        e 0 99 28 7f
        e 2 99 3e 00
        e 0 99 2a 00
        e 0 99 28 00
        e 238 99 3f 7f
        e 0 99 2a 7f
        e 0 99 24 7f
        e 2 99 3f 00
        e 0 99 2a 00
        e 0 99 24 00
        e 238 99 3f 7f
        e 0 99 2e 7f
        e 0 99 24 7f
        e 2 99 3f 00
        e 0 99 2e 00
        e 0 99 24 00
        e 238 99 2a 7f
        e 0 99 24 7f
        e 2 99 2a 00
        e 0 99 24 00
        e 238 99 3e 7f
        e 0 99 2a 7f
        e 0 99 28 7f
        e 2 99 3e 00
        e 0 99 2a 00
        e 0 99 28 00
        e 238 99 2a 7f
        e 0 99 24 7f
        e 2 99 2a 00
        e 0 99 24 00
        e 238 99 3f 7f
        e 0 99 2a 7f
        e 2 99 3f 00
        e 0 99 2a 00
        e 238 99 3f 7f
        e 0 99 24 7f
        e 2 99 3f 00
        e 0 99 24 00
        e 238 99 3e 7f
        e 0 99 2a 7f
        e 0 99 28 7f
        e 2 99 3e 00
        e 0 99 2a 00
        e 0 99 28 00
        e 238 99 2a 7f
        e 0 99 24 7f
        e 2 99 2a 00
        e 0 99 24 00
        e 238 99 3f 7f
        e 0 99 2e 7f
        e 0 99 24 7f
        e 2 99 3f 00
        e 0 99 2e 00
        e 0 99 24 00
        e 238 99 3e 7f
        e 0 99 24 7f
        e 2 99 3e 00
        e 0 99 24 00
        e 238 99 3f 7f
        e 0 99 2a 7f
        e 0 99 28 7f
        e 2 99 3f 00
        e 0 99 2a 00
        e 0 99 28 00
        e 238 99 2a 7f
        e 2 99 2a 00
        e 238 99 40 7f
        e 0 99 2a 7f
        e 0 99 31 7f
        e 0 99 24 7f
        e 2 99 40 00
        e 0 99 2a 00
        e 0 99 31 00
        e 0 99 24 00
        e 238 99 2a 7f
        e 2 99 2a 00
        e 238 99 3e 7f
        e 0 99 2a 7f
        e 0 99 28 7f
        e 2 99 3e 00
        e 0 99 2a 00
        e 0 99 28 00
        e 238 99 3f 7f
        e 0 99 2a 7f
        e 0 99 24 7f
        e 2 99 3f 00
        e 0 99 2a 00
        e 0 99 24 00
        e 238 99 3f 7f
        e 0 99 2e 7f
        e 0 99 24 7f
        e 2 99 3f 00
        e 0 99 2e 00
        e 0 99 24 00
        e 238 99 2a 7f
        e 0 99 24 7f
        e 2 99 2a 00
        e 0 99 24 00
        e 238 99 3e 7f
        e 0 99 2a 7f
        e 0 99 28 7f
        e 2 99 3e 00
        e 0 99 2a 00
        e 0 99 28 00
        e 238 99 2a 7f
        e 0 99 24 7f
        e 2 99 2a 00
        e 0 99 24 00
        e 238 99 3f 7f
        e 0 99 2a 7f
        e 2 99 3f 00
        e 0 99 2a 00
        e 238 99 3f 7f
        e 0 99 24 7f
        e 2 99 3f 00
        e 0 99 24 00
        e 238 99 3e 7f
        e 0 99 2a 7f
        e 0 99 28 7f
        e 2 99 3e 00
        e 0 99 2a 00
        e 0 99 28 00
        e 238 99 2a 7f
        e 0 99 24 7f
        e 2 99 2a 00
        e 0 99 24 00
        e 238 99 3f 7f
        e 0 99 2e 7f
        e 0 99 24 7f
        e 2 99 3f 00
        e 0 99 2e 00
        e 0 99 24 00
        e 238 99 3e 7f
        e 0 99 24 7f
        e 2 99 3e 00
        e 0 99 24 00
        e 238 99 3f 7f
        e 0 99 2a 7f
        e 0 99 28 7f
        e 2 99 3f 00
        e 0 99 2a 00
        e 0 99 28 00
        e 238 99 2a 7f
        e 2 99 2a 00
        e 238 99 40 7f
        e 0 99 2a 7f
        e 0 99 24 7f
        e 2 99 40 00
        e 0 99 2a 00
        e 0 99 24 00
        e 238 99 2a 7f
        e 2 99 2a 00
        e 238 99 3e 7f
        e 0 99 2a 7f
        e 0 99 28 7f
        e 2 99 3e 00
        e 0 99 2a 00
        e 0 99 28 00
        e 238 99 3f 7f
        e 0 99 2a 7f
        e 0 99 24 7f
        e 2 99 3f 00
        e 0 99 2a 00
        e 0 99 24 00
        e 238 99 3f 7f
        e 0 99 2e 7f
        e 0 99 24 7f
        e 2 99 3f 00
        e 0 99 2e 00
        e 0 99 24 00
        e 238 99 2a 7f
        e 0 99 24 7f
        e 2 99 2a 00
        e 0 99 24 00
        e 238 99 3e 7f
        e 0 99 2a 7f
        e 0 99 28 7f
        e 2 99 3e 00
        e 0 99 2a 00
        e 0 99 28 00
        e 238 99 2a 7f
        e 0 99 24 7f
        e 2 99 2a 00
        e 0 99 24 00
        e 238 99 3f 7f
        e 0 99 2a 7f
        e 2 99 3f 00
        e 0 99 2a 00
        e 238 99 3f 7f
        e 0 99 24 7f
        e 2 99 3f 00
        e 0 99 24 00
        e 238 99 3e 7f
        e 0 99 2a 7f
        e 0 99 28 7f
        e 2 99 3e 00
        e 0 99 2a 00
        e 0 99 28 00
        e 238 99 2a 7f
        e 0 99 24 7f
        e 2 99 2a 00
        e 0 99 24 00
        e 238 99 3f 7f
        e 0 99 2e 7f
        e 0 99 24 7f
        e 2 99 3f 00
        e 0 99 2e 00
        e 0 99 24 00
        e 238 99 3e 7f
        e 0 99 24 7f
        e 2 99 3e 00
        e 0 99 24 00
        e 238 99 3f 7f
        e 0 99 2a 7f
        e 0 99 28 7f
        e 2 99 3f 00
        e 0 99 2a 00
        e 0 99 28 00
        e 238 99 2a 7f
        e 2 99 2a 00
        e 238 99 40 7f
        e 0 99 2a 7f
        e 0 99 24 7f
        e 2 99 40 00
        e 0 99 2a 00
        e 0 99 24 00
        e 238 99 2a 7f
        e 2 99 2a 00
        e 238 99 3e 7f
        e 0 99 2a 7f
        e 0 99 28 7f
        e 2 99 3e 00
        e 0 99 2a 00
        e 0 99 28 00
        e 238 99 3f 7f
        e 0 99 2a 7f
        e 0 99 24 7f
        e 2 99 3f 00
        e 0 99 2a 00
        e 0 99 24 00
        e 238 99 3f 7f
        e 0 99 2e 7f
        e 0 99 24 7f
        e 2 99 3f 00
        e 0 99 2e 00
        e 0 99 24 00
        e 238 99 2a 7f
        e 0 99 24 7f
        e 2 99 2a 00
        e 0 99 24 00
        e 238 99 3e 7f
        e 0 99 2a 7f
        e 0 99 28 7f
        e 2 99 3e 00
        e 0 99 2a 00
        e 0 99 28 00
        e 238 99 2a 7f
        e 0 99 24 7f
        e 2 99 2a 00
        e 0 99 24 00
        e 238 99 3f 7f
        e 0 99 2a 7f
        e 2 99 3f 00
        e 0 99 2a 00
        e 238 99 3f 7f
        e 0 99 24 7f
        e 2 99 3f 00
        e 0 99 24 00
        e 238 99 3e 7f
        e 0 99 2a 7f
        e 0 99 28 7f
        e 2 99 3e 00
        e 0 99 2a 00
        e 0 99 28 00
        e 238 99 2a 7f
        e 0 99 24 7f
        e 2 99 2a 00
        e 0 99 24 00
        e 238 99 3f 7f
        e 0 99 2e 7f
        e 0 99 24 7f
        e 2 99 3f 00
        e 0 99 2e 00
        e 0 99 24 00
        e 238 99 3e 7f
        e 0 99 24 7f
        e 2 99 3e 00
        e 0 99 24 00
        e 238 99 3f 7f
        e 0 99 2a 7f
        e 0 99 28 7f
        e 2 99 3f 00
        e 0 99 2a 00
        e 0 99 28 00
        e 238 99 2a 7f
        e 2 99 2a 00
        e 238 99 40 7f
        e 0 99 2a 7f
        e 0 99 24 7f
        e 2 99 40 00
        e 0 99 2a 00
        e 0 99 24 00
        e 238 99 2a 7f
        e 2 99 2a 00
        e 238 99 3e 7f
        e 0 99 2a 7f
        e 0 99 28 7f
        e 2 99 3e 00
        e 0 99 2a 00
        e 0 99 28 00
        e 238 99 3f 7f
        e 0 99 2a 7f
        e 0 99 24 7f
        e 2 99 3f 00
        e 0 99 2a 00
        e 0 99 24 00
        e 238 99 3f 7f
        e 0 99 2e 7f
        e 0 99 24 7f
        e 2 99 3f 00
        e 0 99 2e 00
        e 0 99 24 00
        e 238 99 2a 7f
        e 0 99 24 7f
        e 2 99 2a 00
        e 0 99 24 00
        e 238 99 3e 7f
        e 0 99 2a 7f
        e 0 99 28 7f
        e 2 99 3e 00
        e 0 99 2a 00
        e 0 99 28 00
        e 238 99 2a 7f
        e 0 99 24 7f
        e 2 99 2a 00
        e 0 99 24 00
        e 238 99 28 7f
        e 0 99 3f 7f
        e 0 99 2a 7f
        e 2 99 28 00
        e 0 99 3f 00
        e 0 99 2a 00
        e 238 99 28 7f
        e 0 99 3f 7f
        e 0 99 24 7f
        e 2 99 28 00
        e 0 99 3f 00
        e 0 99 24 00
        e 238 99 3e 7f
        e 0 99 2a 7f
        e 0 99 28 7f
        e 2 99 3e 00
        e 0 99 2a 00
        e 0 99 28 00
        e 238 99 2a 7f
        e 0 99 24 7f
        e 0 99 28 7f
        e 2 99 2a 00
        e 0 99 24 00
        e 0 99 28 00
        e 238 99 28 7f
        e 0 99 3f 7f
        e 0 99 2e 7f
        e 0 99 24 7f
        e 2 99 28 00
        e 0 99 3f 00
        e 0 99 2e 00
        e 0 99 24 00
        e 238 99 26 7f
        e 0 99 3e 7f
        e 0 99 24 7f
        e 2 99 26 00
        e 0 99 3e 00
        e 0 99 24 00
        e 238 99 26 7f
        e 0 99 3f 7f
        e 0 99 2a 7f
        e 0 99 28 7f
        e 2 99 26 00
        e 0 99 3f 00
        e 0 99 2a 00
        e 0 99 28 00
        e 238 99 26 7f
        e 0 99 2a 7f
        e 2 99 26 00
        e 0 99 2a 00
        e 238 99 31 7f
        e 0 99 2a 7f
        e 0 99 24 7f
        e 2 99 31 00
        e 0 99 2a 00
        e 0 99 24 00
        e 238 99 2a 7f
        e 0 99 24 7f
        e 2 99 2a 00
        e 0 99 24 00
        e 238 99 2e 7f
        e 0 99 24 7f
        e 2 99 2e 00
        e 0 99 24 00
        e 238 99 2a 7f
        e 0 99 24 7f
        e 2 99 2a 00
        e 0 99 24 00
        e 238 99 2e 7f
        e 0 99 28 7f
        e 2 99 2e 00
        e 0 99 28 00
        e 238 99 2a 7f
        e 0 99 24 7f
        e 2 99 2a 00
        e 0 99 24 00
        e 238 99 2e 7f
        e 0 99 24 7f
        e 2 99 2e 00
        e 0 99 24 00
        e 238 99 2a 7f
        e 0 99 24 7f
        e 2 99 2a 00
        e 0 99 24 00
        e 238 99 2a 7f
        e 0 99 28 7f
        e 2 99 2a 00
        e 0 99 28 00
        e 238 99 2a 7f
        e 0 99 24 7f
        e 2 99 2a 00
        e 0 99 24 00
        e 238 99 2e 7f
        e 0 99 24 7f
        e 2 99 2e 00
        e 0 99 24 00
        e 238 99 2a 7f
        e 0 99 24 7f
        e 2 99 2a 00
        e 0 99 24 00
        e 238 99 2a 7f
        e 0 99 28 7f
        e 2 99 2a 00
        e 0 99 28 00
        e 238 99 2a 7f
        e 0 99 24 7f
        e 2 99 2a 00
        e 0 99 24 00
        e 238 99 2e 7f
        e 0 99 24 7f
        e 2 99 2e 00
        e 0 99 24 00
        e 238 99 2a 7f
        e 2 99 2a 00
        e 238 99 2a 7f
        e 0 99 24 7f
        e 2 99 2a 00
        e 0 99 24 00
        e 238 99 2a 7f
        e 0 99 24 7f
        e 2 99 2a 00
        e 0 99 24 00
        e 238 99 2e 7f
        e 0 99 24 7f
        e 2 99 2e 00
        e 0 99 24 00
        e 238 99 2a 7f
        e 0 99 24 7f
        e 2 99 2a 00
        e 0 99 24 00
        e 238 99 2e 7f
        e 0 99 28 7f
        e 2 99 2e 00
        e 0 99 28 00
        e 238 99 2a 7f
        e 0 99 24 7f
        e 2 99 2a 00
        e 0 99 24 00
        e 238 99 2e 7f
        e 0 99 24 7f
        e 2 99 2e 00
        e 0 99 24 00
        e 238 99 2a 7f
        e 0 99 24 7f
        e 2 99 2a 00
        e 0 99 24 00
        e 238 99 2a 7f
        e 0 99 28 7f
        e 2 99 2a 00
        e 0 99 28 00
        e 238 99 2a 7f
        e 0 99 24 7f
        e 2 99 2a 00
        e 0 99 24 00
        e 238 99 2e 7f
        e 0 99 24 7f
        e 2 99 2e 00
        e 0 99 24 00
        e 238 99 2a 7f
        e 0 99 24 7f
        e 2 99 2a 00
        e 0 99 24 00
        e 238 99 2a 7f
        e 0 99 28 7f
        e 2 99 2a 00
        e 0 99 28 00
        e 238 99 2a 7f
        e 0 99 24 7f
        e 2 99 2a 00
        e 0 99 24 00
        e 238 99 2e 7f
        e 0 99 24 7f
        e 2 99 2e 00
        e 0 99 24 00
        e 238 99 2a 7f
        e 2 99 2a 00
        e 238 99 28 7f
        e 0 99 31 7f
        e 0 99 2a 7f
        e 0 99 24 7f
        e 2 99 28 00
        e 0 99 31 00
        e 0 99 2a 00
        e 0 99 24 00
        e 238 99 24 7f
        e 0 99 2a 7f
        e 2 99 24 00
        e 0 99 2a 00
        e 238 99 2e 7f
        e 2 99 2e 00
        e 238 99 2a 7f
        e 2 99 2a 00
        e 238 99 2e 7f
        e 2 99 2e 00
        e 238 99 2a 7f
        e 2 99 2a 00
        e 238 99 2e 7f
        e 2 99 2e 00
        e 238 99 2a 7f
        e 2 99 2a 00
        e 238 99 28 7f
        e 0 99 24 7f
        e 0 99 2a 7f
        e 2 99 28 00
        e 0 99 24 00
        e 0 99 2a 00
        e 238 99 28 7f
        e 0 99 24 7f
        e 0 99 2a 7f
        e 2 99 28 00
        e 0 99 24 00
        e 0 99 2a 00
        e 238 99 28 7f
        e 0 99 24 7f
        e 0 99 2e 7f
        e 2 99 28 00
        e 0 99 24 00
        e 0 99 2e 00
        e 238 99 28 7f
        e 0 99 2a 7f
        e 2 99 28 00
        e 0 99 2a 00
        e 238 99 26 7f
        e 0 99 28 7f
        e 0 99 2a 7f
        e 2 99 26 00
        e 0 99 28 00
        e 0 99 2a 00
        e 238 99 24 7f
        e 0 99 28 7f
        e 0 99 2a 7f
        e 2 99 24 00
        e 0 99 28 00
        e 0 99 2a 00
        e 238 99 26 7f
        e 0 99 28 7f
        e 0 99 2e 7f
        e 2 99 26 00
        e 0 99 28 00
        e 0 99 2e 00
        e 238 99 24 7f
        e 0 99 28 7f
        e 0 99 2a 7f
        e 2 99 24 00
        e 0 99 28 00
        e 0 99 2a 00
        E 238 b0 7b 00
        CCINTERP 32
        CHASE_CC_TAKEOFFS 1
        GUID {2DE68D1C-EFDA-1741-843D-ACC082998C15}
        IGNTEMPO 0 120 4 4
        SRCCOLOR 133
        VELLANE -1 100 0
        CFGEDITVIEW 1442.677557 0.160062 63 12 0 -1 0 0 0 0.5
        KEYSNAP 0
        TRACKSEL 0
        EVTFILTER 0 -1 -1 -1 -1 0 0 0 0 -1 -1 -1 -1 0 -1 0 -1 -1
        CFGEDIT 1 1 0 1 0 8 1 1 1 1 1 0.5 267 223 1812 945 0 0 0 0 0 0 0 0 0 0.5 0 0 1 64
      >
    >
  >
  <TRACK {88657340-21A9-E246-911B-4ED970908F45}
    NAME bass
    PEAKCOL 16576
    BEAT -1
    AUTOMODE 0
    VOLPAN 1.83352193671769 0 -1 -1 1
    MUTESOLO 0 0 0
    IPHASE 0
    PLAYOFFS 0 1
    ISBUS 0 0
    BUSCOMP 0 0 0 0 0
    SHOWINMIX 1 0.6667 0.5 1 0.5 -1 -1 -1
    FREEMODE 0
    SEL 0
    REC 0 0 1 0 0 0 0
    VU 2
    TRACKHEIGHT 0 0 0 0 0 0
    INQ 0 0 0 0.5 100 0 0 100
    NCHAN 2
    FX 1
    TRACKID {88657340-21A9-E246-911B-4ED970908F45}
    PERF 0
    MIDIOUT -1
    MAINSEND 1 0
    <FXCHAIN
      WNDRECT 32 442 1013 581
      SHOW 0
      LASTSEL 0
      DOCKED 0
      BYPASS 0 0 0
      <AU "AUi: sforzando (Plogue Art et Technologie)" "Plogue Art et Technologie: sforzando" "" 1635085685 1347176273 1347178311
        6QMAAAAAAAAAAAAAAgAAAAEAAAAAAAAAAgAAAAAAAACHGgAAPD94bWwgdmVyc2lvbj0iMS4wIiBlbmNvZGluZz0iVVRGLTgiPz4KPCFET0NUWVBFIHBsaXN0IFBVQkxJ
        QyAiLS8vQXBwbGUvL0RURCBQTElTVCAxLjAvL0VOIiAiaHR0cDovL3d3dy5hcHBsZS5jb20vRFREcy9Qcm9wZXJ0eUxpc3QtMS4wLmR0ZCI+CjxwbGlzdCB2ZXJzaW9u
        PSIxLjAiPgo8ZGljdD4KCTxrZXk+QXJpYURhdGE8L2tleT4KCTxkYXRhPgoJUTBWSFVQd0VBQUI0bklXVVRXK2pNQkNHNy9rVmx1OHBkcURwUm9KVXlUYXRPR1IzdFhU
        UGFIQ2NGTlVmV1RDby9mYzcKCWdaQ2dWU056c2w4L00vYThhQ1orL05DS3RMS3FTMnNTeXU4WUpZL0xTYnlxU3NpZ2xhT2p4WHhCeWJHeXUwYTQ5QWtGCgl4aU82bkJE
        ODRrdzZWNXBEVGY0Mm9FcjNpYWVVMUs2U29GRk9hRGlqUk1OSDFpa3JwYXpZcmhONnoxSGVway9wejhadAoJN1U1MlVkQTRxOEhoblpteUxxRnNMQ25aU3BYUTBtRHVS
        a3ZqS0ZGbEsvdGdKR3VCZDdIWmFRRUtVT0prU3VUcFVYZTEKCVVHZjVPOGJKS3FGekREZ29XNEI2YlV6M1RCU0NvU0s4bkpTN1RqT2dNWDI5bndYUDROYjJjOXF5L0dI
        QjhwUENHQXRZCglHT2JQNlkrWHplOTh2Y295U2dvdzd5bkdSbmhLcnhiaVdyeUJNYWNTcGxqcTBTcDBhaDVSNHE0UE9CWjVCZVlnejRqRAoJVGQwZDZOSFNDb2MvWjFR
        eW9ycHhuZElYMEJXeGhkSU1SYlNnbXQ3aDRDdUNYd2gyZzVoNWlkQkxSRjdpM2t2TXZjU0QKCWwvam1KUlplZ2pNLzRuZVYrMjNsZmwrNTMxaCswOWxmVUlIK3p6aCtD
        K0VoL3dLS2cxTy9uTmViL1Y0S04yNmdTMXYyCgluYlRTUlNtTmtOZEc2V2JKZU5aRS9hd1JsODRlTG5yNWt3NVpRVGpzL2ZRNkpycjk1ckt2cGNKM3lOMHJGSDB6WVk0
        NAoJR0NiYmN2SVBzczFVRnc9PQoJPC9kYXRhPgoJPGtleT5kYXRhPC9rZXk+Cgk8ZGF0YT4KCUFBQUFBQUFBQUFBQUFBSUFBQUFBQUFBQUFBQUFBQUFCQUFBQUFBQUFB
        QUlBQUFBQUFBQUFBd0FBQUFBQUFBQUVBQUFBCglBQUFBQUFVQUFBQUFBQUFBQmdBQUFBQUFBQUFIQUFBQUFBQUFBQWdBQUFBQUFBQUFDUUFBQUFBQUFBQUtBQUFBQUFB
        QQoJQUFzQUFBQUFBQUFBREFBQUFBQUFBQUFOQUFBQUFBQUFBQTRBQUFBQUFBQUFEd0FBQUFBQUFBQVFBQUFBQUFBQUFCRUEKCUFBQUFBQUFBRWdBQUFBQUFBQUFUQUFB
        QUFBQUFBQlFBQUFBQUFBQUFGUUFBQUFBQUFBQVdBQUFBQUFBQUFCY0FBQUFBCglBQUFBR0FBQUFBQUFBQUFaQUFBQUFBQUFBQm9BQUFBQUFBQUFHd0FBQUFBQUFBQWNB
        QUFBQUFBQUFCMEFBQUFBQUFBQQoJSGdBQUFBQUFBQUFmQUFBQUFBQUFBQ0FBQUFBQUFBQUFJUUFBQUFBQUFBQWlBQUFBQUFBQUFDTUFBQUFBQUFBQUpBQUEKCUFBQUFB
        QUFsQUFBQUFBQUFBQ1lBQUFBQUFBQUFKd0FBQUFBQUFBQW9BQUFBQUFBQUFDa0FBQUFBQUFBQUtnQUFBQUFBCglBQUFyQUFBQUFBQUFBQ3dBQUFBQUFBQUFMUUFBQUFB
        QUFBQXVBQUFBQUFBQUFDOEFBQUFBQUFBQU1BQUFBQUFBQUFBeAoJQUFBQUFBQUFBRElBQUFBQUFBQUFNd0FBQUFBQUFBQTBBQUFBQUFBQUFEVUFBQUFBQUFBQU5nQUFB
        QUFBQUFBM0FBQUEKCUFBQUFBRGdBQUFBQUFBQUFPUUFBQUFBQUFBQTZBQUFBQUFBQUFEc0FBQUFBQUFBQVBBQUFBQUFBQUFBOUFBQUFBQUFBCglBRDRBQUFBQUFBQUFQ
        d0FBQUFBQUFBQkFBQUFBQUFBQUFFRUFBQUFBQUFBQVFnQUFBQUFBQUFCREFBQUFBQUFBQUVRQQoJQUFBQUFBQUFSUUFBQUFBQUFBQkdBQUFBQUFBQUFFY0FBQUFBQUFB
        QVNBQUFBQUFBQUFCSkFBQUFBQUFBQUVvQUFBQUEKCUFBQUFTd0FBQUFBQUFBQk1BQUFBQUFBQUFFMEFBQUFBQUFBQVRnQUFBQUFBQUFCUEFBQUFBQUFBQUZBQUFBQUFB
        QUFBCglVUUFBQUFBQUFBQlNBQUFBQUFBQUFGTUFBQUFBQUFBQVZBQUFBQUFBQUFCVkFBQUFBQUFBQUZZQUFBQUFBQUFBVndBQQoJQUFBQUFBQllBQUFBQUFBQUFGa0FB
        QUFBQUFBQVdnQUFBQUFBQUFCYkFBQUFBQUFBQUZ3QUFBQUFBQUFBWFFBQUFBQUEKCUFBQmVBQUFBQUFBQUFGOEFBQUFBQUFBQVlBQUFBQUFBQUFCaEFBQUFBQUFBQUdJ
        QUFBQUFBQUFBWXdBQUFBQUFBQUJrCglBQUFBQUFBQUFHVUFBQUFBQUFBQVpnQUFBQUFBQUFCbkFBQUFBQUFBQUdnQUFBQUFBQUFBYVFBQUFBQUFBQUJxQUFBQQoJQUFB
        QUFHc0FBQUFBQUFBQWJBQUFBQUFBQUFCdEFBQUFBQUFBQUc0QUFBQUFBQUFBYndBQUFBQUFBQUJ3QUFBQUFBQUEKCUFIRUFBQUFBQUFBQWNnQUFBQUFBQUFCekFBQUFB
        QUFBQUhRQUFBQUFBQUFBZFFBQUFBQUFBQUIyQUFBQUFBQUFBSGNBCglBQUFBQUFBQWVBQUFBQUFBQUFCNUFBQUFBQUFBQUhvQUFBQUFBQUFBZXdBQUFBQUFBQUI4QUFB
        QUFBQUFBSDBBQUFBQQoJQUFBQWZnQUFBQUFBQUFCL0FBQUFBQUFBQUlBQUFBQUFBQUFBZ1FBQUFBQUFBQUNDQUFBQUFBQUFBSU1BQUFBQUFBQUEKCWhBQUFBQUFBQUFD
        RkFBQUFBQUFBQUlZQUFBQUFBQUFBaHdBQUFBQUFBQUNJQUFBQUFBQUFBSWtBQUFBQUFBQUFpZ0FBCglBQUFBQUFDTEFBQUFBQUFBQUl3QUFBQUFBQUFBalFBQUFBQUFB
        QUNPQUFBQUFBQUFBSThBQUFBQUFBQUFrQUFBQUFBQQoJQUFDUkFBQUFBQUFBQUpJQUFBQUFBQUFBa3dBQUFBQUFBQUNVQUFBQUFBQUFBSlVBQUFBQUFBQUFsZ0FBQUFB
        QUFBQ1gKCUFBQUFBQUFBQUpnQUFBQUFBQUFBbVFBQUFBQUFBQUNhQUFBQUFBQUFBSnNBQUFBQUFBQUFuQUFBQUFBQUFBQ2RBQUFBCglBQUFBQUo0QUFBQUFBQUFBbndB
        QUFBQUFBQUNnQUFBQUFBQUFBS0VBQUFBQUFBQUFvZ0FBQUFBQUFBQ2pBQUFBQUFBQQoJQUtRQUFBQUFBQUFBcFFBQUFBQUFBQUNtQUFBQUFBQUFBS2NBQUFBQUFBQUFx
        QUFBQUFBQUFBQ3BBQUFBQUFBQUFLb0EKCUFBQUFBQUFBcXdBQUFBQUFBQUNzQUFBQUFBQUFBSzBBQUFBQUFBQUFyZ0FBQUFBQUFBQ3ZBQUFBQUFBQUFMQUFBQUFBCglB
        QUFBc1FBQUFBQUFBQUN5QUFBQUFBQUFBTE1BQUFBQUFBQUF0QUFBQUFBQUFBQzFBQUFBQUFBQUFMWUFBQUFBQUFBQQoJdHdBQUFBQUFBQUM0QUFBQUFBQUFBTGtBQUFB
        QUFBQUF1Z0FBQUFBQUFBQzdBQUFBQUFBQUFMd0FBQUFBQUFBQXZRQUEKCUFBQUFBQUMrQUFBQUFBQUFBTDhBQUFBQUFBQUF3QUFBQUFBQUFBREJBQUFBQUFBQUFNSUFB
        QUFBQUFBQXd3QUFBQUFBCglBQURFQUFBQUFBQUFBTVVBQUFBQUFBQUF4Z0FBQUFBQUFBREhBQUFBQUFBQUFNZ0FBQUFBQUFBQXlRQUFBQUFBQUFESwoJQUFBQUFBQUFB
        TXNBQUFBQUFBQUF6QUFBQUFBQUFBRE5BQUFBQUFBQUFNNEFBQUFBQUFBQXp3QUFBQUFBQUFEUUFBQUEKCUFBQUFBTkVBQUFBQUFBQUEwZ0FBQUFBQUFBRFRBQUFBQUFB
        QUFOUUFBQUFBQUFBQTFRQUFBQUFBQUFEV0FBQUFBQUFBCglBTmNBQUFBQUFBQUEyQUFBQUFBQUFBRFpBQUFBQUFBQUFOb0FBQUFBQUFBQTJ3QUFBQUFBQUFEY0FBQUFB
        QUFBQU4wQQoJQUFBQUFBQUEzZ0FBQUFBQUFBRGZBQUFBQUFBQUFPQUFBQUFBQUFBQTRRQUFBQUFBQUFEaUFBQUFBQUFBQU9NQUFBQUEKCUFBQUE1QUFBQUFBQUFBRGxB
        QUFBQUFBQUFPWUFBQUFBQUFBQTV3QUFBQUFBQUFEb0FBQUFBQUFBQU9rQUFBQUFBQUFBCgk2Z0FBQUFBQUFBRHJBQUFBQUFBQUFPd0FBQUFBQUFBQTdRQUFBQUFBQUFE
        dUFBQUFBQUFBQU84QUFBQUFBQUFBOEFBQQoJQUFBQUFBRHhBQUFBQUFBQUFQSUFBQUFBQUFBQTh3QUFBQUFBQUFEMEFBQUFBQUFBQVBVQUFBQUFBQUFBOWdBQUFBQUEK
        CUFBRDNBQUFBQUFBQUFQZ0FBQUFBQUFBQStRQUFBQUFBQUFENkFBQUFBQUFBQVBzQUFBQUFBQUFBL0FBQUFBQUFBQUQ5CglBQUFBQUFBQUFQNEFBQUFBQUFBQS93QUFB
        QUFBQUFFQUFBQUFBQUFBQVFFQUFBQUFBQUFCQWdBQUFBQUFBQUVEQUFBQQoJQUFBQUFRUUFBQUFBQUFBQkJRQUFBQUFBQUFFR0FBQUFBQUFBQVFjQUFBQUFBQUFCQ0FB
        QUFBQUFBQUVKQUFBQUFBQUEKCUFRb0FBQUFBQUFBQkN3QUFBQUFBQUFFTUFBQUFBQUFBQVEwQUFBQUFBQUFCRGdBQUFBQUFBQUVQQUFBQUFBQUFBUkFBCglBQUFBQUFB
        QkVRQUFBQUFBQUFFU0FBQUFBQUFBQVJNQUFBQUFBQUFCRkFBQUFBQUFBQUVWQUFBQUFBQUFBUllBQUFBQQoJQUFBQkZ3QUFBQUFBQUFFWUFBQUFBQUFBQVJrQUFBQUFB
        QUFCR2dBQUFBQUFBQUViQUFBQUFBQUFBUndBQUFBQUFBQUIKCUhRQUFBQUFBQUFFZUFBQUFBQUFBQVI4QUFBQUFBQUFCSUFBQUFBQUFBQUVoQUFBQUFBQUFBU0lBQUFB
        QUFBQUJJd0FBCglBQUFBQUFFa0FBQUFBQUFBQVNVQUFBQUFBQUFCSmdBQUFBQUFBQUVuQUFBQUFBQUFBU2dBQUFBQUFBQUJLUUFBQUFBQQoJQUFFcUFBQUFBQUFBQVNz
        QUFBQUFBQUFCTEFBQUFBQUFBQUV0QUFBQUFBQUFBUzRBQUFBQUFBQUJMd0FBQUFBQUFBRXcKCUFBQUFBQUFBQVRFQUFBQUFBQUFCTWdBQUFBQUFBQUV6QUFBQUFBQUFB
        VFFBQUFBQUFBQUJOUUFBQUFBQUFBRTJBQUFBCglBQUFBQVRjQUFBQUFBQUFCT0FBQUFBQUFBQUU1QUFBQUFBQUFBVG9BQUFBQUFBQUJPd0FBQUFBQUFBRThBQUFBQUFB
        QQoJQVQwQUFBQUFBQUFCUGdBQUFBQUFBQUUvQUFBQUFBQUFBVUFBQUFBQUFBQUJRUUFBQUFBQUFBRkNBQUFBQUFBQUFVTUEKCUFBQUFBQUFCUkFBQUFBQUFBQUZGQUFB
        QUFBQUFBVVlBQUFBQUFBQUJSd0FBQUFBQUFBRklBQUFBQUFBQUFVa0FBQUFBCglBQUFCU2dBQUFBQUFBQUZMQUFBQUFBQUFBVXdBQUFBQUFBQUJUUUFBQUFBQUFBRk9B
        QUFBQUFBQUFVOEFBQUFBQUFBQgoJVUFBQUFBQUFBQUZSQUFBQUFBQUFBVklBQUFBQUFBQUJVd0FBQUFBQUFBRlVBQUFBQUFBQUFWVUFBQUFBQUFBQlZnQUEKCUFBQUFB
        QUZYQUFBQUFBQUFBVmdBQUFBQUFBQUJXUUFBQUFBQUFBRmFBQUFBQUFBQUFWc0FBQUFBQUFBQlhBQUFBQUFBCglBQUZkQUFBQUFBQUFBVjRBQUFBQUFBQUJYd0FBQUFB
        QUFBRmdBQUFBQUFBQUFXRUFBQUFBQUFBQllnQUFBQUFBQUFGagoJQUFBQUFBQUFBV1FBQUFBQUFBQUJaUUFBQUFBQUFBRm1BQUFBQUFBQUFXY0FBQUFBQUFBQmFBQUFB
        QUFBQUFGcEFBQUEKCUFBQUFBV29BQUFBQUFBQUJhd0FBQUFBQUFBRnNBQUFBQUFBQUFXMEFBQUFBQUFBQmJnQUFBQUFBQUFGdkFBQUFBQUFBCglBWEFBQUFBQUFBQUJj
        UUFBQUFBQUFBRnlBQUFBQUFBQUFYTUFBQUFBQUFBQmRBQUFBQUFBQUFGMUFBQUFBQUFBQVhZQQoJQUFBQUFBQUJkd0FBQUFBQUFBRjRBQUFBQUFBQUFYa0FBQUFBQUFB
        QmVnQUFBQUFBQUFGN0FBQUFBQUFBQVh3QUFBQUEKCUFBQUJmUUFBQUFBQUFBRitBQUFBQUFBQUFYOEFBQUFBQUFBQmdBQUFBQUFBQUFHQkFBQUFBQUFBQVlJQUFBQUFB
        QUFCCglnd0FBQUFBQUFBR0VBQUFBQUFBQUFZVUFBQUFBQUFBQmhnQUFBQUFBQUFHSEFBQUFBQUFBQVlnQUFBQUFBQUFCaVFBQQoJQUFBQUFBR0tBQUFBQUFBQUFZc0FB
        QUFBQUFBQmpBQUFBQUFBQUFHTkFBQUFBQUFBQVk0QUFBQUFBQUFCandBQUFBQUEKCUFBR1FBQUFBQUFBQUFaRUFBQUFBQUFBQmtnQUFBQUFBQUFHVEFBQUFBQUFBQVpR
        QUFBQUFBQUFCbFFBQUFBQUFBQUdXCglBQUFBQUFBQUFaY0FBQUFBQUFBQm1BQUFBQUFBQUFHWkFBQUFBQUFBQVpvQUFBQUFBQUFCbXdBQUFBQUFBQUdjQUFBQQoJQUFB
        QUFaMEFBQUFBQUFBQm5nQUFBQUFBQUFHZkFBQUFBQUFBQWFBQUFBQUFBQUFCb1FBQUFBQUFBQUdpQUFBQUFBQUEKCUFhTUFBQUFBQUFBQnBBQUFBQUFBQUFHbEFBQUFB
        QUFBQWFZQUFBQUFBQUFCcHdBQUFBQUFBQUdvQUFBQUFBQUFBYWtBCglBQUFBQUFBQnFnQUFBQUFBQUFHckFBQUFBQUFBQWF3QUFBQUFBQUFCclFBQUFBQUFBQUd1QUFB
        QUFBQUFBYThBQUFBQQoJQUFBQnNBQUFBQUFBQUFHeEFBQUFBQUFBQWJJQUFBQUFBQUFCc3dBQUFBQUFBQUcwQUFBQUFBQUFBYlVBQUFBQUFBQUIKCXRnQUFBQUFBQUFH
        M0FBQUFBQUFBQWJnQUFBQUFBQUFCdVFBQUFBQUFBQUc2QUFBQUFBQUFBYnNBQUFBQUFBQUJ2QUFBCglBQUFBQUFHOUFBQUFBQUFBQWI0QUFBQUFBQUFCdndBQUFBQUFB
        QUhBQUFBQUFBQUFBY0VBQUFBQUFBQUJ3Z0FBQUFBQQoJQUFIREFBQUFBQUFBQWNRQUFBQUFBQUFCeFFBQUFBQUFBQUhHQUFBQUFBQUFBY2NBQUFBQUFBQUJ5QUFBQUFB
        QUFBSEoKCUFBQUFBQUFBQWNvQUFBQUFBQUFCeXdBQUFBQUFBQUhNQUFBQUFBQUFBYzBBQUFBQUFBQUJ6Z0FBQUFBQUFBSFBBQUFBCglBQUFBQWRBQUFBQUFBQUFCMFFB
        QUFBQUFBQUhTQUFBQUFBQUFBZE1BQUFBQUFBQUIxQUFBQUFBQUFBSFZBQUFBQUFBQQoJQWRZQUFBQUFBQUFCMXdBQUFBQUFBQUhZQUFBQUFBQUFBZGtBQUFBQUFBQUIy
        Z0FBQUFBQUFBSGJBQUFBQUFBQUFkd0EKCUFBQUFBQUFCM1FBQUFBQUFBQUhlQUFBQUFBQUFBZDhBQUFBQUFBQUI0QUFBQUFBQUFBSGhBQUFBQUFBQUFlSUFBQUFBCglB
        QUFCNHdBQUFBQUFBQUhrQUFBQUFBQUFBZVVBQUFBQUFBQUI1Z0FBQUFBQUFBSG5BQUFBQUFBQUFlZ0FBQUFBQUFBQgoJNlFBQUFBQUFBQUhxQUFBQUFBQUFBZXNBQUFB
        QUFBQUI3QUFBQUFBQUFBSHRBQUFBQUFBQUFlNEFBQUFBQUFBQjd3QUEKCUFBQUFBQUh3QUFBQUFBQUFBZkVBQUFBQUFBQUI4Z0FBQUFBQUFBSHpBQUFBQUFBQUFmUUFB
        QUFBQUFBQjlRQUFBQUFBCglBQUgyQUFBQUFBQUFBZmNBQUFBQUFBQUIrQUFBQUFBQUFBSDVBQUFBQUFBQUFmb0FBQUFBQUFBQit3QUFBQUFBQUFIOAoJQUFBQUFBQUFB
        ZjBBQUFBQUFBQUIvZ0FBQUFBQUFBSC9BQUFBQUE9PQoJPC9kYXRhPgoJPGtleT5tYW51ZmFjdHVyZXI8L2tleT4KCTxpbnRlZ2VyPjEzNDcxNzgzMTE8L2ludGVnZXI+
        Cgk8a2V5Pm5hbWU8L2tleT4KCTxzdHJpbmc+VW50aXRsZWQ8L3N0cmluZz4KCTxrZXk+c3VidHlwZTwva2V5PgoJPGludGVnZXI+MTM0NzE3NjI3MzwvaW50ZWdlcj4K
        CTxrZXk+dHlwZTwva2V5PgoJPGludGVnZXI+MTYzNTA4NTY4NTwvaW50ZWdlcj4KCTxrZXk+dmVyc2lvbjwva2V5PgoJPGludGVnZXI+MDwvaW50ZWdlcj4KPC9kaWN0
        Pgo8L3BsaXN0PgoEAAAAYXNzAAAAAAAA
      >
      PRESETNAME ass
      FLOATPOS 0 0 0 0
      FXID {C6BCE5FC-E5E5-F94D-82C6-72F08D1C86DF}
      WAK 0 0
      <COMMENT
        YXNzCg==
      >
    >
    <ITEM
      POSITION 0
      SNAPOFFS 0
      LENGTH 32
      LOOP 1
      ALLTAKES 0
      FADEIN 1 0 0 1 0 0 0
      FADEOUT 1 0 0 1 0 0 0
      MUTE 0 0
      SEL 0
      IGUID {24DA01F0-F0C2-B542-BF1B-A152EAD0F1F2}
      IID 26
      NAME "y ¨ÄñÎöº zfrom ûg½ for 88Pro Comp.ZUN             - th06_05.mid [chan 2]"
      VOLPAN 1 0 1 -1
      SOFFS 2.22222222222222 5
      PLAYRATE 1 1 0 -1 0 0.0025
      CHANMODE 0
      GUID {76127DC7-1CE6-3148-9B87-782460349706}
      <SOURCE MIDI
        HASDATA 1 960 QN
        CCINTERP 32
        POOLEDEVTS {C97BFC29-C37C-E14E-B182-E4729C82F8E9}
        E 3840 b1 78 00
        E 20 b1 79 00
        E 20 b1 7b 00
        E 20 b1 65 00
        E 0 b1 64 00
        E 0 b1 06 0c
        E 20 b1 65 00
        E 0 b1 64 01
        E 0 b1 06 40
        E 20 b1 65 00
        E 0 b1 64 02
        E 0 b1 06 40
        E 20 b1 63 01
        E 0 b1 62 08
        E 0 b1 06 40
        E 20 b1 63 01
        E 0 b1 62 09
        E 0 b1 06 40
        E 20 b1 63 01
        E 0 b1 62 0a
        E 0 b1 06 40
        E 20 b1 63 01
        E 0 b1 62 20
        E 0 b1 06 40
        E 20 b1 63 01
        E 0 b1 62 21
        E 0 b1 06 40
        E 20 b1 63 01
        E 0 b1 62 63
        E 0 b1 06 40
        E 20 b1 63 01
        E 0 b1 62 64
        E 0 b1 06 40
        E 20 b1 63 01
        E 0 b1 62 66
        E 0 b1 06 40
        E 20 b1 07 5f
        E 20 b1 0a 6e
        E 20 b1 5b 00
        E 20 b1 5d 00
        E 20 b1 00 00
        E 0 b1 20 03
        E 0 c1 24 00
        E 20 b1 0b 7f
        e 7320 e1 00 40
        e 0 91 26 7f
        e 40 e1 00 3f
        e 20 e1 00 3e
        e 20 e1 00 3d
        e 20 e1 00 3c
        e 20 e1 00 3b
        e 40 e1 00 3a
        e 20 e1 00 39
        e 20 e1 00 38
        e 20 e1 00 37
        e 20 e1 00 36
        e 40 e1 00 35
        e 20 e1 00 34
        e 20 e1 00 33
        e 20 e1 00 32
        e 20 e1 00 31
        e 40 e1 00 30
        e 20 e1 00 2f
        e 20 e1 00 2e
        e 20 e1 00 2d
        e 20 e1 00 2c
        e 40 e1 00 2b
        e 20 e1 00 2a
        e 20 e1 00 29
        e 20 e1 00 28
        e 20 e1 00 27
        e 40 e1 00 26
        e 20 e1 00 25
        e 20 e1 00 24
        e 20 e1 00 23
        e 20 e1 00 22
        e 40 e1 00 21
        e 20 e1 00 20
        e 20 e1 00 1f
        e 20 e1 00 1e
        e 20 e1 00 1d
        e 40 e1 00 1c
        e 20 e1 00 1b
        e 20 e1 00 1a
        e 20 e1 00 19
        e 0 91 26 00
        e 20 e1 00 40
        e 0 91 23 7f
        e 460 91 23 00
        e 20 91 23 7f
        e 460 91 23 00
        e 20 91 23 7f
        e 460 91 23 00
        e 20 91 23 7f
        e 460 91 23 00
        e 20 91 23 7f
        e 460 91 23 00
        e 20 91 23 7f
        e 460 91 23 00
        e 20 91 23 7f
        e 460 91 23 00
        e 20 91 23 7f
        e 460 91 23 00
        e 20 91 23 7f
        e 460 91 23 00
        e 20 91 23 7f
        e 460 91 23 00
        e 20 91 23 7f
        e 460 91 23 00
        e 20 91 23 7f
        e 460 91 23 00
        e 20 91 23 7f
        e 460 91 23 00
        e 20 91 23 7f
        e 460 91 23 00
        e 20 91 23 7f
        e 460 91 23 00
        e 20 91 23 7f
        e 460 91 23 00
        e 20 91 23 7f
        e 460 91 23 00
        e 20 91 23 7f
        e 460 91 23 00
        e 20 91 23 7f
        e 460 91 23 00
        e 20 91 23 7f
        e 460 91 23 00
        e 20 91 23 7f
        e 460 91 23 00
        e 20 91 23 7f
        e 460 91 23 00
        e 20 91 23 7f
        e 460 91 23 00
        e 20 91 23 7f
        e 460 91 23 00
        e 20 91 23 7f
        e 460 91 23 00
        e 20 91 23 7f
        e 460 91 23 00
        e 20 91 23 7f
        e 460 91 23 00
        e 20 91 23 7f
        e 460 91 23 00
        e 20 91 23 7f
        e 460 91 23 00
        e 20 91 23 7f
        e 460 91 23 00
        e 20 91 23 7f
        e 460 91 23 00
        e 20 91 23 7f
        e 460 91 23 00
        e 20 91 1f 7f
        e 460 91 1f 00
        e 20 91 1f 7f
        e 460 91 1f 00
        e 20 91 1f 7f
        e 460 91 1f 00
        e 20 91 1f 7f
        e 460 91 1f 00
        e 20 91 1f 7f
        e 460 91 1f 00
        e 20 91 1f 7f
        e 460 91 1f 00
        e 20 91 1f 7f
        e 460 91 1f 00
        e 20 91 1f 7f
        e 460 91 1f 00
        e 20 91 1f 7f
        e 460 91 1f 00
        e 20 91 1f 7f
        e 460 91 1f 00
        e 20 91 1f 7f
        e 460 91 1f 00
        e 20 91 1f 7f
        e 460 91 1f 00
        e 20 91 1f 7f
        e 460 91 1f 00
        e 20 91 1f 7f
        e 460 91 1f 00
        e 20 91 1f 7f
        e 460 91 1f 00
        e 20 91 1f 7f
        e 460 91 1f 00
        e 20 91 1f 7f
        e 460 91 1f 00
        e 20 91 1f 7f
        e 460 91 1f 00
        e 20 91 1f 7f
        e 460 91 1f 00
        e 20 91 1f 7f
        e 460 91 1f 00
        e 20 91 1f 7f
        e 460 91 1f 00
        e 20 91 1f 7f
        e 460 91 1f 00
        e 20 91 1f 7f
        e 460 91 1f 00
        e 20 91 1f 7f
        e 460 91 1f 00
        e 20 91 21 7f
        e 460 91 21 00
        e 20 91 21 7f
        e 460 91 21 00
        e 20 91 21 7f
        e 460 91 21 00
        e 20 91 21 7f
        e 460 91 21 00
        e 20 91 21 7f
        e 460 91 21 00
        e 20 91 21 7f
        e 460 91 21 00
        e 20 91 21 7f
        e 460 91 21 00
        e 20 91 21 7f
        e 460 91 21 00
        e 20 91 23 7f
        e 460 91 23 00
        e 20 91 23 7f
        e 460 91 23 00
        e 20 91 23 7f
        e 460 91 23 00
        e 20 91 23 7f
        e 460 91 23 00
        e 20 91 23 7f
        e 460 91 23 00
        e 20 91 23 7f
        e 460 91 23 00
        e 20 91 23 7f
        e 460 91 23 00
        e 20 91 23 7f
        e 460 91 23 00
        e 20 91 23 7f
        e 460 91 23 00
        e 20 91 23 7f
        e 460 91 23 00
        e 20 91 23 7f
        e 460 91 23 00
        e 20 91 23 7f
        e 460 91 23 00
        e 20 91 23 7f
        e 460 91 23 00
        e 20 91 23 7f
        e 460 91 23 00
        e 20 91 23 7f
        e 460 91 23 00
        e 20 91 23 7f
        e 460 91 23 00
        e 20 91 23 7f
        e 460 91 23 00
        e 20 91 23 7f
        e 460 91 23 00
        e 20 91 23 7f
        e 460 91 23 00
        e 20 91 23 7f
        e 460 91 23 00
        e 20 91 23 7f
        e 460 91 23 00
        e 20 91 23 7f
        e 460 91 23 00
        e 20 91 23 7f
        e 460 91 23 00
        e 20 91 23 7f
        e 460 91 23 00
        e 20 91 23 7f
        e 460 91 23 00
        e 20 91 23 7f
        e 460 91 23 00
        e 20 91 23 7f
        e 460 91 23 00
        e 20 91 23 7f
        e 460 91 23 00
        e 20 91 23 7f
        e 460 91 23 00
        e 20 91 23 7f
        e 460 91 23 00
        e 20 91 23 7f
        e 460 91 23 00
        e 20 91 23 7f
        e 460 91 23 00
        e 20 91 1f 7f
        e 460 91 1f 00
        e 20 91 1f 7f
        e 460 91 1f 00
        e 20 91 1f 7f
        e 460 91 1f 00
        e 20 91 1f 7f
        e 460 91 1f 00
        e 20 91 1f 7f
        e 460 91 1f 00
        e 20 91 1f 7f
        e 460 91 1f 00
        e 20 91 1f 7f
        e 460 91 1f 00
        e 20 91 1f 7f
        e 460 91 1f 00
        e 20 91 1f 7f
        e 460 91 1f 00
        e 20 91 1f 7f
        e 460 91 1f 00
        e 20 91 1f 7f
        e 460 91 1f 00
        e 20 91 1f 7f
        e 460 91 1f 00
        e 20 91 1f 7f
        e 460 91 1f 00
        e 20 91 1f 7f
        e 460 91 1f 00
        e 20 91 1f 7f
        e 460 91 1f 00
        e 20 91 1f 7f
        e 460 91 1f 00
        e 20 91 1f 7f
        e 460 91 1f 00
        e 20 91 1f 7f
        e 460 91 1f 00
        e 20 91 1f 7f
        e 460 91 1f 00
        e 20 91 1f 7f
        e 460 91 1f 00
        e 20 91 1f 7f
        e 460 91 1f 00
        e 20 91 1f 7f
        e 460 91 1f 00
        e 20 91 1f 7f
        e 460 91 1f 00
        e 20 91 1f 7f
        e 460 91 1f 00
        e 20 91 21 7f
        e 460 91 21 00
        e 20 91 21 7f
        e 460 91 21 00
        e 20 91 21 7f
        e 460 91 21 00
        e 20 91 21 7f
        e 460 91 21 00
        e 20 91 21 7f
        e 460 91 21 00
        e 20 91 21 7f
        e 460 91 21 00
        e 20 91 21 7f
        e 460 91 21 00
        e 20 91 21 7f
        e 460 81 21 00
        E 0 b0 7b 00
        CCINTERP 32
        CHASE_CC_TAKEOFFS 1
        GUID {BB951616-B471-1E4D-A824-8003F6E565D0}
        IGNTEMPO 0 120 4 4
        SRCCOLOR 134
        VELLANE -1 100 0
        CFGEDITVIEW 0 0.07719 63 12 0 -1 0 0 0 0.5
        KEYSNAP 0
        TRACKSEL 0
        EVTFILTER 0 -1 -1 -1 -1 0 0 0 0 -1 -1 -1 -1 0 -1 0 -1 -1
        CFGEDIT 1 1 0 1 0 0 1 1 1 1 1 0.5 375 204 1920 926 0 0 0 0 0 0 0 0 0 0.5 0 0 1 64
      >
    >
    <ITEM
      POSITION 32
      SNAPOFFS 0
      LENGTH 1.77777777777778
      LOOP 1
      ALLTAKES 0
      FADEIN 1 0 0 1 0 0 0
      FADEOUT 1 0 0 1 0 0 0
      MUTE 0 0
      SEL 0
      IGUID {4B6C0B35-14B5-7247-AEEF-58C1EA991304}
      IID 34
      NAME "y ¨ÄñÎöº zfrom ûg½ for 88Pro Comp.ZUN             - th06_05.mid [chan 2]"
      VOLPAN 1 0 1 -1
      SOFFS 34.22222222222222 77
      PLAYRATE 1 1 0 -1 0 0.0025
      CHANMODE 0
      GUID {16D281B4-C348-914B-974A-8B8FB9417562}
      <SOURCE MIDI
        HASDATA 1 960 QN
        CCINTERP 32
        POOLEDEVTS {5D654275-2E86-9849-8108-CD3BE84E0014}
        E 3840 b1 78 00
        E 20 b1 79 00
        E 20 b1 7b 00
        E 20 b1 65 00
        E 0 b1 64 00
        E 0 b1 06 0c
        E 20 b1 65 00
        E 0 b1 64 01
        E 0 b1 06 40
        E 20 b1 65 00
        E 0 b1 64 02
        E 0 b1 06 40
        E 20 b1 63 01
        E 0 b1 62 08
        E 0 b1 06 40
        E 20 b1 63 01
        E 0 b1 62 09
        E 0 b1 06 40
        E 20 b1 63 01
        E 0 b1 62 0a
        E 0 b1 06 40
        E 20 b1 63 01
        E 0 b1 62 20
        E 0 b1 06 40
        E 20 b1 63 01
        E 0 b1 62 21
        E 0 b1 06 40
        E 20 b1 63 01
        E 0 b1 62 63
        E 0 b1 06 40
        E 20 b1 63 01
        E 0 b1 62 64
        E 0 b1 06 40
        E 20 b1 63 01
        E 0 b1 62 66
        E 0 b1 06 40
        E 20 b1 07 5f
        E 20 b1 0a 6e
        E 20 b1 5b 00
        E 20 b1 5d 00
        E 20 b1 00 00
        E 0 b1 20 03
        E 0 c1 24 00
        E 20 b1 0b 7f
        E 7320 e1 00 40
        E 0 91 26 7f
        E 40 e1 00 3f
        E 20 e1 00 3e
        E 20 e1 00 3d
        E 20 e1 00 3c
        E 20 e1 00 3b
        E 40 e1 00 3a
        E 20 e1 00 39
        E 20 e1 00 38
        E 20 e1 00 37
        E 20 e1 00 36
        E 40 e1 00 35
        E 20 e1 00 34
        E 20 e1 00 33
        E 20 e1 00 32
        E 20 e1 00 31
        E 40 e1 00 30
        E 20 e1 00 2f
        E 20 e1 00 2e
        E 20 e1 00 2d
        E 20 e1 00 2c
        E 40 e1 00 2b
        E 20 e1 00 2a
        E 20 e1 00 29
        E 20 e1 00 28
        E 20 e1 00 27
        E 40 e1 00 26
        E 20 e1 00 25
        E 20 e1 00 24
        E 20 e1 00 23
        E 20 e1 00 22
        E 40 e1 00 21
        E 20 e1 00 20
        E 20 e1 00 1f
        E 20 e1 00 1e
        E 20 e1 00 1d
        E 40 e1 00 1c
        E 20 e1 00 1b
        E 20 e1 00 1a
        E 20 e1 00 19
        E 0 91 26 00
        E 20 e1 00 40
        E 0 91 23 7f
        E 460 91 23 00
        E 20 91 23 7f
        E 460 91 23 00
        E 20 91 23 7f
        E 460 91 23 00
        E 20 91 23 7f
        E 460 91 23 00
        E 20 91 23 7f
        E 460 91 23 00
        E 20 91 23 7f
        E 460 91 23 00
        E 20 91 23 7f
        E 460 91 23 00
        E 20 91 23 7f
        E 460 91 23 00
        E 20 91 23 7f
        E 460 91 23 00
        E 20 91 23 7f
        E 460 91 23 00
        E 20 91 23 7f
        E 460 91 23 00
        E 20 91 23 7f
        E 460 91 23 00
        E 20 91 23 7f
        E 460 91 23 00
        E 20 91 23 7f
        E 460 91 23 00
        E 20 91 23 7f
        E 460 91 23 00
        E 20 91 23 7f
        E 460 91 23 00
        E 20 91 23 7f
        E 460 91 23 00
        E 20 91 23 7f
        E 460 91 23 00
        E 20 91 23 7f
        E 460 91 23 00
        E 20 91 23 7f
        E 460 91 23 00
        E 20 91 23 7f
        E 460 91 23 00
        E 20 91 23 7f
        E 460 91 23 00
        E 20 91 23 7f
        E 460 91 23 00
        E 20 91 23 7f
        E 460 91 23 00
        E 20 91 23 7f
        E 460 91 23 00
        E 20 91 23 7f
        E 460 91 23 00
        E 20 91 23 7f
        E 460 91 23 00
        E 20 91 23 7f
        E 460 91 23 00
        E 20 91 23 7f
        E 460 91 23 00
        E 20 91 23 7f
        E 460 91 23 00
        E 20 91 23 7f
        E 460 91 23 00
        E 20 91 23 7f
        E 460 91 23 00
        E 20 91 1f 7f
        E 460 91 1f 00
        E 20 91 1f 7f
        E 460 91 1f 00
        E 20 91 1f 7f
        E 460 91 1f 00
        E 20 91 1f 7f
        E 460 91 1f 00
        E 20 91 1f 7f
        E 460 91 1f 00
        E 20 91 1f 7f
        E 460 91 1f 00
        E 20 91 1f 7f
        E 460 91 1f 00
        E 20 91 1f 7f
        E 460 91 1f 00
        E 20 91 1f 7f
        E 460 91 1f 00
        E 20 91 1f 7f
        E 460 91 1f 00
        E 20 91 1f 7f
        E 460 91 1f 00
        E 20 91 1f 7f
        E 460 91 1f 00
        E 20 91 1f 7f
        E 460 91 1f 00
        E 20 91 1f 7f
        E 460 91 1f 00
        E 20 91 1f 7f
        E 460 91 1f 00
        E 20 91 1f 7f
        E 460 91 1f 00
        E 20 91 1f 7f
        E 460 91 1f 00
        E 20 91 1f 7f
        E 460 91 1f 00
        E 20 91 1f 7f
        E 460 91 1f 00
        E 20 91 1f 7f
        E 460 91 1f 00
        E 20 91 1f 7f
        E 460 91 1f 00
        E 20 91 1f 7f
        E 460 91 1f 00
        E 20 91 1f 7f
        E 460 91 1f 00
        E 20 91 1f 7f
        E 460 91 1f 00
        E 20 91 21 7f
        E 460 91 21 00
        E 20 91 21 7f
        E 460 91 21 00
        E 20 91 21 7f
        E 460 91 21 00
        E 20 91 21 7f
        E 460 91 21 00
        E 20 91 21 7f
        E 460 91 21 00
        E 20 91 21 7f
        E 460 91 21 00
        E 20 91 21 7f
        E 460 91 21 00
        E 20 91 21 7f
        E 460 91 21 00
        E 20 91 23 7f
        E 460 91 23 00
        E 20 91 23 7f
        E 460 91 23 00
        E 20 91 23 7f
        E 460 91 23 00
        E 20 91 23 7f
        E 460 91 23 00
        E 20 91 23 7f
        E 460 91 23 00
        E 20 91 23 7f
        E 460 91 23 00
        E 20 91 23 7f
        E 460 91 23 00
        E 20 91 23 7f
        E 460 91 23 00
        E 20 91 23 7f
        E 460 91 23 00
        E 20 91 23 7f
        E 460 91 23 00
        E 20 91 23 7f
        E 460 91 23 00
        E 20 91 23 7f
        E 460 91 23 00
        E 20 91 23 7f
        E 460 91 23 00
        E 20 91 23 7f
        E 460 91 23 00
        E 20 91 23 7f
        E 460 91 23 00
        E 20 91 23 7f
        E 460 91 23 00
        E 20 91 23 7f
        E 460 91 23 00
        E 20 91 23 7f
        E 460 91 23 00
        E 20 91 23 7f
        E 460 91 23 00
        E 20 91 23 7f
        E 460 91 23 00
        E 20 91 23 7f
        E 460 91 23 00
        E 20 91 23 7f
        E 460 91 23 00
        E 20 91 23 7f
        E 460 91 23 00
        E 20 91 23 7f
        E 460 91 23 00
        E 20 91 23 7f
        E 460 91 23 00
        E 20 91 23 7f
        E 460 91 23 00
        E 20 91 23 7f
        E 460 91 23 00
        E 20 91 23 7f
        E 460 91 23 00
        E 20 91 23 7f
        E 460 91 23 00
        E 20 91 23 7f
        E 460 91 23 00
        E 20 91 23 7f
        E 460 91 23 00
        E 20 91 23 7f
        E 460 91 23 00
        E 20 91 1f 7f
        E 460 91 1f 00
        E 20 91 1f 7f
        E 460 91 1f 00
        E 20 91 1f 7f
        E 460 91 1f 00
        E 20 91 1f 7f
        E 460 91 1f 00
        E 20 91 1f 7f
        E 460 91 1f 00
        E 20 91 1f 7f
        E 460 91 1f 00
        E 20 91 1f 7f
        E 460 91 1f 00
        E 20 91 1f 7f
        E 460 91 1f 00
        E 20 91 1f 7f
        E 460 91 1f 00
        E 20 91 1f 7f
        E 460 91 1f 00
        E 20 91 1f 7f
        E 460 91 1f 00
        E 20 91 1f 7f
        E 460 91 1f 00
        E 20 91 1f 7f
        E 460 91 1f 00
        E 20 91 1f 7f
        E 460 91 1f 00
        E 20 91 1f 7f
        E 460 91 1f 00
        E 20 91 1f 7f
        E 460 91 1f 00
        E 20 91 1f 7f
        E 460 91 1f 00
        E 20 91 1f 7f
        E 460 91 1f 00
        E 20 91 1f 7f
        E 460 91 1f 00
        E 20 91 1f 7f
        E 460 91 1f 00
        E 20 91 1f 7f
        E 460 91 1f 00
        E 20 91 1f 7f
        E 460 91 1f 00
        E 20 91 1f 7f
        E 460 91 1f 00
        E 20 91 1f 7f
        E 460 91 1f 00
        E 20 91 21 7f
        E 460 91 21 00
        E 20 91 21 7f
        E 460 91 21 00
        E 20 91 21 7f
        E 460 91 21 00
        E 20 91 21 7f
        E 460 91 21 00
        E 20 91 21 7f
        E 460 91 21 00
        E 20 91 21 7f
        E 460 91 21 00
        E 20 91 21 7f
        E 460 91 21 00
        E 20 91 21 7f
        E 460 91 21 00
        e 0 91 22 7f
        e 1360 91 22 00
        e 80 91 24 7f
        e 2380 81 24 00
        E 20 b0 7b 00
        CCINTERP 32
        CHASE_CC_TAKEOFFS 1
        GUID {C5021DDC-635A-4540-B7EC-5D89B90CEA46}
        IGNTEMPO 0 120 4 4
        SRCCOLOR 142
        VELLANE -1 100 0
        CFGEDITVIEW 73804.8 0.339033 63 12 0 -1 0 0 0 0.5
        KEYSNAP 0
        TRACKSEL 0
        EVTFILTER 0 -1 -1 -1 -1 0 0 0 0 -1 -1 -1 -1 0 -1 0 -1 -1
        CFGEDIT 1 1 0 1 0 0 1 1 1 1 1 0.5 375 204 1920 926 0 0 0 0 0 0 0 0 0 0.5 0 0 1 64
      >
    >
    <ITEM
      POSITION 33.77777777775191
      SNAPOFFS 0
      LENGTH 1.77777777780365
      LOOP 1
      ALLTAKES 0
      FADEIN 1 0 0 1 0 0 0
      FADEOUT 1 0 0 1 0 0 0
      MUTE 0 0
      SEL 0
      IGUID {FD3DA2BE-0AA5-E447-8F4C-F6F9C3C90922}
      IID 33
      NAME "y ¨ÄñÎöº zfrom ûg½ for 88Pro Comp.ZUN             - th06_05.mid [chan 2]"
      VOLPAN 1 0 1 -1
      SOFFS 65.33333333333333 147
      PLAYRATE 1 1 0 -1 0 0.0025
      CHANMODE 0
      GUID {AEA279BB-47E5-1B46-A221-A70A8D754867}
      <SOURCE MIDI
        HASDATA 1 960 QN
        CCINTERP 32
        POOLEDEVTS {61E3BA37-D661-A244-87B2-AE71AB298DF3}
        E 3840 b1 78 00
        E 20 b1 79 00
        E 20 b1 7b 00
        E 20 b1 65 00
        E 0 b1 64 00
        E 0 b1 06 0c
        E 20 b1 65 00
        E 0 b1 64 01
        E 0 b1 06 40
        E 20 b1 65 00
        E 0 b1 64 02
        E 0 b1 06 40
        E 20 b1 63 01
        E 0 b1 62 08
        E 0 b1 06 40
        E 20 b1 63 01
        E 0 b1 62 09
        E 0 b1 06 40
        E 20 b1 63 01
        E 0 b1 62 0a
        E 0 b1 06 40
        E 20 b1 63 01
        E 0 b1 62 20
        E 0 b1 06 40
        E 20 b1 63 01
        E 0 b1 62 21
        E 0 b1 06 40
        E 20 b1 63 01
        E 0 b1 62 63
        E 0 b1 06 40
        E 20 b1 63 01
        E 0 b1 62 64
        E 0 b1 06 40
        E 20 b1 63 01
        E 0 b1 62 66
        E 0 b1 06 40
        E 20 b1 07 5f
        E 20 b1 0a 6e
        E 20 b1 5b 00
        E 20 b1 5d 00
        E 20 b1 00 00
        E 0 b1 20 03
        E 0 c1 24 00
        E 20 b1 0b 7f
        E 7320 e1 00 40
        E 0 91 26 7f
        E 40 e1 00 3f
        E 20 e1 00 3e
        E 20 e1 00 3d
        E 20 e1 00 3c
        E 20 e1 00 3b
        E 40 e1 00 3a
        E 20 e1 00 39
        E 20 e1 00 38
        E 20 e1 00 37
        E 20 e1 00 36
        E 40 e1 00 35
        E 20 e1 00 34
        E 20 e1 00 33
        E 20 e1 00 32
        E 20 e1 00 31
        E 40 e1 00 30
        E 20 e1 00 2f
        E 20 e1 00 2e
        E 20 e1 00 2d
        E 20 e1 00 2c
        E 40 e1 00 2b
        E 20 e1 00 2a
        E 20 e1 00 29
        E 20 e1 00 28
        E 20 e1 00 27
        E 40 e1 00 26
        E 20 e1 00 25
        E 20 e1 00 24
        E 20 e1 00 23
        E 20 e1 00 22
        E 40 e1 00 21
        E 20 e1 00 20
        E 20 e1 00 1f
        E 20 e1 00 1e
        E 20 e1 00 1d
        E 40 e1 00 1c
        E 20 e1 00 1b
        E 20 e1 00 1a
        E 20 e1 00 19
        E 0 91 26 00
        E 20 e1 00 40
        E 0 91 23 7f
        E 460 91 23 00
        E 20 91 23 7f
        E 460 91 23 00
        E 20 91 23 7f
        E 460 91 23 00
        E 20 91 23 7f
        E 460 91 23 00
        E 20 91 23 7f
        E 460 91 23 00
        E 20 91 23 7f
        E 460 91 23 00
        E 20 91 23 7f
        E 460 91 23 00
        E 20 91 23 7f
        E 460 91 23 00
        E 20 91 23 7f
        E 460 91 23 00
        E 20 91 23 7f
        E 460 91 23 00
        E 20 91 23 7f
        E 460 91 23 00
        E 20 91 23 7f
        E 460 91 23 00
        E 20 91 23 7f
        E 460 91 23 00
        E 20 91 23 7f
        E 460 91 23 00
        E 20 91 23 7f
        E 460 91 23 00
        E 20 91 23 7f
        E 460 91 23 00
        E 20 91 23 7f
        E 460 91 23 00
        E 20 91 23 7f
        E 460 91 23 00
        E 20 91 23 7f
        E 460 91 23 00
        E 20 91 23 7f
        E 460 91 23 00
        E 20 91 23 7f
        E 460 91 23 00
        E 20 91 23 7f
        E 460 91 23 00
        E 20 91 23 7f
        E 460 91 23 00
        E 20 91 23 7f
        E 460 91 23 00
        E 20 91 23 7f
        E 460 91 23 00
        E 20 91 23 7f
        E 460 91 23 00
        E 20 91 23 7f
        E 460 91 23 00
        E 20 91 23 7f
        E 460 91 23 00
        E 20 91 23 7f
        E 460 91 23 00
        E 20 91 23 7f
        E 460 91 23 00
        E 20 91 23 7f
        E 460 91 23 00
        E 20 91 23 7f
        E 460 91 23 00
        E 20 91 1f 7f
        E 460 91 1f 00
        E 20 91 1f 7f
        E 460 91 1f 00
        E 20 91 1f 7f
        E 460 91 1f 00
        E 20 91 1f 7f
        E 460 91 1f 00
        E 20 91 1f 7f
        E 460 91 1f 00
        E 20 91 1f 7f
        E 460 91 1f 00
        E 20 91 1f 7f
        E 460 91 1f 00
        E 20 91 1f 7f
        E 460 91 1f 00
        E 20 91 1f 7f
        E 460 91 1f 00
        E 20 91 1f 7f
        E 460 91 1f 00
        E 20 91 1f 7f
        E 460 91 1f 00
        E 20 91 1f 7f
        E 460 91 1f 00
        E 20 91 1f 7f
        E 460 91 1f 00
        E 20 91 1f 7f
        E 460 91 1f 00
        E 20 91 1f 7f
        E 460 91 1f 00
        E 20 91 1f 7f
        E 460 91 1f 00
        E 20 91 1f 7f
        E 460 91 1f 00
        E 20 91 1f 7f
        E 460 91 1f 00
        E 20 91 1f 7f
        E 460 91 1f 00
        E 20 91 1f 7f
        E 460 91 1f 00
        E 20 91 1f 7f
        E 460 91 1f 00
        E 20 91 1f 7f
        E 460 91 1f 00
        E 20 91 1f 7f
        E 460 91 1f 00
        E 20 91 1f 7f
        E 460 91 1f 00
        E 20 91 21 7f
        E 460 91 21 00
        E 20 91 21 7f
        E 460 91 21 00
        E 20 91 21 7f
        E 460 91 21 00
        E 20 91 21 7f
        E 460 91 21 00
        E 20 91 21 7f
        E 460 91 21 00
        E 20 91 21 7f
        E 460 91 21 00
        E 20 91 21 7f
        E 460 91 21 00
        E 20 91 21 7f
        E 460 91 21 00
        E 20 91 23 7f
        E 460 91 23 00
        E 20 91 23 7f
        E 460 91 23 00
        E 20 91 23 7f
        E 460 91 23 00
        E 20 91 23 7f
        E 460 91 23 00
        E 20 91 23 7f
        E 460 91 23 00
        E 20 91 23 7f
        E 460 91 23 00
        E 20 91 23 7f
        E 460 91 23 00
        E 20 91 23 7f
        E 460 91 23 00
        E 20 91 23 7f
        E 460 91 23 00
        E 20 91 23 7f
        E 460 91 23 00
        E 20 91 23 7f
        E 460 91 23 00
        E 20 91 23 7f
        E 460 91 23 00
        E 20 91 23 7f
        E 460 91 23 00
        E 20 91 23 7f
        E 460 91 23 00
        E 20 91 23 7f
        E 460 91 23 00
        E 20 91 23 7f
        E 460 91 23 00
        E 20 91 23 7f
        E 460 91 23 00
        E 20 91 23 7f
        E 460 91 23 00
        E 20 91 23 7f
        E 460 91 23 00
        E 20 91 23 7f
        E 460 91 23 00
        E 20 91 23 7f
        E 460 91 23 00
        E 20 91 23 7f
        E 460 91 23 00
        E 20 91 23 7f
        E 460 91 23 00
        E 20 91 23 7f
        E 460 91 23 00
        E 20 91 23 7f
        E 460 91 23 00
        E 20 91 23 7f
        E 460 91 23 00
        E 20 91 23 7f
        E 460 91 23 00
        E 20 91 23 7f
        E 460 91 23 00
        E 20 91 23 7f
        E 460 91 23 00
        E 20 91 23 7f
        E 460 91 23 00
        E 20 91 23 7f
        E 460 91 23 00
        E 20 91 23 7f
        E 460 91 23 00
        E 20 91 1f 7f
        E 460 91 1f 00
        E 20 91 1f 7f
        E 460 91 1f 00
        E 20 91 1f 7f
        E 460 91 1f 00
        E 20 91 1f 7f
        E 460 91 1f 00
        E 20 91 1f 7f
        E 460 91 1f 00
        E 20 91 1f 7f
        E 460 91 1f 00
        E 20 91 1f 7f
        E 460 91 1f 00
        E 20 91 1f 7f
        E 460 91 1f 00
        E 20 91 1f 7f
        E 460 91 1f 00
        E 20 91 1f 7f
        E 460 91 1f 00
        E 20 91 1f 7f
        E 460 91 1f 00
        E 20 91 1f 7f
        E 460 91 1f 00
        E 20 91 1f 7f
        E 460 91 1f 00
        E 20 91 1f 7f
        E 460 91 1f 00
        E 20 91 1f 7f
        E 460 91 1f 00
        E 20 91 1f 7f
        E 460 91 1f 00
        E 20 91 1f 7f
        E 460 91 1f 00
        E 20 91 1f 7f
        E 460 91 1f 00
        E 20 91 1f 7f
        E 460 91 1f 00
        E 20 91 1f 7f
        E 460 91 1f 00
        E 20 91 1f 7f
        E 460 91 1f 00
        E 20 91 1f 7f
        E 460 91 1f 00
        E 20 91 1f 7f
        E 460 91 1f 00
        E 20 91 1f 7f
        E 460 91 1f 00
        E 20 91 21 7f
        E 460 91 21 00
        E 20 91 21 7f
        E 460 91 21 00
        E 20 91 21 7f
        E 460 91 21 00
        E 20 91 21 7f
        E 460 91 21 00
        E 20 91 21 7f
        E 460 91 21 00
        E 20 91 21 7f
        E 460 91 21 00
        E 20 91 21 7f
        E 460 91 21 00
        E 20 91 21 7f
        E 460 91 21 00
        E 20 91 22 7f
        E 0 91 29 7f
        E 1360 91 22 00
        E 0 91 29 00
        E 80 91 24 7f
        E 0 91 2b 7f
        E 2400 91 24 00
        E 0 91 2b 00
        E 63420 e1 00 40
        E 0 91 26 7f
        e 3760 e1 00 40
        E 0 91 26 00
        e 0 91 26 7f
        e 1920 91 26 00
        E 0 b0 7b 00
        CCINTERP 32
        CHASE_CC_TAKEOFFS 1
        GUID {49BA9EC5-2B05-C148-90A5-CEE15C6B0A88}
        IGNTEMPO 0 120 4 4
        SRCCOLOR 141
        VELLANE -1 100 0
        CFGEDITVIEW 135139.118548 0.063797 63 12 0 -1 0 0 0 0.5
        KEYSNAP 0
        TRACKSEL 0
        EVTFILTER 0 -1 -1 -1 -1 0 0 0 0 -1 -1 -1 -1 0 -1 0 -1 -1
        CFGEDIT 1 1 0 1 0 0 1 1 1 1 1 0.5 375 204 1920 926 0 0 0 0 0 0 0 0 0 0.5 0 0 1 64
      >
    >
    <ITEM
      POSITION 35.55555555550382
      SNAPOFFS 0
      LENGTH 14.22222222222222
      LOOP 1
      ALLTAKES 0
      FADEIN 1 0 0 1 0 0 0
      FADEOUT 1 0 0 1 0 0 0
      MUTE 0 0
      SEL 0
      IGUID {15B0DA52-1672-0145-9389-8CF1D9DF8C34}
      IID 46
      NAME "y ¨ÄñÎöº zfrom ûg½ for 88Pro Comp.ZUN             - th06_05.mid [chan 2]"
      VOLPAN 1 0 1 -1
      SOFFS 80.44444444444444 181
      PLAYRATE 1 1 0 -1 0 0.0025
      CHANMODE 0
      GUID {F6AF35BE-8BDE-174B-B863-42B9174C33F1}
      <SOURCE MIDI
        HASDATA 1 960 QN
        CCINTERP 32
        POOLEDEVTS {3C7B1DC1-253E-7945-91A8-E476B43566F8}
        E 3840 b1 78 00
        E 20 b1 79 00
        E 20 b1 7b 00
        E 20 b1 65 00
        E 0 b1 64 00
        E 0 b1 06 0c
        E 20 b1 65 00
        E 0 b1 64 01
        E 0 b1 06 40
        E 20 b1 65 00
        E 0 b1 64 02
        E 0 b1 06 40
        E 20 b1 63 01
        E 0 b1 62 08
        E 0 b1 06 40
        E 20 b1 63 01
        E 0 b1 62 09
        E 0 b1 06 40
        E 20 b1 63 01
        E 0 b1 62 0a
        E 0 b1 06 40
        E 20 b1 63 01
        E 0 b1 62 20
        E 0 b1 06 40
        E 20 b1 63 01
        E 0 b1 62 21
        E 0 b1 06 40
        E 20 b1 63 01
        E 0 b1 62 63
        E 0 b1 06 40
        E 20 b1 63 01
        E 0 b1 62 64
        E 0 b1 06 40
        E 20 b1 63 01
        E 0 b1 62 66
        E 0 b1 06 40
        E 20 b1 07 5f
        E 20 b1 0a 6e
        E 20 b1 5b 00
        E 20 b1 5d 00
        E 20 b1 00 00
        E 0 b1 20 03
        E 0 c1 24 00
        E 20 b1 0b 7f
        E 7320 e1 00 40
        E 0 91 26 7f
        E 40 e1 00 3f
        E 20 e1 00 3e
        E 20 e1 00 3d
        E 20 e1 00 3c
        E 20 e1 00 3b
        E 40 e1 00 3a
        E 20 e1 00 39
        E 20 e1 00 38
        E 20 e1 00 37
        E 20 e1 00 36
        E 40 e1 00 35
        E 20 e1 00 34
        E 20 e1 00 33
        E 20 e1 00 32
        E 20 e1 00 31
        E 40 e1 00 30
        E 20 e1 00 2f
        E 20 e1 00 2e
        E 20 e1 00 2d
        E 20 e1 00 2c
        E 40 e1 00 2b
        E 20 e1 00 2a
        E 20 e1 00 29
        E 20 e1 00 28
        E 20 e1 00 27
        E 40 e1 00 26
        E 20 e1 00 25
        E 20 e1 00 24
        E 20 e1 00 23
        E 20 e1 00 22
        E 40 e1 00 21
        E 20 e1 00 20
        E 20 e1 00 1f
        E 20 e1 00 1e
        E 20 e1 00 1d
        E 40 e1 00 1c
        E 20 e1 00 1b
        E 20 e1 00 1a
        E 20 e1 00 19
        E 0 91 26 00
        E 20 e1 00 40
        E 0 91 23 7f
        E 460 91 23 00
        E 20 91 23 7f
        E 460 91 23 00
        E 20 91 23 7f
        E 460 91 23 00
        E 20 91 23 7f
        E 460 91 23 00
        E 20 91 23 7f
        E 460 91 23 00
        E 20 91 23 7f
        E 460 91 23 00
        E 20 91 23 7f
        E 460 91 23 00
        E 20 91 23 7f
        E 460 91 23 00
        E 20 91 23 7f
        E 460 91 23 00
        E 20 91 23 7f
        E 460 91 23 00
        E 20 91 23 7f
        E 460 91 23 00
        E 20 91 23 7f
        E 460 91 23 00
        E 20 91 23 7f
        E 460 91 23 00
        E 20 91 23 7f
        E 460 91 23 00
        E 20 91 23 7f
        E 460 91 23 00
        E 20 91 23 7f
        E 460 91 23 00
        E 20 91 23 7f
        E 460 91 23 00
        E 20 91 23 7f
        E 460 91 23 00
        E 20 91 23 7f
        E 460 91 23 00
        E 20 91 23 7f
        E 460 91 23 00
        E 20 91 23 7f
        E 460 91 23 00
        E 20 91 23 7f
        E 460 91 23 00
        E 20 91 23 7f
        E 460 91 23 00
        E 20 91 23 7f
        E 460 91 23 00
        E 20 91 23 7f
        E 460 91 23 00
        E 20 91 23 7f
        E 460 91 23 00
        E 20 91 23 7f
        E 460 91 23 00
        E 20 91 23 7f
        E 460 91 23 00
        E 20 91 23 7f
        E 460 91 23 00
        E 20 91 23 7f
        E 460 91 23 00
        E 20 91 23 7f
        E 460 91 23 00
        E 20 91 23 7f
        E 460 91 23 00
        E 20 91 1f 7f
        E 460 91 1f 00
        E 20 91 1f 7f
        E 460 91 1f 00
        E 20 91 1f 7f
        E 460 91 1f 00
        E 20 91 1f 7f
        E 460 91 1f 00
        E 20 91 1f 7f
        E 460 91 1f 00
        E 20 91 1f 7f
        E 460 91 1f 00
        E 20 91 1f 7f
        E 460 91 1f 00
        E 20 91 1f 7f
        E 460 91 1f 00
        E 20 91 1f 7f
        E 460 91 1f 00
        E 20 91 1f 7f
        E 460 91 1f 00
        E 20 91 1f 7f
        E 460 91 1f 00
        E 20 91 1f 7f
        E 460 91 1f 00
        E 20 91 1f 7f
        E 460 91 1f 00
        E 20 91 1f 7f
        E 460 91 1f 00
        E 20 91 1f 7f
        E 460 91 1f 00
        E 20 91 1f 7f
        E 460 91 1f 00
        E 20 91 1f 7f
        E 460 91 1f 00
        E 20 91 1f 7f
        E 460 91 1f 00
        E 20 91 1f 7f
        E 460 91 1f 00
        E 20 91 1f 7f
        E 460 91 1f 00
        E 20 91 1f 7f
        E 460 91 1f 00
        E 20 91 1f 7f
        E 460 91 1f 00
        E 20 91 1f 7f
        E 460 91 1f 00
        E 20 91 1f 7f
        E 460 91 1f 00
        E 20 91 21 7f
        E 460 91 21 00
        E 20 91 21 7f
        E 460 91 21 00
        E 20 91 21 7f
        E 460 91 21 00
        E 20 91 21 7f
        E 460 91 21 00
        E 20 91 21 7f
        E 460 91 21 00
        E 20 91 21 7f
        E 460 91 21 00
        E 20 91 21 7f
        E 460 91 21 00
        E 20 91 21 7f
        E 460 91 21 00
        E 20 91 23 7f
        E 460 91 23 00
        E 20 91 23 7f
        E 460 91 23 00
        E 20 91 23 7f
        E 460 91 23 00
        E 20 91 23 7f
        E 460 91 23 00
        E 20 91 23 7f
        E 460 91 23 00
        E 20 91 23 7f
        E 460 91 23 00
        E 20 91 23 7f
        E 460 91 23 00
        E 20 91 23 7f
        E 460 91 23 00
        E 20 91 23 7f
        E 460 91 23 00
        E 20 91 23 7f
        E 460 91 23 00
        E 20 91 23 7f
        E 460 91 23 00
        E 20 91 23 7f
        E 460 91 23 00
        E 20 91 23 7f
        E 460 91 23 00
        E 20 91 23 7f
        E 460 91 23 00
        E 20 91 23 7f
        E 460 91 23 00
        E 20 91 23 7f
        E 460 91 23 00
        E 20 91 23 7f
        E 460 91 23 00
        E 20 91 23 7f
        E 460 91 23 00
        E 20 91 23 7f
        E 460 91 23 00
        E 20 91 23 7f
        E 460 91 23 00
        E 20 91 23 7f
        E 460 91 23 00
        E 20 91 23 7f
        E 460 91 23 00
        E 20 91 23 7f
        E 460 91 23 00
        E 20 91 23 7f
        E 460 91 23 00
        E 20 91 23 7f
        E 460 91 23 00
        E 20 91 23 7f
        E 460 91 23 00
        E 20 91 23 7f
        E 460 91 23 00
        E 20 91 23 7f
        E 460 91 23 00
        E 20 91 23 7f
        E 460 91 23 00
        E 20 91 23 7f
        E 460 91 23 00
        E 20 91 23 7f
        E 460 91 23 00
        E 20 91 23 7f
        E 460 91 23 00
        E 20 91 1f 7f
        E 460 91 1f 00
        E 20 91 1f 7f
        E 460 91 1f 00
        E 20 91 1f 7f
        E 460 91 1f 00
        E 20 91 1f 7f
        E 460 91 1f 00
        E 20 91 1f 7f
        E 460 91 1f 00
        E 20 91 1f 7f
        E 460 91 1f 00
        E 20 91 1f 7f
        E 460 91 1f 00
        E 20 91 1f 7f
        E 460 91 1f 00
        E 20 91 1f 7f
        E 460 91 1f 00
        E 20 91 1f 7f
        E 460 91 1f 00
        E 20 91 1f 7f
        E 460 91 1f 00
        E 20 91 1f 7f
        E 460 91 1f 00
        E 20 91 1f 7f
        E 460 91 1f 00
        E 20 91 1f 7f
        E 460 91 1f 00
        E 20 91 1f 7f
        E 460 91 1f 00
        E 20 91 1f 7f
        E 460 91 1f 00
        E 20 91 1f 7f
        E 460 91 1f 00
        E 20 91 1f 7f
        E 460 91 1f 00
        E 20 91 1f 7f
        E 460 91 1f 00
        E 20 91 1f 7f
        E 460 91 1f 00
        E 20 91 1f 7f
        E 460 91 1f 00
        E 20 91 1f 7f
        E 460 91 1f 00
        E 20 91 1f 7f
        E 460 91 1f 00
        E 20 91 1f 7f
        E 460 91 1f 00
        E 20 91 21 7f
        E 460 91 21 00
        E 20 91 21 7f
        E 460 91 21 00
        E 20 91 21 7f
        E 460 91 21 00
        E 20 91 21 7f
        E 460 91 21 00
        E 20 91 21 7f
        E 460 91 21 00
        E 20 91 21 7f
        E 460 91 21 00
        E 20 91 21 7f
        E 460 91 21 00
        E 20 91 21 7f
        E 460 91 21 00
        E 20 91 22 7f
        E 0 91 29 7f
        E 1360 91 22 00
        E 0 91 29 00
        E 80 91 24 7f
        E 0 91 2b 7f
        E 2400 91 24 00
        E 0 91 2b 00
        E 64320 e1 00 40
        E 0 91 26 7f
        E 40 e1 00 3f
        E 20 e1 00 3e
        E 40 e1 00 3d
        E 20 e1 00 3c
        E 40 e1 00 3b
        E 20 e1 00 3a
        E 40 e1 00 39
        E 20 e1 00 38
        E 40 e1 00 37
        E 20 e1 00 36
        E 40 e1 00 35
        E 20 e1 00 34
        E 40 e1 00 33
        E 20 e1 00 32
        E 40 e1 00 31
        E 20 e1 00 30
        E 40 e1 00 2f
        E 20 e1 00 2e
        E 40 e1 00 2d
        E 20 e1 00 2c
        E 40 e1 00 2b
        E 20 e1 00 2a
        E 40 e1 00 29
        E 20 e1 00 28
        E 40 e1 00 27
        E 20 e1 00 26
        E 40 e1 00 25
        E 20 e1 00 24
        E 40 e1 00 23
        E 20 e1 00 22
        E 40 e1 00 21
        E 0 91 26 00
        e 20 e1 00 40
        e 0 91 26 7f
        e 1840 91 26 00
        E 80 91 24 7f
        E 1840 91 24 00
        E 80 91 23 7f
        E 3800 91 23 00
        E 40 91 22 7f
        E 1840 91 22 00
        E 80 91 24 7f
        E 1840 91 24 00
        E 80 91 25 7f
        E 3800 91 25 00
        E 40 91 26 7f
        E 1840 91 26 00
        E 80 91 24 7f
        E 1840 91 24 00
        E 80 91 23 7f
        E 2840 91 23 00
        E 40 91 24 7f
        E 940 91 24 00
        E 20 91 22 7f
        E 1840 91 22 00
        E 80 91 24 7f
        E 1840 91 24 00
        E 80 91 26 7f
        E 2840 91 26 00
        E 40 e1 00 40
        E 0 91 21 7f
        E 40 e1 00 3f
        E 20 e1 00 3e
        E 40 e1 00 3d
        E 20 e1 00 3c
        E 40 e1 00 3b
        E 20 e1 00 3a
        E 40 e1 00 39
        E 20 e1 00 38
        E 40 e1 00 37
        E 20 e1 00 36
        E 40 e1 00 35
        E 20 e1 00 34
        E 40 e1 00 33
        E 20 e1 00 32
        E 40 e1 00 31
        E 20 e1 00 30
        E 40 e1 00 2f
        E 20 e1 00 2e
        E 40 e1 00 2d
        E 20 e1 00 2c
        E 40 e1 00 2b
        E 20 e1 00 2a
        E 40 e1 00 29
        E 20 e1 00 28
        E 40 e1 00 27
        E 20 e1 00 26
        E 40 e1 00 25
        E 20 e1 00 24
        E 40 e1 00 23
        E 20 e1 00 22
        E 40 e1 00 21
        E 0 91 21 00
        E 20 e1 00 40
        E 0 91 26 7f
        E 1840 91 26 00
        E 80 91 24 7f
        E 1840 91 24 00
        E 80 91 23 7f
        E 3800 91 23 00
        E 40 91 22 7f
        E 1840 91 22 00
        E 80 91 24 7f
        E 1840 91 24 00
        E 80 91 25 7f
        E 3800 91 25 00
        E 40 91 26 7f
        E 1840 91 26 00
        E 80 91 24 7f
        E 1840 91 24 00
        E 80 91 23 7f
        E 2840 91 23 00
        E 40 91 24 7f
        E 940 91 24 00
        E 20 91 22 7f
        E 1840 91 22 00
        E 80 91 24 7f
        E 1840 91 24 00
        E 80 91 26 7f
        E 2840 91 26 00
        E 40 e1 00 40
        E 0 91 21 7f
        E 40 e1 00 3f
        E 20 e1 00 3e
        E 40 e1 00 3d
        E 20 e1 00 3c
        E 40 e1 00 3b
        E 20 e1 00 3a
        E 40 e1 00 39
        E 20 e1 00 38
        E 40 e1 00 37
        E 20 e1 00 36
        E 40 e1 00 35
        E 20 e1 00 34
        E 40 e1 00 33
        E 20 e1 00 32
        E 40 e1 00 31
        E 20 e1 00 30
        E 40 e1 00 2f
        E 20 e1 00 2e
        E 40 e1 00 2d
        E 20 e1 00 2c
        E 40 e1 00 2b
        E 20 e1 00 2a
        E 40 e1 00 29
        E 20 e1 00 28
        E 40 e1 00 27
        E 20 e1 00 26
        E 40 e1 00 25
        E 20 e1 00 24
        E 40 e1 00 23
        E 20 e1 00 22
        E 40 81 21 00
        E 0 b0 7b 00
        CCINTERP 32
        CHASE_CC_TAKEOFFS 1
        GUID {65F2FEDF-C63E-BC41-807D-CCD7A102E8FF}
        IGNTEMPO 0 120 4 4
        SRCCOLOR 154
        VELLANE -1 100 0
        CFGEDITVIEW 0 0.020547 63 12 0 -1 0 0 0 0.5
        KEYSNAP 0
        TRACKSEL 0
        EVTFILTER 0 -1 -1 -1 -1 0 0 0 0 -1 -1 -1 -1 0 -1 0 -1 -1
        CFGEDIT 1 1 0 1 0 0 1 1 1 1 1 0.5 375 204 1920 926 0 0 0 0 0 0 0 0 0 0.5 0 0 1 64
      >
    >
    <ITEM
      POSITION 49.77777777777778
      SNAPOFFS 0
      LENGTH 14.22222222222222
      LOOP 1
      ALLTAKES 0
      FADEIN 1 0 0 1 0 0 0
      FADEOUT 1 0 0 1 0 0 0
      MUTE 0 0
      SEL 0
      IGUID {3AD44DDF-632B-9544-A36D-09BD21B14AF9}
      IID 46
      NAME "y ¨ÄñÎöº zfrom ûg½ for 88Pro Comp.ZUN             - th06_05.mid [chan 2]"
      VOLPAN 1 0 1 -1
      SOFFS 80.44444444444444 181
      PLAYRATE 1 1 0 -1 0 0.0025
      CHANMODE 0
      GUID {49135A47-208F-9C44-8450-D99D9D88A41A}
      <SOURCE MIDI
        HASDATA 1 960 QN
        CCINTERP 32
        POOLEDEVTS {B28B5C3D-821C-0E4C-A183-ACD080B897C0}
        E 3840 b1 78 00
        E 20 b1 79 00
        E 20 b1 7b 00
        E 20 b1 65 00
        E 0 b1 64 00
        E 0 b1 06 0c
        E 20 b1 65 00
        E 0 b1 64 01
        E 0 b1 06 40
        E 20 b1 65 00
        E 0 b1 64 02
        E 0 b1 06 40
        E 20 b1 63 01
        E 0 b1 62 08
        E 0 b1 06 40
        E 20 b1 63 01
        E 0 b1 62 09
        E 0 b1 06 40
        E 20 b1 63 01
        E 0 b1 62 0a
        E 0 b1 06 40
        E 20 b1 63 01
        E 0 b1 62 20
        E 0 b1 06 40
        E 20 b1 63 01
        E 0 b1 62 21
        E 0 b1 06 40
        E 20 b1 63 01
        E 0 b1 62 63
        E 0 b1 06 40
        E 20 b1 63 01
        E 0 b1 62 64
        E 0 b1 06 40
        E 20 b1 63 01
        E 0 b1 62 66
        E 0 b1 06 40
        E 20 b1 07 5f
        E 20 b1 0a 6e
        E 20 b1 5b 00
        E 20 b1 5d 00
        E 20 b1 00 00
        E 0 b1 20 03
        E 0 c1 24 00
        E 20 b1 0b 7f
        E 7320 e1 00 40
        E 0 91 26 7f
        E 40 e1 00 3f
        E 20 e1 00 3e
        E 20 e1 00 3d
        E 20 e1 00 3c
        E 20 e1 00 3b
        E 40 e1 00 3a
        E 20 e1 00 39
        E 20 e1 00 38
        E 20 e1 00 37
        E 20 e1 00 36
        E 40 e1 00 35
        E 20 e1 00 34
        E 20 e1 00 33
        E 20 e1 00 32
        E 20 e1 00 31
        E 40 e1 00 30
        E 20 e1 00 2f
        E 20 e1 00 2e
        E 20 e1 00 2d
        E 20 e1 00 2c
        E 40 e1 00 2b
        E 20 e1 00 2a
        E 20 e1 00 29
        E 20 e1 00 28
        E 20 e1 00 27
        E 40 e1 00 26
        E 20 e1 00 25
        E 20 e1 00 24
        E 20 e1 00 23
        E 20 e1 00 22
        E 40 e1 00 21
        E 20 e1 00 20
        E 20 e1 00 1f
        E 20 e1 00 1e
        E 20 e1 00 1d
        E 40 e1 00 1c
        E 20 e1 00 1b
        E 20 e1 00 1a
        E 20 e1 00 19
        E 0 91 26 00
        E 20 e1 00 40
        E 0 91 23 7f
        E 460 91 23 00
        E 20 91 23 7f
        E 460 91 23 00
        E 20 91 23 7f
        E 460 91 23 00
        E 20 91 23 7f
        E 460 91 23 00
        E 20 91 23 7f
        E 460 91 23 00
        E 20 91 23 7f
        E 460 91 23 00
        E 20 91 23 7f
        E 460 91 23 00
        E 20 91 23 7f
        E 460 91 23 00
        E 20 91 23 7f
        E 460 91 23 00
        E 20 91 23 7f
        E 460 91 23 00
        E 20 91 23 7f
        E 460 91 23 00
        E 20 91 23 7f
        E 460 91 23 00
        E 20 91 23 7f
        E 460 91 23 00
        E 20 91 23 7f
        E 460 91 23 00
        E 20 91 23 7f
        E 460 91 23 00
        E 20 91 23 7f
        E 460 91 23 00
        E 20 91 23 7f
        E 460 91 23 00
        E 20 91 23 7f
        E 460 91 23 00
        E 20 91 23 7f
        E 460 91 23 00
        E 20 91 23 7f
        E 460 91 23 00
        E 20 91 23 7f
        E 460 91 23 00
        E 20 91 23 7f
        E 460 91 23 00
        E 20 91 23 7f
        E 460 91 23 00
        E 20 91 23 7f
        E 460 91 23 00
        E 20 91 23 7f
        E 460 91 23 00
        E 20 91 23 7f
        E 460 91 23 00
        E 20 91 23 7f
        E 460 91 23 00
        E 20 91 23 7f
        E 460 91 23 00
        E 20 91 23 7f
        E 460 91 23 00
        E 20 91 23 7f
        E 460 91 23 00
        E 20 91 23 7f
        E 460 91 23 00
        E 20 91 23 7f
        E 460 91 23 00
        E 20 91 1f 7f
        E 460 91 1f 00
        E 20 91 1f 7f
        E 460 91 1f 00
        E 20 91 1f 7f
        E 460 91 1f 00
        E 20 91 1f 7f
        E 460 91 1f 00
        E 20 91 1f 7f
        E 460 91 1f 00
        E 20 91 1f 7f
        E 460 91 1f 00
        E 20 91 1f 7f
        E 460 91 1f 00
        E 20 91 1f 7f
        E 460 91 1f 00
        E 20 91 1f 7f
        E 460 91 1f 00
        E 20 91 1f 7f
        E 460 91 1f 00
        E 20 91 1f 7f
        E 460 91 1f 00
        E 20 91 1f 7f
        E 460 91 1f 00
        E 20 91 1f 7f
        E 460 91 1f 00
        E 20 91 1f 7f
        E 460 91 1f 00
        E 20 91 1f 7f
        E 460 91 1f 00
        E 20 91 1f 7f
        E 460 91 1f 00
        E 20 91 1f 7f
        E 460 91 1f 00
        E 20 91 1f 7f
        E 460 91 1f 00
        E 20 91 1f 7f
        E 460 91 1f 00
        E 20 91 1f 7f
        E 460 91 1f 00
        E 20 91 1f 7f
        E 460 91 1f 00
        E 20 91 1f 7f
        E 460 91 1f 00
        E 20 91 1f 7f
        E 460 91 1f 00
        E 20 91 1f 7f
        E 460 91 1f 00
        E 20 91 21 7f
        E 460 91 21 00
        E 20 91 21 7f
        E 460 91 21 00
        E 20 91 21 7f
        E 460 91 21 00
        E 20 91 21 7f
        E 460 91 21 00
        E 20 91 21 7f
        E 460 91 21 00
        E 20 91 21 7f
        E 460 91 21 00
        E 20 91 21 7f
        E 460 91 21 00
        E 20 91 21 7f
        E 460 91 21 00
        E 20 91 23 7f
        E 460 91 23 00
        E 20 91 23 7f
        E 460 91 23 00
        E 20 91 23 7f
        E 460 91 23 00
        E 20 91 23 7f
        E 460 91 23 00
        E 20 91 23 7f
        E 460 91 23 00
        E 20 91 23 7f
        E 460 91 23 00
        E 20 91 23 7f
        E 460 91 23 00
        E 20 91 23 7f
        E 460 91 23 00
        E 20 91 23 7f
        E 460 91 23 00
        E 20 91 23 7f
        E 460 91 23 00
        E 20 91 23 7f
        E 460 91 23 00
        E 20 91 23 7f
        E 460 91 23 00
        E 20 91 23 7f
        E 460 91 23 00
        E 20 91 23 7f
        E 460 91 23 00
        E 20 91 23 7f
        E 460 91 23 00
        E 20 91 23 7f
        E 460 91 23 00
        E 20 91 23 7f
        E 460 91 23 00
        E 20 91 23 7f
        E 460 91 23 00
        E 20 91 23 7f
        E 460 91 23 00
        E 20 91 23 7f
        E 460 91 23 00
        E 20 91 23 7f
        E 460 91 23 00
        E 20 91 23 7f
        E 460 91 23 00
        E 20 91 23 7f
        E 460 91 23 00
        E 20 91 23 7f
        E 460 91 23 00
        E 20 91 23 7f
        E 460 91 23 00
        E 20 91 23 7f
        E 460 91 23 00
        E 20 91 23 7f
        E 460 91 23 00
        E 20 91 23 7f
        E 460 91 23 00
        E 20 91 23 7f
        E 460 91 23 00
        E 20 91 23 7f
        E 460 91 23 00
        E 20 91 23 7f
        E 460 91 23 00
        E 20 91 23 7f
        E 460 91 23 00
        E 20 91 1f 7f
        E 460 91 1f 00
        E 20 91 1f 7f
        E 460 91 1f 00
        E 20 91 1f 7f
        E 460 91 1f 00
        E 20 91 1f 7f
        E 460 91 1f 00
        E 20 91 1f 7f
        E 460 91 1f 00
        E 20 91 1f 7f
        E 460 91 1f 00
        E 20 91 1f 7f
        E 460 91 1f 00
        E 20 91 1f 7f
        E 460 91 1f 00
        E 20 91 1f 7f
        E 460 91 1f 00
        E 20 91 1f 7f
        E 460 91 1f 00
        E 20 91 1f 7f
        E 460 91 1f 00
        E 20 91 1f 7f
        E 460 91 1f 00
        E 20 91 1f 7f
        E 460 91 1f 00
        E 20 91 1f 7f
        E 460 91 1f 00
        E 20 91 1f 7f
        E 460 91 1f 00
        E 20 91 1f 7f
        E 460 91 1f 00
        E 20 91 1f 7f
        E 460 91 1f 00
        E 20 91 1f 7f
        E 460 91 1f 00
        E 20 91 1f 7f
        E 460 91 1f 00
        E 20 91 1f 7f
        E 460 91 1f 00
        E 20 91 1f 7f
        E 460 91 1f 00
        E 20 91 1f 7f
        E 460 91 1f 00
        E 20 91 1f 7f
        E 460 91 1f 00
        E 20 91 1f 7f
        E 460 91 1f 00
        E 20 91 21 7f
        E 460 91 21 00
        E 20 91 21 7f
        E 460 91 21 00
        E 20 91 21 7f
        E 460 91 21 00
        E 20 91 21 7f
        E 460 91 21 00
        E 20 91 21 7f
        E 460 91 21 00
        E 20 91 21 7f
        E 460 91 21 00
        E 20 91 21 7f
        E 460 91 21 00
        E 20 91 21 7f
        E 460 91 21 00
        E 20 91 22 7f
        E 0 91 29 7f
        E 1360 91 22 00
        E 0 91 29 00
        E 80 91 24 7f
        E 0 91 2b 7f
        E 2400 91 24 00
        E 0 91 2b 00
        E 64320 e1 00 40
        E 0 91 26 7f
        E 40 e1 00 3f
        E 20 e1 00 3e
        E 40 e1 00 3d
        E 20 e1 00 3c
        E 40 e1 00 3b
        E 20 e1 00 3a
        E 40 e1 00 39
        E 20 e1 00 38
        E 40 e1 00 37
        E 20 e1 00 36
        E 40 e1 00 35
        E 20 e1 00 34
        E 40 e1 00 33
        E 20 e1 00 32
        E 40 e1 00 31
        E 20 e1 00 30
        E 40 e1 00 2f
        E 20 e1 00 2e
        E 40 e1 00 2d
        E 20 e1 00 2c
        E 40 e1 00 2b
        E 20 e1 00 2a
        E 40 e1 00 29
        E 20 e1 00 28
        E 40 e1 00 27
        E 20 e1 00 26
        E 40 e1 00 25
        E 20 e1 00 24
        E 40 e1 00 23
        E 20 e1 00 22
        E 40 e1 00 21
        E 0 91 26 00
        e 20 e1 00 40
        e 0 91 26 7f
        e 1840 91 26 00
        E 80 91 24 7f
        E 1840 91 24 00
        E 80 91 23 7f
        E 3800 91 23 00
        E 40 91 22 7f
        E 1840 91 22 00
        E 80 91 24 7f
        E 1840 91 24 00
        E 80 91 25 7f
        E 3800 91 25 00
        E 40 91 26 7f
        E 1840 91 26 00
        E 80 91 24 7f
        E 1840 91 24 00
        E 80 91 23 7f
        E 2840 91 23 00
        E 40 91 24 7f
        E 940 91 24 00
        E 20 91 22 7f
        E 1840 91 22 00
        E 80 91 24 7f
        E 1840 91 24 00
        E 80 91 26 7f
        E 2840 91 26 00
        E 40 e1 00 40
        E 0 91 21 7f
        E 40 e1 00 3f
        E 20 e1 00 3e
        E 40 e1 00 3d
        E 20 e1 00 3c
        E 40 e1 00 3b
        E 20 e1 00 3a
        E 40 e1 00 39
        E 20 e1 00 38
        E 40 e1 00 37
        E 20 e1 00 36
        E 40 e1 00 35
        E 20 e1 00 34
        E 40 e1 00 33
        E 20 e1 00 32
        E 40 e1 00 31
        E 20 e1 00 30
        E 40 e1 00 2f
        E 20 e1 00 2e
        E 40 e1 00 2d
        E 20 e1 00 2c
        E 40 e1 00 2b
        E 20 e1 00 2a
        E 40 e1 00 29
        E 20 e1 00 28
        E 40 e1 00 27
        E 20 e1 00 26
        E 40 e1 00 25
        E 20 e1 00 24
        E 40 e1 00 23
        E 20 e1 00 22
        E 40 e1 00 21
        E 0 91 21 00
        E 20 e1 00 40
        E 0 91 26 7f
        E 1840 91 26 00
        E 80 91 24 7f
        E 1840 91 24 00
        E 80 91 23 7f
        E 3800 91 23 00
        E 40 91 22 7f
        E 1840 91 22 00
        E 80 91 24 7f
        E 1840 91 24 00
        E 80 91 25 7f
        E 3800 91 25 00
        E 40 91 26 7f
        E 1840 91 26 00
        E 80 91 24 7f
        E 1840 91 24 00
        E 80 91 23 7f
        E 2840 91 23 00
        E 40 91 24 7f
        E 940 91 24 00
        E 20 91 22 7f
        E 1840 91 22 00
        E 80 91 24 7f
        E 1840 91 24 00
        E 80 91 26 7f
        E 2840 91 26 00
        E 40 e1 00 40
        E 0 91 21 7f
        E 40 e1 00 3f
        E 20 e1 00 3e
        E 40 e1 00 3d
        E 20 e1 00 3c
        E 40 e1 00 3b
        E 20 e1 00 3a
        E 40 e1 00 39
        E 20 e1 00 38
        E 40 e1 00 37
        E 20 e1 00 36
        E 40 e1 00 35
        E 20 e1 00 34
        E 40 e1 00 33
        E 20 e1 00 32
        E 40 e1 00 31
        E 20 e1 00 30
        E 40 e1 00 2f
        E 20 e1 00 2e
        E 40 e1 00 2d
        E 20 e1 00 2c
        E 40 e1 00 2b
        E 20 e1 00 2a
        E 40 e1 00 29
        E 20 e1 00 28
        E 40 e1 00 27
        E 20 e1 00 26
        E 40 e1 00 25
        E 20 e1 00 24
        E 40 e1 00 23
        E 20 e1 00 22
        E 40 81 21 00
        E 0 b0 7b 00
        CCINTERP 32
        CHASE_CC_TAKEOFFS 1
        GUID {65F2FEDF-C63E-BC41-807D-CCD7A102E8FF}
        IGNTEMPO 0 120 4 4
        SRCCOLOR 154
        VELLANE -1 100 0
        CFGEDITVIEW 0 0.020547 63 12 0 -1 0 0 0 0.5
        KEYSNAP 0
        TRACKSEL 0
        EVTFILTER 0 -1 -1 -1 -1 0 0 0 0 -1 -1 -1 -1 0 -1 0 -1 -1
        CFGEDIT 1 1 0 1 0 0 1 1 1 1 1 0.5 375 204 1920 926 0 0 0 0 0 0 0 0 0 0.5 0 0 1 64
      >
    >
    <ITEM
      POSITION 64
      SNAPOFFS 0
      LENGTH 14.22222222222223
      LOOP 1
      ALLTAKES 0
      FADEIN 1 0 0 1 0 0 0
      FADEOUT 1 0 0 1 0 0 0
      MUTE 0 0
      SEL 0
      IGUID {2D2E5AD6-168E-3348-8608-D98F980D9AAA}
      IID 46
      NAME "y ¨ÄñÎöº zfrom ûg½ for 88Pro Comp.ZUN             - th06_05.mid [chan 2]"
      VOLPAN 1 0 1 -1
      SOFFS 80.44444444444444 181
      PLAYRATE 1 1 0 -1 0 0.0025
      CHANMODE 0
      GUID {621F01C7-A460-2F4C-B90F-CC8FD84FE238}
      <SOURCE MIDI
        HASDATA 1 960 QN
        CCINTERP 32
        POOLEDEVTS {A52DAF48-6BF7-DE43-AFD5-8FEB464924B1}
        E 3840 b1 78 00
        E 20 b1 79 00
        E 20 b1 7b 00
        E 20 b1 65 00
        E 0 b1 64 00
        E 0 b1 06 0c
        E 20 b1 65 00
        E 0 b1 64 01
        E 0 b1 06 40
        E 20 b1 65 00
        E 0 b1 64 02
        E 0 b1 06 40
        E 20 b1 63 01
        E 0 b1 62 08
        E 0 b1 06 40
        E 20 b1 63 01
        E 0 b1 62 09
        E 0 b1 06 40
        E 20 b1 63 01
        E 0 b1 62 0a
        E 0 b1 06 40
        E 20 b1 63 01
        E 0 b1 62 20
        E 0 b1 06 40
        E 20 b1 63 01
        E 0 b1 62 21
        E 0 b1 06 40
        E 20 b1 63 01
        E 0 b1 62 63
        E 0 b1 06 40
        E 20 b1 63 01
        E 0 b1 62 64
        E 0 b1 06 40
        E 20 b1 63 01
        E 0 b1 62 66
        E 0 b1 06 40
        E 20 b1 07 5f
        E 20 b1 0a 6e
        E 20 b1 5b 00
        E 20 b1 5d 00
        E 20 b1 00 00
        E 0 b1 20 03
        E 0 c1 24 00
        E 20 b1 0b 7f
        E 7320 e1 00 40
        E 0 91 26 7f
        E 40 e1 00 3f
        E 20 e1 00 3e
        E 20 e1 00 3d
        E 20 e1 00 3c
        E 20 e1 00 3b
        E 40 e1 00 3a
        E 20 e1 00 39
        E 20 e1 00 38
        E 20 e1 00 37
        E 20 e1 00 36
        E 40 e1 00 35
        E 20 e1 00 34
        E 20 e1 00 33
        E 20 e1 00 32
        E 20 e1 00 31
        E 40 e1 00 30
        E 20 e1 00 2f
        E 20 e1 00 2e
        E 20 e1 00 2d
        E 20 e1 00 2c
        E 40 e1 00 2b
        E 20 e1 00 2a
        E 20 e1 00 29
        E 20 e1 00 28
        E 20 e1 00 27
        E 40 e1 00 26
        E 20 e1 00 25
        E 20 e1 00 24
        E 20 e1 00 23
        E 20 e1 00 22
        E 40 e1 00 21
        E 20 e1 00 20
        E 20 e1 00 1f
        E 20 e1 00 1e
        E 20 e1 00 1d
        E 40 e1 00 1c
        E 20 e1 00 1b
        E 20 e1 00 1a
        E 20 e1 00 19
        E 0 91 26 00
        E 20 e1 00 40
        E 0 91 23 7f
        E 460 91 23 00
        E 20 91 23 7f
        E 460 91 23 00
        E 20 91 23 7f
        E 460 91 23 00
        E 20 91 23 7f
        E 460 91 23 00
        E 20 91 23 7f
        E 460 91 23 00
        E 20 91 23 7f
        E 460 91 23 00
        E 20 91 23 7f
        E 460 91 23 00
        E 20 91 23 7f
        E 460 91 23 00
        E 20 91 23 7f
        E 460 91 23 00
        E 20 91 23 7f
        E 460 91 23 00
        E 20 91 23 7f
        E 460 91 23 00
        E 20 91 23 7f
        E 460 91 23 00
        E 20 91 23 7f
        E 460 91 23 00
        E 20 91 23 7f
        E 460 91 23 00
        E 20 91 23 7f
        E 460 91 23 00
        E 20 91 23 7f
        E 460 91 23 00
        E 20 91 23 7f
        E 460 91 23 00
        E 20 91 23 7f
        E 460 91 23 00
        E 20 91 23 7f
        E 460 91 23 00
        E 20 91 23 7f
        E 460 91 23 00
        E 20 91 23 7f
        E 460 91 23 00
        E 20 91 23 7f
        E 460 91 23 00
        E 20 91 23 7f
        E 460 91 23 00
        E 20 91 23 7f
        E 460 91 23 00
        E 20 91 23 7f
        E 460 91 23 00
        E 20 91 23 7f
        E 460 91 23 00
        E 20 91 23 7f
        E 460 91 23 00
        E 20 91 23 7f
        E 460 91 23 00
        E 20 91 23 7f
        E 460 91 23 00
        E 20 91 23 7f
        E 460 91 23 00
        E 20 91 23 7f
        E 460 91 23 00
        E 20 91 23 7f
        E 460 91 23 00
        E 20 91 1f 7f
        E 460 91 1f 00
        E 20 91 1f 7f
        E 460 91 1f 00
        E 20 91 1f 7f
        E 460 91 1f 00
        E 20 91 1f 7f
        E 460 91 1f 00
        E 20 91 1f 7f
        E 460 91 1f 00
        E 20 91 1f 7f
        E 460 91 1f 00
        E 20 91 1f 7f
        E 460 91 1f 00
        E 20 91 1f 7f
        E 460 91 1f 00
        E 20 91 1f 7f
        E 460 91 1f 00
        E 20 91 1f 7f
        E 460 91 1f 00
        E 20 91 1f 7f
        E 460 91 1f 00
        E 20 91 1f 7f
        E 460 91 1f 00
        E 20 91 1f 7f
        E 460 91 1f 00
        E 20 91 1f 7f
        E 460 91 1f 00
        E 20 91 1f 7f
        E 460 91 1f 00
        E 20 91 1f 7f
        E 460 91 1f 00
        E 20 91 1f 7f
        E 460 91 1f 00
        E 20 91 1f 7f
        E 460 91 1f 00
        E 20 91 1f 7f
        E 460 91 1f 00
        E 20 91 1f 7f
        E 460 91 1f 00
        E 20 91 1f 7f
        E 460 91 1f 00
        E 20 91 1f 7f
        E 460 91 1f 00
        E 20 91 1f 7f
        E 460 91 1f 00
        E 20 91 1f 7f
        E 460 91 1f 00
        E 20 91 21 7f
        E 460 91 21 00
        E 20 91 21 7f
        E 460 91 21 00
        E 20 91 21 7f
        E 460 91 21 00
        E 20 91 21 7f
        E 460 91 21 00
        E 20 91 21 7f
        E 460 91 21 00
        E 20 91 21 7f
        E 460 91 21 00
        E 20 91 21 7f
        E 460 91 21 00
        E 20 91 21 7f
        E 460 91 21 00
        E 20 91 23 7f
        E 460 91 23 00
        E 20 91 23 7f
        E 460 91 23 00
        E 20 91 23 7f
        E 460 91 23 00
        E 20 91 23 7f
        E 460 91 23 00
        E 20 91 23 7f
        E 460 91 23 00
        E 20 91 23 7f
        E 460 91 23 00
        E 20 91 23 7f
        E 460 91 23 00
        E 20 91 23 7f
        E 460 91 23 00
        E 20 91 23 7f
        E 460 91 23 00
        E 20 91 23 7f
        E 460 91 23 00
        E 20 91 23 7f
        E 460 91 23 00
        E 20 91 23 7f
        E 460 91 23 00
        E 20 91 23 7f
        E 460 91 23 00
        E 20 91 23 7f
        E 460 91 23 00
        E 20 91 23 7f
        E 460 91 23 00
        E 20 91 23 7f
        E 460 91 23 00
        E 20 91 23 7f
        E 460 91 23 00
        E 20 91 23 7f
        E 460 91 23 00
        E 20 91 23 7f
        E 460 91 23 00
        E 20 91 23 7f
        E 460 91 23 00
        E 20 91 23 7f
        E 460 91 23 00
        E 20 91 23 7f
        E 460 91 23 00
        E 20 91 23 7f
        E 460 91 23 00
        E 20 91 23 7f
        E 460 91 23 00
        E 20 91 23 7f
        E 460 91 23 00
        E 20 91 23 7f
        E 460 91 23 00
        E 20 91 23 7f
        E 460 91 23 00
        E 20 91 23 7f
        E 460 91 23 00
        E 20 91 23 7f
        E 460 91 23 00
        E 20 91 23 7f
        E 460 91 23 00
        E 20 91 23 7f
        E 460 91 23 00
        E 20 91 23 7f
        E 460 91 23 00
        E 20 91 1f 7f
        E 460 91 1f 00
        E 20 91 1f 7f
        E 460 91 1f 00
        E 20 91 1f 7f
        E 460 91 1f 00
        E 20 91 1f 7f
        E 460 91 1f 00
        E 20 91 1f 7f
        E 460 91 1f 00
        E 20 91 1f 7f
        E 460 91 1f 00
        E 20 91 1f 7f
        E 460 91 1f 00
        E 20 91 1f 7f
        E 460 91 1f 00
        E 20 91 1f 7f
        E 460 91 1f 00
        E 20 91 1f 7f
        E 460 91 1f 00
        E 20 91 1f 7f
        E 460 91 1f 00
        E 20 91 1f 7f
        E 460 91 1f 00
        E 20 91 1f 7f
        E 460 91 1f 00
        E 20 91 1f 7f
        E 460 91 1f 00
        E 20 91 1f 7f
        E 460 91 1f 00
        E 20 91 1f 7f
        E 460 91 1f 00
        E 20 91 1f 7f
        E 460 91 1f 00
        E 20 91 1f 7f
        E 460 91 1f 00
        E 20 91 1f 7f
        E 460 91 1f 00
        E 20 91 1f 7f
        E 460 91 1f 00
        E 20 91 1f 7f
        E 460 91 1f 00
        E 20 91 1f 7f
        E 460 91 1f 00
        E 20 91 1f 7f
        E 460 91 1f 00
        E 20 91 1f 7f
        E 460 91 1f 00
        E 20 91 21 7f
        E 460 91 21 00
        E 20 91 21 7f
        E 460 91 21 00
        E 20 91 21 7f
        E 460 91 21 00
        E 20 91 21 7f
        E 460 91 21 00
        E 20 91 21 7f
        E 460 91 21 00
        E 20 91 21 7f
        E 460 91 21 00
        E 20 91 21 7f
        E 460 91 21 00
        E 20 91 21 7f
        E 460 91 21 00
        E 20 91 22 7f
        E 0 91 29 7f
        E 1360 91 22 00
        E 0 91 29 00
        E 80 91 24 7f
        E 0 91 2b 7f
        E 2400 91 24 00
        E 0 91 2b 00
        E 64320 e1 00 40
        E 0 91 26 7f
        E 40 e1 00 3f
        E 20 e1 00 3e
        E 40 e1 00 3d
        E 20 e1 00 3c
        E 40 e1 00 3b
        E 20 e1 00 3a
        E 40 e1 00 39
        E 20 e1 00 38
        E 40 e1 00 37
        E 20 e1 00 36
        E 40 e1 00 35
        E 20 e1 00 34
        E 40 e1 00 33
        E 20 e1 00 32
        E 40 e1 00 31
        E 20 e1 00 30
        E 40 e1 00 2f
        E 20 e1 00 2e
        E 40 e1 00 2d
        E 20 e1 00 2c
        E 40 e1 00 2b
        E 20 e1 00 2a
        E 40 e1 00 29
        E 20 e1 00 28
        E 40 e1 00 27
        E 20 e1 00 26
        E 40 e1 00 25
        E 20 e1 00 24
        E 40 e1 00 23
        E 20 e1 00 22
        E 40 e1 00 21
        E 0 91 26 00
        e 20 e1 00 40
        e 0 91 26 7f
        e 1840 91 26 00
        E 80 91 24 7f
        E 1840 91 24 00
        E 80 91 23 7f
        E 3800 91 23 00
        E 40 91 22 7f
        E 1840 91 22 00
        E 80 91 24 7f
        E 1840 91 24 00
        E 80 91 25 7f
        E 3800 91 25 00
        E 40 91 26 7f
        E 1840 91 26 00
        E 80 91 24 7f
        E 1840 91 24 00
        E 80 91 23 7f
        E 2840 91 23 00
        E 40 91 24 7f
        E 940 91 24 00
        E 20 91 22 7f
        E 1840 91 22 00
        E 80 91 24 7f
        E 1840 91 24 00
        E 80 91 26 7f
        E 2840 91 26 00
        E 40 e1 00 40
        E 0 91 21 7f
        E 40 e1 00 3f
        E 20 e1 00 3e
        E 40 e1 00 3d
        E 20 e1 00 3c
        E 40 e1 00 3b
        E 20 e1 00 3a
        E 40 e1 00 39
        E 20 e1 00 38
        E 40 e1 00 37
        E 20 e1 00 36
        E 40 e1 00 35
        E 20 e1 00 34
        E 40 e1 00 33
        E 20 e1 00 32
        E 40 e1 00 31
        E 20 e1 00 30
        E 40 e1 00 2f
        E 20 e1 00 2e
        E 40 e1 00 2d
        E 20 e1 00 2c
        E 40 e1 00 2b
        E 20 e1 00 2a
        E 40 e1 00 29
        E 20 e1 00 28
        E 40 e1 00 27
        E 20 e1 00 26
        E 40 e1 00 25
        E 20 e1 00 24
        E 40 e1 00 23
        E 20 e1 00 22
        E 40 e1 00 21
        E 0 91 21 00
        E 20 e1 00 40
        E 0 91 26 7f
        E 1840 91 26 00
        E 80 91 24 7f
        E 1840 91 24 00
        E 80 91 23 7f
        E 3800 91 23 00
        E 40 91 22 7f
        E 1840 91 22 00
        E 80 91 24 7f
        E 1840 91 24 00
        E 80 91 25 7f
        E 3800 91 25 00
        E 40 91 26 7f
        E 1840 91 26 00
        E 80 91 24 7f
        E 1840 91 24 00
        E 80 91 23 7f
        E 2840 91 23 00
        E 40 91 24 7f
        E 940 91 24 00
        E 20 91 22 7f
        E 1840 91 22 00
        E 80 91 24 7f
        E 1840 91 24 00
        E 80 91 26 7f
        E 2840 91 26 00
        E 40 e1 00 40
        E 0 91 21 7f
        E 40 e1 00 3f
        E 20 e1 00 3e
        E 40 e1 00 3d
        E 20 e1 00 3c
        E 40 e1 00 3b
        E 20 e1 00 3a
        E 40 e1 00 39
        E 20 e1 00 38
        E 40 e1 00 37
        E 20 e1 00 36
        E 40 e1 00 35
        E 20 e1 00 34
        E 40 e1 00 33
        E 20 e1 00 32
        E 40 e1 00 31
        E 20 e1 00 30
        E 40 e1 00 2f
        E 20 e1 00 2e
        E 40 e1 00 2d
        E 20 e1 00 2c
        E 40 e1 00 2b
        E 20 e1 00 2a
        E 40 e1 00 29
        E 20 e1 00 28
        E 40 e1 00 27
        E 20 e1 00 26
        E 40 e1 00 25
        E 20 e1 00 24
        E 40 e1 00 23
        E 20 e1 00 22
        E 40 81 21 00
        E 0 b0 7b 00
        CCINTERP 32
        CHASE_CC_TAKEOFFS 1
        GUID {65F2FEDF-C63E-BC41-807D-CCD7A102E8FF}
        IGNTEMPO 0 120 4 4
        SRCCOLOR 154
        VELLANE -1 100 0
        CFGEDITVIEW 0 0.020547 63 12 0 -1 0 0 0 0.5
        KEYSNAP 0
        TRACKSEL 0
        EVTFILTER 0 -1 -1 -1 -1 0 0 0 0 -1 -1 -1 -1 0 -1 0 -1 -1
        CFGEDIT 1 1 0 1 0 0 1 1 1 1 1 0.5 375 204 1920 926 0 0 0 0 0 0 0 0 0 0.5 0 0 1 64
      >
    >
    <ITEM
      POSITION 78.22222222222223
      SNAPOFFS 0
      LENGTH 14.22222222222221
      LOOP 1
      ALLTAKES 0
      FADEIN 1 0 0 1 0 0 0
      FADEOUT 1 0 0 1 0 0 0
      MUTE 0 0
      SEL 0
      IGUID {6D2F2A5C-F98C-4E47-A118-23E4FF8511A6}
      IID 46
      NAME "y ¨ÄñÎöº zfrom ûg½ for 88Pro Comp.ZUN             - th06_05.mid [chan 2]"
      VOLPAN 1 0 1 -1
      SOFFS 80.44444444444447 181
      PLAYRATE 1 1 0 -1 0 0.0025
      CHANMODE 0
      GUID {16D75BEA-61BD-6C47-B799-6CAE2889D18D}
      <SOURCE MIDI
        HASDATA 1 960 QN
        CCINTERP 32
        POOLEDEVTS {89918C42-2508-C944-9015-5D49FC5B39D9}
        E 3840 b1 78 00
        E 20 b1 79 00
        E 20 b1 7b 00
        E 20 b1 65 00
        E 0 b1 64 00
        E 0 b1 06 0c
        E 20 b1 65 00
        E 0 b1 64 01
        E 0 b1 06 40
        E 20 b1 65 00
        E 0 b1 64 02
        E 0 b1 06 40
        E 20 b1 63 01
        E 0 b1 62 08
        E 0 b1 06 40
        E 20 b1 63 01
        E 0 b1 62 09
        E 0 b1 06 40
        E 20 b1 63 01
        E 0 b1 62 0a
        E 0 b1 06 40
        E 20 b1 63 01
        E 0 b1 62 20
        E 0 b1 06 40
        E 20 b1 63 01
        E 0 b1 62 21
        E 0 b1 06 40
        E 20 b1 63 01
        E 0 b1 62 63
        E 0 b1 06 40
        E 20 b1 63 01
        E 0 b1 62 64
        E 0 b1 06 40
        E 20 b1 63 01
        E 0 b1 62 66
        E 0 b1 06 40
        E 20 b1 07 5f
        E 20 b1 0a 6e
        E 20 b1 5b 00
        E 20 b1 5d 00
        E 20 b1 00 00
        E 0 b1 20 03
        E 0 c1 24 00
        E 20 b1 0b 7f
        E 7320 e1 00 40
        E 0 91 26 7f
        E 40 e1 00 3f
        E 20 e1 00 3e
        E 20 e1 00 3d
        E 20 e1 00 3c
        E 20 e1 00 3b
        E 40 e1 00 3a
        E 20 e1 00 39
        E 20 e1 00 38
        E 20 e1 00 37
        E 20 e1 00 36
        E 40 e1 00 35
        E 20 e1 00 34
        E 20 e1 00 33
        E 20 e1 00 32
        E 20 e1 00 31
        E 40 e1 00 30
        E 20 e1 00 2f
        E 20 e1 00 2e
        E 20 e1 00 2d
        E 20 e1 00 2c
        E 40 e1 00 2b
        E 20 e1 00 2a
        E 20 e1 00 29
        E 20 e1 00 28
        E 20 e1 00 27
        E 40 e1 00 26
        E 20 e1 00 25
        E 20 e1 00 24
        E 20 e1 00 23
        E 20 e1 00 22
        E 40 e1 00 21
        E 20 e1 00 20
        E 20 e1 00 1f
        E 20 e1 00 1e
        E 20 e1 00 1d
        E 40 e1 00 1c
        E 20 e1 00 1b
        E 20 e1 00 1a
        E 20 e1 00 19
        E 0 91 26 00
        E 20 e1 00 40
        E 0 91 23 7f
        E 460 91 23 00
        E 20 91 23 7f
        E 460 91 23 00
        E 20 91 23 7f
        E 460 91 23 00
        E 20 91 23 7f
        E 460 91 23 00
        E 20 91 23 7f
        E 460 91 23 00
        E 20 91 23 7f
        E 460 91 23 00
        E 20 91 23 7f
        E 460 91 23 00
        E 20 91 23 7f
        E 460 91 23 00
        E 20 91 23 7f
        E 460 91 23 00
        E 20 91 23 7f
        E 460 91 23 00
        E 20 91 23 7f
        E 460 91 23 00
        E 20 91 23 7f
        E 460 91 23 00
        E 20 91 23 7f
        E 460 91 23 00
        E 20 91 23 7f
        E 460 91 23 00
        E 20 91 23 7f
        E 460 91 23 00
        E 20 91 23 7f
        E 460 91 23 00
        E 20 91 23 7f
        E 460 91 23 00
        E 20 91 23 7f
        E 460 91 23 00
        E 20 91 23 7f
        E 460 91 23 00
        E 20 91 23 7f
        E 460 91 23 00
        E 20 91 23 7f
        E 460 91 23 00
        E 20 91 23 7f
        E 460 91 23 00
        E 20 91 23 7f
        E 460 91 23 00
        E 20 91 23 7f
        E 460 91 23 00
        E 20 91 23 7f
        E 460 91 23 00
        E 20 91 23 7f
        E 460 91 23 00
        E 20 91 23 7f
        E 460 91 23 00
        E 20 91 23 7f
        E 460 91 23 00
        E 20 91 23 7f
        E 460 91 23 00
        E 20 91 23 7f
        E 460 91 23 00
        E 20 91 23 7f
        E 460 91 23 00
        E 20 91 23 7f
        E 460 91 23 00
        E 20 91 1f 7f
        E 460 91 1f 00
        E 20 91 1f 7f
        E 460 91 1f 00
        E 20 91 1f 7f
        E 460 91 1f 00
        E 20 91 1f 7f
        E 460 91 1f 00
        E 20 91 1f 7f
        E 460 91 1f 00
        E 20 91 1f 7f
        E 460 91 1f 00
        E 20 91 1f 7f
        E 460 91 1f 00
        E 20 91 1f 7f
        E 460 91 1f 00
        E 20 91 1f 7f
        E 460 91 1f 00
        E 20 91 1f 7f
        E 460 91 1f 00
        E 20 91 1f 7f
        E 460 91 1f 00
        E 20 91 1f 7f
        E 460 91 1f 00
        E 20 91 1f 7f
        E 460 91 1f 00
        E 20 91 1f 7f
        E 460 91 1f 00
        E 20 91 1f 7f
        E 460 91 1f 00
        E 20 91 1f 7f
        E 460 91 1f 00
        E 20 91 1f 7f
        E 460 91 1f 00
        E 20 91 1f 7f
        E 460 91 1f 00
        E 20 91 1f 7f
        E 460 91 1f 00
        E 20 91 1f 7f
        E 460 91 1f 00
        E 20 91 1f 7f
        E 460 91 1f 00
        E 20 91 1f 7f
        E 460 91 1f 00
        E 20 91 1f 7f
        E 460 91 1f 00
        E 20 91 1f 7f
        E 460 91 1f 00
        E 20 91 21 7f
        E 460 91 21 00
        E 20 91 21 7f
        E 460 91 21 00
        E 20 91 21 7f
        E 460 91 21 00
        E 20 91 21 7f
        E 460 91 21 00
        E 20 91 21 7f
        E 460 91 21 00
        E 20 91 21 7f
        E 460 91 21 00
        E 20 91 21 7f
        E 460 91 21 00
        E 20 91 21 7f
        E 460 91 21 00
        E 20 91 23 7f
        E 460 91 23 00
        E 20 91 23 7f
        E 460 91 23 00
        E 20 91 23 7f
        E 460 91 23 00
        E 20 91 23 7f
        E 460 91 23 00
        E 20 91 23 7f
        E 460 91 23 00
        E 20 91 23 7f
        E 460 91 23 00
        E 20 91 23 7f
        E 460 91 23 00
        E 20 91 23 7f
        E 460 91 23 00
        E 20 91 23 7f
        E 460 91 23 00
        E 20 91 23 7f
        E 460 91 23 00
        E 20 91 23 7f
        E 460 91 23 00
        E 20 91 23 7f
        E 460 91 23 00
        E 20 91 23 7f
        E 460 91 23 00
        E 20 91 23 7f
        E 460 91 23 00
        E 20 91 23 7f
        E 460 91 23 00
        E 20 91 23 7f
        E 460 91 23 00
        E 20 91 23 7f
        E 460 91 23 00
        E 20 91 23 7f
        E 460 91 23 00
        E 20 91 23 7f
        E 460 91 23 00
        E 20 91 23 7f
        E 460 91 23 00
        E 20 91 23 7f
        E 460 91 23 00
        E 20 91 23 7f
        E 460 91 23 00
        E 20 91 23 7f
        E 460 91 23 00
        E 20 91 23 7f
        E 460 91 23 00
        E 20 91 23 7f
        E 460 91 23 00
        E 20 91 23 7f
        E 460 91 23 00
        E 20 91 23 7f
        E 460 91 23 00
        E 20 91 23 7f
        E 460 91 23 00
        E 20 91 23 7f
        E 460 91 23 00
        E 20 91 23 7f
        E 460 91 23 00
        E 20 91 23 7f
        E 460 91 23 00
        E 20 91 23 7f
        E 460 91 23 00
        E 20 91 1f 7f
        E 460 91 1f 00
        E 20 91 1f 7f
        E 460 91 1f 00
        E 20 91 1f 7f
        E 460 91 1f 00
        E 20 91 1f 7f
        E 460 91 1f 00
        E 20 91 1f 7f
        E 460 91 1f 00
        E 20 91 1f 7f
        E 460 91 1f 00
        E 20 91 1f 7f
        E 460 91 1f 00
        E 20 91 1f 7f
        E 460 91 1f 00
        E 20 91 1f 7f
        E 460 91 1f 00
        E 20 91 1f 7f
        E 460 91 1f 00
        E 20 91 1f 7f
        E 460 91 1f 00
        E 20 91 1f 7f
        E 460 91 1f 00
        E 20 91 1f 7f
        E 460 91 1f 00
        E 20 91 1f 7f
        E 460 91 1f 00
        E 20 91 1f 7f
        E 460 91 1f 00
        E 20 91 1f 7f
        E 460 91 1f 00
        E 20 91 1f 7f
        E 460 91 1f 00
        E 20 91 1f 7f
        E 460 91 1f 00
        E 20 91 1f 7f
        E 460 91 1f 00
        E 20 91 1f 7f
        E 460 91 1f 00
        E 20 91 1f 7f
        E 460 91 1f 00
        E 20 91 1f 7f
        E 460 91 1f 00
        E 20 91 1f 7f
        E 460 91 1f 00
        E 20 91 1f 7f
        E 460 91 1f 00
        E 20 91 21 7f
        E 460 91 21 00
        E 20 91 21 7f
        E 460 91 21 00
        E 20 91 21 7f
        E 460 91 21 00
        E 20 91 21 7f
        E 460 91 21 00
        E 20 91 21 7f
        E 460 91 21 00
        E 20 91 21 7f
        E 460 91 21 00
        E 20 91 21 7f
        E 460 91 21 00
        E 20 91 21 7f
        E 460 91 21 00
        E 20 91 22 7f
        E 0 91 29 7f
        E 1360 91 22 00
        E 0 91 29 00
        E 80 91 24 7f
        E 0 91 2b 7f
        E 2400 91 24 00
        E 0 91 2b 00
        E 64320 e1 00 40
        E 0 91 26 7f
        E 40 e1 00 3f
        E 20 e1 00 3e
        E 40 e1 00 3d
        E 20 e1 00 3c
        E 40 e1 00 3b
        E 20 e1 00 3a
        E 40 e1 00 39
        E 20 e1 00 38
        E 40 e1 00 37
        E 20 e1 00 36
        E 40 e1 00 35
        E 20 e1 00 34
        E 40 e1 00 33
        E 20 e1 00 32
        E 40 e1 00 31
        E 20 e1 00 30
        E 40 e1 00 2f
        E 20 e1 00 2e
        E 40 e1 00 2d
        E 20 e1 00 2c
        E 40 e1 00 2b
        E 20 e1 00 2a
        E 40 e1 00 29
        E 20 e1 00 28
        E 40 e1 00 27
        E 20 e1 00 26
        E 40 e1 00 25
        E 20 e1 00 24
        E 40 e1 00 23
        E 20 e1 00 22
        E 40 e1 00 21
        E 0 91 26 00
        e 20 e1 00 40
        e 0 91 26 7f
        e 1840 91 26 00
        E 80 91 24 7f
        E 1840 91 24 00
        E 80 91 23 7f
        E 3800 91 23 00
        E 40 91 22 7f
        E 1840 91 22 00
        E 80 91 24 7f
        E 1840 91 24 00
        E 80 91 25 7f
        E 3800 91 25 00
        E 40 91 26 7f
        E 1840 91 26 00
        E 80 91 24 7f
        E 1840 91 24 00
        E 80 91 23 7f
        E 2840 91 23 00
        E 40 91 24 7f
        E 940 91 24 00
        E 20 91 22 7f
        E 1840 91 22 00
        E 80 91 24 7f
        E 1840 91 24 00
        E 80 91 26 7f
        E 2840 91 26 00
        E 40 e1 00 40
        E 0 91 21 7f
        E 40 e1 00 3f
        E 20 e1 00 3e
        E 40 e1 00 3d
        E 20 e1 00 3c
        E 40 e1 00 3b
        E 20 e1 00 3a
        E 40 e1 00 39
        E 20 e1 00 38
        E 40 e1 00 37
        E 20 e1 00 36
        E 40 e1 00 35
        E 20 e1 00 34
        E 40 e1 00 33
        E 20 e1 00 32
        E 40 e1 00 31
        E 20 e1 00 30
        E 40 e1 00 2f
        E 20 e1 00 2e
        E 40 e1 00 2d
        E 20 e1 00 2c
        E 40 e1 00 2b
        E 20 e1 00 2a
        E 40 e1 00 29
        E 20 e1 00 28
        E 40 e1 00 27
        E 20 e1 00 26
        E 40 e1 00 25
        E 20 e1 00 24
        E 40 e1 00 23
        E 20 e1 00 22
        E 40 e1 00 21
        E 0 91 21 00
        E 20 e1 00 40
        E 0 91 26 7f
        E 1840 91 26 00
        E 80 91 24 7f
        E 1840 91 24 00
        E 80 91 23 7f
        E 3800 91 23 00
        E 40 91 22 7f
        E 1840 91 22 00
        E 80 91 24 7f
        E 1840 91 24 00
        E 80 91 25 7f
        E 3800 91 25 00
        E 40 91 26 7f
        E 1840 91 26 00
        E 80 91 24 7f
        E 1840 91 24 00
        E 80 91 23 7f
        E 2840 91 23 00
        E 40 91 24 7f
        E 940 91 24 00
        E 20 91 22 7f
        E 1840 91 22 00
        E 80 91 24 7f
        E 1840 91 24 00
        E 80 91 26 7f
        E 2840 91 26 00
        E 40 e1 00 40
        E 0 91 21 7f
        E 40 e1 00 3f
        E 20 e1 00 3e
        E 40 e1 00 3d
        E 20 e1 00 3c
        E 40 e1 00 3b
        E 20 e1 00 3a
        E 40 e1 00 39
        E 20 e1 00 38
        E 40 e1 00 37
        E 20 e1 00 36
        E 40 e1 00 35
        E 20 e1 00 34
        E 40 e1 00 33
        E 20 e1 00 32
        E 40 e1 00 31
        E 20 e1 00 30
        E 40 e1 00 2f
        E 20 e1 00 2e
        E 40 e1 00 2d
        E 20 e1 00 2c
        E 40 e1 00 2b
        E 20 e1 00 2a
        E 40 e1 00 29
        E 20 e1 00 28
        E 40 e1 00 27
        E 20 e1 00 26
        E 40 e1 00 25
        E 20 e1 00 24
        E 40 e1 00 23
        E 20 e1 00 22
        E 40 81 21 00
        E 0 b0 7b 00
        CCINTERP 32
        CHASE_CC_TAKEOFFS 1
        GUID {65F2FEDF-C63E-BC41-807D-CCD7A102E8FF}
        IGNTEMPO 0 120 4 4
        SRCCOLOR 154
        VELLANE -1 100 0
        CFGEDITVIEW 0 0.020547 63 12 0 -1 0 0 0 0.5
        KEYSNAP 0
        TRACKSEL 0
        EVTFILTER 0 -1 -1 -1 -1 0 0 0 0 -1 -1 -1 -1 0 -1 0 -1 -1
        CFGEDIT 1 1 0 1 0 0 1 1 1 1 1 0.5 375 204 1920 926 0 0 0 0 0 0 0 0 0 0.5 0 0 1 64
      >
    >
    <ITEM
      POSITION 92.44444444444444
      SNAPOFFS 0
      LENGTH 5.33333333333333
      LOOP 1
      ALLTAKES 0
      FADEIN 1 0 0 1 0 0 0
      FADEOUT 1 0 0 1 0 0 0
      MUTE 0 0
      SEL 0
      IGUID {03607826-BC55-0B47-9151-327F6ED78D77}
      IID 30
      NAME "y ¨ÄñÎöº zfrom ûg½ for 88Pro Comp.ZUN             - th06_05.mid [chan 2]"
      VOLPAN 1 0 1 -1
      SOFFS 94.66666666666667 213
      PLAYRATE 1 1 0 -1 0 0.0025
      CHANMODE 0
      GUID {614604A8-5228-C94C-A0BD-0CC6D2730C47}
      <SOURCE MIDI
        HASDATA 1 960 QN
        CCINTERP 32
        POOLEDEVTS {38914AE5-A287-0843-9EF2-152A3076F1CC}
        E 3840 b1 78 00
        E 20 b1 79 00
        E 20 b1 7b 00
        E 20 b1 65 00
        E 0 b1 64 00
        E 0 b1 06 0c
        E 20 b1 65 00
        E 0 b1 64 01
        E 0 b1 06 40
        E 20 b1 65 00
        E 0 b1 64 02
        E 0 b1 06 40
        E 20 b1 63 01
        E 0 b1 62 08
        E 0 b1 06 40
        E 20 b1 63 01
        E 0 b1 62 09
        E 0 b1 06 40
        E 20 b1 63 01
        E 0 b1 62 0a
        E 0 b1 06 40
        E 20 b1 63 01
        E 0 b1 62 20
        E 0 b1 06 40
        E 20 b1 63 01
        E 0 b1 62 21
        E 0 b1 06 40
        E 20 b1 63 01
        E 0 b1 62 63
        E 0 b1 06 40
        E 20 b1 63 01
        E 0 b1 62 64
        E 0 b1 06 40
        E 20 b1 63 01
        E 0 b1 62 66
        E 0 b1 06 40
        E 20 b1 07 5f
        E 20 b1 0a 6e
        E 20 b1 5b 00
        E 20 b1 5d 00
        E 20 b1 00 00
        E 0 b1 20 03
        E 0 c1 24 00
        E 20 b1 0b 7f
        e 7320 e1 00 40
        e 0 91 26 7f
        e 40 e1 00 3f
        e 20 e1 00 3e
        e 20 e1 00 3d
        e 20 e1 00 3c
        e 20 e1 00 3b
        e 40 e1 00 3a
        e 20 e1 00 39
        e 20 e1 00 38
        e 20 e1 00 37
        e 20 e1 00 36
        e 40 e1 00 35
        e 20 e1 00 34
        e 20 e1 00 33
        e 20 e1 00 32
        e 20 e1 00 31
        e 40 e1 00 30
        e 20 e1 00 2f
        e 20 e1 00 2e
        e 20 e1 00 2d
        e 20 e1 00 2c
        e 40 e1 00 2b
        e 20 e1 00 2a
        e 20 e1 00 29
        e 20 e1 00 28
        e 20 e1 00 27
        e 40 e1 00 26
        e 20 e1 00 25
        e 20 e1 00 24
        e 20 e1 00 23
        e 20 e1 00 22
        e 40 e1 00 21
        e 20 e1 00 20
        e 20 e1 00 1f
        e 20 e1 00 1e
        e 20 e1 00 1d
        e 40 e1 00 1c
        e 20 e1 00 1b
        e 20 e1 00 1a
        e 20 e1 00 19
        e 0 91 26 00
        e 20 e1 00 40
        e 0 91 23 7f
        e 460 91 23 00
        e 20 91 23 7f
        e 460 91 23 00
        e 20 91 23 7f
        e 460 91 23 00
        e 20 91 23 7f
        e 460 91 23 00
        e 20 91 23 7f
        e 460 91 23 00
        e 20 91 23 7f
        e 460 91 23 00
        e 20 91 23 7f
        e 460 91 23 00
        e 20 91 23 7f
        e 460 91 23 00
        e 20 91 23 7f
        e 460 91 23 00
        e 20 91 23 7f
        e 460 91 23 00
        e 20 91 23 7f
        e 460 91 23 00
        e 20 91 23 7f
        e 460 91 23 00
        e 20 91 23 7f
        e 460 91 23 00
        e 20 91 23 7f
        e 460 91 23 00
        e 20 91 23 7f
        e 460 91 23 00
        e 20 91 23 7f
        e 460 91 23 00
        e 20 91 23 7f
        e 460 91 23 00
        e 20 91 23 7f
        e 460 91 23 00
        e 20 91 23 7f
        e 460 91 23 00
        e 20 91 23 7f
        e 460 91 23 00
        e 20 91 23 7f
        e 460 91 23 00
        e 20 91 23 7f
        e 460 91 23 00
        e 20 91 23 7f
        e 460 91 23 00
        e 20 91 23 7f
        e 460 91 23 00
        e 20 91 23 7f
        e 460 91 23 00
        e 20 91 23 7f
        e 460 91 23 00
        e 20 91 23 7f
        e 460 91 23 00
        e 20 91 23 7f
        e 460 91 23 00
        e 20 91 23 7f
        e 460 91 23 00
        e 20 91 23 7f
        e 460 91 23 00
        e 20 91 23 7f
        e 460 91 23 00
        e 20 91 23 7f
        e 460 91 23 00
        e 20 91 1f 7f
        e 460 91 1f 00
        e 20 91 1f 7f
        e 460 91 1f 00
        e 20 91 1f 7f
        e 460 91 1f 00
        e 20 91 1f 7f
        e 460 91 1f 00
        e 20 91 1f 7f
        e 460 91 1f 00
        e 20 91 1f 7f
        e 460 91 1f 00
        e 20 91 1f 7f
        e 460 91 1f 00
        e 20 91 1f 7f
        e 460 91 1f 00
        e 20 91 1f 7f
        e 460 91 1f 00
        e 20 91 1f 7f
        e 460 91 1f 00
        e 20 91 1f 7f
        e 460 91 1f 00
        e 20 91 1f 7f
        e 460 91 1f 00
        e 20 91 1f 7f
        e 460 91 1f 00
        e 20 91 1f 7f
        e 460 91 1f 00
        e 20 91 1f 7f
        e 460 91 1f 00
        e 20 91 1f 7f
        e 460 91 1f 00
        e 20 91 1f 7f
        e 460 91 1f 00
        e 20 91 1f 7f
        e 460 91 1f 00
        e 20 91 1f 7f
        e 460 91 1f 00
        e 20 91 1f 7f
        e 460 91 1f 00
        e 20 91 1f 7f
        e 460 91 1f 00
        e 20 91 1f 7f
        e 460 91 1f 00
        e 20 91 1f 7f
        e 460 91 1f 00
        e 20 91 1f 7f
        e 460 91 1f 00
        e 20 91 21 7f
        e 460 91 21 00
        e 20 91 21 7f
        e 460 91 21 00
        e 20 91 21 7f
        e 460 91 21 00
        e 20 91 21 7f
        e 460 91 21 00
        e 20 91 21 7f
        e 460 91 21 00
        e 20 91 21 7f
        e 460 91 21 00
        e 20 91 21 7f
        e 460 91 21 00
        e 20 91 21 7f
        e 460 91 21 00
        e 20 91 23 7f
        e 460 91 23 00
        e 20 91 23 7f
        e 460 91 23 00
        e 20 91 23 7f
        e 460 91 23 00
        e 20 91 23 7f
        e 460 91 23 00
        e 20 91 23 7f
        e 460 91 23 00
        e 20 91 23 7f
        e 460 91 23 00
        e 20 91 23 7f
        e 460 91 23 00
        e 20 91 23 7f
        e 460 91 23 00
        e 20 91 23 7f
        e 460 91 23 00
        e 20 91 23 7f
        e 460 91 23 00
        e 20 91 23 7f
        e 460 91 23 00
        e 20 91 23 7f
        e 460 91 23 00
        e 20 91 23 7f
        e 460 91 23 00
        e 20 91 23 7f
        e 460 91 23 00
        e 20 91 23 7f
        e 460 91 23 00
        e 20 91 23 7f
        e 460 91 23 00
        e 20 91 23 7f
        e 460 91 23 00
        e 20 91 23 7f
        e 460 91 23 00
        e 20 91 23 7f
        e 460 91 23 00
        e 20 91 23 7f
        e 460 91 23 00
        e 20 91 23 7f
        e 460 91 23 00
        e 20 91 23 7f
        e 460 91 23 00
        e 20 91 23 7f
        e 460 91 23 00
        e 20 91 23 7f
        e 460 91 23 00
        e 20 91 23 7f
        e 460 91 23 00
        e 20 91 23 7f
        e 460 91 23 00
        e 20 91 23 7f
        e 460 91 23 00
        e 20 91 23 7f
        e 460 91 23 00
        e 20 91 23 7f
        e 460 91 23 00
        e 20 91 23 7f
        e 460 91 23 00
        e 20 91 23 7f
        e 460 91 23 00
        e 20 91 23 7f
        e 460 91 23 00
        e 20 91 1f 7f
        e 460 91 1f 00
        e 20 91 1f 7f
        e 460 91 1f 00
        e 20 91 1f 7f
        e 460 91 1f 00
        e 20 91 1f 7f
        e 460 91 1f 00
        e 20 91 1f 7f
        e 460 91 1f 00
        e 20 91 1f 7f
        e 460 91 1f 00
        e 20 91 1f 7f
        e 460 91 1f 00
        e 20 91 1f 7f
        e 460 91 1f 00
        e 20 91 1f 7f
        e 460 91 1f 00
        e 20 91 1f 7f
        e 460 91 1f 00
        e 20 91 1f 7f
        e 460 91 1f 00
        e 20 91 1f 7f
        e 460 91 1f 00
        e 20 91 1f 7f
        e 460 91 1f 00
        e 20 91 1f 7f
        e 460 91 1f 00
        e 20 91 1f 7f
        e 460 91 1f 00
        e 20 91 1f 7f
        e 460 91 1f 00
        e 20 91 1f 7f
        e 460 91 1f 00
        e 20 91 1f 7f
        e 460 91 1f 00
        e 20 91 1f 7f
        e 460 91 1f 00
        e 20 91 1f 7f
        e 460 91 1f 00
        e 20 91 1f 7f
        e 460 91 1f 00
        e 20 91 1f 7f
        e 460 91 1f 00
        e 20 91 1f 7f
        e 460 91 1f 00
        e 20 91 1f 7f
        e 460 91 1f 00
        e 20 91 21 7f
        e 460 91 21 00
        e 20 91 21 7f
        e 460 91 21 00
        e 20 91 21 7f
        e 460 91 21 00
        e 20 91 21 7f
        e 460 91 21 00
        e 20 91 21 7f
        e 460 91 21 00
        e 20 91 21 7f
        e 460 91 21 00
        e 20 91 21 7f
        e 460 91 21 00
        e 20 91 21 7f
        e 460 91 21 00
        e 20 91 22 7f
        e 0 91 29 7f
        e 1360 91 22 00
        e 0 91 29 00
        e 80 91 24 7f
        e 0 91 2b 7f
        e 2400 91 24 00
        e 0 91 2b 00
        e 64320 e1 00 40
        e 0 91 26 7f
        e 40 e1 00 3f
        e 20 e1 00 3e
        e 40 e1 00 3d
        e 20 e1 00 3c
        e 40 e1 00 3b
        e 20 e1 00 3a
        e 40 e1 00 39
        e 20 e1 00 38
        e 40 e1 00 37
        e 20 e1 00 36
        e 40 e1 00 35
        e 20 e1 00 34
        e 40 e1 00 33
        e 20 e1 00 32
        e 40 e1 00 31
        e 20 e1 00 30
        e 40 e1 00 2f
        e 20 e1 00 2e
        e 40 e1 00 2d
        e 20 e1 00 2c
        e 40 e1 00 2b
        e 20 e1 00 2a
        e 40 e1 00 29
        e 20 e1 00 28
        e 40 e1 00 27
        e 20 e1 00 26
        e 40 e1 00 25
        e 20 e1 00 24
        e 40 e1 00 23
        e 20 e1 00 22
        e 40 e1 00 21
        e 0 91 26 00
        e 20 e1 00 40
        e 0 91 26 7f
        e 1840 91 26 00
        e 80 91 24 7f
        e 1840 91 24 00
        e 80 91 23 7f
        e 3800 91 23 00
        e 40 91 22 7f
        e 1840 91 22 00
        e 80 91 24 7f
        e 1840 91 24 00
        e 80 91 25 7f
        e 3800 91 25 00
        e 40 91 26 7f
        e 1840 91 26 00
        e 80 91 24 7f
        e 1840 91 24 00
        e 80 91 23 7f
        e 2840 91 23 00
        e 40 91 24 7f
        e 940 91 24 00
        e 20 91 22 7f
        e 1840 91 22 00
        e 80 91 24 7f
        e 1840 91 24 00
        e 80 91 26 7f
        e 2840 91 26 00
        e 40 e1 00 40
        e 0 91 21 7f
        e 40 e1 00 3f
        e 20 e1 00 3e
        e 40 e1 00 3d
        e 20 e1 00 3c
        e 40 e1 00 3b
        e 20 e1 00 3a
        e 40 e1 00 39
        e 20 e1 00 38
        e 40 e1 00 37
        e 20 e1 00 36
        e 40 e1 00 35
        e 20 e1 00 34
        e 40 e1 00 33
        e 20 e1 00 32
        e 40 e1 00 31
        e 20 e1 00 30
        e 40 e1 00 2f
        e 20 e1 00 2e
        e 40 e1 00 2d
        e 20 e1 00 2c
        e 40 e1 00 2b
        e 20 e1 00 2a
        e 40 e1 00 29
        e 20 e1 00 28
        e 40 e1 00 27
        e 20 e1 00 26
        e 40 e1 00 25
        e 20 e1 00 24
        e 40 e1 00 23
        e 20 e1 00 22
        e 40 e1 00 21
        e 0 91 21 00
        e 20 e1 00 40
        e 0 91 26 7f
        e 1840 91 26 00
        e 80 91 24 7f
        e 1840 91 24 00
        e 80 91 23 7f
        e 3800 91 23 00
        e 40 91 22 7f
        e 1840 91 22 00
        e 80 91 24 7f
        e 1840 91 24 00
        e 80 91 25 7f
        e 3800 91 25 00
        e 40 91 26 7f
        e 1840 91 26 00
        e 80 91 24 7f
        e 1840 91 24 00
        e 80 91 23 7f
        e 2840 91 23 00
        e 40 91 24 7f
        e 940 91 24 00
        e 20 91 22 7f
        e 1840 91 22 00
        e 80 91 24 7f
        e 1840 91 24 00
        e 80 91 26 7f
        e 2840 91 26 00
        e 40 e1 00 40
        e 0 91 21 7f
        e 40 e1 00 3f
        e 20 e1 00 3e
        e 40 e1 00 3d
        e 20 e1 00 3c
        e 40 e1 00 3b
        e 20 e1 00 3a
        e 40 e1 00 39
        e 20 e1 00 38
        e 40 e1 00 37
        e 20 e1 00 36
        e 40 e1 00 35
        e 20 e1 00 34
        e 40 e1 00 33
        e 20 e1 00 32
        e 40 e1 00 31
        e 20 e1 00 30
        e 40 e1 00 2f
        e 20 e1 00 2e
        e 40 e1 00 2d
        e 20 e1 00 2c
        e 40 e1 00 2b
        e 20 e1 00 2a
        e 40 e1 00 29
        e 20 e1 00 28
        e 40 e1 00 27
        e 20 e1 00 26
        e 40 e1 00 25
        e 20 e1 00 24
        e 40 e1 00 23
        e 20 e1 00 22
        e 40 e1 00 21
        e 0 91 21 00
        e 20 e1 00 40
        e 0 91 22 7f
        e 1840 91 22 00
        e 80 91 24 7f
        e 1840 91 24 00
        e 80 91 1a 7f
        e 2840 91 1a 00
        e 40 e1 00 40
        e 0 91 21 7f
        e 40 e1 00 3f
        e 20 e1 00 3e
        e 40 e1 00 3d
        e 20 e1 00 3c
        e 40 e1 00 3b
        e 20 e1 00 3a
        e 40 e1 00 39
        e 20 e1 00 38
        e 40 e1 00 37
        e 20 e1 00 36
        e 40 e1 00 35
        e 20 e1 00 34
        e 40 e1 00 33
        e 20 e1 00 32
        e 40 e1 00 31
        e 20 e1 00 30
        e 40 e1 00 2f
        e 20 e1 00 2e
        e 40 e1 00 2d
        e 20 e1 00 2c
        e 40 e1 00 2b
        e 20 e1 00 2a
        e 40 e1 00 29
        e 20 e1 00 28
        e 40 e1 00 27
        e 20 e1 00 26
        e 40 e1 00 25
        e 20 e1 00 24
        e 40 e1 00 23
        e 20 e1 00 22
        e 40 e1 00 21
        e 0 91 21 00
        e 20 e1 00 40
        e 0 91 22 7f
        e 1840 91 22 00
        e 80 91 24 7f
        e 1840 91 24 00
        E 60 b0 7b 00
        CCINTERP 32
        CHASE_CC_TAKEOFFS 1
        GUID {A38206EF-2AE6-F540-8F7F-7826606E6C8A}
        IGNTEMPO 0 120 4 4
        SRCCOLOR 138
        VELLANE -1 100 0
        CFGEDITVIEW 203992.8 0.080165 63 12 0 -1 0 0 0 0.5
        KEYSNAP 0
        TRACKSEL 0
        EVTFILTER 0 -1 -1 -1 -1 0 0 0 0 -1 -1 -1 -1 0 -1 0 -1 -1
        CFGEDIT 1 1 0 1 0 0 1 1 1 1 1 0.5 375 204 1920 926 0 0 0 0 0 0 0 0 0 0.5 0 0 1 64
      >
    >
  >
  <TRACK {012E3C39-73B3-0549-A69A-31247BFD7311}
    NAME "y ¨ÄñÎöº zfrom ûg½ for 88Pro Comp.ZUN             - th06_05.mid [chan 8] [chan 8]"
    PEAKCOL 16576
    BEAT -1
    AUTOMODE 0
    VOLPAN 1 0 -1 -1 1
    MUTESOLO 0 0 0
    IPHASE 0
    PLAYOFFS 0 1
    ISBUS 0 0
    BUSCOMP 0 0 0 0 0
    SHOWINMIX 1 0.6667 0.5 1 0.5 -1 -1 -1
    FREEMODE 0
    SEL 0
    REC 0 0 1 0 0 0 0
    VU 2
    TRACKHEIGHT 0 0 0 0 0 0
    INQ 0 0 0 0.5 100 0 0 100
    NCHAN 2
    FX 1
    TRACKID {012E3C39-73B3-0549-A69A-31247BFD7311}
    PERF 0
    MIDIOUT -1
    MAINSEND 1 0
    <FXCHAIN
      WNDRECT 32 442 1013 581
      SHOW 0
      LASTSEL 0
      DOCKED 0
      BYPASS 0 0 0
      <AU "AUi: sforzando (Plogue Art et Technologie)" "Plogue Art et Technologie: sforzando" "" 1635085685 1347176273 1347178311
        6QMAAAAAAAAAAAAAAgAAAAEAAAAAAAAAAgAAAAAAAACPGgAAPD94bWwgdmVyc2lvbj0iMS4wIiBlbmNvZGluZz0iVVRGLTgiPz4KPCFET0NUWVBFIHBsaXN0IFBVQkxJ
        QyAiLS8vQXBwbGUvL0RURCBQTElTVCAxLjAvL0VOIiAiaHR0cDovL3d3dy5hcHBsZS5jb20vRFREcy9Qcm9wZXJ0eUxpc3QtMS4wLmR0ZCI+CjxwbGlzdCB2ZXJzaW9u
        PSIxLjAiPgo8ZGljdD4KCTxrZXk+QXJpYURhdGE8L2tleT4KCTxkYXRhPgoJUTBWSFVBTUZBQUI0bklXVXdXN2lNQkNHN3p5RjVWTjdnTmlRMGtWS3FPaVdYZVZBV3kz
        ZGN6UXhoa1pyTzJ6c1JPM2IKCTd5UWhFSzJLakJUSi92MTVQUE9qbWVqaFF5dFN5OUxtaFlrcG56QktIcGFqYUZYbXNJVmFEbzRXOHdVbHg3TFlWY0lsCglUeWd3SHRM
        bGlPQXYya3JuY25PdzVHOEZLbmVmZUVxSmRhVUVqWEpNWjFOS05IeHNXMldsVkNFMmp6Rzk0eWh2a3FmawoJcFhLYllpZmJXMUM1UW9QRE43ZXFjREZsUTBuSldxcVk1
        Z1pqVjFvYVI0bkthOWxkUnRJS2ZLdUphZ1VvUUltVE1aRk4KCVVoTXIxRW4ranZka0dkTTVYamlvSWdQMVZwazJUUlNDdmlKOG5PUzdWak9nTWJ6ZFQ0TWY0QjZMejNI
        TjB2c0ZTeHVGCglNWVpmbUs0bnI4bnErU1hsNmMydmQwekgzbEtTZ2ZtVFlJZ1FJWHB4RXRmaUhZeHBLaGxqeGNkQ29XSHprQkozeWVPWQoJcFNXWWd6d2hEamUyUGRD
        RFpTRWMva2VEeWhIVmxXdVZybzYybGcza3BxK2xCbFYxUmdkZkVmeE1zQ3ZFMUV2TXZFVG8KCUplNjh4TnhMM0h1SmIxNWk0U1U0OHlOK1Y3bmZWdTczbGZ1TjVWZWRm
        WVVTOUgvRzhXc0luL0V2b0NobzJ1YTBYdS8zCglVcmhoSDUyN3MydW9sYzV5YVlTOE5FbzdVb1lqSit4R2pqZzNlUC9Rejk5Skh4V0V3eEdRWEtaRnUxK2Y5MVlxekVQ
        dQoJM2lEcm1nbGpSRUUvNEphamZ3SnBWbVE9Cgk8L2RhdGE+Cgk8a2V5PmRhdGE8L2tleT4KCTxkYXRhPgoJQUFBQUFBQUFBQUFBQUFJQUFBQUFBQUFBQUFBQUFBQUJB
        QUFBQUFBQUFBSUFBQUFBQUFBQUF3QUFBQUFBQUFBRUFBQUEKCUFBQUFBQVVBQUFBQUFBQUFCZ0FBQUFBQUFBQUhBQUFBQUFBQUFBZ0FBQUFBQUFBQUNRQUFBQUFBQUFB
        S0FBQUFBQUFBCglBQXNBQUFBQUFBQUFEQUFBQUFBQUFBQU5BQUFBQUFBQUFBNEFBQUFBQUFBQUR3QUFBQUFBQUFBUUFBQUFBQUFBQUJFQQoJQUFBQUFBQUFFZ0FBQUFB
        QUFBQVRBQUFBQUFBQUFCUUFBQUFBQUFBQUZRQUFBQUFBQUFBV0FBQUFBQUFBQUJjQUFBQUEKCUFBQUFHQUFBQUFBQUFBQVpBQUFBQUFBQUFCb0FBQUFBQUFBQUd3QUFB
        QUFBQUFBY0FBQUFBQUFBQUIwQUFBQUFBQUFBCglIZ0FBQUFBQUFBQWZBQUFBQUFBQUFDQUFBQUFBQUFBQUlRQUFBQUFBQUFBaUFBQUFBQUFBQUNNQUFBQUFBQUFBSkFB
        QQoJQUFBQUFBQWxBQUFBQUFBQUFDWUFBQUFBQUFBQUp3QUFBQUFBQUFBb0FBQUFBQUFBQUNrQUFBQUFBQUFBS2dBQUFBQUEKCUFBQXJBQUFBQUFBQUFDd0FBQUFBQUFB
        QUxRQUFBQUFBQUFBdUFBQUFBQUFBQUM4QUFBQUFBQUFBTUFBQUFBQUFBQUF4CglBQUFBQUFBQUFESUFBQUFBQUFBQU13QUFBQUFBQUFBMEFBQUFBQUFBQURVQUFBQUFB
        QUFBTmdBQUFBQUFBQUEzQUFBQQoJQUFBQUFEZ0FBQUFBQUFBQU9RQUFBQUFBQUFBNkFBQUFBQUFBQURzQUFBQUFBQUFBUEFBQUFBQUFBQUE5QUFBQUFBQUEKCUFENEFB
        QUFBQUFBQVB3QUFBQUFBQUFCQUFBQUFBQUFBQUVFQUFBQUFBQUFBUWdBQUFBQUFBQUJEQUFBQUFBQUFBRVFBCglBQUFBQUFBQVJRQUFBQUFBQUFCR0FBQUFBQUFBQUVj
        QUFBQUFBQUFBU0FBQUFBQUFBQUJKQUFBQUFBQUFBRW9BQUFBQQoJQUFBQVN3QUFBQUFBQUFCTUFBQUFBQUFBQUUwQUFBQUFBQUFBVGdBQUFBQUFBQUJQQUFBQUFBQUFB
        RkFBQUFBQUFBQUEKCVVRQUFBQUFBQUFCU0FBQUFBQUFBQUZNQUFBQUFBQUFBVkFBQUFBQUFBQUJWQUFBQUFBQUFBRllBQUFBQUFBQUFWd0FBCglBQUFBQUFCWUFBQUFB
        QUFBQUZrQUFBQUFBQUFBV2dBQUFBQUFBQUJiQUFBQUFBQUFBRndBQUFBQUFBQUFYUUFBQUFBQQoJQUFCZUFBQUFBQUFBQUY4QUFBQUFBQUFBWUFBQUFBQUFBQUJoQUFB
        QUFBQUFBR0lBQUFBQUFBQUFZd0FBQUFBQUFBQmsKCUFBQUFBQUFBQUdVQUFBQUFBQUFBWmdBQUFBQUFBQUJuQUFBQUFBQUFBR2dBQUFBQUFBQUFhUUFBQUFBQUFBQnFB
        QUFBCglBQUFBQUdzQUFBQUFBQUFBYkFBQUFBQUFBQUJ0QUFBQUFBQUFBRzRBQUFBQUFBQUFid0FBQUFBQUFBQndBQUFBQUFBQQoJQUhFQUFBQUFBQUFBY2dBQUFBQUFB
        QUJ6QUFBQUFBQUFBSFFBQUFBQUFBQUFkUUFBQUFBQUFBQjJBQUFBQUFBQUFIY0EKCUFBQUFBQUFBZUFBQUFBQUFBQUI1QUFBQUFBQUFBSG9BQUFBQUFBQUFld0FBQUFB
        QUFBQjhBQUFBQUFBQUFIMEFBQUFBCglBQUFBZmdBQUFBQUFBQUIvQUFBQUFBQUFBSUFBQUFBQUFBQUFnUUFBQUFBQUFBQ0NBQUFBQUFBQUFJTUFBQUFBQUFBQQoJaEFB
        QUFBQUFBQUNGQUFBQUFBQUFBSVlBQUFBQUFBQUFod0FBQUFBQUFBQ0lBQUFBQUFBQUFJa0FBQUFBQUFBQWlnQUEKCUFBQUFBQUNMQUFBQUFBQUFBSXdBQUFBQUFBQUFq
        UUFBQUFBQUFBQ09BQUFBQUFBQUFJOEFBQUFBQUFBQWtBQUFBQUFBCglBQUNSQUFBQUFBQUFBSklBQUFBQUFBQUFrd0FBQUFBQUFBQ1VBQUFBQUFBQUFKVUFBQUFBQUFB
        QWxnQUFBQUFBQUFDWAoJQUFBQUFBQUFBSmdBQUFBQUFBQUFtUUFBQUFBQUFBQ2FBQUFBQUFBQUFKc0FBQUFBQUFBQW5BQUFBQUFBQUFDZEFBQUEKCUFBQUFBSjRBQUFB
        QUFBQUFud0FBQUFBQUFBQ2dBQUFBQUFBQUFLRUFBQUFBQUFBQW9nQUFBQUFBQUFDakFBQUFBQUFBCglBS1FBQUFBQUFBQUFwUUFBQUFBQUFBQ21BQUFBQUFBQUFLY0FB
        QUFBQUFBQXFBQUFBQUFBQUFDcEFBQUFBQUFBQUtvQQoJQUFBQUFBQUFxd0FBQUFBQUFBQ3NBQUFBQUFBQUFLMEFBQUFBQUFBQXJnQUFBQUFBQUFDdkFBQUFBQUFBQUxB
        QUFBQUEKCUFBQUFzUUFBQUFBQUFBQ3lBQUFBQUFBQUFMTUFBQUFBQUFBQXRBQUFBQUFBQUFDMUFBQUFBQUFBQUxZQUFBQUFBQUFBCgl0d0FBQUFBQUFBQzRBQUFBQUFB
        QUFMa0FBQUFBQUFBQXVnQUFBQUFBQUFDN0FBQUFBQUFBQUx3QUFBQUFBQUFBdlFBQQoJQUFBQUFBQytBQUFBQUFBQUFMOEFBQUFBQUFBQXdBQUFBQUFBQUFEQkFBQUFB
        QUFBQU1JQUFBQUFBQUFBd3dBQUFBQUEKCUFBREVBQUFBQUFBQUFNVUFBQUFBQUFBQXhnQUFBQUFBQUFESEFBQUFBQUFBQU1nQUFBQUFBQUFBeVFBQUFBQUFBQURLCglB
        QUFBQUFBQUFNc0FBQUFBQUFBQXpBQUFBQUFBQUFETkFBQUFBQUFBQU00QUFBQUFBQUFBendBQUFBQUFBQURRQUFBQQoJQUFBQUFORUFBQUFBQUFBQTBnQUFBQUFBQUFE
        VEFBQUFBQUFBQU5RQUFBQUFBQUFBMVFBQUFBQUFBQURXQUFBQUFBQUEKCUFOY0FBQUFBQUFBQTJBQUFBQUFBQUFEWkFBQUFBQUFBQU5vQUFBQUFBQUFBMndBQUFBQUFB
        QURjQUFBQUFBQUFBTjBBCglBQUFBQUFBQTNnQUFBQUFBQUFEZkFBQUFBQUFBQU9BQUFBQUFBQUFBNFFBQUFBQUFBQURpQUFBQUFBQUFBT01BQUFBQQoJQUFBQTVBQUFB
        QUFBQUFEbEFBQUFBQUFBQU9ZQUFBQUFBQUFBNXdBQUFBQUFBQURvQUFBQUFBQUFBT2tBQUFBQUFBQUEKCTZnQUFBQUFBQUFEckFBQUFBQUFBQU93QUFBQUFBQUFBN1FB
        QUFBQUFBQUR1QUFBQUFBQUFBTzhBQUFBQUFBQUE4QUFBCglBQUFBQUFEeEFBQUFBQUFBQVBJQUFBQUFBQUFBOHdBQUFBQUFBQUQwQUFBQUFBQUFBUFVBQUFBQUFBQUE5
        Z0FBQUFBQQoJQUFEM0FBQUFBQUFBQVBnQUFBQUFBQUFBK1FBQUFBQUFBQUQ2QUFBQUFBQUFBUHNBQUFBQUFBQUEvQUFBQUFBQUFBRDkKCUFBQUFBQUFBQVA0QUFBQUFB
        QUFBL3dBQUFBQUFBQUVBQUFBQUFBQUFBUUVBQUFBQUFBQUJBZ0FBQUFBQUFBRURBQUFBCglBQUFBQVFRQUFBQUFBQUFCQlFBQUFBQUFBQUVHQUFBQUFBQUFBUWNBQUFB
        QUFBQUJDQUFBQUFBQUFBRUpBQUFBQUFBQQoJQVFvQUFBQUFBQUFCQ3dBQUFBQUFBQUVNQUFBQUFBQUFBUTBBQUFBQUFBQUJEZ0FBQUFBQUFBRVBBQUFBQUFBQUFSQUEK
        CUFBQUFBQUFCRVFBQUFBQUFBQUVTQUFBQUFBQUFBUk1BQUFBQUFBQUJGQUFBQUFBQUFBRVZBQUFBQUFBQUFSWUFBQUFBCglBQUFCRndBQUFBQUFBQUVZQUFBQUFBQUFB
        UmtBQUFBQUFBQUJHZ0FBQUFBQUFBRWJBQUFBQUFBQUFSd0FBQUFBQUFBQgoJSFFBQUFBQUFBQUVlQUFBQUFBQUFBUjhBQUFBQUFBQUJJQUFBQUFBQUFBRWhBQUFBQUFB
        QUFTSUFBQUFBQUFBQkl3QUEKCUFBQUFBQUVrQUFBQUFBQUFBU1VBQUFBQUFBQUJKZ0FBQUFBQUFBRW5BQUFBQUFBQUFTZ0FBQUFBQUFBQktRQUFBQUFBCglBQUVxQUFB
        QUFBQUFBU3NBQUFBQUFBQUJMQUFBQUFBQUFBRXRBQUFBQUFBQUFTNEFBQUFBQUFBQkx3QUFBQUFBQUFFdwoJQUFBQUFBQUFBVEVBQUFBQUFBQUJNZ0FBQUFBQUFBRXpB
        QUFBQUFBQUFUUUFBQUFBQUFBQk5RQUFBQUFBQUFFMkFBQUEKCUFBQUFBVGNBQUFBQUFBQUJPQUFBQUFBQUFBRTVBQUFBQUFBQUFUb0FBQUFBQUFBQk93QUFBQUFBQUFF
        OEFBQUFBQUFBCglBVDBBQUFBQUFBQUJQZ0FBQUFBQUFBRS9BQUFBQUFBQUFVQUFBQUFBQUFBQlFRQUFBQUFBQUFGQ0FBQUFBQUFBQVVNQQoJQUFBQUFBQUJSQUFBQUFB
        QUFBRkZBQUFBQUFBQUFVWUFBQUFBQUFBQlJ3QUFBQUFBQUFGSUFBQUFBQUFBQVVrQUFBQUEKCUFBQUJTZ0FBQUFBQUFBRkxBQUFBQUFBQUFVd0FBQUFBQUFBQlRRQUFB
        QUFBQUFGT0FBQUFBQUFBQVU4QUFBQUFBQUFCCglVQUFBQUFBQUFBRlJBQUFBQUFBQUFWSUFBQUFBQUFBQlV3QUFBQUFBQUFGVUFBQUFBQUFBQVZVQUFBQUFBQUFCVmdB
        QQoJQUFBQUFBRlhBQUFBQUFBQUFWZ0FBQUFBQUFBQldRQUFBQUFBQUFGYUFBQUFBQUFBQVZzQUFBQUFBQUFCWEFBQUFBQUEKCUFBRmRBQUFBQUFBQUFWNEFBQUFBQUFB
        Qlh3QUFBQUFBQUFGZ0FBQUFBQUFBQVdFQUFBQUFBQUFCWWdBQUFBQUFBQUZqCglBQUFBQUFBQUFXUUFBQUFBQUFBQlpRQUFBQUFBQUFGbUFBQUFBQUFBQVdjQUFBQUFB
        QUFCYUFBQUFBQUFBQUZwQUFBQQoJQUFBQUFXb0FBQUFBQUFBQmF3QUFBQUFBQUFGc0FBQUFBQUFBQVcwQUFBQUFBQUFCYmdBQUFBQUFBQUZ2QUFBQUFBQUEKCUFYQUFB
        QUFBQUFBQmNRQUFBQUFBQUFGeUFBQUFBQUFBQVhNQUFBQUFBQUFCZEFBQUFBQUFBQUYxQUFBQUFBQUFBWFlBCglBQUFBQUFBQmR3QUFBQUFBQUFGNEFBQUFBQUFBQVhr
        QUFBQUFBQUFCZWdBQUFBQUFBQUY3QUFBQUFBQUFBWHdBQUFBQQoJQUFBQmZRQUFBQUFBQUFGK0FBQUFBQUFBQVg4QUFBQUFBQUFCZ0FBQUFBQUFBQUdCQUFBQUFBQUFB
        WUlBQUFBQUFBQUIKCWd3QUFBQUFBQUFHRUFBQUFBQUFBQVlVQUFBQUFBQUFCaGdBQUFBQUFBQUdIQUFBQUFBQUFBWWdBQUFBQUFBQUJpUUFBCglBQUFBQUFHS0FBQUFB
        QUFBQVlzQUFBQUFBQUFCakFBQUFBQUFBQUdOQUFBQUFBQUFBWTRBQUFBQUFBQUJqd0FBQUFBQQoJQUFHUUFBQUFBQUFBQVpFQUFBQUFBQUFCa2dBQUFBQUFBQUdUQUFB
        QUFBQUFBWlFBQUFBQUFBQUJsUUFBQUFBQUFBR1cKCUFBQUFBQUFBQVpjQUFBQUFBQUFCbUFBQUFBQUFBQUdaQUFBQUFBQUFBWm9BQUFBQUFBQUJtd0FBQUFBQUFBR2NB
        QUFBCglBQUFBQVowQUFBQUFBQUFCbmdBQUFBQUFBQUdmQUFBQUFBQUFBYUFBQUFBQUFBQUJvUUFBQUFBQUFBR2lBQUFBQUFBQQoJQWFNQUFBQUFBQUFCcEFBQUFBQUFB
        QUdsQUFBQUFBQUFBYVlBQUFBQUFBQUJwd0FBQUFBQUFBR29BQUFBQUFBQUFha0EKCUFBQUFBQUFCcWdBQUFBQUFBQUdyQUFBQUFBQUFBYXdBQUFBQUFBQUJyUUFBQUFB
        QUFBR3VBQUFBQUFBQUFhOEFBQUFBCglBQUFCc0FBQUFBQUFBQUd4QUFBQUFBQUFBYklBQUFBQUFBQUJzd0FBQUFBQUFBRzBBQUFBQUFBQUFiVUFBQUFBQUFBQgoJdGdB
        QUFBQUFBQUczQUFBQUFBQUFBYmdBQUFBQUFBQUJ1UUFBQUFBQUFBRzZBQUFBQUFBQUFic0FBQUFBQUFBQnZBQUEKCUFBQUFBQUc5QUFBQUFBQUFBYjRBQUFBQUFBQUJ2
        d0FBQUFBQUFBSEFBQUFBQUFBQUFjRUFBQUFBQUFBQndnQUFBQUFBCglBQUhEQUFBQUFBQUFBY1FBQUFBQUFBQUJ4UUFBQUFBQUFBSEdBQUFBQUFBQUFjY0FBQUFBQUFB
        QnlBQUFBQUFBQUFISgoJQUFBQUFBQUFBY29BQUFBQUFBQUJ5d0FBQUFBQUFBSE1BQUFBQUFBQUFjMEFBQUFBQUFBQnpnQUFBQUFBQUFIUEFBQUEKCUFBQUFBZEFBQUFB
        QUFBQUIwUUFBQUFBQUFBSFNBQUFBQUFBQUFkTUFBQUFBQUFBQjFBQUFBQUFBQUFIVkFBQUFBQUFBCglBZFlBQUFBQUFBQUIxd0FBQUFBQUFBSFlBQUFBQUFBQUFka0FB
        QUFBQUFBQjJnQUFBQUFBQUFIYkFBQUFBQUFBQWR3QQoJQUFBQUFBQUIzUUFBQUFBQUFBSGVBQUFBQUFBQUFkOEFBQUFBQUFBQjRBQUFBQUFBQUFIaEFBQUFBQUFBQWVJ
        QUFBQUEKCUFBQUI0d0FBQUFBQUFBSGtBQUFBQUFBQUFlVUFBQUFBQUFBQjVnQUFBQUFBQUFIbkFBQUFBQUFBQWVnQUFBQUFBQUFCCgk2UUFBQUFBQUFBSHFBQUFBQUFB
        QUFlc0FBQUFBQUFBQjdBQUFBQUFBQUFIdEFBQUFBQUFBQWU0QUFBQUFBQUFCN3dBQQoJQUFBQUFBSHdBQUFBQUFBQUFmRUFBQUFBQUFBQjhnQUFBQUFBQUFIekFBQUFB
        QUFBQWZRQUFBQUFBQUFCOVFBQUFBQUEKCUFBSDJBQUFBQUFBQUFmY0FBQUFBQUFBQitBQUFBQUFBQUFINUFBQUFBQUFBQWZvQUFBQUFBQUFCK3dBQUFBQUFBQUg4CglB
        QUFBQUFBQUFmMEFBQUFBQUFBQi9nQUFBQUFBQUFIL0FBQUFBQT09Cgk8L2RhdGE+Cgk8a2V5Pm1hbnVmYWN0dXJlcjwva2V5PgoJPGludGVnZXI+MTM0NzE3ODMxMTwv
        aW50ZWdlcj4KCTxrZXk+bmFtZTwva2V5PgoJPHN0cmluZz5VbnRpdGxlZDwvc3RyaW5nPgoJPGtleT5zdWJ0eXBlPC9rZXk+Cgk8aW50ZWdlcj4xMzQ3MTc2MjczPC9p
        bnRlZ2VyPgoJPGtleT50eXBlPC9rZXk+Cgk8aW50ZWdlcj4xNjM1MDg1Njg1PC9pbnRlZ2VyPgoJPGtleT52ZXJzaW9uPC9rZXk+Cgk8aW50ZWdlcj4wPC9pbnRlZ2Vy
        Pgo8L2RpY3Q+CjwvcGxpc3Q+CgQAAABhc3MAAAAAAAA=
      >
      PRESETNAME ass
      FLOATPOS 0 0 0 0
      FXID {7748A6E7-27DB-3448-88BF-9C79F41D1341}
      WAK 0 0
    >
    <ITEM
      POSITION 0
      SNAPOFFS 0
      LENGTH 32
      LOOP 1
      ALLTAKES 0
      FADEIN 1 0 0 1 0 0 0
      FADEOUT 1 0 0 1 0 0 0
      MUTE 0 0
      SEL 0
      IGUID {00EC5477-3563-BE47-BD08-C07ED9572676}
      IID 27
      NAME "y ¨ÄñÎöº zfrom ûg½ for 88Pro Comp.ZUN             - th06_05.mid [chan 8]"
      VOLPAN 1 0 1 -1
      SOFFS 2.22222222222222 5
      PLAYRATE 1 1 0 -1 0 0.0025
      CHANMODE 0
      GUID {E0DDABE2-D43F-D44E-BC86-4FC5A55847EF}
      <SOURCE MIDI
        HASDATA 1 960 QN
        CCINTERP 32
        POOLEDEVTS {AB485929-8E99-E24B-A4F8-DCDBCADFBF37}
        E 3840 b7 78 00
        E 20 b7 79 00
        E 20 b7 7b 00
        E 20 b7 65 00
        E 0 b7 64 00
        E 0 b7 06 0c
        E 20 b7 65 00
        E 0 b7 64 01
        E 0 b7 06 40
        E 20 b7 65 00
        E 0 b7 64 02
        E 0 b7 06 40
        E 20 b7 63 01
        E 0 b7 62 08
        E 0 b7 06 40
        E 20 b7 63 01
        E 0 b7 62 09
        E 0 b7 06 46
        E 20 b7 63 01
        E 0 b7 62 0a
        E 0 b7 06 40
        E 20 b7 63 01
        E 0 b7 62 20
        E 0 b7 06 46
        E 20 b7 63 01
        E 0 b7 62 21
        E 0 b7 06 40
        E 20 b7 63 01
        E 0 b7 62 63
        E 0 b7 06 40
        E 20 b7 63 01
        E 0 b7 62 64
        E 0 b7 06 40
        E 20 b7 63 01
        E 0 b7 62 66
        E 0 b7 06 40
        E 20 b7 07 5a
        E 20 b7 0a 46
        E 20 b7 5b 32
        E 20 b7 5d 0a
        E 20 b7 00 00
        E 0 b7 20 03
        E 0 c7 50 00
        E 20 b7 0b 78
        e 8260 b7 0a 1e
        e 0 b7 0b 64
        e 0 97 32 7f
        e 240 97 32 00
        e 0 97 32 7f
        e 0 97 36 7f
        e 240 97 32 00
        e 0 97 36 00
        e 0 97 36 7f
        e 0 97 3e 7f
        e 240 97 36 00
        e 0 97 3e 00
        e 0 97 32 7f
        e 0 97 3b 7f
        e 240 97 32 00
        e 0 97 3b 00
        e 0 97 32 7f
        e 0 97 3b 7f
        e 240 97 32 00
        e 0 97 3b 00
        e 0 97 32 7f
        e 240 97 32 00
        e 0 97 3b 7f
        e 240 97 3b 00
        e 0 97 36 7f
        e 240 97 36 00
        e 0 97 3e 7f
        e 240 97 3e 00
        e 0 97 3d 7f
        e 240 97 3d 00
        e 0 97 34 7f
        e 240 97 34 00
        e 0 97 3b 7f
        e 240 97 3b 00
        e 0 97 32 7f
        e 240 97 32 00
        e 0 97 36 7f
        e 0 97 3e 7f
        e 240 97 36 00
        e 0 97 3e 00
        e 0 97 32 7f
        e 240 97 32 00
        e 0 97 36 7f
        e 0 97 3e 7f
        e 240 97 36 00
        e 0 97 3e 00
        e 0 97 36 7f
        e 240 97 36 00
        e 0 97 36 7f
        e 0 97 3e 7f
        e 240 97 36 00
        e 0 97 3e 00
        e 0 97 34 7f
        e 0 97 3d 7f
        e 240 97 34 00
        e 0 97 3d 00
        e 0 97 32 7f
        e 0 97 3b 7f
        e 240 97 32 00
        e 0 97 3b 00
        e 0 97 31 7f
        e 0 97 34 7f
        e 240 97 31 00
        e 0 97 34 00
        e 0 97 2f 7f
        e 240 97 2f 00
        e 0 97 36 7f
        e 240 97 36 00
        e 0 97 32 7f
        e 240 97 32 00
        e 0 97 2f 7f
        e 240 97 2f 00
        e 0 97 34 7f
        e 240 97 34 00
        e 0 97 31 7f
        e 240 97 31 00
        e 0 97 2d 7f
        e 240 97 2d 00
        e 0 97 2f 7f
        e 240 97 2f 00
        e 0 97 36 7f
        e 0 97 3e 7f
        e 240 97 36 00
        e 0 97 3e 00
        e 0 97 3b 7f
        e 240 97 3b 00
        e 0 97 34 7f
        e 0 97 3d 7f
        e 240 97 34 00
        e 0 97 3d 00
        e 0 97 32 7f
        e 240 97 32 00
        e 0 97 32 7f
        e 0 97 36 7f
        e 240 97 32 00
        e 0 97 36 00
        e 0 97 36 7f
        e 0 97 3e 7f
        e 240 97 36 00
        e 0 97 3e 00
        e 0 97 32 7f
        e 0 97 3b 7f
        e 240 97 32 00
        e 0 97 3b 00
        e 0 97 32 7f
        e 0 97 3b 7f
        e 240 97 32 00
        e 0 97 3b 00
        e 0 97 32 7f
        e 240 97 32 00
        e 0 97 3b 7f
        e 240 97 3b 00
        e 0 97 36 7f
        e 240 97 36 00
        e 0 97 3e 7f
        e 240 97 3e 00
        e 0 97 3d 7f
        e 240 97 3d 00
        e 0 97 34 7f
        e 240 97 34 00
        e 0 97 3b 7f
        e 240 97 3b 00
        e 0 97 32 7f
        e 240 97 32 00
        e 0 97 36 7f
        e 0 97 3e 7f
        e 240 97 36 00
        e 0 97 3e 00
        e 0 97 32 7f
        e 240 97 32 00
        e 0 97 36 7f
        e 0 97 3e 7f
        e 240 97 36 00
        e 0 97 3e 00
        e 0 97 36 7f
        e 240 97 36 00
        e 0 97 3e 7f
        e 0 97 42 7f
        e 240 97 3e 00
        e 0 97 42 00
        e 0 97 3d 7f
        e 0 97 40 7f
        e 240 97 3d 00
        e 0 97 40 00
        e 0 97 3b 7f
        e 0 97 3e 7f
        e 240 97 3b 00
        e 0 97 3e 00
        e 0 97 34 7f
        e 0 97 3d 7f
        e 240 97 34 00
        e 0 97 3d 00
        e 0 97 36 7f
        e 240 97 36 00
        e 0 97 34 7f
        e 240 97 34 00
        e 0 97 32 7f
        e 240 97 32 00
        e 0 97 34 7f
        e 240 97 34 00
        e 0 97 36 7f
        e 240 97 36 00
        e 0 97 3e 7f
        e 240 97 3e 00
        e 0 97 3d 7f
        e 240 97 3d 00
        e 0 97 36 7f
        e 240 97 36 00
        e 0 97 32 7f
        e 0 97 36 7f
        e 240 97 32 00
        e 0 97 36 00
        e 0 97 42 7f
        e 240 97 42 00
        e 0 97 3d 7f
        e 0 97 40 7f
        e 240 97 3d 00
        e 0 97 40 00
        e 0 97 32 7f
        e 240 97 32 00
        e 0 97 32 7f
        e 0 97 36 7f
        e 240 97 32 00
        e 0 97 36 00
        e 0 97 36 7f
        e 0 97 3e 7f
        e 240 97 36 00
        e 0 97 3e 00
        e 0 97 32 7f
        e 0 97 3b 7f
        e 240 97 32 00
        e 0 97 3b 00
        e 0 97 32 7f
        e 0 97 3b 7f
        e 240 97 32 00
        e 0 97 3b 00
        e 0 97 32 7f
        e 240 97 32 00
        e 0 97 3b 7f
        e 240 97 3b 00
        e 0 97 36 7f
        e 240 97 36 00
        e 0 97 3e 7f
        e 240 97 3e 00
        e 0 97 3d 7f
        e 240 97 3d 00
        e 0 97 34 7f
        e 240 97 34 00
        e 0 97 3b 7f
        e 240 97 3b 00
        e 0 97 32 7f
        e 240 97 32 00
        e 0 97 36 7f
        e 0 97 3e 7f
        e 240 97 36 00
        e 0 97 3e 00
        e 0 97 32 7f
        e 240 97 32 00
        e 0 97 36 7f
        e 0 97 3e 7f
        e 240 97 36 00
        e 0 97 3e 00
        e 0 97 36 7f
        e 240 97 36 00
        e 0 97 36 7f
        e 0 97 3e 7f
        e 240 97 36 00
        e 0 97 3e 00
        e 0 97 34 7f
        e 0 97 3d 7f
        e 240 97 34 00
        e 0 97 3d 00
        e 0 97 32 7f
        e 0 97 3b 7f
        e 240 97 32 00
        e 0 97 3b 00
        e 0 97 31 7f
        e 0 97 34 7f
        e 240 97 31 00
        e 0 97 34 00
        e 0 97 2f 7f
        e 240 97 2f 00
        e 0 97 36 7f
        e 240 97 36 00
        e 0 97 32 7f
        e 240 97 32 00
        e 0 97 2f 7f
        e 240 97 2f 00
        e 0 97 34 7f
        e 240 97 34 00
        e 0 97 31 7f
        e 240 97 31 00
        e 0 97 2d 7f
        e 240 97 2d 00
        e 0 97 2f 7f
        e 240 97 2f 00
        e 0 97 36 7f
        e 0 97 3e 7f
        e 240 97 36 00
        e 0 97 3e 00
        e 0 97 3b 7f
        e 240 97 3b 00
        e 0 97 34 7f
        e 0 97 3d 7f
        e 240 97 34 00
        e 0 97 3d 00
        e 0 97 32 7f
        e 240 97 32 00
        e 0 97 32 7f
        e 0 97 36 7f
        e 240 97 32 00
        e 0 97 36 00
        e 0 97 36 7f
        e 0 97 3e 7f
        e 240 97 36 00
        e 0 97 3e 00
        e 0 97 32 7f
        e 0 97 3b 7f
        e 240 97 32 00
        e 0 97 3b 00
        e 0 97 32 7f
        e 0 97 3b 7f
        e 240 97 32 00
        e 0 97 3b 00
        e 0 97 32 7f
        e 240 97 32 00
        e 0 97 3b 7f
        e 240 97 3b 00
        e 0 97 36 7f
        e 240 97 36 00
        e 0 97 3e 7f
        e 240 97 3e 00
        e 0 97 3d 7f
        e 240 97 3d 00
        e 0 97 34 7f
        e 240 97 34 00
        e 0 97 3b 7f
        e 240 97 3b 00
        e 0 97 32 7f
        e 240 97 32 00
        e 0 97 36 7f
        e 0 97 3e 7f
        e 240 97 36 00
        e 0 97 3e 00
        e 0 97 32 7f
        e 240 97 32 00
        e 0 97 36 7f
        e 0 97 3e 7f
        e 240 97 36 00
        e 0 97 3e 00
        e 0 97 36 7f
        e 240 97 36 00
        e 0 97 3e 7f
        e 0 97 42 7f
        e 240 97 3e 00
        e 0 97 42 00
        e 0 97 3d 7f
        e 0 97 40 7f
        e 240 97 3d 00
        e 0 97 40 00
        e 0 97 3b 7f
        e 0 97 3e 7f
        e 240 97 3b 00
        e 0 97 3e 00
        e 0 97 34 7f
        e 0 97 3d 7f
        e 240 97 34 00
        e 0 97 3d 00
        e 0 97 36 7f
        e 240 97 36 00
        e 0 97 34 7f
        e 240 97 34 00
        e 0 97 32 7f
        e 240 97 32 00
        e 0 97 34 7f
        e 240 97 34 00
        e 0 97 36 7f
        e 240 97 36 00
        e 0 97 3e 7f
        e 240 97 3e 00
        e 0 97 3d 7f
        e 240 97 3d 00
        e 0 97 36 7f
        e 240 97 36 00
        e 0 97 32 7f
        e 0 97 36 7f
        e 240 97 32 00
        e 0 97 36 00
        e 0 97 42 7f
        e 240 97 42 00
        e 0 97 3d 7f
        e 0 97 40 7f
        e 240 97 3d 00
        e 0 97 40 00
        e 0 97 3e 7f
        e 240 97 3e 00
        e 0 97 3e 7f
        e 0 97 42 7f
        e 240 97 3e 00
        e 0 97 42 00
        e 0 97 42 7f
        e 0 97 4a 7f
        e 240 97 42 00
        e 0 97 4a 00
        e 0 97 3e 7f
        e 0 97 47 7f
        e 240 97 3e 00
        e 0 97 47 00
        e 0 97 3e 7f
        e 0 97 47 7f
        e 240 97 3e 00
        e 0 97 47 00
        e 0 97 3e 7f
        e 240 97 3e 00
        e 0 97 47 7f
        e 240 97 47 00
        e 0 97 42 7f
        e 240 97 42 00
        e 0 97 4a 7f
        e 240 97 4a 00
        e 0 97 49 7f
        e 240 97 49 00
        e 0 97 40 7f
        e 240 97 40 00
        e 0 97 47 7f
        e 240 97 47 00
        e 0 97 3e 7f
        e 240 97 3e 00
        e 0 97 42 7f
        e 0 97 4a 7f
        e 240 97 42 00
        e 0 97 4a 00
        e 0 97 3e 7f
        e 240 97 3e 00
        e 0 97 42 7f
        e 0 97 4a 7f
        e 240 97 42 00
        e 0 97 4a 00
        e 0 97 42 7f
        e 240 97 42 00
        e 0 97 42 7f
        e 0 97 4a 7f
        e 240 97 42 00
        e 0 97 4a 00
        e 0 97 40 7f
        e 0 97 49 7f
        e 240 97 40 00
        e 0 97 49 00
        e 0 97 3e 7f
        e 0 97 47 7f
        e 240 97 3e 00
        e 0 97 47 00
        e 0 97 3d 7f
        e 0 97 40 7f
        e 240 97 3d 00
        e 0 97 40 00
        e 0 97 3b 7f
        e 240 97 3b 00
        e 0 97 42 7f
        e 240 97 42 00
        e 0 97 3e 7f
        e 240 97 3e 00
        e 0 97 3b 7f
        e 240 97 3b 00
        e 0 97 40 7f
        e 240 97 40 00
        e 0 97 3d 7f
        e 240 97 3d 00
        e 0 97 39 7f
        e 240 97 39 00
        e 0 97 3b 7f
        e 240 97 3b 00
        e 0 97 42 7f
        e 0 97 4a 7f
        e 240 97 42 00
        e 0 97 4a 00
        e 0 97 47 7f
        e 240 97 47 00
        e 0 97 40 7f
        e 0 97 49 7f
        e 240 97 40 00
        e 0 97 49 00
        e 0 97 3e 7f
        e 240 97 3e 00
        e 0 97 3e 7f
        e 0 97 42 7f
        e 240 97 3e 00
        e 0 97 42 00
        e 0 97 42 7f
        e 0 97 4a 7f
        e 240 97 42 00
        e 0 97 4a 00
        e 0 97 3e 7f
        e 0 97 47 7f
        e 240 97 3e 00
        e 0 97 47 00
        e 0 97 3e 7f
        e 0 97 47 7f
        e 240 97 3e 00
        e 0 97 47 00
        e 0 97 3e 7f
        e 240 97 3e 00
        e 0 97 47 7f
        e 240 97 47 00
        e 0 97 42 7f
        e 240 97 42 00
        e 0 97 4a 7f
        e 240 97 4a 00
        e 0 97 49 7f
        e 240 97 49 00
        e 0 97 40 7f
        e 240 97 40 00
        e 0 97 47 7f
        e 240 97 47 00
        e 0 97 3e 7f
        e 240 97 3e 00
        e 0 97 42 7f
        e 0 97 4a 7f
        e 240 97 42 00
        e 0 97 4a 00
        e 0 97 3e 7f
        e 240 97 3e 00
        e 0 97 42 7f
        e 0 97 4a 7f
        e 240 97 42 00
        e 0 97 4a 00
        e 0 97 42 7f
        e 240 97 42 00
        e 0 97 4a 7f
        e 0 97 4e 7f
        e 240 97 4a 00
        e 0 97 4e 00
        e 0 97 49 7f
        e 0 97 4c 7f
        e 240 97 49 00
        e 0 97 4c 00
        e 0 97 47 7f
        e 0 97 4a 7f
        e 240 97 47 00
        e 0 97 4a 00
        e 0 97 40 7f
        e 0 97 49 7f
        e 240 97 40 00
        e 0 97 49 00
        e 0 97 42 7f
        e 240 97 42 00
        e 0 97 40 7f
        e 240 97 40 00
        e 0 97 3e 7f
        e 240 97 3e 00
        e 0 97 40 7f
        e 240 97 40 00
        e 0 97 42 7f
        e 240 97 42 00
        e 0 97 4a 7f
        e 240 97 4a 00
        e 0 97 49 7f
        e 240 97 49 00
        e 0 97 42 7f
        e 240 97 42 00
        e 0 97 3e 7f
        e 0 97 42 7f
        e 240 97 3e 00
        e 0 97 42 00
        e 0 97 4e 7f
        e 240 97 4e 00
        e 0 97 49 7f
        e 0 97 4c 7f
        e 240 97 49 00
        e 0 97 4c 00
        e 0 97 3e 7f
        e 240 97 3e 00
        e 0 97 3e 7f
        e 0 97 42 7f
        e 240 97 3e 00
        e 0 97 42 00
        e 0 97 42 7f
        e 0 97 4a 7f
        e 240 97 42 00
        e 0 97 4a 00
        e 0 97 3e 7f
        e 0 97 47 7f
        e 240 97 3e 00
        e 0 97 47 00
        e 0 97 3e 7f
        e 0 97 47 7f
        e 240 97 3e 00
        e 0 97 47 00
        e 0 97 3e 7f
        e 240 97 3e 00
        e 0 97 47 7f
        e 240 97 47 00
        e 0 97 42 7f
        e 240 97 42 00
        e 0 97 4a 7f
        e 240 97 4a 00
        e 0 97 49 7f
        e 240 97 49 00
        e 0 97 40 7f
        e 240 97 40 00
        e 0 97 47 7f
        e 240 97 47 00
        e 0 97 3e 7f
        e 240 97 3e 00
        e 0 97 42 7f
        e 0 97 4a 7f
        e 240 97 42 00
        e 0 97 4a 00
        e 0 97 3e 7f
        e 240 97 3e 00
        e 0 97 42 7f
        e 0 97 4a 7f
        e 240 97 42 00
        e 0 97 4a 00
        e 0 97 42 7f
        e 240 97 42 00
        e 0 97 42 7f
        e 0 97 4a 7f
        e 240 97 42 00
        e 0 97 4a 00
        e 0 97 40 7f
        e 0 97 49 7f
        e 240 97 40 00
        e 0 97 49 00
        e 0 97 3e 7f
        e 0 97 47 7f
        e 240 97 3e 00
        e 0 97 47 00
        e 0 97 3d 7f
        e 0 97 40 7f
        e 240 97 3d 00
        e 0 97 40 00
        e 0 97 3b 7f
        e 240 97 3b 00
        e 0 97 42 7f
        e 240 97 42 00
        e 0 97 3e 7f
        e 240 97 3e 00
        e 0 97 3b 7f
        e 240 97 3b 00
        e 0 97 40 7f
        e 240 97 40 00
        e 0 97 3d 7f
        e 240 97 3d 00
        e 0 97 39 7f
        e 240 97 39 00
        e 0 97 3b 7f
        e 240 97 3b 00
        e 0 97 42 7f
        e 0 97 4a 7f
        e 240 97 42 00
        e 0 97 4a 00
        e 0 97 47 7f
        e 240 97 47 00
        e 0 97 40 7f
        e 0 97 49 7f
        e 240 97 40 00
        e 0 97 49 00
        e 0 97 3e 7f
        e 240 97 3e 00
        e 0 97 3e 7f
        e 0 97 42 7f
        e 240 97 3e 00
        e 0 97 42 00
        e 0 97 42 7f
        e 0 97 4a 7f
        e 240 97 42 00
        e 0 97 4a 00
        e 0 97 3e 7f
        e 0 97 47 7f
        e 240 97 3e 00
        e 0 97 47 00
        e 0 97 3e 7f
        e 0 97 47 7f
        e 240 97 3e 00
        e 0 97 47 00
        e 0 97 3e 7f
        e 240 97 3e 00
        e 0 97 47 7f
        e 240 97 47 00
        e 0 97 42 7f
        e 240 97 42 00
        e 0 97 4a 7f
        e 240 97 4a 00
        e 0 97 49 7f
        e 240 97 49 00
        e 0 97 40 7f
        e 240 97 40 00
        e 0 97 47 7f
        e 240 97 47 00
        e 0 97 3e 7f
        e 240 97 3e 00
        e 0 97 42 7f
        e 0 97 4a 7f
        e 240 97 42 00
        e 0 97 4a 00
        e 0 97 3e 7f
        e 240 97 3e 00
        e 0 97 42 7f
        e 0 97 4a 7f
        e 240 97 42 00
        e 0 97 4a 00
        e 0 97 42 7f
        e 240 97 42 00
        e 0 97 4a 7f
        e 0 97 4e 7f
        e 240 97 4a 00
        e 0 97 4e 00
        e 0 97 49 7f
        e 0 97 4c 7f
        e 240 97 49 00
        e 0 97 4c 00
        e 0 97 47 7f
        e 0 97 4a 7f
        e 240 97 47 00
        e 0 97 4a 00
        e 0 97 40 7f
        e 0 97 49 7f
        e 240 97 40 00
        e 0 97 49 00
        e 0 97 42 7f
        e 240 97 42 00
        e 0 97 40 7f
        e 240 97 40 00
        e 0 97 3e 7f
        e 240 97 3e 00
        e 0 97 40 7f
        e 240 97 40 00
        e 0 97 42 7f
        e 240 97 42 00
        e 0 97 4a 7f
        e 240 97 4a 00
        e 0 97 49 7f
        e 240 97 49 00
        e 0 97 42 7f
        e 240 97 42 00
        e 0 97 3e 7f
        e 0 97 42 7f
        e 240 97 3e 00
        e 0 97 42 00
        e 0 97 4e 7f
        e 240 97 4e 00
        e 0 97 49 7f
        e 0 97 4c 7f
        e 240 87 49 00
        e 0 87 4c 00
        E 0 b0 7b 00
        CCINTERP 32
        CHASE_CC_TAKEOFFS 1
        GUID {67E62C28-7648-8540-BE4C-2123700B5C84}
        IGNTEMPO 0 120 4 4
        SRCCOLOR 135
        VELLANE -1 100 0
        CFGEDITVIEW 4668.077222 0.078202 62 12 0 -1 0 0 0 0.5
        KEYSNAP 0
        TRACKSEL 0
        EVTFILTER 0 -1 -1 -1 -1 0 0 0 0 -1 -1 -1 -1 0 -1 0 -1 -1
        CFGEDIT 1 1 0 1 0 0 1 1 1 1 1 0.5 375 204 1920 926 0 0 0 0 0 0 0 0 0 0.5 0 0 1 64
      >
    >
    <ITEM
      POSITION 32
      SNAPOFFS 0
      LENGTH 1.77777777777778
      LOOP 1
      ALLTAKES 0
      FADEIN 1 0 0 1 0 0 0
      FADEOUT 1 0 0 1 0 0 0
      MUTE 0 0
      SEL 0
      IGUID {FBD716CC-71F4-314A-A075-15779BB321E3}
      IID 34
      NAME "y ¨ÄñÎöº zfrom ûg½ for 88Pro Comp.ZUN             - th06_05.mid [chan 2]"
      VOLPAN 1 0 1 -1
      SOFFS 34.22222222222222 77
      PLAYRATE 1 1 0 -1 0 0.0025
      CHANMODE 0
      GUID {05DDAC09-CBB3-1046-AB2B-F085D7F2BF1D}
      <SOURCE MIDI
        HASDATA 1 960 QN
        CCINTERP 32
        POOLEDEVTS {4D76290E-28C6-2F40-AE3E-2CED4F3F9E1D}
        E 3840 b1 78 00
        E 20 b1 79 00
        E 20 b1 7b 00
        E 20 b1 65 00
        E 0 b1 64 00
        E 0 b1 06 0c
        E 20 b1 65 00
        E 0 b1 64 01
        E 0 b1 06 40
        E 20 b1 65 00
        E 0 b1 64 02
        E 0 b1 06 40
        E 20 b1 63 01
        E 0 b1 62 08
        E 0 b1 06 40
        E 20 b1 63 01
        E 0 b1 62 09
        E 0 b1 06 40
        E 20 b1 63 01
        E 0 b1 62 0a
        E 0 b1 06 40
        E 20 b1 63 01
        E 0 b1 62 20
        E 0 b1 06 40
        E 20 b1 63 01
        E 0 b1 62 21
        E 0 b1 06 40
        E 20 b1 63 01
        E 0 b1 62 63
        E 0 b1 06 40
        E 20 b1 63 01
        E 0 b1 62 64
        E 0 b1 06 40
        E 20 b1 63 01
        E 0 b1 62 66
        E 0 b1 06 40
        E 20 b1 07 5f
        E 20 b1 0a 6e
        E 20 b1 5b 00
        E 20 b1 5d 00
        E 20 b1 00 00
        E 0 b1 20 03
        E 0 c1 24 00
        E 20 b1 0b 7f
        E 7320 e1 00 40
        E 0 91 26 7f
        E 40 e1 00 3f
        E 20 e1 00 3e
        E 20 e1 00 3d
        E 20 e1 00 3c
        E 20 e1 00 3b
        E 40 e1 00 3a
        E 20 e1 00 39
        E 20 e1 00 38
        E 20 e1 00 37
        E 20 e1 00 36
        E 40 e1 00 35
        E 20 e1 00 34
        E 20 e1 00 33
        E 20 e1 00 32
        E 20 e1 00 31
        E 40 e1 00 30
        E 20 e1 00 2f
        E 20 e1 00 2e
        E 20 e1 00 2d
        E 20 e1 00 2c
        E 40 e1 00 2b
        E 20 e1 00 2a
        E 20 e1 00 29
        E 20 e1 00 28
        E 20 e1 00 27
        E 40 e1 00 26
        E 20 e1 00 25
        E 20 e1 00 24
        E 20 e1 00 23
        E 20 e1 00 22
        E 40 e1 00 21
        E 20 e1 00 20
        E 20 e1 00 1f
        E 20 e1 00 1e
        E 20 e1 00 1d
        E 40 e1 00 1c
        E 20 e1 00 1b
        E 20 e1 00 1a
        E 20 e1 00 19
        E 0 91 26 00
        E 20 e1 00 40
        E 0 91 23 7f
        E 460 91 23 00
        E 20 91 23 7f
        E 460 91 23 00
        E 20 91 23 7f
        E 460 91 23 00
        E 20 91 23 7f
        E 460 91 23 00
        E 20 91 23 7f
        E 460 91 23 00
        E 20 91 23 7f
        E 460 91 23 00
        E 20 91 23 7f
        E 460 91 23 00
        E 20 91 23 7f
        E 460 91 23 00
        E 20 91 23 7f
        E 460 91 23 00
        E 20 91 23 7f
        E 460 91 23 00
        E 20 91 23 7f
        E 460 91 23 00
        E 20 91 23 7f
        E 460 91 23 00
        E 20 91 23 7f
        E 460 91 23 00
        E 20 91 23 7f
        E 460 91 23 00
        E 20 91 23 7f
        E 460 91 23 00
        E 20 91 23 7f
        E 460 91 23 00
        E 20 91 23 7f
        E 460 91 23 00
        E 20 91 23 7f
        E 460 91 23 00
        E 20 91 23 7f
        E 460 91 23 00
        E 20 91 23 7f
        E 460 91 23 00
        E 20 91 23 7f
        E 460 91 23 00
        E 20 91 23 7f
        E 460 91 23 00
        E 20 91 23 7f
        E 460 91 23 00
        E 20 91 23 7f
        E 460 91 23 00
        E 20 91 23 7f
        E 460 91 23 00
        E 20 91 23 7f
        E 460 91 23 00
        E 20 91 23 7f
        E 460 91 23 00
        E 20 91 23 7f
        E 460 91 23 00
        E 20 91 23 7f
        E 460 91 23 00
        E 20 91 23 7f
        E 460 91 23 00
        E 20 91 23 7f
        E 460 91 23 00
        E 20 91 23 7f
        E 460 91 23 00
        E 20 91 1f 7f
        E 460 91 1f 00
        E 20 91 1f 7f
        E 460 91 1f 00
        E 20 91 1f 7f
        E 460 91 1f 00
        E 20 91 1f 7f
        E 460 91 1f 00
        E 20 91 1f 7f
        E 460 91 1f 00
        E 20 91 1f 7f
        E 460 91 1f 00
        E 20 91 1f 7f
        E 460 91 1f 00
        E 20 91 1f 7f
        E 460 91 1f 00
        E 20 91 1f 7f
        E 460 91 1f 00
        E 20 91 1f 7f
        E 460 91 1f 00
        E 20 91 1f 7f
        E 460 91 1f 00
        E 20 91 1f 7f
        E 460 91 1f 00
        E 20 91 1f 7f
        E 460 91 1f 00
        E 20 91 1f 7f
        E 460 91 1f 00
        E 20 91 1f 7f
        E 460 91 1f 00
        E 20 91 1f 7f
        E 460 91 1f 00
        E 20 91 1f 7f
        E 460 91 1f 00
        E 20 91 1f 7f
        E 460 91 1f 00
        E 20 91 1f 7f
        E 460 91 1f 00
        E 20 91 1f 7f
        E 460 91 1f 00
        E 20 91 1f 7f
        E 460 91 1f 00
        E 20 91 1f 7f
        E 460 91 1f 00
        E 20 91 1f 7f
        E 460 91 1f 00
        E 20 91 1f 7f
        E 460 91 1f 00
        E 20 91 21 7f
        E 460 91 21 00
        E 20 91 21 7f
        E 460 91 21 00
        E 20 91 21 7f
        E 460 91 21 00
        E 20 91 21 7f
        E 460 91 21 00
        E 20 91 21 7f
        E 460 91 21 00
        E 20 91 21 7f
        E 460 91 21 00
        E 20 91 21 7f
        E 460 91 21 00
        E 20 91 21 7f
        E 460 91 21 00
        E 20 91 23 7f
        E 460 91 23 00
        E 20 91 23 7f
        E 460 91 23 00
        E 20 91 23 7f
        E 460 91 23 00
        E 20 91 23 7f
        E 460 91 23 00
        E 20 91 23 7f
        E 460 91 23 00
        E 20 91 23 7f
        E 460 91 23 00
        E 20 91 23 7f
        E 460 91 23 00
        E 20 91 23 7f
        E 460 91 23 00
        E 20 91 23 7f
        E 460 91 23 00
        E 20 91 23 7f
        E 460 91 23 00
        E 20 91 23 7f
        E 460 91 23 00
        E 20 91 23 7f
        E 460 91 23 00
        E 20 91 23 7f
        E 460 91 23 00
        E 20 91 23 7f
        E 460 91 23 00
        E 20 91 23 7f
        E 460 91 23 00
        E 20 91 23 7f
        E 460 91 23 00
        E 20 91 23 7f
        E 460 91 23 00
        E 20 91 23 7f
        E 460 91 23 00
        E 20 91 23 7f
        E 460 91 23 00
        E 20 91 23 7f
        E 460 91 23 00
        E 20 91 23 7f
        E 460 91 23 00
        E 20 91 23 7f
        E 460 91 23 00
        E 20 91 23 7f
        E 460 91 23 00
        E 20 91 23 7f
        E 460 91 23 00
        E 20 91 23 7f
        E 460 91 23 00
        E 20 91 23 7f
        E 460 91 23 00
        E 20 91 23 7f
        E 460 91 23 00
        E 20 91 23 7f
        E 460 91 23 00
        E 20 91 23 7f
        E 460 91 23 00
        E 20 91 23 7f
        E 460 91 23 00
        E 20 91 23 7f
        E 460 91 23 00
        E 20 91 23 7f
        E 460 91 23 00
        E 20 91 1f 7f
        E 460 91 1f 00
        E 20 91 1f 7f
        E 460 91 1f 00
        E 20 91 1f 7f
        E 460 91 1f 00
        E 20 91 1f 7f
        E 460 91 1f 00
        E 20 91 1f 7f
        E 460 91 1f 00
        E 20 91 1f 7f
        E 460 91 1f 00
        E 20 91 1f 7f
        E 460 91 1f 00
        E 20 91 1f 7f
        E 460 91 1f 00
        E 20 91 1f 7f
        E 460 91 1f 00
        E 20 91 1f 7f
        E 460 91 1f 00
        E 20 91 1f 7f
        E 460 91 1f 00
        E 20 91 1f 7f
        E 460 91 1f 00
        E 20 91 1f 7f
        E 460 91 1f 00
        E 20 91 1f 7f
        E 460 91 1f 00
        E 20 91 1f 7f
        E 460 91 1f 00
        E 20 91 1f 7f
        E 460 91 1f 00
        E 20 91 1f 7f
        E 460 91 1f 00
        E 20 91 1f 7f
        E 460 91 1f 00
        E 20 91 1f 7f
        E 460 91 1f 00
        E 20 91 1f 7f
        E 460 91 1f 00
        E 20 91 1f 7f
        E 460 91 1f 00
        E 20 91 1f 7f
        E 460 91 1f 00
        E 20 91 1f 7f
        E 460 91 1f 00
        E 20 91 1f 7f
        E 460 91 1f 00
        E 20 91 21 7f
        E 460 91 21 00
        E 20 91 21 7f
        E 460 91 21 00
        E 20 91 21 7f
        E 460 91 21 00
        E 20 91 21 7f
        E 460 91 21 00
        E 20 91 21 7f
        E 460 91 21 00
        E 20 91 21 7f
        E 460 91 21 00
        E 20 91 21 7f
        E 460 91 21 00
        E 20 91 21 7f
        E 460 91 21 00
        e 0 91 3a 7f
        e 1360 91 3a 00
        e 80 91 3c 7f
        e 2380 81 3c 00
        E 20 b0 7b 00
        CCINTERP 32
        CHASE_CC_TAKEOFFS 1
        GUID {C5021DDC-635A-4540-B7EC-5D89B90CEA46}
        IGNTEMPO 0 120 4 4
        SRCCOLOR 142
        VELLANE -1 100 0
        CFGEDITVIEW 73804.8 0.339033 63 12 0 -1 0 0 0 0.5
        KEYSNAP 0
        TRACKSEL 0
        EVTFILTER 0 -1 -1 -1 -1 0 0 0 0 -1 -1 -1 -1 0 -1 0 -1 -1
        CFGEDIT 1 1 0 1 0 0 1 1 1 1 1 0.5 375 204 1920 926 0 0 0 0 0 0 0 0 0 0.5 0 0 1 64
      >
    >
    <ITEM
      POSITION 33.77777777777778
      SNAPOFFS 0
      LENGTH 58.66666666666666
      LOOP 1
      ALLTAKES 0
      FADEIN 1 0 0 1 0 0 0
      FADEOUT 1 0 0 1 0 0 0
      MUTE 0 0
      SEL 0
      IGUID {A17A2F07-4E07-0942-BF95-EDAD5B9E6F41}
      IID 23
      NAME "y ¨ÄñÎöº zfrom ûg½ for 88Pro Comp.ZUN             - th06_05.mid [chan 6]"
      VOLPAN 1 0 1 -1
      SOFFS 36.44444444444446 82
      PLAYRATE 1 1 0 -1 0 0.0025
      CHANMODE 0
      GUID {193F5D25-EA90-784A-BC6B-71574A6A9FA0}
      <SOURCE MIDI
        HASDATA 1 960 QN
        CCINTERP 32
        POOLEDEVTS {E7271B70-1377-024F-AA2A-4C3A6922001B}
        E 3840 b5 78 00
        E 20 b5 79 00
        E 20 b5 7b 00
        E 20 b5 65 00
        E 0 b5 64 00
        E 0 b5 06 0c
        E 20 b5 65 00
        E 0 b5 64 01
        E 0 b5 06 40
        E 20 b5 65 00
        E 0 b5 64 02
        E 0 b5 06 40
        E 20 b5 63 01
        E 0 b5 62 08
        E 0 b5 06 40
        E 20 b5 63 01
        E 0 b5 62 09
        E 0 b5 06 40
        E 20 b5 63 01
        E 0 b5 62 0a
        E 0 b5 06 40
        E 20 b5 63 01
        E 0 b5 62 20
        E 0 b5 06 40
        E 20 b5 63 01
        E 0 b5 62 21
        E 0 b5 06 40
        E 20 b5 63 01
        E 0 b5 62 63
        E 0 b5 06 40
        E 20 b5 63 01
        E 0 b5 62 64
        E 0 b5 06 40
        E 20 b5 63 01
        E 0 b5 62 66
        E 0 b5 06 40
        E 20 b5 07 69
        E 20 b5 0a 40
        E 20 b5 5b 28
        E 20 b5 5d 14
        E 20 b5 00 00
        E 0 b5 20 03
        E 0 c5 19 00
        E 20 b5 0b 7f
        E 74500 95 3e 7f
        E 1840 95 3e 00
        E 80 95 3c 7f
        E 1840 95 3c 00
        E 80 95 3e 7f
        E 1840 95 3e 00
        E 80 95 3c 7f
        E 1840 95 3c 00
        E 80 95 3b 7f
        E 3800 95 3b 00
        E 40 95 3a 7f
        E 1840 95 3a 00
        E 80 95 3c 7f
        E 1840 95 3c 00
        E 80 95 3d 7f
        E 3800 95 3d 00
        E 40 95 3e 7f
        E 1840 95 3e 00
        E 80 95 3c 7f
        E 1840 95 3c 00
        E 80 95 3b 7f
        E 2840 95 3b 00
        E 40 95 3c 7f
        E 940 95 3c 00
        E 20 95 3a 7f
        E 1840 95 3a 00
        E 80 95 3c 7f
        E 1840 95 3c 00
        E 80 95 3e 7f
        E 2840 95 3e 00
        E 40 95 3c 7f
        E 940 95 3c 00
        E 20 95 3e 7f
        E 1840 95 3e 00
        E 80 95 3c 7f
        E 1840 95 3c 00
        E 80 95 3b 7f
        E 3800 95 3b 00
        E 40 95 3a 7f
        E 1840 95 3a 00
        E 80 95 3c 7f
        E 1840 95 3c 00
        E 80 95 3d 7f
        E 3800 95 3d 00
        E 40 95 3e 7f
        E 1840 95 3e 00
        E 80 95 3c 7f
        E 1840 95 3c 00
        E 80 95 3b 7f
        E 2840 95 3b 00
        E 40 95 3c 7f
        E 940 95 3c 00
        E 20 95 3a 7f
        E 1840 95 3a 00
        E 80 95 3c 7f
        E 1840 95 3c 00
        E 80 95 3e 7f
        E 2840 95 3e 00
        E 40 95 3c 7f
        E 940 95 3c 00
        E 20 95 3e 7f
        E 1840 95 3e 00
        E 80 95 3c 7f
        E 1840 95 3c 00
        E 80 95 3b 7f
        E 3800 95 3b 00
        E 40 95 3a 7f
        E 1840 95 3a 00
        E 80 95 3c 7f
        E 1840 95 3c 00
        E 80 95 3d 7f
        E 3800 95 3d 00
        E 40 95 3e 7f
        E 1840 95 3e 00
        E 80 95 3c 7f
        E 1840 95 3c 00
        E 80 95 3b 7f
        E 2840 95 3b 00
        E 40 95 3c 7f
        E 940 95 3c 00
        E 20 95 3a 7f
        E 1840 95 3a 00
        E 80 95 3c 7f
        E 1840 95 3c 00
        E 80 95 3e 7f
        E 2840 95 3e 00
        E 40 95 3c 7f
        E 940 95 3c 00
        E 20 95 3e 7f
        E 1840 95 3e 00
        E 80 95 3c 7f
        E 1840 95 3c 00
        E 80 95 3b 7f
        E 3800 95 3b 00
        E 40 95 3a 7f
        E 1840 95 3a 00
        E 80 95 3c 7f
        E 1840 95 3c 00
        E 80 95 3d 7f
        E 3800 95 3d 00
        E 40 95 3e 7f
        E 1840 95 3e 00
        E 80 95 3c 7f
        E 1840 95 3c 00
        E 80 95 3b 7f
        E 2840 95 3b 00
        E 40 95 3c 7f
        E 940 95 3c 00
        E 20 95 3a 7f
        E 1840 95 3a 00
        E 80 95 3c 7f
        E 1840 95 3c 00
        E 80 95 3e 7f
        E 2840 95 3e 00
        E 40 95 3c 7f
        E 940 95 3c 00
        E 20 b0 7b 00
        CCINTERP 32
        CHASE_CC_TAKEOFFS 1
        GUID {26E3291C-D5B5-7640-86B7-F548524DBD6B}
        IGNTEMPO 0 120 4 4
        SRCCOLOR 131
        VELLANE -1 100 0
        CFGEDITVIEW 184302.731725 0.051151 50 12 0 -1 0 0 0 0.5
        KEYSNAP 0
        TRACKSEL 0
        EVTFILTER 0 -1 -1 -1 -1 0 0 0 0 -1 -1 -1 -1 0 -1 0 -1 -1
        CFGEDIT 1 1 0 1 0 0 1 1 1 1 1 0.5 375 204 1920 926 0 0 0 0 0 0 0 0 0 0.5 0 0 1 64
      >
    >
    <ITEM
      POSITION 92.44444444444444
      SNAPOFFS 0
      LENGTH 5.33333333333333
      LOOP 1
      ALLTAKES 0
      FADEIN 1 0 0 1 0 0 0
      FADEOUT 1 0 0 1 0 0 0
      MUTE 0 0
      SEL 0
      IGUID {D71AF650-C492-6245-9266-DC30B580BFA4}
      IID 30
      NAME "y ¨ÄñÎöº zfrom ûg½ for 88Pro Comp.ZUN             - th06_05.mid [chan 2]"
      VOLPAN 1 0 1 -1
      SOFFS 94.66666666666667 213
      PLAYRATE 1 1 0 -1 0 0.0025
      CHANMODE 0
      GUID {0B09A563-0D65-7D41-B629-20F67F2FF769}
      <SOURCE MIDI
        HASDATA 1 960 QN
        CCINTERP 32
        POOLEDEVTS {5A33DE36-6919-184C-8CBD-6095F2697CA6}
        E 3840 b1 78 00
        E 20 b1 79 00
        E 20 b1 7b 00
        E 20 b1 65 00
        E 0 b1 64 00
        E 0 b1 06 0c
        E 20 b1 65 00
        E 0 b1 64 01
        E 0 b1 06 40
        E 20 b1 65 00
        E 0 b1 64 02
        E 0 b1 06 40
        E 20 b1 63 01
        E 0 b1 62 08
        E 0 b1 06 40
        E 20 b1 63 01
        E 0 b1 62 09
        E 0 b1 06 40
        E 20 b1 63 01
        E 0 b1 62 0a
        E 0 b1 06 40
        E 20 b1 63 01
        E 0 b1 62 20
        E 0 b1 06 40
        E 20 b1 63 01
        E 0 b1 62 21
        E 0 b1 06 40
        E 20 b1 63 01
        E 0 b1 62 63
        E 0 b1 06 40
        E 20 b1 63 01
        E 0 b1 62 64
        E 0 b1 06 40
        E 20 b1 63 01
        E 0 b1 62 66
        E 0 b1 06 40
        E 20 b1 07 5f
        E 20 b1 0a 6e
        E 20 b1 5b 00
        E 20 b1 5d 00
        E 20 b1 00 00
        E 0 b1 20 03
        E 0 c1 24 00
        E 20 b1 0b 7f
        E 7300 e1 00 40
        E 0 91 3e 7f
        E 40 e1 00 3f
        E 20 e1 00 3e
        E 20 e1 00 3d
        E 20 e1 00 3c
        E 20 e1 00 3b
        E 40 e1 00 3a
        E 20 e1 00 39
        E 20 e1 00 38
        E 20 e1 00 37
        E 20 e1 00 36
        E 40 e1 00 35
        E 20 e1 00 34
        E 20 e1 00 33
        E 20 e1 00 32
        E 20 e1 00 31
        E 40 e1 00 30
        E 20 e1 00 2f
        E 20 e1 00 2e
        E 20 e1 00 2d
        E 20 e1 00 2c
        E 40 e1 00 2b
        E 20 e1 00 2a
        E 20 e1 00 29
        E 20 e1 00 28
        E 20 e1 00 27
        E 40 e1 00 26
        E 20 e1 00 25
        E 20 e1 00 24
        E 20 e1 00 23
        E 20 e1 00 22
        E 40 e1 00 21
        E 20 e1 00 20
        E 20 e1 00 1f
        E 20 e1 00 1e
        E 20 e1 00 1d
        E 40 e1 00 1c
        E 20 e1 00 1b
        E 20 e1 00 1a
        E 20 e1 00 19
        E 0 91 3e 00
        E 20 e1 00 40
        E 0 91 3b 7f
        E 460 91 3b 00
        E 20 91 3b 7f
        E 460 91 3b 00
        E 20 91 3b 7f
        E 460 91 3b 00
        E 20 91 3b 7f
        E 460 91 3b 00
        E 20 91 3b 7f
        E 460 91 3b 00
        E 20 91 3b 7f
        E 460 91 3b 00
        E 20 91 3b 7f
        E 460 91 3b 00
        E 20 91 3b 7f
        E 460 91 3b 00
        E 20 91 3b 7f
        E 460 91 3b 00
        E 20 91 3b 7f
        E 460 91 3b 00
        E 20 91 3b 7f
        E 460 91 3b 00
        E 20 91 3b 7f
        E 460 91 3b 00
        E 20 91 3b 7f
        E 460 91 3b 00
        E 20 91 3b 7f
        E 460 91 3b 00
        E 20 91 3b 7f
        E 460 91 3b 00
        E 20 91 3b 7f
        E 460 91 3b 00
        E 20 91 3b 7f
        E 460 91 3b 00
        E 20 91 3b 7f
        E 460 91 3b 00
        E 20 91 3b 7f
        E 460 91 3b 00
        E 20 91 3b 7f
        E 460 91 3b 00
        E 20 91 3b 7f
        E 460 91 3b 00
        E 20 91 3b 7f
        E 460 91 3b 00
        E 20 91 3b 7f
        E 460 91 3b 00
        E 20 91 3b 7f
        E 460 91 3b 00
        E 20 91 3b 7f
        E 460 91 3b 00
        E 20 91 3b 7f
        E 460 91 3b 00
        E 20 91 3b 7f
        E 460 91 3b 00
        E 20 91 3b 7f
        E 460 91 3b 00
        E 20 91 3b 7f
        E 460 91 3b 00
        E 20 91 3b 7f
        E 460 91 3b 00
        E 20 91 3b 7f
        E 460 91 3b 00
        E 20 91 3b 7f
        E 460 91 3b 00
        E 20 91 37 7f
        E 460 91 37 00
        E 20 91 37 7f
        E 460 91 37 00
        E 20 91 37 7f
        E 460 91 37 00
        E 20 91 37 7f
        E 460 91 37 00
        E 20 91 37 7f
        E 460 91 37 00
        E 20 91 37 7f
        E 460 91 37 00
        E 20 91 37 7f
        E 460 91 37 00
        E 20 91 37 7f
        E 460 91 37 00
        E 20 91 37 7f
        E 460 91 37 00
        E 20 91 37 7f
        E 460 91 37 00
        E 20 91 37 7f
        E 460 91 37 00
        E 20 91 37 7f
        E 460 91 37 00
        E 20 91 37 7f
        E 460 91 37 00
        E 20 91 37 7f
        E 460 91 37 00
        E 20 91 37 7f
        E 460 91 37 00
        E 20 91 37 7f
        E 460 91 37 00
        E 20 91 37 7f
        E 460 91 37 00
        E 20 91 37 7f
        E 460 91 37 00
        E 20 91 37 7f
        E 460 91 37 00
        E 20 91 37 7f
        E 460 91 37 00
        E 20 91 37 7f
        E 460 91 37 00
        E 20 91 37 7f
        E 460 91 37 00
        E 20 91 37 7f
        E 460 91 37 00
        E 20 91 37 7f
        E 460 91 37 00
        E 20 91 39 7f
        E 460 91 39 00
        E 20 91 39 7f
        E 460 91 39 00
        E 20 91 39 7f
        E 460 91 39 00
        E 20 91 39 7f
        E 460 91 39 00
        E 20 91 39 7f
        E 460 91 39 00
        E 20 91 39 7f
        E 460 91 39 00
        E 20 91 39 7f
        E 460 91 39 00
        E 20 91 39 7f
        E 460 91 39 00
        E 20 91 3b 7f
        E 460 91 3b 00
        E 20 91 3b 7f
        E 460 91 3b 00
        E 20 91 3b 7f
        E 460 91 3b 00
        E 20 91 3b 7f
        E 460 91 3b 00
        E 20 91 3b 7f
        E 460 91 3b 00
        E 20 91 3b 7f
        E 460 91 3b 00
        E 20 91 3b 7f
        E 460 91 3b 00
        E 20 91 3b 7f
        E 460 91 3b 00
        E 20 91 3b 7f
        E 460 91 3b 00
        E 20 91 3b 7f
        E 460 91 3b 00
        E 20 91 3b 7f
        E 460 91 3b 00
        E 20 91 3b 7f
        E 460 91 3b 00
        E 20 91 3b 7f
        E 460 91 3b 00
        E 20 91 3b 7f
        E 460 91 3b 00
        E 20 91 3b 7f
        E 460 91 3b 00
        E 20 91 3b 7f
        E 460 91 3b 00
        E 20 91 3b 7f
        E 460 91 3b 00
        E 20 91 3b 7f
        E 460 91 3b 00
        E 20 91 3b 7f
        E 460 91 3b 00
        E 20 91 3b 7f
        E 460 91 3b 00
        E 20 91 3b 7f
        E 460 91 3b 00
        E 20 91 3b 7f
        E 460 91 3b 00
        E 20 91 3b 7f
        E 460 91 3b 00
        E 20 91 3b 7f
        E 460 91 3b 00
        E 20 91 3b 7f
        E 460 91 3b 00
        E 20 91 3b 7f
        E 460 91 3b 00
        E 20 91 3b 7f
        E 460 91 3b 00
        E 20 91 3b 7f
        E 460 91 3b 00
        E 20 91 3b 7f
        E 460 91 3b 00
        E 20 91 3b 7f
        E 460 91 3b 00
        E 20 91 3b 7f
        E 460 91 3b 00
        E 20 91 3b 7f
        E 460 91 3b 00
        E 20 91 37 7f
        E 460 91 37 00
        E 20 91 37 7f
        E 460 91 37 00
        E 20 91 37 7f
        E 460 91 37 00
        E 20 91 37 7f
        E 460 91 37 00
        E 20 91 37 7f
        E 460 91 37 00
        E 20 91 37 7f
        E 460 91 37 00
        E 20 91 37 7f
        E 460 91 37 00
        E 20 91 37 7f
        E 460 91 37 00
        E 20 91 37 7f
        E 460 91 37 00
        E 20 91 37 7f
        E 460 91 37 00
        E 20 91 37 7f
        E 460 91 37 00
        E 20 91 37 7f
        E 460 91 37 00
        E 20 91 37 7f
        E 460 91 37 00
        E 20 91 37 7f
        E 460 91 37 00
        E 20 91 37 7f
        E 460 91 37 00
        E 20 91 37 7f
        E 460 91 37 00
        E 20 91 37 7f
        E 460 91 37 00
        E 20 91 37 7f
        E 460 91 37 00
        E 20 91 37 7f
        E 460 91 37 00
        E 20 91 37 7f
        E 460 91 37 00
        E 20 91 37 7f
        E 460 91 37 00
        E 20 91 37 7f
        E 460 91 37 00
        E 20 91 37 7f
        E 460 91 37 00
        E 20 91 37 7f
        E 460 91 37 00
        E 20 91 39 7f
        E 460 91 39 00
        E 20 91 39 7f
        E 460 91 39 00
        E 20 91 39 7f
        E 460 91 39 00
        E 20 91 39 7f
        E 460 91 39 00
        E 20 91 39 7f
        E 460 91 39 00
        E 20 91 39 7f
        E 460 91 39 00
        E 20 91 39 7f
        E 460 91 39 00
        E 20 91 39 7f
        E 460 91 39 00
        E 20 91 3a 7f
        E 0 91 41 7f
        E 1360 91 3a 00
        E 0 91 41 00
        E 80 91 3c 7f
        E 0 91 43 7f
        E 2400 91 3c 00
        E 0 91 43 00
        E 64320 e1 00 40
        E 0 91 3e 7f
        E 40 e1 00 3f
        E 20 e1 00 3e
        E 40 e1 00 3d
        E 20 e1 00 3c
        E 40 e1 00 3b
        E 20 e1 00 3a
        E 40 e1 00 39
        E 20 e1 00 38
        E 40 e1 00 37
        E 20 e1 00 36
        E 40 e1 00 35
        E 20 e1 00 34
        E 40 e1 00 33
        E 20 e1 00 32
        E 40 e1 00 31
        E 20 e1 00 30
        E 40 e1 00 2f
        E 20 e1 00 2e
        E 40 e1 00 2d
        E 20 e1 00 2c
        E 40 e1 00 2b
        E 20 e1 00 2a
        E 40 e1 00 29
        E 20 e1 00 28
        E 40 e1 00 27
        E 20 e1 00 26
        E 40 e1 00 25
        E 20 e1 00 24
        E 40 e1 00 23
        E 20 e1 00 22
        E 40 e1 00 21
        E 0 91 3e 00
        E 20 e1 00 40
        E 0 91 3e 7f
        E 1840 91 3e 00
        E 80 91 3c 7f
        E 1840 91 3c 00
        E 80 91 3b 7f
        E 3800 91 3b 00
        E 40 91 3a 7f
        E 1840 91 3a 00
        E 80 91 3c 7f
        E 1840 91 3c 00
        E 80 91 3d 7f
        E 3800 91 3d 00
        E 40 91 3e 7f
        E 1840 91 3e 00
        E 80 91 3c 7f
        E 1840 91 3c 00
        E 80 91 3b 7f
        E 2840 91 3b 00
        E 40 91 3c 7f
        E 940 91 3c 00
        E 20 91 3a 7f
        E 1840 91 3a 00
        E 80 91 3c 7f
        E 1840 91 3c 00
        E 80 91 3e 7f
        E 2840 91 3e 00
        E 40 e1 00 40
        E 0 91 39 7f
        E 40 e1 00 3f
        E 20 e1 00 3e
        E 40 e1 00 3d
        E 20 e1 00 3c
        E 40 e1 00 3b
        E 20 e1 00 3a
        E 40 e1 00 39
        E 20 e1 00 38
        E 40 e1 00 37
        E 20 e1 00 36
        E 40 e1 00 35
        E 20 e1 00 34
        E 40 e1 00 33
        E 20 e1 00 32
        E 40 e1 00 31
        E 20 e1 00 30
        E 40 e1 00 2f
        E 20 e1 00 2e
        E 40 e1 00 2d
        E 20 e1 00 2c
        E 40 e1 00 2b
        E 20 e1 00 2a
        E 40 e1 00 29
        E 20 e1 00 28
        E 40 e1 00 27
        E 20 e1 00 26
        E 40 e1 00 25
        E 20 e1 00 24
        E 40 e1 00 23
        E 20 e1 00 22
        E 40 e1 00 21
        E 0 91 39 00
        E 20 e1 00 40
        E 0 91 3e 7f
        E 1840 91 3e 00
        E 80 91 3c 7f
        E 1840 91 3c 00
        E 80 91 3b 7f
        E 3800 91 3b 00
        E 40 91 3a 7f
        E 1840 91 3a 00
        E 80 91 3c 7f
        E 1840 91 3c 00
        E 80 91 3d 7f
        E 3800 91 3d 00
        E 40 91 3e 7f
        E 1840 91 3e 00
        E 80 91 3c 7f
        E 1840 91 3c 00
        E 80 91 3b 7f
        E 2840 91 3b 00
        E 40 91 3c 7f
        E 940 91 3c 00
        E 20 91 3a 7f
        E 1840 91 3a 00
        E 80 91 3c 7f
        E 1840 91 3c 00
        E 80 91 3e 7f
        E 2840 91 3e 00
        E 40 e1 00 40
        E 0 91 39 7f
        E 40 e1 00 3f
        E 20 e1 00 3e
        E 40 e1 00 3d
        E 20 e1 00 3c
        E 40 e1 00 3b
        E 20 e1 00 3a
        E 40 e1 00 39
        E 20 e1 00 38
        E 40 e1 00 37
        E 20 e1 00 36
        E 40 e1 00 35
        E 20 e1 00 34
        E 40 e1 00 33
        E 20 e1 00 32
        E 40 e1 00 31
        E 20 e1 00 30
        E 40 e1 00 2f
        E 20 e1 00 2e
        E 40 e1 00 2d
        E 20 e1 00 2c
        E 40 e1 00 2b
        E 20 e1 00 2a
        E 40 e1 00 29
        E 20 e1 00 28
        E 40 e1 00 27
        E 20 e1 00 26
        E 40 e1 00 25
        E 20 e1 00 24
        E 40 e1 00 23
        E 20 e1 00 22
        E 40 e1 00 21
        E 0 91 39 00
        E 20 e1 00 40
        E 0 91 3a 7f
        E 1840 91 3a 00
        E 80 91 3c 7f
        E 1840 91 3c 00
        e 80 91 3e 7f
        e 2840 91 3e 00
        E 40 e1 00 40
        E 0 91 39 7f
        E 40 e1 00 3f
        E 20 e1 00 3e
        E 40 e1 00 3d
        E 20 e1 00 3c
        E 40 e1 00 3b
        E 20 e1 00 3a
        E 40 e1 00 39
        E 20 e1 00 38
        E 40 e1 00 37
        E 20 e1 00 36
        E 40 e1 00 35
        E 20 e1 00 34
        E 40 e1 00 33
        E 20 e1 00 32
        E 40 e1 00 31
        E 20 e1 00 30
        E 40 e1 00 2f
        E 20 e1 00 2e
        E 40 e1 00 2d
        E 20 e1 00 2c
        E 40 e1 00 2b
        E 20 e1 00 2a
        E 40 e1 00 29
        E 20 e1 00 28
        E 40 e1 00 27
        E 20 e1 00 26
        E 40 e1 00 25
        E 20 e1 00 24
        E 40 e1 00 23
        E 20 e1 00 22
        E 40 e1 00 21
        E 0 91 39 00
        E 20 e1 00 40
        E 0 91 3a 7f
        E 1840 91 3a 00
        E 80 91 3c 7f
        E 1840 91 3c 00
        E 80 b0 7b 00
        CCINTERP 32
        CHASE_CC_TAKEOFFS 1
        GUID {A38206EF-2AE6-F540-8F7F-7826606E6C8A}
        IGNTEMPO 0 120 4 4
        SRCCOLOR 138
        VELLANE -1 100 0
        CFGEDITVIEW 203992.8 0.080165 63 12 0 -1 0 0 0 0.5
        KEYSNAP 0
        TRACKSEL 0
        EVTFILTER 0 -1 -1 -1 -1 0 0 0 0 -1 -1 -1 -1 0 -1 0 -1 -1
        CFGEDIT 1 1 0 1 0 0 1 1 1 1 1 0.5 375 204 1920 926 0 0 0 0 0 0 0 0 0 0.5 0 0 1 64
      >
    >
  >
  <TRACK {F23ECC66-1996-A444-A3CE-70D557ECDE8A}
    NAME "y ¨ÄñÎöº zfrom ûg½ for 88Pro Comp.ZUN             - th06_05.mid [chan 3] [chan 3]"
    PEAKCOL 16576
    BEAT -1
    AUTOMODE 0
    VOLPAN 1 0 -1 -1 1
    MUTESOLO 0 0 0
    IPHASE 0
    PLAYOFFS 0 1
    ISBUS 0 0
    BUSCOMP 0 0 0 0 0
    SHOWINMIX 1 0.6667 0.5 1 0.5 -1 -1 -1
    FREEMODE 0
    SEL 0
    REC 0 0 1 0 0 0 0
    VU 2
    TRACKHEIGHT 0 0 0 0 0 0
    INQ 0 0 0 0.5 100 0 0 100
    NCHAN 2
    FX 1
    TRACKID {F23ECC66-1996-A444-A3CE-70D557ECDE8A}
    PERF 0
    MIDIOUT -1
    MAINSEND 1 0
    <FXCHAIN
      WNDRECT 32 442 1013 581
      SHOW 0
      LASTSEL 0
      DOCKED 0
      BYPASS 0 0 0
      <AU "AUi: sforzando (Plogue Art et Technologie)" "Plogue Art et Technologie: sforzando" "" 1635085685 1347176273 1347178311
        6QMAAAAAAAAAAAAAAgAAAAEAAAAAAAAAAgAAAAAAAAB/GgAAPD94bWwgdmVyc2lvbj0iMS4wIiBlbmNvZGluZz0iVVRGLTgiPz4KPCFET0NUWVBFIHBsaXN0IFBVQkxJ
        QyAiLS8vQXBwbGUvL0RURCBQTElTVCAxLjAvL0VOIiAiaHR0cDovL3d3dy5hcHBsZS5jb20vRFREcy9Qcm9wZXJ0eUxpc3QtMS4wLmR0ZCI+CjxwbGlzdCB2ZXJzaW9u
        PSIxLjAiPgo8ZGljdD4KCTxrZXk+QXJpYURhdGE8L2tleT4KCTxkYXRhPgoJUTBWSFVQb0VBQUI0bklWVVRXL2lNQkM5OHlzczN5RTJoTEJJQ1JWdDZTb0h0cFZvejlI
        RUdCclZzV25pUk8yLzMwbEMKCUlLcUtqQlJwL09iTjEwTXo0ZDFYcmtndGl6SXpPcUo4d2lpNVc0M0NkWkhCRG1vNWNDMkRKU1dud3V3clllTkhCQmozCgk2V3BFOEJm
        dXBMV1pQcGJrc3dLVjJXLzBVbExhUWtLT2NFUm5VMHB5K05xMXlGb3BJN2IzRVoxemhMZnhZL3hjMmEzWgoJeXpZS0ttdHlzRmh6cDR5TktCdENTdFpTUlRUVG1Mdktw
        YmFVcUt5V1hUQXlTeEhSYWJCb0RGQ0FFQ2RqSXB1bUpxVlEKCVovZ0I0MlFSMFFBRGpzcWtvRjRyM2JhSmdOZFBoTVZKdG04eERUbW1MdzlUN3duc3Zma2UxeXhaTEZu
        U0lJd3gvT2JKCgladklTci84OUp6aFJDdm9qeGtnZmZmUXFJTnJpSGJSdUJoampvQ2VqVUtmQXA4UmV5NS9TcEFCOWxHZUt4VWZaT3ZLQgoJYVlURnYyWXdjSUJnWlZ1
        a2E3OGRZUXVaN2tlb1FWV2R2dDV2REg1aHNCdU1xWk14Y3pKOEoyUHVaQVJPeHNMSitPTmsKCUxKME16dHdVdDZyY0xTdDM2OHJkd3ZLYnlyNUFBZmtQNGZndENwL3hY
        MGloMTJ6TDJkNGNEbExZNGZwY2xyTGJvM1dlCglabElMZVYyVTlwSU1MNDNmWFJweDJldSswTiszdU04S3d1TG14OWNqMGI0M2wzY3BGZlloOTYrUWRzdUVPVUt2djJ1
        cgoJMFg5UG9WTnMKCTwvZGF0YT4KCTxrZXk+ZGF0YTwva2V5PgoJPGRhdGE+CglBQUFBQUFBQUFBQUFBQUlBQUFBQUFBQUFBQUFBQUFBQkFBQUFBQUFBQUFJQUFBQUFB
        QUFBQXdBQUFBQUFBQUFFQUFBQQoJQUFBQUFBVUFBQUFBQUFBQUJnQUFBQUFBQUFBSEFBQUFBQUFBQUFnQUFBQUFBQUFBQ1FBQUFBQUFBQUFLQUFBQUFBQUEKCUFBc0FB
        QUFBQUFBQURBQUFBQUFBQUFBTkFBQUFBQUFBQUE0QUFBQUFBQUFBRHdBQUFBQUFBQUFRQUFBQUFBQUFBQkVBCglBQUFBQUFBQUVnQUFBQUFBQUFBVEFBQUFBQUFBQUJR
        QUFBQUFBQUFBRlFBQUFBQUFBQUFXQUFBQUFBQUFBQmNBQUFBQQoJQUFBQUdBQUFBQUFBQUFBWkFBQUFBQUFBQUJvQUFBQUFBQUFBR3dBQUFBQUFBQUFjQUFBQUFBQUFB
        QjBBQUFBQUFBQUEKCUhnQUFBQUFBQUFBZkFBQUFBQUFBQUNBQUFBQUFBQUFBSVFBQUFBQUFBQUFpQUFBQUFBQUFBQ01BQUFBQUFBQUFKQUFBCglBQUFBQUFBbEFBQUFB
        QUFBQUNZQUFBQUFBQUFBSndBQUFBQUFBQUFvQUFBQUFBQUFBQ2tBQUFBQUFBQUFLZ0FBQUFBQQoJQUFBckFBQUFBQUFBQUN3QUFBQUFBQUFBTFFBQUFBQUFBQUF1QUFB
        QUFBQUFBQzhBQUFBQUFBQUFNQUFBQUFBQUFBQXgKCUFBQUFBQUFBQURJQUFBQUFBQUFBTXdBQUFBQUFBQUEwQUFBQUFBQUFBRFVBQUFBQUFBQUFOZ0FBQUFBQUFBQTNB
        QUFBCglBQUFBQURnQUFBQUFBQUFBT1FBQUFBQUFBQUE2QUFBQUFBQUFBRHNBQUFBQUFBQUFQQUFBQUFBQUFBQTlBQUFBQUFBQQoJQUQ0QUFBQUFBQUFBUHdBQUFBQUFB
        QUJBQUFBQUFBQUFBRUVBQUFBQUFBQUFRZ0FBQUFBQUFBQkRBQUFBQUFBQUFFUUEKCUFBQUFBQUFBUlFBQUFBQUFBQUJHQUFBQUFBQUFBRWNBQUFBQUFBQUFTQUFBQUFB
        QUFBQkpBQUFBQUFBQUFFb0FBQUFBCglBQUFBU3dBQUFBQUFBQUJNQUFBQUFBQUFBRTBBQUFBQUFBQUFUZ0FBQUFBQUFBQlBBQUFBQUFBQUFGQUFBQUFBQUFBQQoJVVFB
        QUFBQUFBQUJTQUFBQUFBQUFBRk1BQUFBQUFBQUFWQUFBQUFBQUFBQlZBQUFBQUFBQUFGWUFBQUFBQUFBQVZ3QUEKCUFBQUFBQUJZQUFBQUFBQUFBRmtBQUFBQUFBQUFX
        Z0FBQUFBQUFBQmJBQUFBQUFBQUFGd0FBQUFBQUFBQVhRQUFBQUFBCglBQUJlQUFBQUFBQUFBRjhBQUFBQUFBQUFZQUFBQUFBQUFBQmhBQUFBQUFBQUFHSUFBQUFBQUFB
        QVl3QUFBQUFBQUFCawoJQUFBQUFBQUFBR1VBQUFBQUFBQUFaZ0FBQUFBQUFBQm5BQUFBQUFBQUFHZ0FBQUFBQUFBQWFRQUFBQUFBQUFCcUFBQUEKCUFBQUFBR3NBQUFB
        QUFBQUFiQUFBQUFBQUFBQnRBQUFBQUFBQUFHNEFBQUFBQUFBQWJ3QUFBQUFBQUFCd0FBQUFBQUFBCglBSEVBQUFBQUFBQUFjZ0FBQUFBQUFBQnpBQUFBQUFBQUFIUUFB
        QUFBQUFBQWRRQUFBQUFBQUFCMkFBQUFBQUFBQUhjQQoJQUFBQUFBQUFlQUFBQUFBQUFBQjVBQUFBQUFBQUFIb0FBQUFBQUFBQWV3QUFBQUFBQUFCOEFBQUFBQUFBQUgw
        QUFBQUEKCUFBQUFmZ0FBQUFBQUFBQi9BQUFBQUFBQUFJQUFBQUFBQUFBQWdRQUFBQUFBQUFDQ0FBQUFBQUFBQUlNQUFBQUFBQUFBCgloQUFBQUFBQUFBQ0ZBQUFBQUFB
        QUFJWUFBQUFBQUFBQWh3QUFBQUFBQUFDSUFBQUFBQUFBQUlrQUFBQUFBQUFBaWdBQQoJQUFBQUFBQ0xBQUFBQUFBQUFJd0FBQUFBQUFBQWpRQUFBQUFBQUFDT0FBQUFB
        QUFBQUk4QUFBQUFBQUFBa0FBQUFBQUEKCUFBQ1JBQUFBQUFBQUFKSUFBQUFBQUFBQWt3QUFBQUFBQUFDVUFBQUFBQUFBQUpVQUFBQUFBQUFBbGdBQUFBQUFBQUNYCglB
        QUFBQUFBQUFKZ0FBQUFBQUFBQW1RQUFBQUFBQUFDYUFBQUFBQUFBQUpzQUFBQUFBQUFBbkFBQUFBQUFBQUNkQUFBQQoJQUFBQUFKNEFBQUFBQUFBQW53QUFBQUFBQUFD
        Z0FBQUFBQUFBQUtFQUFBQUFBQUFBb2dBQUFBQUFBQUNqQUFBQUFBQUEKCUFLUUFBQUFBQUFBQXBRQUFBQUFBQUFDbUFBQUFBQUFBQUtjQUFBQUFBQUFBcUFBQUFBQUFB
        QUNwQUFBQUFBQUFBS29BCglBQUFBQUFBQXF3QUFBQUFBQUFDc0FBQUFBQUFBQUswQUFBQUFBQUFBcmdBQUFBQUFBQUN2QUFBQUFBQUFBTEFBQUFBQQoJQUFBQXNRQUFB
        QUFBQUFDeUFBQUFBQUFBQUxNQUFBQUFBQUFBdEFBQUFBQUFBQUMxQUFBQUFBQUFBTFlBQUFBQUFBQUEKCXR3QUFBQUFBQUFDNEFBQUFBQUFBQUxrQUFBQUFBQUFBdWdB
        QUFBQUFBQUM3QUFBQUFBQUFBTHdBQUFBQUFBQUF2UUFBCglBQUFBQUFDK0FBQUFBQUFBQUw4QUFBQUFBQUFBd0FBQUFBQUFBQURCQUFBQUFBQUFBTUlBQUFBQUFBQUF3
        d0FBQUFBQQoJQUFERUFBQUFBQUFBQU1VQUFBQUFBQUFBeGdBQUFBQUFBQURIQUFBQUFBQUFBTWdBQUFBQUFBQUF5UUFBQUFBQUFBREsKCUFBQUFBQUFBQU1zQUFBQUFB
        QUFBekFBQUFBQUFBQUROQUFBQUFBQUFBTTRBQUFBQUFBQUF6d0FBQUFBQUFBRFFBQUFBCglBQUFBQU5FQUFBQUFBQUFBMGdBQUFBQUFBQURUQUFBQUFBQUFBTlFBQUFB
        QUFBQUExUUFBQUFBQUFBRFdBQUFBQUFBQQoJQU5jQUFBQUFBQUFBMkFBQUFBQUFBQURaQUFBQUFBQUFBTm9BQUFBQUFBQUEyd0FBQUFBQUFBRGNBQUFBQUFBQUFOMEEK
        CUFBQUFBQUFBM2dBQUFBQUFBQURmQUFBQUFBQUFBT0FBQUFBQUFBQUE0UUFBQUFBQUFBRGlBQUFBQUFBQUFPTUFBQUFBCglBQUFBNUFBQUFBQUFBQURsQUFBQUFBQUFB
        T1lBQUFBQUFBQUE1d0FBQUFBQUFBRG9BQUFBQUFBQUFPa0FBQUFBQUFBQQoJNmdBQUFBQUFBQURyQUFBQUFBQUFBT3dBQUFBQUFBQUE3UUFBQUFBQUFBRHVBQUFBQUFB
        QUFPOEFBQUFBQUFBQThBQUEKCUFBQUFBQUR4QUFBQUFBQUFBUElBQUFBQUFBQUE4d0FBQUFBQUFBRDBBQUFBQUFBQUFQVUFBQUFBQUFBQTlnQUFBQUFBCglBQUQzQUFB
        QUFBQUFBUGdBQUFBQUFBQUErUUFBQUFBQUFBRDZBQUFBQUFBQUFQc0FBQUFBQUFBQS9BQUFBQUFBQUFEOQoJQUFBQUFBQUFBUDRBQUFBQUFBQUEvd0FBQUFBQUFBRUFB
        QUFBQUFBQUFRRUFBQUFBQUFBQkFnQUFBQUFBQUFFREFBQUEKCUFBQUFBUVFBQUFBQUFBQUJCUUFBQUFBQUFBRUdBQUFBQUFBQUFRY0FBQUFBQUFBQkNBQUFBQUFBQUFF
        SkFBQUFBQUFBCglBUW9BQUFBQUFBQUJDd0FBQUFBQUFBRU1BQUFBQUFBQUFRMEFBQUFBQUFBQkRnQUFBQUFBQUFFUEFBQUFBQUFBQVJBQQoJQUFBQUFBQUJFUUFBQUFB
        QUFBRVNBQUFBQUFBQUFSTUFBQUFBQUFBQkZBQUFBQUFBQUFFVkFBQUFBQUFBQVJZQUFBQUEKCUFBQUJGd0FBQUFBQUFBRVlBQUFBQUFBQUFSa0FBQUFBQUFBQkdnQUFB
        QUFBQUFFYkFBQUFBQUFBQVJ3QUFBQUFBQUFCCglIUUFBQUFBQUFBRWVBQUFBQUFBQUFSOEFBQUFBQUFBQklBQUFBQUFBQUFFaEFBQUFBQUFBQVNJQUFBQUFBQUFCSXdB
        QQoJQUFBQUFBRWtBQUFBQUFBQUFTVUFBQUFBQUFBQkpnQUFBQUFBQUFFbkFBQUFBQUFBQVNnQUFBQUFBQUFCS1FBQUFBQUEKCUFBRXFBQUFBQUFBQUFTc0FBQUFBQUFB
        QkxBQUFBQUFBQUFFdEFBQUFBQUFBQVM0QUFBQUFBQUFCTHdBQUFBQUFBQUV3CglBQUFBQUFBQUFURUFBQUFBQUFBQk1nQUFBQUFBQUFFekFBQUFBQUFBQVRRQUFBQUFB
        QUFCTlFBQUFBQUFBQUUyQUFBQQoJQUFBQUFUY0FBQUFBQUFBQk9BQUFBQUFBQUFFNUFBQUFBQUFBQVRvQUFBQUFBQUFCT3dBQUFBQUFBQUU4QUFBQUFBQUEKCUFUMEFB
        QUFBQUFBQlBnQUFBQUFBQUFFL0FBQUFBQUFBQVVBQUFBQUFBQUFCUVFBQUFBQUFBQUZDQUFBQUFBQUFBVU1BCglBQUFBQUFBQlJBQUFBQUFBQUFGRkFBQUFBQUFBQVVZ
        QUFBQUFBQUFCUndBQUFBQUFBQUZJQUFBQUFBQUFBVWtBQUFBQQoJQUFBQlNnQUFBQUFBQUFGTEFBQUFBQUFBQVV3QUFBQUFBQUFCVFFBQUFBQUFBQUZPQUFBQUFBQUFB
        VThBQUFBQUFBQUIKCVVBQUFBQUFBQUFGUkFBQUFBQUFBQVZJQUFBQUFBQUFCVXdBQUFBQUFBQUZVQUFBQUFBQUFBVlVBQUFBQUFBQUJWZ0FBCglBQUFBQUFGWEFBQUFB
        QUFBQVZnQUFBQUFBQUFCV1FBQUFBQUFBQUZhQUFBQUFBQUFBVnNBQUFBQUFBQUJYQUFBQUFBQQoJQUFGZEFBQUFBQUFBQVY0QUFBQUFBQUFCWHdBQUFBQUFBQUZnQUFB
        QUFBQUFBV0VBQUFBQUFBQUJZZ0FBQUFBQUFBRmoKCUFBQUFBQUFBQVdRQUFBQUFBQUFCWlFBQUFBQUFBQUZtQUFBQUFBQUFBV2NBQUFBQUFBQUJhQUFBQUFBQUFBRnBB
        QUFBCglBQUFBQVdvQUFBQUFBQUFCYXdBQUFBQUFBQUZzQUFBQUFBQUFBVzBBQUFBQUFBQUJiZ0FBQUFBQUFBRnZBQUFBQUFBQQoJQVhBQUFBQUFBQUFCY1FBQUFBQUFB
        QUZ5QUFBQUFBQUFBWE1BQUFBQUFBQUJkQUFBQUFBQUFBRjFBQUFBQUFBQUFYWUEKCUFBQUFBQUFCZHdBQUFBQUFBQUY0QUFBQUFBQUFBWGtBQUFBQUFBQUJlZ0FBQUFB
        QUFBRjdBQUFBQUFBQUFYd0FBQUFBCglBQUFCZlFBQUFBQUFBQUYrQUFBQUFBQUFBWDhBQUFBQUFBQUJnQUFBQUFBQUFBR0JBQUFBQUFBQUFZSUFBQUFBQUFBQgoJZ3dB
        QUFBQUFBQUdFQUFBQUFBQUFBWVVBQUFBQUFBQUJoZ0FBQUFBQUFBR0hBQUFBQUFBQUFZZ0FBQUFBQUFBQmlRQUEKCUFBQUFBQUdLQUFBQUFBQUFBWXNBQUFBQUFBQUJq
        QUFBQUFBQUFBR05BQUFBQUFBQUFZNEFBQUFBQUFBQmp3QUFBQUFBCglBQUdRQUFBQUFBQUFBWkVBQUFBQUFBQUJrZ0FBQUFBQUFBR1RBQUFBQUFBQUFaUUFBQUFBQUFB
        QmxRQUFBQUFBQUFHVwoJQUFBQUFBQUFBWmNBQUFBQUFBQUJtQUFBQUFBQUFBR1pBQUFBQUFBQUFab0FBQUFBQUFBQm13QUFBQUFBQUFHY0FBQUEKCUFBQUFBWjBBQUFB
        QUFBQUJuZ0FBQUFBQUFBR2ZBQUFBQUFBQUFhQUFBQUFBQUFBQm9RQUFBQUFBQUFHaUFBQUFBQUFBCglBYU1BQUFBQUFBQUJwQUFBQUFBQUFBR2xBQUFBQUFBQUFhWUFB
        QUFBQUFBQnB3QUFBQUFBQUFHb0FBQUFBQUFBQWFrQQoJQUFBQUFBQUJxZ0FBQUFBQUFBR3JBQUFBQUFBQUFhd0FBQUFBQUFBQnJRQUFBQUFBQUFHdUFBQUFBQUFBQWE4
        QUFBQUEKCUFBQUJzQUFBQUFBQUFBR3hBQUFBQUFBQUFiSUFBQUFBQUFBQnN3QUFBQUFBQUFHMEFBQUFBQUFBQWJVQUFBQUFBQUFCCgl0Z0FBQUFBQUFBRzNBQUFBQUFB
        QUFiZ0FBQUFBQUFBQnVRQUFBQUFBQUFHNkFBQUFBQUFBQWJzQUFBQUFBQUFCdkFBQQoJQUFBQUFBRzlBQUFBQUFBQUFiNEFBQUFBQUFBQnZ3QUFBQUFBQUFIQUFBQUFB
        QUFBQWNFQUFBQUFBQUFCd2dBQUFBQUEKCUFBSERBQUFBQUFBQUFjUUFBQUFBQUFBQnhRQUFBQUFBQUFIR0FBQUFBQUFBQWNjQUFBQUFBQUFCeUFBQUFBQUFBQUhKCglB
        QUFBQUFBQUFjb0FBQUFBQUFBQnl3QUFBQUFBQUFITUFBQUFBQUFBQWMwQUFBQUFBQUFCemdBQUFBQUFBQUhQQUFBQQoJQUFBQUFkQUFBQUFBQUFBQjBRQUFBQUFBQUFI
        U0FBQUFBQUFBQWRNQUFBQUFBQUFCMUFBQUFBQUFBQUhWQUFBQUFBQUEKCUFkWUFBQUFBQUFBQjF3QUFBQUFBQUFIWUFBQUFBQUFBQWRrQUFBQUFBQUFCMmdBQUFBQUFB
        QUhiQUFBQUFBQUFBZHdBCglBQUFBQUFBQjNRQUFBQUFBQUFIZUFBQUFBQUFBQWQ4QUFBQUFBQUFCNEFBQUFBQUFBQUhoQUFBQUFBQUFBZUlBQUFBQQoJQUFBQjR3QUFB
        QUFBQUFIa0FBQUFBQUFBQWVVQUFBQUFBQUFCNWdBQUFBQUFBQUhuQUFBQUFBQUFBZWdBQUFBQUFBQUIKCTZRQUFBQUFBQUFIcUFBQUFBQUFBQWVzQUFBQUFBQUFCN0FB
        QUFBQUFBQUh0QUFBQUFBQUFBZTRBQUFBQUFBQUI3d0FBCglBQUFBQUFId0FBQUFBQUFBQWZFQUFBQUFBQUFCOGdBQUFBQUFBQUh6QUFBQUFBQUFBZlFBQUFBQUFBQUI5
        UUFBQUFBQQoJQUFIMkFBQUFBQUFBQWZjQUFBQUFBQUFCK0FBQUFBQUFBQUg1QUFBQUFBQUFBZm9BQUFBQUFBQUIrd0FBQUFBQUFBSDgKCUFBQUFBQUFBQWYwQUFBQUFB
        QUFCL2dBQUFBQUFBQUgvQUFBQUFBPT0KCTwvZGF0YT4KCTxrZXk+bWFudWZhY3R1cmVyPC9rZXk+Cgk8aW50ZWdlcj4xMzQ3MTc4MzExPC9pbnRlZ2VyPgoJPGtleT5u
        YW1lPC9rZXk+Cgk8c3RyaW5nPlVudGl0bGVkPC9zdHJpbmc+Cgk8a2V5PnN1YnR5cGU8L2tleT4KCTxpbnRlZ2VyPjEzNDcxNzYyNzM8L2ludGVnZXI+Cgk8a2V5PnR5
        cGU8L2tleT4KCTxpbnRlZ2VyPjE2MzUwODU2ODU8L2ludGVnZXI+Cgk8a2V5PnZlcnNpb248L2tleT4KCTxpbnRlZ2VyPjA8L2ludGVnZXI+CjwvZGljdD4KPC9wbGlz
        dD4KBAAAAGFzcwAAAAAAAA==
      >
      PRESETNAME ass
      FLOATPOS 0 0 0 0
      FXID {15CA6A64-BF64-8D44-A60D-1D62FA530F01}
      WAK 0 0
    >
    <ITEM
      POSITION 0
      SNAPOFFS 0
      LENGTH 34.66666666666666
      LOOP 1
      ALLTAKES 0
      FADEIN 1 0 0 1 0 0 0
      FADEOUT 1 0 0 1 0 0 0
      MUTE 0 0
      SEL 0
      IGUID {B9CC2859-E417-D549-9395-F686852AD2DF}
      IID 28
      NAME "y ¨ÄñÎöº zfrom ûg½ for 88Pro Comp.ZUN             - th06_05.mid [chan 3]"
      VOLPAN 1 0 1 -1
      SOFFS 2.22222222222222 5
      PLAYRATE 1 1 0 -1 0 0.0025
      CHANMODE 0
      GUID {5F01E2B8-78F9-264D-B619-B5414A3FF661}
      <SOURCE MIDI
        HASDATA 1 960 QN
        CCINTERP 32
        POOLEDEVTS {26BDE26B-EC5D-A64D-AD1C-EE6E276DB42F}
        E 3840 b2 78 00
        E 20 b2 79 00
        E 20 b2 7b 00
        E 20 b2 65 00
        E 0 b2 64 00
        E 0 b2 06 0c
        E 20 b2 65 00
        E 0 b2 64 01
        E 0 b2 06 40
        E 20 b2 65 00
        E 0 b2 64 02
        E 0 b2 06 40
        E 20 b2 63 01
        E 0 b2 62 08
        E 0 b2 06 3c
        E 20 b2 63 01
        E 0 b2 62 09
        E 0 b2 06 5a
        E 20 b2 63 01
        E 0 b2 62 0a
        E 0 b2 06 40
        E 20 b2 63 01
        E 0 b2 62 20
        E 0 b2 06 4b
        E 20 b2 63 01
        E 0 b2 62 21
        E 0 b2 06 40
        E 20 b2 63 01
        E 0 b2 62 63
        E 0 b2 06 40
        E 20 b2 63 01
        E 0 b2 62 64
        E 0 b2 06 40
        E 20 b2 63 01
        E 0 b2 62 66
        E 0 b2 06 40
        E 20 b2 07 6e
        E 20 b2 0a 42
        E 20 b2 5b 3c
        E 20 b2 5d 0f
        E 20 b2 00 00
        E 0 b2 20 03
        E 0 c2 05 00
        E 20 b2 0b 7d
        E 7320 92 42 7f
        E 460 92 42 00
        E 20 92 42 7f
        E 460 92 42 00
        E 20 92 47 7f
        E 700 92 47 00
        E 20 92 45 7f
        E 700 92 45 00
        E 20 92 47 7f
        E 460 92 47 00
        E 20 92 4a 7f
        E 1840 92 4a 00
        E 80 92 47 7f
        E 460 92 47 00
        E 20 92 45 7f
        E 460 92 45 00
        E 20 92 47 7f
        E 460 92 47 00
        E 20 92 4a 7f
        E 940 92 4a 00
        E 20 92 4c 7f
        E 460 92 4c 00
        E 60 92 47 7f
        E 440 92 45 7f
        E 20 92 47 00
        E 440 92 45 00
        E 20 92 47 7f
        E 460 92 47 00
        E 20 92 45 7f
        E 460 92 45 00
        E 20 92 47 7f
        E 460 92 47 00
        E 20 92 4a 7f
        E 2400 92 4a 00
        E 0 92 47 7f
        E 460 92 47 00
        E 20 92 45 7f
        E 460 92 45 00
        E 20 92 47 7f
        E 460 92 47 00
        E 20 92 4e 7f
        E 940 92 4e 00
        E 20 92 4e 7f
        E 460 92 4e 00
        E 20 92 4c 7f
        E 940 92 4c 00
        E 20 92 47 7f
        E 460 92 47 00
        E 20 92 45 7f
        E 460 92 45 00
        E 20 92 47 7f
        E 460 92 47 00
        E 20 92 4a 7f
        E 2400 92 4a 00
        E 0 92 47 7f
        E 460 92 47 00
        E 20 92 45 7f
        E 460 92 45 00
        E 20 92 47 7f
        E 460 92 47 00
        E 20 92 4a 7f
        E 940 92 4a 00
        E 20 92 4c 7f
        E 460 92 4c 00
        E 60 92 47 7f
        E 440 92 45 7f
        E 20 92 47 00
        E 440 92 45 00
        E 20 92 47 7f
        E 460 92 47 00
        E 20 92 45 7f
        E 460 92 45 00
        E 20 92 47 7f
        E 460 92 47 00
        E 20 92 4a 7f
        E 2400 92 4a 00
        E 0 92 47 7f
        E 460 92 47 00
        E 20 92 45 7f
        E 460 92 45 00
        E 20 92 47 7f
        E 460 92 47 00
        E 20 92 4e 7f
        E 940 92 4e 00
        E 20 92 4e 7f
        E 460 92 4e 00
        E 20 92 4c 7f
        E 940 92 4c 00
        E 20 92 47 7f
        E 700 92 47 00
        E 20 92 45 7f
        E 700 92 45 00
        E 20 92 47 7f
        E 460 92 47 00
        E 20 92 4a 7f
        E 1840 92 4a 00
        E 80 92 47 7f
        E 460 92 47 00
        E 20 92 45 7f
        E 460 92 45 00
        E 20 92 47 7f
        E 460 92 47 00
        E 20 92 4a 7f
        E 940 92 4a 00
        E 20 92 4c 7f
        E 460 92 4c 00
        E 60 92 47 7f
        E 440 92 45 7f
        E 20 92 47 00
        E 440 92 45 00
        E 20 92 47 7f
        E 460 92 47 00
        E 20 92 45 7f
        E 460 92 45 00
        E 20 92 47 7f
        E 460 92 47 00
        E 20 92 4a 7f
        E 2400 92 4a 00
        E 0 92 47 7f
        E 460 92 47 00
        E 20 92 45 7f
        E 460 92 45 00
        E 20 92 47 7f
        E 460 92 47 00
        E 20 92 4e 7f
        E 940 92 4e 00
        E 20 92 4e 7f
        E 460 92 4e 00
        E 20 92 4c 7f
        E 940 92 4c 00
        E 20 92 47 7f
        E 460 92 47 00
        E 20 92 45 7f
        E 460 92 45 00
        E 20 92 47 7f
        E 460 92 47 00
        E 20 92 4a 7f
        E 2400 92 4a 00
        E 0 92 47 7f
        E 460 92 47 00
        E 20 92 45 7f
        E 460 92 45 00
        E 20 92 47 7f
        E 460 92 47 00
        E 20 92 4a 7f
        E 940 92 4a 00
        E 20 92 47 7f
        E 0 92 4c 7f
        E 460 92 47 00
        E 0 92 4c 00
        E 60 92 47 7f
        E 440 92 45 7f
        E 20 92 47 00
        E 440 92 45 00
        E 20 92 47 7f
        E 460 92 47 00
        E 20 92 45 7f
        E 460 92 45 00
        E 20 92 47 7f
        E 460 92 47 00
        E 20 92 4a 7f
        E 2400 92 4a 00
        E 0 92 47 7f
        E 460 92 47 00
        E 20 92 45 7f
        E 460 92 45 00
        E 20 92 47 7f
        E 460 92 47 00
        E 20 92 4e 7f
        E 940 92 4e 00
        E 20 92 4e 7f
        E 460 92 4e 00
        E 20 92 40 7f
        E 100 92 40 00
        E 20 92 42 7f
        E 100 92 42 00
        E 20 92 45 7f
        E 100 92 45 00
        E 20 92 47 7f
        E 100 92 47 00
        E 20 92 49 7f
        E 100 92 49 00
        E 20 92 4a 7f
        E 100 92 4a 00
        E 20 92 4c 7f
        E 100 92 4c 00
        E 20 92 4e 7f
        E 100 92 4e 00
        E 20 92 4a 7f
        E 460 92 4a 00
        E 20 92 48 7f
        E 460 92 48 00
        E 20 92 4a 7f
        E 460 92 4a 00
        E 20 92 4d 7f
        E 940 92 4d 00
        E 20 92 4c 7f
        E 240 92 4c 00
        E 0 92 48 7f
        E 240 92 48 00
        E 0 92 43 7f
        E 940 92 43 00
        E 20 92 4a 7f
        E 1840 92 4a 00
        E 1020 b0 7b 00
        CCINTERP 32
        CHASE_CC_TAKEOFFS 1
        GUID {274BD9B4-34B7-A94A-8B75-8EAC42071E2B}
        IGNTEMPO 0 120 4 4
        SRCCOLOR 136
        VELLANE -1 100 0
        CFGEDITVIEW 81538.922449 0.048301 42 12 0 -1 0 0 0 0.5
        KEYSNAP 0
        TRACKSEL 0
        EVTFILTER 0 -1 -1 -1 -1 0 0 0 0 -1 -1 -1 -1 0 -1 0 -1 -1
        CFGEDIT 1 1 0 1 0 0 1 1 1 1 1 0.5 375 204 1920 926 0 0 0 0 0 0 0 0 0 0.5 0 0 1 64
      >
    >
    <ITEM
      POSITION 34.66666666662786
      SNAPOFFS 0
      LENGTH 0.88888888888889
      LOOP 1
      ALLTAKES 0
      FADEIN 1 0 0 1 0 0 0
      FADEOUT 1 0 0 1 0 0 0
      MUTE 0 0
      SEL 0
      IGUID {496DDBA1-5C65-2842-AEE9-4CBA30E1A453}
      IID 58
      NAME "y ¨ÄñÎöº zfrom ûg½ for 88Pro Comp.ZUN             - th06_05.mid [chan 4]"
      VOLPAN 1 0 1 -1
      SOFFS 13.77777777777778 31
      PLAYRATE 1 1 0 -1 0 0.0025
      CHANMODE 0
      GUID {82237F8A-0D12-B142-A205-A7EA88BDBA22}
      <SOURCE MIDI
        HASDATA 1 960 QN
        CCINTERP 32
        POOLEDEVTS {259185A2-2C1D-0842-86B8-B9C53F35A291}
        E 20 93 40 7f
        E 460 93 40 00
        E 20 93 41 7f
        E 460 93 41 00
        E 20 93 45 7f
        E 1360 93 45 00
        E 80 93 45 7f
        E 460 93 45 00
        E 20 93 41 7f
        E 460 93 41 00
        E 20 93 45 7f
        E 460 93 45 00
        E 20 93 41 7f
        E 120 93 41 00
        E 0 93 45 7f
        E 120 93 41 7f
        E 240 93 40 7f
        E 100 93 45 00
        E 120 93 41 00
        E 240 93 40 00
        E 140 93 3e 7f
        E 2280 93 3e 00
        E 0 93 3e 7f
        E 460 93 3e 00
        E 20 93 41 7f
        E 460 93 41 00
        E 20 93 45 7f
        E 460 93 45 00
        E 20 93 4a 7f
        E 1360 93 4a 00
        E 80 93 4a 7f
        E 460 93 4a 00
        E 20 93 48 7f
        E 460 93 48 00
        E 20 93 4a 7f
        E 460 93 4a 00
        E 20 93 48 7f
        E 100 93 48 00
        E 20 93 4a 7f
        E 100 93 4a 00
        E 20 93 48 7f
        E 240 93 48 00
        E 0 93 43 7f
        E 460 93 43 00
        E 20 93 45 7f
        E 2840 93 45 00
        E 40 93 4c 7f
        E 940 93 4c 00
        E 20 93 4d 7f
        E 1360 93 4d 00
        E 80 93 4d 7f
        E 460 93 4d 00
        E 20 93 4c 7f
        E 460 93 4c 00
        E 20 93 4d 7f
        E 460 93 4d 00
        E 20 93 51 7f
        E 460 93 51 00
        E 20 93 4c 7f
        E 460 93 4c 00
        E 20 93 4f 7f
        E 460 93 4f 00
        E 20 93 4a 7f
        E 460 93 4a 00
        E 20 93 47 7f
        E 460 93 47 00
        E 20 93 4f 7f
        E 460 93 4f 00
        E 20 93 4a 7f
        E 460 93 4a 00
        E 20 93 47 7f
        E 460 93 47 00
        E 20 93 48 7f
        E 40 93 4c 7f
        E 440 93 48 00
        E 480 93 4d 7f
        E 20 93 4c 00
        E 440 93 4d 00
        E 20 93 4a 7f
        E 460 93 4a 00
        E 20 93 45 7f
        E 460 93 45 00
        E 60 93 4d 7f
        E 460 93 4d 00
        E 20 93 4c 7f
        E 440 93 48 7f
        E 20 93 4c 00
        E 440 93 48 00
        E 20 93 43 7f
        E 460 93 43 00
        E 60 93 4c 7f
        E 440 93 4c 00
        E 0 93 4c 7f
        E 1360 93 4c 00
        E 80 93 4a 7f
        E 460 93 4a 00
        E 500 93 3e 7f
        E 460 93 3e 00
        E 20 93 40 7f
        E 460 93 40 00
        E 20 93 41 7f
        E 460 83 41 00
        E 0 b0 7b 00
        CCINTERP 32
        CHASE_CC_TAKEOFFS 1
        GUID {F5860F99-1ADF-FD4C-8C10-5CDF2069D786}
        IGNTEMPO 0 120 4 4
        SRCCOLOR 166
        VELLANE -1 100 0
        CFGEDITVIEW 21026.570813 0.063496 37 12 0 -1 0 0 0 0.5
        KEYSNAP 0
        TRACKSEL 0
        EVTFILTER 0 -1 -1 -1 -1 0 0 0 0 -1 -1 -1 -1 0 -1 0 -1 -1
        CFGEDIT 1 1 0 1 0 0 1 1 1 1 1 0.5 375 204 1920 926 0 0 0 0 0 0 0 0 0 0.5 0 0 1 64
      >
    >
    <ITEM
      POSITION 35.55555555555556
      SNAPOFFS 0
      LENGTH 14.22222222222222
      LOOP 1
      ALLTAKES 0
      FADEIN 1 0 0 1 0 0 0
      FADEOUT 1 0 0 1 0 0 0
      MUTE 0 0
      SEL 0
      IGUID {802D9C19-9151-7848-BE0D-20F35ADC9A92}
      IID 50
      NAME "y ¨ÄñÎöº zfrom ûg½ for 88Pro Comp.ZUN             - th06_05.mid [chan 4]"
      VOLPAN 1 0 1 -1
      SOFFS 0.44444444444444 1
      PLAYRATE 1 1 0 -1 0 0.0025
      CHANMODE 0
      GUID {0BAEF823-A1BB-4440-BA44-A31D3C42F1B6}
      <SOURCE MIDI
        HASDATA 1 960 QN
        CCINTERP 32
        POOLEDEVTS {A9FD2D09-5824-594E-B67A-7720A479CB47}
        E 0 93 3e 00
        E 20 93 40 7f
        E 460 93 40 00
        E 20 93 41 7f
        E 460 93 41 00
        E 20 93 45 7f
        E 1360 93 45 00
        E 80 93 45 7f
        E 460 93 45 00
        E 20 93 41 7f
        E 460 93 41 00
        E 20 93 45 7f
        E 460 93 45 00
        E 20 93 41 7f
        E 120 93 41 00
        E 0 93 45 7f
        E 120 93 41 7f
        E 240 93 40 7f
        E 100 93 45 00
        E 120 93 41 00
        E 240 93 40 00
        E 140 93 3e 7f
        E 2280 93 3e 00
        E 0 93 3e 7f
        E 460 93 3e 00
        E 20 93 41 7f
        E 460 93 41 00
        E 20 93 45 7f
        E 460 93 45 00
        E 20 93 4a 7f
        E 1360 93 4a 00
        E 80 93 4a 7f
        E 460 93 4a 00
        E 20 93 48 7f
        E 460 93 48 00
        E 20 93 4a 7f
        E 460 93 4a 00
        E 20 93 48 7f
        E 100 93 48 00
        E 20 93 4a 7f
        E 100 93 4a 00
        E 20 93 48 7f
        E 240 93 48 00
        E 0 93 43 7f
        E 460 93 43 00
        E 20 93 45 7f
        E 2840 93 45 00
        E 40 93 4c 7f
        E 940 93 4c 00
        E 20 93 4d 7f
        E 1360 93 4d 00
        E 80 93 4d 7f
        E 460 93 4d 00
        E 20 93 4c 7f
        E 460 93 4c 00
        E 20 93 4d 7f
        E 460 93 4d 00
        E 20 93 51 7f
        E 460 93 51 00
        E 20 93 4c 7f
        E 460 93 4c 00
        E 20 93 4f 7f
        E 460 93 4f 00
        E 20 93 4a 7f
        E 460 93 4a 00
        E 20 93 47 7f
        E 460 93 47 00
        E 20 93 4f 7f
        E 460 93 4f 00
        E 20 93 4a 7f
        E 460 93 4a 00
        E 20 93 47 7f
        E 460 93 47 00
        E 20 93 48 7f
        E 40 93 4c 7f
        E 440 93 48 00
        E 480 93 4d 7f
        E 20 93 4c 00
        E 440 93 4d 00
        E 20 93 4a 7f
        E 460 93 4a 00
        E 20 93 45 7f
        E 460 93 45 00
        E 60 93 4d 7f
        E 460 93 4d 00
        E 20 93 4c 7f
        E 440 93 48 7f
        E 20 93 4c 00
        E 440 93 48 00
        E 20 93 43 7f
        E 460 93 43 00
        E 60 93 4c 7f
        E 440 93 4c 00
        E 0 93 4c 7f
        E 1360 93 4c 00
        E 80 93 4a 7f
        E 460 93 4a 00
        E 20 93 4a 7f
        E 460 93 4a 00
        E 20 93 3e 7f
        E 460 93 3e 00
        E 20 93 40 7f
        E 460 93 40 00
        E 20 93 41 7f
        E 460 83 41 00
        E 0 b0 7b 00
        CCINTERP 32
        CHASE_CC_TAKEOFFS 1
        GUID {E3BD7631-88F6-B344-B380-40825FF7B43A}
        IGNTEMPO 0 120 4 4
        SRCCOLOR 158
        VELLANE -1 100 0
        CFGEDITVIEW 0 0.005782 37 12 0 -1 0 0 0 0.5
        KEYSNAP 0
        TRACKSEL 0
        EVTFILTER 0 -1 -1 -1 -1 0 0 0 0 -1 -1 -1 -1 0 -1 0 -1 -1
        CFGEDIT 1 1 0 1 0 0 1 1 1 1 1 0.5 375 204 1920 926 0 0 0 0 0 0 0 0 0 0.5 0 0 1 64
      >
    >
    <ITEM
      POSITION 49.77777777777778
      SNAPOFFS 0
      LENGTH 14.22222222222222
      LOOP 1
      ALLTAKES 0
      FADEIN 1 0 0 1 0 0 0
      FADEOUT 1 0 0 1 0 0 0
      MUTE 0 0
      SEL 0
      IGUID {12BB3C8D-561A-D94B-BBCA-085ABE9D0760}
      IID 50
      NAME "y ¨ÄñÎöº zfrom ûg½ for 88Pro Comp.ZUN             - th06_05.mid [chan 4]"
      VOLPAN 1 0 1 -1
      SOFFS 0.44444444444444 1
      PLAYRATE 1 1 0 -1 0 0.0025
      CHANMODE 0
      GUID {ADAD1902-F8C3-1844-A340-85E28959D298}
      <SOURCE MIDI
        HASDATA 1 960 QN
        CCINTERP 32
        POOLEDEVTS {79425DBA-92A4-9145-AD72-1D22639AB0F9}
        E 0 93 3e 00
        E 20 93 40 7f
        E 460 93 40 00
        E 20 93 41 7f
        E 460 93 41 00
        E 20 93 45 7f
        E 1360 93 45 00
        E 80 93 45 7f
        E 460 93 45 00
        E 20 93 41 7f
        E 460 93 41 00
        E 20 93 45 7f
        E 460 93 45 00
        E 20 93 41 7f
        E 120 93 41 00
        E 0 93 45 7f
        E 120 93 41 7f
        E 240 93 40 7f
        E 100 93 45 00
        E 120 93 41 00
        E 240 93 40 00
        E 140 93 3e 7f
        E 2280 93 3e 00
        E 0 93 3e 7f
        E 460 93 3e 00
        E 20 93 41 7f
        E 460 93 41 00
        E 20 93 45 7f
        E 460 93 45 00
        E 20 93 4a 7f
        E 1360 93 4a 00
        E 80 93 4a 7f
        E 460 93 4a 00
        E 20 93 48 7f
        E 460 93 48 00
        E 20 93 4a 7f
        E 460 93 4a 00
        E 20 93 48 7f
        E 100 93 48 00
        E 20 93 4a 7f
        E 100 93 4a 00
        E 20 93 48 7f
        E 240 93 48 00
        E 0 93 43 7f
        E 460 93 43 00
        E 20 93 45 7f
        E 2840 93 45 00
        E 40 93 4c 7f
        E 940 93 4c 00
        E 20 93 4d 7f
        E 1360 93 4d 00
        E 80 93 4d 7f
        E 460 93 4d 00
        E 20 93 4c 7f
        E 460 93 4c 00
        E 20 93 4d 7f
        E 460 93 4d 00
        E 20 93 51 7f
        E 460 93 51 00
        E 20 93 4c 7f
        E 460 93 4c 00
        E 20 93 4f 7f
        E 460 93 4f 00
        E 20 93 4a 7f
        E 460 93 4a 00
        E 20 93 47 7f
        E 460 93 47 00
        E 20 93 4f 7f
        E 460 93 4f 00
        E 20 93 4a 7f
        E 460 93 4a 00
        E 20 93 47 7f
        E 460 93 47 00
        E 20 93 48 7f
        E 40 93 4c 7f
        E 440 93 48 00
        E 480 93 4d 7f
        E 20 93 4c 00
        E 440 93 4d 00
        E 20 93 4a 7f
        E 460 93 4a 00
        E 20 93 45 7f
        E 460 93 45 00
        E 60 93 4d 7f
        E 460 93 4d 00
        E 20 93 4c 7f
        E 440 93 48 7f
        E 20 93 4c 00
        E 440 93 48 00
        E 20 93 43 7f
        E 460 93 43 00
        E 60 93 4c 7f
        E 440 93 4c 00
        E 0 93 4c 7f
        E 1360 93 4c 00
        E 80 93 4a 7f
        E 460 93 4a 00
        E 20 93 4a 7f
        E 460 93 4a 00
        E 20 93 3e 7f
        E 460 93 3e 00
        E 20 93 40 7f
        E 460 93 40 00
        E 20 93 41 7f
        E 460 83 41 00
        E 0 b0 7b 00
        CCINTERP 32
        CHASE_CC_TAKEOFFS 1
        GUID {E3BD7631-88F6-B344-B380-40825FF7B43A}
        IGNTEMPO 0 120 4 4
        SRCCOLOR 158
        VELLANE -1 100 0
        CFGEDITVIEW 0 0.005782 37 12 0 -1 0 0 0 0.5
        KEYSNAP 0
        TRACKSEL 0
        EVTFILTER 0 -1 -1 -1 -1 0 0 0 0 -1 -1 -1 -1 0 -1 0 -1 -1
        CFGEDIT 1 1 0 1 0 0 1 1 1 1 1 0.5 375 204 1920 926 0 0 0 0 0 0 0 0 0 0.5 0 0 1 64
      >
    >
    <ITEM
      POSITION 64
      SNAPOFFS 0
      LENGTH 14.22222222222223
      LOOP 1
      ALLTAKES 0
      FADEIN 1 0 0 1 0 0 0
      FADEOUT 1 0 0 1 0 0 0
      MUTE 0 0
      SEL 0
      IGUID {7649B30B-2D4E-D041-8CDF-F04DDC3385EB}
      IID 50
      NAME "y ¨ÄñÎöº zfrom ûg½ for 88Pro Comp.ZUN             - th06_05.mid [chan 4]"
      VOLPAN 1 0 1 -1
      SOFFS 0.44444444444444 1
      PLAYRATE 1 1 0 -1 0 0.0025
      CHANMODE 0
      GUID {90577A28-3198-894A-97BC-6C804DB4DB2C}
      <SOURCE MIDI
        HASDATA 1 960 QN
        CCINTERP 32
        POOLEDEVTS {D0BBDF69-96D2-6340-B9F4-FD196D1783FA}
        E 0 93 3e 00
        E 20 93 40 7f
        E 460 93 40 00
        E 20 93 41 7f
        E 460 93 41 00
        E 20 93 45 7f
        E 1360 93 45 00
        E 80 93 45 7f
        E 460 93 45 00
        E 20 93 41 7f
        E 460 93 41 00
        E 20 93 45 7f
        E 460 93 45 00
        E 20 93 41 7f
        E 120 93 41 00
        E 0 93 45 7f
        E 120 93 41 7f
        E 240 93 40 7f
        E 100 93 45 00
        E 120 93 41 00
        E 240 93 40 00
        E 140 93 3e 7f
        E 2280 93 3e 00
        E 0 93 3e 7f
        E 460 93 3e 00
        E 20 93 41 7f
        E 460 93 41 00
        E 20 93 45 7f
        E 460 93 45 00
        E 20 93 4a 7f
        E 1360 93 4a 00
        E 80 93 4a 7f
        E 460 93 4a 00
        E 20 93 48 7f
        E 460 93 48 00
        E 20 93 4a 7f
        E 460 93 4a 00
        E 20 93 48 7f
        E 100 93 48 00
        E 20 93 4a 7f
        E 100 93 4a 00
        E 20 93 48 7f
        E 240 93 48 00
        E 0 93 43 7f
        E 460 93 43 00
        E 20 93 45 7f
        E 2840 93 45 00
        E 40 93 4c 7f
        E 940 93 4c 00
        E 20 93 4d 7f
        E 1360 93 4d 00
        E 80 93 4d 7f
        E 460 93 4d 00
        E 20 93 4c 7f
        E 460 93 4c 00
        E 20 93 4d 7f
        E 460 93 4d 00
        E 20 93 51 7f
        E 460 93 51 00
        E 20 93 4c 7f
        E 460 93 4c 00
        E 20 93 4f 7f
        E 460 93 4f 00
        E 20 93 4a 7f
        E 460 93 4a 00
        E 20 93 47 7f
        E 460 93 47 00
        E 20 93 4f 7f
        E 460 93 4f 00
        E 20 93 4a 7f
        E 460 93 4a 00
        E 20 93 47 7f
        E 460 93 47 00
        E 20 93 48 7f
        E 40 93 4c 7f
        E 440 93 48 00
        E 480 93 4d 7f
        E 20 93 4c 00
        E 440 93 4d 00
        E 20 93 4a 7f
        E 460 93 4a 00
        E 20 93 45 7f
        E 460 93 45 00
        E 60 93 4d 7f
        E 460 93 4d 00
        E 20 93 4c 7f
        E 440 93 48 7f
        E 20 93 4c 00
        E 440 93 48 00
        E 20 93 43 7f
        E 460 93 43 00
        E 60 93 4c 7f
        E 440 93 4c 00
        E 0 93 4c 7f
        E 1360 93 4c 00
        E 80 93 4a 7f
        E 460 93 4a 00
        E 20 93 4a 7f
        E 460 93 4a 00
        E 20 93 3e 7f
        E 460 93 3e 00
        E 20 93 40 7f
        E 460 93 40 00
        E 20 93 41 7f
        E 460 83 41 00
        E 0 b0 7b 00
        CCINTERP 32
        CHASE_CC_TAKEOFFS 1
        GUID {E3BD7631-88F6-B344-B380-40825FF7B43A}
        IGNTEMPO 0 120 4 4
        SRCCOLOR 158
        VELLANE -1 100 0
        CFGEDITVIEW 0 0.005782 37 12 0 -1 0 0 0 0.5
        KEYSNAP 0
        TRACKSEL 0
        EVTFILTER 0 -1 -1 -1 -1 0 0 0 0 -1 -1 -1 -1 0 -1 0 -1 -1
        CFGEDIT 1 1 0 1 0 0 1 1 1 1 1 0.5 375 204 1920 926 0 0 0 0 0 0 0 0 0 0.5 0 0 1 64
      >
    >
    <ITEM
      POSITION 78.22222222222223
      SNAPOFFS 0
      LENGTH 14.22222222222221
      LOOP 1
      ALLTAKES 0
      FADEIN 1 0 0 1 0 0 0
      FADEOUT 1 0 0 1 0 0 0
      MUTE 0 0
      SEL 0
      IGUID {50459804-38AD-554D-9BF4-61F4D1EC8C67}
      IID 45
      NAME "y ¨ÄñÎöº zfrom ûg½ for 88Pro Comp.ZUN             - th06_05.mid [chan 4]"
      VOLPAN 1 0 1 -1
      SOFFS 14.66666666666667 33
      PLAYRATE 1 1 0 -1 0 0.0025
      CHANMODE 0
      GUID {EC2828E0-9D9A-7B4C-B563-3C0106182858}
      <SOURCE MIDI
        HASDATA 1 960 QN
        CCINTERP 32
        POOLEDEVTS {2DADFEAE-613F-A94A-80B7-B0D24E3290AE}
        E 0 93 3e 00
        E 20 93 40 7f
        E 460 93 40 00
        E 20 93 41 7f
        E 460 93 41 00
        E 20 93 45 7f
        E 1360 93 45 00
        E 80 93 45 7f
        E 460 93 45 00
        E 20 93 41 7f
        E 460 93 41 00
        E 20 93 45 7f
        E 460 93 45 00
        E 20 93 41 7f
        E 120 93 41 00
        E 0 93 45 7f
        E 120 93 41 7f
        E 240 93 40 7f
        E 100 93 45 00
        E 120 93 41 00
        E 240 93 40 00
        E 140 93 3e 7f
        E 2280 93 3e 00
        E 0 93 3e 7f
        E 460 93 3e 00
        E 20 93 41 7f
        E 460 93 41 00
        E 20 93 45 7f
        E 460 93 45 00
        E 20 93 4a 7f
        E 1360 93 4a 00
        E 80 93 4a 7f
        E 460 93 4a 00
        E 20 93 48 7f
        E 460 93 48 00
        E 20 93 4a 7f
        E 460 93 4a 00
        E 20 93 48 7f
        E 100 93 48 00
        E 20 93 4a 7f
        E 100 93 4a 00
        E 20 93 48 7f
        E 240 93 48 00
        E 0 93 43 7f
        E 460 93 43 00
        E 20 93 45 7f
        E 2840 93 45 00
        E 40 93 4c 7f
        E 940 93 4c 00
        E 20 93 4d 7f
        E 1360 93 4d 00
        E 80 93 4d 7f
        E 460 93 4d 00
        E 20 93 4c 7f
        E 460 93 4c 00
        E 20 93 4d 7f
        E 460 93 4d 00
        E 20 93 51 7f
        E 460 93 51 00
        E 20 93 4c 7f
        E 460 93 4c 00
        E 20 93 4f 7f
        E 460 93 4f 00
        E 20 93 4a 7f
        E 460 93 4a 00
        E 20 93 47 7f
        E 460 93 47 00
        E 20 93 4f 7f
        E 460 93 4f 00
        E 20 93 4a 7f
        E 460 93 4a 00
        E 20 93 47 7f
        E 460 93 47 00
        E 20 93 48 7f
        E 40 93 4c 7f
        E 440 93 48 00
        E 480 93 4d 7f
        E 20 93 4c 00
        E 440 93 4d 00
        E 20 93 4a 7f
        E 460 93 4a 00
        E 20 93 45 7f
        E 460 93 45 00
        E 60 93 4d 7f
        E 460 93 4d 00
        E 20 93 4c 7f
        E 440 93 48 7f
        E 20 93 4c 00
        E 440 93 48 00
        E 20 93 43 7f
        E 460 93 43 00
        E 60 93 4c 7f
        E 440 93 4c 00
        E 0 93 4c 7f
        E 1360 93 4c 00
        E 80 93 4a 7f
        E 460 93 4a 00
        E 20 93 4a 7f
        E 460 93 4a 00
        E 20 93 3e 7f
        E 460 93 3e 00
        E 20 93 40 7f
        E 460 93 40 00
        E 20 93 41 7f
        E 460 93 41 00
        E 20 93 45 7f
        E 1360 93 45 00
        E 80 93 45 7f
        E 460 93 45 00
        E 20 93 41 7f
        E 460 93 41 00
        E 20 93 45 7f
        E 460 93 45 00
        E 20 93 41 7f
        E 120 93 41 00
        E 0 93 45 7f
        E 120 93 41 7f
        E 240 93 40 7f
        E 100 93 45 00
        E 120 93 41 00
        E 240 93 40 00
        E 20 93 41 7f
        E 120 93 3e 7f
        E 340 93 41 00
        E 1940 93 3e 00
        E 0 93 3e 7f
        E 460 93 3e 00
        E 20 93 41 7f
        E 460 93 41 00
        E 20 93 45 7f
        E 460 93 45 00
        E 20 93 4a 7f
        E 1360 93 4a 00
        E 80 93 4a 7f
        E 460 93 4a 00
        E 20 93 48 7f
        E 460 93 48 00
        E 20 93 4a 7f
        E 460 93 4a 00
        E 20 93 48 7f
        E 100 93 48 00
        E 20 93 4a 7f
        E 100 93 4a 00
        E 20 93 48 7f
        E 240 93 48 00
        E 0 93 43 7f
        E 460 93 43 00
        E 20 93 45 7f
        E 2840 93 45 00
        E 40 93 4c 7f
        E 940 93 4c 00
        E 20 93 4d 7f
        E 1360 93 4d 00
        E 80 93 4d 7f
        E 460 93 4d 00
        E 20 93 4c 7f
        E 460 93 4c 00
        E 20 93 4d 7f
        E 460 93 4d 00
        E 20 93 51 7f
        E 460 93 51 00
        E 20 93 4c 7f
        E 460 93 4c 00
        E 20 93 4f 7f
        E 460 93 4f 00
        E 20 93 4a 7f
        E 460 93 4a 00
        E 20 93 47 7f
        E 460 93 47 00
        E 20 93 4f 7f
        E 460 93 4f 00
        E 20 93 4a 7f
        E 460 93 4a 00
        E 20 93 47 7f
        E 460 93 47 00
        E 20 93 48 7f
        E 480 93 48 00
        E 480 93 4c 7f
        E 60 93 4c 00
        E 0 93 4d 7f
        E 420 93 4a 7f
        E 40 93 4d 00
        E 420 93 4a 00
        E 20 93 45 7f
        E 460 93 45 00
        E 60 93 4d 7f
        E 440 93 4c 7f
        E 20 93 4d 00
        E 440 93 4c 00
        E 60 93 48 7f
        E 460 93 48 00
        E 20 93 43 7f
        E 460 93 43 00
        E 20 93 4c 7f
        E 440 93 4c 00
        E 0 93 4c 7f
        E 1360 93 4c 00
        E 80 93 4a 7f
        E 1360 93 4a 00
        E 80 93 51 7f
        E 940 83 51 00
        E 0 b0 7b 00
        CCINTERP 32
        CHASE_CC_TAKEOFFS 1
        GUID {B450BC0F-8EA7-2A46-9FEA-8F034BFA4C1A}
        IGNTEMPO 0 120 4 4
        SRCCOLOR 153
        VELLANE -1 100 0
        CFGEDITVIEW 0 0.005782 37 12 0 -1 0 0 0 0.5
        KEYSNAP 0
        TRACKSEL 0
        EVTFILTER 0 -1 -1 -1 -1 0 0 0 0 -1 -1 -1 -1 0 -1 0 -1 -1
        CFGEDIT 1 1 0 1 0 0 1 1 1 1 1 0.5 375 204 1920 926 0 0 0 0 0 0 0 0 0 0.5 0 0 1 64
      >
    >
    <ITEM
      POSITION 92.44444444444444
      SNAPOFFS 0
      LENGTH 5.33333333333333
      LOOP 1
      ALLTAKES 0
      FADEIN 1 0 0 1 0 0 0
      FADEOUT 1 0 0 1 0 0 0
      MUTE 0 0
      SEL 0
      IGUID {8BC9B6D9-868C-EE48-BCE5-04BD896E0C71}
      IID 44
      NAME "y ¨ÄñÎöº zfrom ûg½ for 88Pro Comp.ZUN             - th06_05.mid [chan 4]"
      VOLPAN 1 0 1 -1
      SOFFS 0 0
      PLAYRATE 1 1 0 -1 0 0.0025
      CHANMODE 0
      GUID {0F2A4EDC-ABC6-BB4F-AACA-C4EB3355D770}
      <SOURCE MIDI
        HASDATA 1 960 QN
        CCINTERP 32
        POOLEDEVTS {932A29FF-B197-CC43-BB07-2A04C4E71D63}
        E 0 93 51 00
        E 20 93 51 7f
        E 460 93 51 00
        E 20 93 4d 7f
        E 460 93 4d 00
        E 20 93 4a 7f
        E 460 93 4a 00
        E 60 93 51 7f
        E 440 93 4f 7f
        E 20 93 51 00
        E 440 93 4f 00
        E 60 93 4c 7f
        E 460 93 4c 00
        E 20 93 48 7f
        E 460 93 48 00
        E 20 93 4f 7f
        E 440 93 4f 00
        E 0 93 4f 7f
        E 1360 93 4f 00
        E 80 93 51 7f
        E 460 93 51 00
        E 20 93 4d 7f
        E 1360 93 4d 00
        E 80 93 51 7f
        E 460 93 51 00
        E 20 93 51 7f
        E 460 93 51 00
        E 20 93 4d 7f
        E 460 93 4d 00
        E 20 93 4a 7f
        E 460 93 4a 00
        E 60 93 51 7f
        E 440 93 54 7f
        E 20 93 51 00
        E 440 93 54 00
        E 60 93 4f 7f
        E 460 93 4f 00
        E 20 93 4c 7f
        E 460 93 4c 00
        E 20 93 54 7f
        E 420 83 54 00
        E 0 b0 7b 00
        CCINTERP 32
        CHASE_CC_TAKEOFFS 1
        GUID {63C47016-6A2E-474A-BF03-1F5BFD79CCBA}
        IGNTEMPO 0 120 4 4
        SRCCOLOR 152
        VELLANE -1 100 0
        CFGEDITVIEW 0 0.005782 37 12 0 -1 0 0 0 0.5
        KEYSNAP 0
        TRACKSEL 0
        EVTFILTER 0 -1 -1 -1 -1 0 0 0 0 -1 -1 -1 -1 0 -1 0 -1 -1
        CFGEDIT 1 1 0 1 0 0 1 1 1 1 1 0.5 375 204 1920 926 0 0 0 0 0 0 0 0 0 0.5 0 0 1 64
      >
    >
  >
>
